<?xml version="1.0" encoding="utf-8"?>
<!-- Generator: Adobe Illustrator 24.0.3, SVG Export Plug-In . SVG Version: 6.00 Build 0)  -->
<svg version="1.1" xmlns="http://www.w3.org/2000/svg" xmlns:xlink="http://www.w3.org/1999/xlink" x="0px" y="0px"
	 viewBox="0 0 288 288" style="enable-background:new 0 0 288 288;" xml:space="preserve">
<style type="text/css">
	.st0{opacity:0.62;enable-background:new    ;}
	.st1{opacity:0.35;}
	.st2{display:none;}
	.st3{display:inline;}
</style>
<g id="medium_1_">
	<g id="medium">
		<g>
			<path class="st0" d="M142,271.2c-1-0.9-3.7-3.9-4.4-4.7c-2.1-3-4.2-5.9-6.3-8.9c-3.2-4.4-6.4-8.7-9.6-13.1
				c-4.1-5.6-8.1-11.1-12.2-16.7c-4.3-5.9-8.5-11.8-12.8-17.6c-4.3-5.8-8.5-11.7-12.8-17.5c-3.3-4.5-6.6-9.1-9.9-13.6
				c-4-5.5-8.1-10.9-12.1-16.4c-0.5-0.7-1.1-1.4-1.6-2.2c-0.2-0.3-0.4-0.7-0.5-1.1c-0.7-5-1.5-10-2.1-15c-0.4-3.1-0.7-6.1-1.1-9.2
				c-0.1-0.4-0.1-0.8-0.2-1.2c-0.2-0.6,0.1-1,0.4-1.5c2.6-3.4,5.1-6.8,7.7-10.2c6.1-8.1,12.2-16.2,18.4-24.3
				c3.8-5,7.6-10.1,11.4-15.1c4.3-5.7,8.7-11.4,13-17.1c4.6-6.1,9.2-12.3,13.9-18.4c4.3-5.7,8.6-11.4,13-17.1
				c3.2-4.2,6.3-8.4,9.5-12.6c0.2-0.3,0.4-0.6,0.7-0.9c0.2,0.2,0.3,0.4,0.5,0.6c5.2,7.1,10.5,14.2,15.7,21.3
				c6.7,9.2,13.5,18.4,20.2,27.6c3.1,4.2,6.1,8.4,9.3,12.6c7.1,9.6,14.1,19.2,21.2,28.9c5.6,7.6,11.1,15.1,16.7,22.7
				c0.3,0.4,0.5,0.7,0.8,1.1c0.2,0.2,0.4,0.4,0.5,0.5c0.1,0.1,0.2,0.1,0.2,0.2c0.3,1.2,1.2,1.9,1.9,2.9c0.3,0.4,0.4,0.9,0.4,1.3
				c-0.2,3.8-0.5,7.5-0.7,11.3c-0.2,2.4-0.3,4.8-0.5,7.2c0,0.4-0.2,0.7-0.3,1c-2.5,4.5-4.9,9.1-7.4,13.6c-0.3,0.5-0.7,1.1-1.1,1.6
				c-1.9,2.5-3.9,5-5.8,7.5c-5.4,7.1-10.8,14.2-16.3,21.2c-8.4,10.9-16.9,21.9-25.3,32.8c-4.6,5.9-9.1,11.9-13.7,17.8
				c-3.3,4.3-6.7,8.6-10,13c-1.3,1.7-2.5,3.4-3.6,5.1c-0.4,0.6-0.7,1.5-1.4,2.8C143.5,271.2,144,271.2,142,271.2z M205.2,157.8
				c0,0.1-0.1,0.2-0.1,0.3c-1.9,3.6-3.9,7.3-5.8,10.9c-3.3,6.2-6.6,12.4-9.9,18.6c-1.7,3.3-3.4,6.6-5.1,9.9c-1,1.9-2,3.7-3,5.5
				c-2.2,4.1-4.3,8.2-6.5,12.3c-4,7.6-8,15.2-12,22.8c-2.9,5.5-5.7,11-8.6,16.5c-0.2,0.3-0.4,0.7-0.6,1.1c0.6-0.5,64.2-88.2,64.5-89
				c-0.2-0.2-0.5-0.5-0.8-0.8c-2.6-2.5-5.1-4.9-7.6-7.4c-0.5-0.5-1-0.7-1.7-0.7C207.1,157.9,206.2,157.8,205.2,157.8
				c0.1-0.1,0.2-0.2,0.3-0.3c0.9-0.6,1.7-1.3,2.6-1.9c0.2-0.1,0.3-0.2,0.4-0.4c-0.2-0.2-0.4-0.4-0.6-0.6
				c-5.4-4.5-10.8-9.1-16.1-13.6c-0.2-0.2-0.4-0.4-0.5-0.6c-0.2-0.6-0.3-1.2-0.4-1.8c0-0.2,0-0.4,0-0.6c0.2,0.1,0.2,0.1,0.3,0.1
				c2,1.6,4,3.2,6,4.8c2.6,2.2,5.2,4.4,7.8,6.6c0.2,0.2,0.5,0.4,0.7,0.5c0-0.3-0.1-0.4-0.2-0.6c-1.6-3.4-3.3-6.9-5-10.3
				c-2.8-5.9-5.6-11.9-8.5-17.8c-3.4-7.2-6.8-14.4-10.3-21.6c-1.9-3.9-3.8-7.9-5.7-11.8c-2.3-4.8-4.7-9.7-7-14.6
				c-1.3-2.8-2.7-5.6-4-8.3c-1.9-4-3.8-7.9-5.7-11.8c-0.7-1.4-1.4-2.8-2.1-4.2c-0.9-1.9-1.8-3.8-2.7-5.7c-0.9-1.8-1.8-3.5-2.6-5.3
				c-0.6-1.4-1.4-2.7-2.4-3.8c-0.6-0.7-1.5-1.2-2.3-1.7c-0.2-0.1-0.5-0.1-0.8-0.2c0.1,0.4,0.1,0.7,0.2,1c1.1,5.4,2.2,10.8,3.3,16.2
				c1.9,9.2,3.8,18.4,5.6,27.7c2.2,11,4.4,21.9,6.6,32.9c2.2,10.7,4.3,21.3,6.5,32c0.6,3.1,1.2,6.2,1.9,9.3c0.3,1.7,0.7,3.3,1,5
				c0,0.1,0.1,0.2,0.2,0.3c0.2-0.1,0.4-0.2,0.7-0.3c0.9,0.9,1.7,1.7,2.5,2.6c2.7,3.1,5.4,6.2,8.1,9.3c0.2,0.2,0.3,0.4,0.5,0.5
				c0.7,0.3,1.4,0.6,2,1c0.8,0.4,1.6,0.5,2.4,0.4c0.2,0,0.4-0.1,0.5-0.2c1-0.9,1.9-1.8,2.7-2.9c0.2-0.2,0.3-0.5,0.3-0.7
				c0.3-1.3,0.6-2.7,0.5-4c0-0.6,0-1.3,0.1-1.9c0-0.6,0.5-1.2,1.1-1.2c1.1-0.2,1.2-0.2,1.7,0.5c0.2,0.3,0.5,0.6,0.7,0.9
				c0.3,0.3,0.5,0.4,1,0.2c0.9-0.3,1.7-0.7,2.4-1.4c0.5-0.5,1.1-0.8,1.8-0.9c1-0.2,1.9-0.4,3-0.5
				C204.2,157.9,204.7,157.8,205.2,157.8z M151.2,138.6c-0.1-2.3-0.2-4.7-0.4-7.1c-0.2-3.8-0.4-7.6-0.6-11.4
				c-0.2-4.9-0.5-9.7-0.7-14.6c-0.2-3.4-0.3-6.9-0.5-10.4c-0.2-4.4-0.5-8.8-0.7-13.2c-0.1-2.4-0.2-4.9-0.4-7.3
				c-0.2-3.2-0.4-6.5-0.5-9.7c-0.1-2.3-0.2-4.7-0.3-7c-0.2-3.6-0.4-7.2-0.5-10.7c-0.2-3.1-0.3-6.2-0.4-9.3c-0.1-1.7-0.1-3.4-0.2-5.1
				c-0.1-0.7-0.2-1.4-0.4-2.2c-0.1-0.5-0.5-0.6-0.9-0.3c-0.7,0.7-1.4,1.4-1.6,2.5c-0.2,1.9-0.5,3.8-0.7,5.6c-0.2,2-0.5,4-0.7,6.1
				c-0.2,1.6-0.4,3.1-0.6,4.7c-0.3,2.2-0.5,4.4-0.8,6.7c-0.5,4.1-1.1,8.3-1.6,12.5c-0.5,3.8-0.9,7.6-1.4,11.4
				c-0.4,3.4-0.9,6.8-1.3,10.3c-0.5,4.6-1.1,9.2-1.6,13.8c-0.5,3.8-0.9,7.5-1.4,11.3c-0.5,4.3-1,8.5-1.5,12.8
				c-0.5,4.6-1.2,9.2-1.7,13.9c-0.4,3.3-0.8,6.5-1.2,9.8c-0.1,1-0.2,2-0.3,3c0,0.2,0.1,0.3,0.1,0.6
				C136,149.8,143.5,144.1,151.2,138.6z M159.2,45.1c-0.1,0.1-0.2,0.1-0.2,0.2c0.2,0.4,0.3,0.9,0.5,1.2c1.4,3,2.8,5.9,4.2,8.9
				c3.6,7.4,7.1,14.8,10.7,22.3c3.3,6.9,6.6,13.9,10,20.8c3.1,6.4,6.1,12.8,9.2,19.1c2,4.2,4.1,8.5,6.1,12.7
				c1.4,2.9,2.7,5.9,4.2,8.8c1.9,3.9,3.9,7.8,5.8,11.7c0.1,0.3,0.3,0.5,0.5,0.9c1.1-0.5,2-0.8,2.8-1.7c3-3.7,6.1-7.4,9.2-11.1
				c0.1-0.2,0.2-0.3,0.3-0.5c-5.4-1.1-10.6-2.2-15.9-3.1c-0.2-0.7-0.4-1.2-0.3-1.9c0.2,0,0.4,0,0.5,0c1,0.2,1.9,0.3,2.9,0.5
				c4.5,0.8,9,1.6,13.4,2.5c1.1,0.2,1.1,0.2,1.7-0.7c0.1-0.1,0.1-0.2,0.2-0.3c-0.2-0.2-0.3-0.4-0.4-0.5c-2.9-4-5.8-7.9-8.7-11.9
				c-2.3-3.2-4.6-6.5-6.8-9.7c-5.5-7.8-11.1-15.6-16.7-23.3c-3.5-4.9-7.2-9.8-10.7-14.7c-2.3-3.1-4.5-6.1-6.7-9.2
				c-1.2-1.6-2.4-3.3-3.6-5c-0.9-1.3-1.9-2.6-2.8-3.8c-1.8-2.4-3.6-4.8-5.4-7.2c-1-1.4-2.1-2.7-3.1-4
				C159.7,45.5,159.5,45.3,159.2,45.1z M149.9,256.1c0.1,0,0.1,0,0.2,0.1c0.3-0.6,0.6-1.3,0.9-1.9c3.8-8.3,7.6-16.5,11.4-24.8
				c3.3-7.2,6.6-14.5,10-21.7c4.7-10.2,9.3-20.3,13.9-30.5c0.2-0.5,0.2-0.9-0.2-1.3c-4.5-5-9-10-13.4-14.9c-0.2-0.3-0.5-0.5-0.8-0.8
				c-0.1-0.1-0.3-0.2-0.5-0.3C164.2,192,157.1,224,149.9,256.1z M87.2,152.5c0.2-0.4,0.3-0.6,0.4-0.8c0.3-0.6,0.5-1.2,0.8-1.8
				c3.9-9,7.8-18.1,11.6-27.1c6.1-14.3,12.2-28.6,18.3-42.8c2.8-6.5,5.6-13.1,8.4-19.7c0.9-2,1.7-4.1,2.6-6.1
				c0.1-0.2,0.3-0.5,0.1-0.9c-0.3,0.3-0.6,0.6-0.9,0.9c-0.6,0.8-1.2,1.6-1.7,2.3c-1.3,1.9-2.5,3.9-3.8,5.8c-2.3,3.7-4.7,7.3-7,11
				c-2.4,3.7-4.7,7.4-7.1,11.1c-1.3,2-2.6,4.1-3.8,6.1c-2,3.2-4,6.3-6,9.5c-1.5,2.4-3,4.9-4.5,7.3c-1.3,2.1-2.6,4.2-3.9,6.3
				c-1.5,2.4-2.9,4.8-4.4,7.2c-1.4,2.2-2.8,4.4-4.1,6.6c-1.4,2.3-2.8,4.6-4.3,6.9c-0.7,1.1-1.4,2.2-2.1,3.3
				c-0.3,0.5-0.3,0.6,0.1,1.1c0.6,0.7,1.2,1.5,1.8,2.2c2.9,3.5,5.7,7.1,8.6,10.6C86.6,151.8,86.9,152.1,87.2,152.5z M131.8,54.8
				c-0.1,0-0.1,0-0.2-0.1c-0.1,0.1-0.2,0.2-0.3,0.4c-0.7,1.4-1.4,2.8-2.1,4.2c-0.7,1.5-1.3,3.1-2,4.6c-0.8,1.8-1.6,3.5-2.3,5.3
				c-0.8,1.8-1.5,3.6-2.3,5.4c-1.3,3-2.6,6-3.9,9c-1.1,2.5-2.1,5-3.1,7.5c-1.9,4.4-3.7,8.8-5.6,13.3c-0.9,2.1-1.7,4.2-2.6,6.4
				c-1.3,3.1-2.6,6.1-3.9,9.2c-1,2.3-2,4.7-3,7.1c-1.6,3.8-3.2,7.5-4.7,11.3c-1,2.4-2,4.8-3,7.2c-0.7,1.8-1.4,3.5-2.2,5.3
				c-0.1,0.2-0.3,0.5-0.1,0.9c0.4-0.3,0.7-0.6,1-0.9c2.4-2.1,4.8-4.3,7.2-6.4c2.6-2.3,5.1-4.5,7.7-6.8c0.3-0.2,0.4-0.5,0.5-0.8
				c2.1-6.8,4.2-13.7,6.2-20.5c2.7-9,5.5-18.1,8.2-27.2c3.1-10.4,6.3-20.8,9.4-31.2c0.3-0.9,0.5-1.7,0.7-2.6
				C131.9,55.2,131.8,55,131.8,54.8z M168.5,156.5c-0.6-0.5-1-0.9-1.5-1.3c-2.1-1.9-4.3-3.9-6.4-5.8c-2.2-1.9-4.3-3.9-6.5-5.8
				c-0.6-0.5-1.1-1-1.7-1.5c-0.6-0.5-0.8-0.5-1.4-0.1c-0.3,0.2-0.6,0.4-0.9,0.5c-2.3,1.6-4.6,3.2-6.9,4.8c-3.9,2.7-7.8,5.4-11.8,8.2
				c-0.2,0.1-0.3,0.3-0.6,0.5c0.4,0.1,0.6,0.1,0.8,0.1c1.6,0.1,3.2,0.2,4.8,0.3c3.7,0.2,7.4,0.5,11.1,0.6c6.7,0.3,13.4,0.2,20.1-0.4
				C167.8,156.6,168.1,156.5,168.5,156.5z M64.4,143.8c0.2-0.2,0.3-0.2,0.4-0.4c18-27.8,35.9-55.6,53.6-83.6
				c0.1-0.1,0.1-0.2,0.2-0.3c-0.2,0.1-0.4,0.2-0.6,0.4c-0.4,0.5-0.8,1-1.2,1.5c-2,2.7-4,5.4-6,8.1c-1.8,2.4-3.6,4.8-5.4,7.3
				c-3.2,4.4-6.3,8.7-9.4,13.1c-3,4.3-6.1,8.5-9.1,12.8c-1.8,2.5-3.5,5-5.2,7.5c-0.9,1.4-1.9,2.7-2.8,4.1c-1.4,2-2.7,4-4.1,5.9
				c-1,1.5-2.1,3-3.2,4.4c-1,1.4-2,2.9-3,4.3c-1.6,2.2-3.2,4.5-4.8,6.7c-0.4,0.5-0.5,1-0.4,1.6c0.3,1.8,0.5,3.7,0.8,5.5
				C64.1,143.1,64.3,143.4,64.4,143.8z M103.5,154.2c0,0,0,0.1,0,0.1c0.3,0,0.6,0.1,1,0.1c2.5,0,5,0,7.5,0c1.9,0,3.7,0.1,5.6,0.6
				c0.3,0.1,0.6,0.2,0.8,0.3c0.2,0.4,0.4,0.8,0.5,1.3c0.1,0.3-0.1,0.6-0.4,0.8c-0.4,0.4-0.9,0.6-1.5,0.6c-0.9,0-1.7,0.1-2.6,0.1
				c-2.7-0.1-5.4-0.1-8.1-0.3c-2.3-0.1-4.6-0.3-6.8-0.5c-1.6-0.2-3.1-0.5-4.6-0.7c-0.4-0.1-0.9-0.1-1.5-0.1c0.2,0.4,0.4,0.5,0.5,0.7
				c0.9,1.2,1.9,2.3,2.9,3.5c3,3.6,5.9,7.2,8.9,10.8c0.2,0.2,0.4,0.4,0.6,0.6c5.7-4.8,11.9-8.9,17.8-13.5c-0.2-0.2-0.2-0.4-0.4-0.5
				c-1.5-1.7-3-3.3-4.6-5c-0.7-0.8-1.4-1.5-2.1-2.3c-0.6-0.7-0.9-0.7-1.7-0.3c-0.1,0-0.1,0.1-0.2,0.1c-0.9,0.5-1.8,0.6-2.8,0.7
				c-0.9,0-1.7,0.1-2.6,0.2c-1.2,0.1-2.3,0.5-3.3,1.1c-0.9,0.5-1.7,1-2.6,1.5C103.7,154.1,103.6,154.1,103.5,154.2z M134.6,243.3
				c0,0,0.1,0,0.1-0.1c-0.4-0.9-0.7-1.8-1.1-2.6c-2.9-7-5.8-13.9-8.6-20.9c-1.7-4-3.3-8.1-5-12.1c-4.2-10.2-8.5-20.5-12.7-30.7
				c-0.2-0.4-0.4-0.8-0.7-1.1c-2.6-3-5.3-6-8-9c-1.4-1.6-2.9-3.2-4.4-4.8c-0.2-0.2-0.3-0.5-0.8-0.5c0.2,0.4,0.3,0.8,0.5,1.1
				c1.8,3.5,3.5,7,5.3,10.5c1.2,2.4,2.3,4.8,3.5,7.2c0.9,1.8,1.9,3.5,2.7,5.2c1.3,2.5,2.5,5,3.7,7.5c3,5.9,5.9,11.8,8.8,17.6
				c2,3.9,4,7.8,5.9,11.7c3.1,6.2,6.3,12.5,9.4,18.7C133.8,241.8,134.2,242.5,134.6,243.3z M149.1,178.4c0.3-0.3,0.6-0.5,0.8-0.8
				c3.1-2.9,6.2-5.9,9.3-8.8c2.6-2.5,5.2-5,7.9-7.5c0.2-0.2,0.3-0.4,0.5-0.6c-0.4-0.1-0.7,0-1.1,0.1c-1.2,0.2-2.3,0.5-3.5,0.5
				c-2.6,0.1-5.3,0.2-7.9,0.2c-2,0-3.8,0.6-5.2,2.1c-0.2,0.2-0.5,0.5-0.7,0.7c-1.2,1.3-2.6,2.3-4.3,3c-0.9,0.4-1.6,0.9-2.2,1.6
				c-0.4,0.5-0.8,0.9-1.2,1.3c-0.2,0.2-0.4,0.4-0.6,0.6C143.7,173.4,146.4,175.9,149.1,178.4z M86.1,154.4c-0.3-0.1-0.5-0.1-0.7-0.2
				c-0.9-0.2-1.8-0.3-2.6-0.5c-4.2-0.8-8.4-1.7-12.6-2.8c-1.3-0.3-2.7-0.6-4-0.8c-0.7-0.1-0.9,0.1-0.8,0.8c0.1,0.8,0.3,1.5,0.4,2.3
				c0.1,0.6,0.3,1.2,0.7,1.7c2.3,3.3,4.5,6.7,6.7,10c0.2,0.3,0.4,0.6,0.7,1C77.9,162.1,82,158.3,86.1,154.4z"/>
			<path d="M211.1,26c0.1,0.4-0.1,0.5-0.5,0.4C210.8,26.2,211,26.1,211.1,26z"/>
			<path d="M182.8,93.8c-0.1-0.1-0.1-0.1-0.1-0.2c0.1,0,0.1-0.1,0.2-0.1c0,0,0.1,0.1,0.1,0.1C182.9,93.7,182.8,93.7,182.8,93.8z"/>
			<path class="st0" d="M79.4,137.9c3.9-1.1,7.8-2,11.7-2.8c0,0.7,0,1.2,0,1.8c0,0.4-0.2,0.6-0.6,0.7c-0.4,0.1-0.8,0.2-1.1,0.3
				c-2.4,0.6-4.8,1.2-7.2,1.9c-0.4,0.1-0.9,0.2-1.3,0.3c-0.6,0.1-1-0.2-1.2-0.8C79.5,138.9,79.5,138.4,79.4,137.9z"/>
		</g>
	</g>
	<g id="dark">
		<g>
			<path d="M154.5,162.4c0.1,0.1,0.2,0.2,0.2,0.2c0,0.1-0.1,0.1-0.2,0.2c-0.1-0.1-0.1-0.1-0.2-0.2
				C154.3,162.5,154.4,162.4,154.5,162.4z"/>
		</g>
	</g>
</g>
<g id="light">
	<g class="st1">
		<path d="M142,271.2c-0.2-0.5-2.5-3.4-3.1-4.2c-3.5-4.9-7.1-9.7-10.6-14.6c-4-5.6-8.1-11.1-12.2-16.7c-6.2-8.5-12.4-17-18.6-25.5
			c-2.6-3.6-5.1-7.2-7.8-10.7c-5-6.5-9.7-13.2-14.6-19.8c-4.7-6.4-9.5-12.9-14.2-19.3c-0.2-0.3-0.4-0.7-0.4-1.1
			c-0.6-4.3-1.2-8.6-1.8-12.9c-0.6-4.2-1.1-8.3-1.7-12.5c-0.1-0.5,0-0.9,0.4-1.3c1.9-2.5,3.8-5,5.8-7.5c4.8-6.4,9.7-12.8,14.5-19.3
			c6.5-8.7,13.1-17.4,19.7-26.2c3.8-5.1,7.6-10.1,11.4-15.2c4-5.3,7.9-10.5,11.9-15.7c3.8-5.1,7.6-10.1,11.4-15.2
			c3.1-4.1,6.2-8.2,9.3-12.3c1-1.3,1.9-2.6,2.9-3.9c0.2-0.2,0.3-0.4,0.5-0.6c0.3,0.3,0.5,0.6,0.7,1c6,8.1,11.9,16.2,17.9,24.3
			c4.9,6.7,9.8,13.4,14.7,20.1c6.8,9.2,13.5,18.3,20.3,27.4c5.8,7.9,11.6,15.8,17.4,23.7c5,6.7,9.9,13.5,14.9,20.2
			c0.3,0.5,0.5,0.9,0.5,1.5c-0.2,6.5-0.5,13-0.7,19.6c0,0.5-0.1,0.9-0.4,1.3c-1.9,3.6-3.7,7.2-5.6,10.7c-0.2,0.5-0.5,0.9-0.8,1.3
			c-4.5,5.9-9,11.8-13.5,17.7c-6.4,8.5-12.8,17-19.2,25.6c-7,9.3-14,18.5-21,27.8c-5.9,7.8-11.8,15.6-17.6,23.4
			c-1.3,1.8-2.7,3.6-4,5.4c-0.5,0.7-1,1.5-1.5,2.3c-0.2,0.3-1,1-1.1,1.3C143.9,271.2,143.6,271.2,142,271.2z M108.2,174.4
			c0.8,2.6,37.3,88.1,37.9,88.8c0.2-1.4,0.4-2.8,0.5-4.2c0.1-13.4,0-26.8,0.1-40.2c0-8.3,0-16.7,0.1-25.1c0-4.8,0-9.7,0-14.5
			c0-0.5-0.2-0.9-0.5-1.2c-1.5-1.2-2.9-2.4-4.4-3.6c-4.7-3.9-9.4-7.8-14.2-11.6c-1.2-1-1.3-1-2.6-0.1c-4.4,3-8.8,6.1-13.2,9.2
			C110.6,172.7,109.4,173.5,108.2,174.4z M141.8,262.2c-0.2-0.5-0.5-1-0.7-1.4c-3.6-7.2-7.2-14.5-10.8-21.7
			c-3.8-7.7-7.7-15.3-11.5-23c-3.9-7.7-7.7-15.3-11.6-23c-1.6-3.2-3.3-6.4-4.9-9.7c-4.3-8.4-8.5-16.9-12.8-25.3
			c-0.2-0.3-0.3-0.6-0.5-0.9c-0.2-0.4-0.4-0.5-0.9-0.2c-0.4,0.2-0.7,0.5-1.1,0.8c-3.9,3.1-7.7,6.2-11.6,9.3c-0.6,0.5-1.2,1-1.9,1.5
			c-0.5,0.4-0.5,0.5-0.1,0.9c0.2,0.3,0.4,0.5,0.6,0.8c2.1,2.9,4.1,5.8,6.2,8.8c4.4,6.3,8.8,12.5,13.3,18.8
			c7.3,10.4,14.7,20.7,22.1,31.1c4.8,6.8,9.6,13.6,14.4,20.4c3,4.3,6.1,8.6,9.2,12.8c0.3,0.4,0.5,0.7,0.9,1.1
			C140.7,263,141.2,262.6,141.8,262.2z M150.4,40.1c-0.2,0.6-0.2,0.6,0,1.3c0.6,3.2,1.2,6.5,1.8,9.7c1.2,6.3,2.5,12.6,3.7,18.8
			c1.4,7.2,2.9,14.3,4.4,21.5c1.7,8.3,3.3,16.6,5,24.8c1.2,5.9,2.4,11.8,3.6,17.7c0.8,3.7,1.5,7.5,2.3,11.2c0.7,3.3,1.3,6.6,2,9.9
			c0.1,0.2,0.2,0.5,0.2,0.8c0.2-0.1,0.2-0.2,0.3-0.2c0.9-0.9,1.8-1.9,2.7-2.8c3.4-3.6,6.8-7.1,10.2-10.7c1.2-1.3,2.5-2.6,3.7-4
			c0.3-0.3,0.5-0.7,0.3-1.2c-0.6-1.2-1.1-2.4-1.6-3.7c-0.2-0.5-0.6-0.8-1.1-0.8c-0.4,0-0.7,0-1.1-0.1c-4.3-0.3-8.5-0.6-12.8-0.9
			c-1-0.1-2-0.1-3.1-0.2c-0.8,0-0.9-0.2-1-0.9c0-0.4,0-0.7,0-1.1c0.6,0,1.2,0,1.8,0c3.8,0.2,7.6,0.4,11.4,0.6c0.2,0,0.5,0.1,0.7,0.2
			c1.2,0.4,2.4,0.8,3.6,1.2c0.2,0.1,0.5,0.1,0.8,0.1c-0.1-0.4-0.2-0.6-0.2-0.8c-0.5-1.3-1-2.6-1.5-3.9c-1.2-3-2.5-6-3.7-9
			c-1.2-2.9-2.3-5.8-3.5-8.8c-1.5-3.6-3-7.2-4.4-10.9c-2-5-4-10.1-6.1-15.1c-1.5-3.8-3.1-7.6-4.6-11.4c-1.5-3.7-3-7.3-4.5-10.9
			c-1.3-3.2-2.6-6.5-4-9.7c-1.1-2.7-2.3-5.4-3.4-8.2c-0.2-0.6-0.5-1.2-0.8-1.8C151,40.7,150.9,40.3,150.4,40.1z M130.4,153.8
			c0.3-0.2,0.5-0.3,0.8-0.4c0.8-0.6,1.7-1.2,2.5-1.8c4-2.9,8.1-5.7,12.2-8.6c1-0.7,2.1-1.5,3.1-2.2c0.2-0.2,0.5-0.4,0.5-0.6
			c0.1-0.5,0.1-1,0.1-1.5c-0.1-1.7-0.2-3.4-0.2-5.2c-0.1-3.7-0.3-7.3-0.4-11c-0.2-3.9-0.3-7.7-0.4-11.6c-0.2-4.5-0.4-9-0.5-13.5
			c-0.1-3.2-0.2-6.3-0.3-9.5c-0.2-5.5-0.4-11-0.6-16.4c-0.2-4.2-0.3-8.4-0.5-12.5c-0.2-3.9-0.3-7.9-0.5-11.8
			c-0.1-2.8-0.3-5.5-0.4-8.3c-0.1-1.2-0.2-2.3-0.2-3.5c0-0.4,0-0.8-0.1-1.2c-0.1-0.5-0.4-0.9-0.8-1.2c-0.6-0.4-0.9-0.2-1,0.4
			c-0.2,0.9-0.4,1.9-0.5,2.9c-0.3,2.6-0.6,5.3-0.9,7.9c-0.3,2.4-0.5,4.7-0.8,7.1c-0.3,2.5-0.5,5-0.8,7.5c-0.4,3.5-0.8,7-1.1,10.4
			c-0.4,3.3-0.7,6.6-1.1,9.9c-0.4,3.4-0.7,6.8-1.1,10.2c-0.3,2.5-0.5,4.9-0.8,7.4c-0.3,3-0.7,6.1-1,9.1c-0.3,2.6-0.5,5.1-0.8,7.7
			c-0.3,3.1-0.7,6.1-1,9.2c-0.3,2.8-0.6,5.6-0.9,8.3c-0.3,3-0.7,6.1-1,9.1c-0.4,3.9-0.8,7.9-1.2,11.8
			C130.4,152.5,130.4,153,130.4,153.8z M146.9,42.9c-0.1,0-0.2,0-0.2,0.1c0,0.2,0,0.5,0,0.7c0,1,0.1,2.1,0.1,3.1
			c0.2,3.6,0.4,7.2,0.6,10.9c0.2,2.7,0.3,5.4,0.4,8c0.3,5.2,0.6,10.4,0.9,15.7c0.3,4.9,0.5,9.7,0.8,14.6c0,0.4,0.2,0.7,0.2,1
			c0,0.1,0,0.2,0,0.2c-0.3,0.2-0.2,0.5-0.2,0.7c0.1,1.3,0.1,2.5,0.2,3.8s0.2,2.5,0.2,3.8c0.2,4,0.4,8.1,0.7,12.1
			c0.2,3.4,0.4,6.8,0.6,10.3c0.2,4.2,0.5,8.4,0.8,12.6c0,0.5-0.1,1-0.6,1.3c-0.5,0.3-0.9,0.6-1.3,0.9c-3.2,2.2-6.3,4.3-9.5,6.5
			c-3,2.1-6.1,4.2-9.1,6.3c-0.2,0.2-0.5,0.2-0.5,0.6c0.3,0,0.5,0.1,0.7,0.1c1.3,0.1,2.6,0.2,3.9,0.2c3.7,0.1,7.5,0.3,11.2,0.4
			c3.6,0.1,7.2,0,10.7-0.1c2,0,4-0.2,6.1-0.3c1.4-0.1,2.7-0.2,4.1-0.3c0.6,0,1.2-0.1,1.7-0.2c0.5-0.1,0.6-0.2,0.5-0.8
			c0-0.1,0-0.2-0.1-0.4c-0.4-1.9-0.8-3.9-1.2-5.9c-1.4-6.7-2.7-13.4-4.1-20c-1-5.1-2.1-10.3-3.1-15.5c-0.8-4.1-1.6-8.2-2.4-12.3
			c-1.8-9.1-3.7-18.3-5.5-27.4c-0.8-3.8-1.6-7.5-2.3-11.3c-0.4-1.7-0.8-3.5-1.1-5.2c-0.5-2.2-0.9-4.4-1.3-6.5
			c-0.5-2.2-1-4.4-1.6-6.7C147.1,43.6,147,43.3,146.9,42.9z M141.3,34c-0.5,0.2-0.6,0.7-0.8,1.1c-0.6,1.7-1.2,3.5-1.7,5.2
			c-0.7,2.1-1.3,4.2-2,6.3c-0.9,2.8-1.7,5.5-2.6,8.3c-1.5,4.9-3,9.8-4.4,14.7c-1.4,4.6-2.7,9.2-4.1,13.8c-1,3.2-1.9,6.4-2.9,9.7
			c-1.6,5.6-3.3,11.2-5,16.7c-1.2,4-2.4,7.9-3.6,11.9c-1.6,5.3-3.1,10.5-4.6,15.8c-0.2,0.7-0.2,1.2,0.4,1.6c0.1,0.1,0.1,0.1,0.2,0.2
			c3.3,3.7,6.7,7.5,10,11.2c1.5,1.7,3.1,3.4,4.6,5.1c0.2,0.2,0.3,0.4,0.7,0.4c0.1-0.2,0.1-0.5,0.2-0.7c0.2-1.3,0.4-2.7,0.5-4
			c0.4-3.3,0.9-6.6,1.3-9.9c0.4-2.7,0.7-5.4,1.1-8.2c0.1-1.1,0.1-1.2-1-1.1c-2,0.2-4.1,0.3-6.1,0.5c-1.9,0.2-3.7,0.4-5.6,0.5
			c-0.4,0-0.9,0.1-1.2-0.4c0.1-0.3,0.2-0.6,0.2-0.9c0.1-0.5,0.4-0.8,1-0.8c2.3-0.2,4.6-0.5,6.9-0.8c1.9-0.2,3.8-0.4,5.7-0.6
			c0.2,0,0.4-0.1,0.6-0.2c0.1-0.4,0.1-0.8,0.2-1.2c0.2-1.1,0.3-2.3,0.5-3.4c0.4-2.7,0.7-5.4,1.1-8.2c0.5-3.7,1-7.4,1.5-11.1
			c0.4-3.3,0.9-6.5,1.3-9.8c0.4-3.1,0.8-6.3,1.2-9.4c0.5-4.1,1.1-8.2,1.6-12.2c0.5-4.1,1.1-8.2,1.6-12.3c0.5-3.8,1-7.5,1.5-11.3
			c0.3-2.5,0.6-5,1-7.5c0.3-2.1,0.5-4.3,0.8-6.4C141.4,35.8,141.6,35,141.3,34z M147.6,261.7c0.1,0,0.1,0,0.2,0
			c0.2-0.7,0.3-1.5,0.5-2.2c1.2-5.7,2.5-11.4,3.8-17c1.8-7.9,3.5-15.9,5.3-23.8c2-8.8,4-17.7,6-26.5c1.7-7.7,3.4-15.3,5.1-23
			c0.6-2.7,1.2-5.4,1.7-8.1c0.1-0.3,0.2-0.7,0-1.1c-0.4,0-0.6,0.2-0.9,0.5c-0.7,0.7-1.4,1.3-2.1,2c-2.2,2.3-4.4,4.6-6.6,6.8
			c-3.2,3.2-6.5,6.4-9.8,9.6c-0.4,0.4-0.6,0.8-0.6,1.3c-0.1,3.1-0.2,6.1-0.3,9.2c-0.5,15.1-1,30.1-1.5,45.2
			c-0.3,8.8-0.6,17.7-0.9,26.5C147.6,261.3,147.6,261.5,147.6,261.7z M124.8,63.4c-0.2,0.2-0.4,0.4-0.5,0.5
			c-0.6,0.9-1.3,1.8-1.9,2.7c-3.5,5.4-6.9,10.8-10.4,16.2c-2.6,4-5.1,8.1-7.6,12.2c-3.4,5.5-6.9,11-10.4,16.5
			c-4.1,6.6-8.2,13.2-12.2,19.7c-1.5,2.4-3,4.8-4.5,7.2c-0.4,0.6-0.4,0.7,0.1,1.3c2.9,3.4,5.8,6.9,8.7,10.4c0.1,0.2,0.3,0.2,0.4,0.4
			C87.2,149.5,124.7,64.6,124.8,63.4z M124.5,159.5c-0.3-0.5-0.6-0.8-0.9-1.1c-1.2-1.3-2.3-2.6-3.4-3.9c-3.3-3.9-6.7-7.9-10-11.8
			c-0.9-1-1.2-1.1-2.2-0.2c-1.6,1.3-3.2,2.6-4.8,3.9c-3.6,2.9-7.2,5.8-10.8,8.8c-0.2,0.2-0.3,0.3-0.6,0.5c5,5.4,10,10.8,15,16.3
			C112.8,167.9,118.7,163.8,124.5,159.5z M207.7,155c-0.2-0.2-0.4-0.4-0.5-0.5c-1.3-1.1-2.7-2.2-4-3.3c-1.8-1.5-3.6-3-5.4-4.6
			c-1.1-1-2.2-2-3.3-3c-0.7-0.6-1.4-1.1-2.1-1.6c-0.7-0.5-1.1-0.4-1.7,0.1c-0.1,0.1-0.2,0.2-0.3,0.3c-1.9,1.9-3.9,3.7-5.9,5.6
			c-2.6,2.6-5.3,5.1-7.9,7.7c-0.2,0.2-0.3,0.4-0.5,0.5c0,0.1,0.1,0.1,0.1,0.2c0.5,0,1.1,0.1,1.6,0c3-0.2,5.9-0.3,8.8-0.5
			c1.8-0.1,3.6-0.2,5.4-0.4c3-0.2,6.1-0.4,9.2-0.6c0.2,0,0.4,0,0.6,0c0,0.1,0.1,0.2,0.1,0.2c0,0.3,0,0.7-0.1,1
			c0,0.7-0.4,1.1-1.1,1.2c-1.4,0.2-2.8,0.5-4.3,0.5c-6.7,0.5-13.4,0.9-20.1,1.4c-0.3,0-0.6,0.1-1.1,0.1c4.7,5.3,9.2,10.5,13.9,15.7
			C195.3,168.3,201.6,161.8,207.7,155z M93.2,160.2c0.2,1.1,48.5,96.5,49.1,97.2c-0.1-0.3-0.2-0.4-0.2-0.6c-1.4-3.1-2.7-6.3-4.1-9.4
			c-2.6-6-5.2-12.1-7.9-18.1c-3.3-7.5-6.5-15-9.8-22.6c-2.3-5.3-4.6-10.5-6.9-15.8c-2.2-5-4.4-10-6.6-15c-0.2-0.5-0.5-1-0.9-1.4
			c-3.9-4.4-7.8-8.8-11.7-13.2C93.9,161,93.6,160.6,93.2,160.2z M86.3,154.6c-0.2-0.3-0.3-0.6-0.5-0.9c-0.7-0.9-1.5-1.8-2.2-2.6
			c-0.9-1-1.7-1.9-2.6-2.9c-1.5-1.6-2.9-3.3-4.4-4.9c-0.6-0.7-0.9-0.8-1.8-0.3c-3.1,1.6-6.2,3.3-9.3,5c-0.4,0.2-0.6,0.5-0.5,0.9
			c0,0.2,0,0.3,0.1,0.5c0.3,1.3,0.6,2.6,0.9,3.8c0.1,0.2,0.2,0.5,0.3,0.7c2.2,3.7,4.4,7.3,6.6,10.9c0.4,0.6,0.7,1.2,1.2,1.9
			C78.1,162.8,82.2,158.7,86.3,154.6z M117.3,65.5c0,0-0.1-0.1-0.1-0.1c-0.1,0.1-0.2,0.2-0.3,0.3c-0.9,1.1-1.8,2.3-2.7,3.4
			c-1.2,1.6-2.4,3.1-3.6,4.7c-3,3.9-6,7.7-9,11.6c-4,5.1-7.9,10.3-11.8,15.4c-3.1,4.1-6.1,8.2-9.2,12.3c-2.2,2.9-4.3,5.8-6.5,8.6
			c-1.8,2.4-3.7,4.7-5.5,7.1c-1.1,1.4-2.1,2.7-3.1,4.1c-0.6,0.8-1.2,1.7-1.9,2.5c-0.2,0.3-0.4,0.6-0.3,1c0.3,1.6,0.5,3.2,0.8,4.7
			c0,0.2,0.2,0.4,0.3,0.8c0.3-0.6,0.6-1.1,0.9-1.5c1.2-1.8,2.4-3.5,3.6-5.3c2.3-3.3,4.5-6.7,7-9.9c0.5-0.6,0.9-1.4,1.4-2
			c0.5-0.7,1-1.4,1.5-2.1c0.5-0.7,0.9-1.4,1.4-2c0.5-0.7,0.9-1.4,1.4-2c0.5-0.7,0.9-1.3,1.4-2c0.5-0.7,1-1.4,1.4-2.1
			c0.4-0.7,1-1.3,1.4-1.9c3.8-5.5,7.6-11,11.4-16.4c6.1-8.7,12.1-17.4,18.1-26.1C116,67.4,116.6,66.5,117.3,65.5z M117.2,68.4
			c0,0-0.1-0.1-0.1-0.1c-0.1,0.1-0.2,0.2-0.3,0.2c-1.1,1.5-2.2,3.1-3.3,4.6c-1.1,1.6-2.2,3.3-3.3,5c-1.9,2.9-3.9,5.8-5.9,8.7
			c-2.6,3.8-5.2,7.6-7.8,11.4c-2,3-4,6-6,9c-2,3-4.1,6.1-6.1,9.2c-2.2,3.3-4.4,6.5-6.6,9.7c-1.5,2.2-3.1,4.3-4.6,6.5
			c-2.1,3.1-4.1,6.2-6.2,9.3c-0.1,0.1-0.1,0.3-0.3,0.6c0.4-0.1,0.6-0.2,0.8-0.3c1.6-0.7,3.2-1.5,4.9-2.2c0.4-0.2,0.7-0.4,0.9-0.8
			c2.1-3.5,4.2-7,6.4-10.5c1.6-2.6,3.3-5.2,5-7.9c1.9-3,3.8-6.1,5.7-9.1c5.3-8.5,10.5-16.9,15.8-25.4c3.6-5.8,7.2-11.5,10.7-17.3
			C117,68.9,117.1,68.6,117.2,68.4z M220.1,165.7c0.2-0.2,0.3-0.3,0.4-0.4c1.9-2.7,3.8-5.5,5.7-8.2c0.1-0.2,0.2-0.5,0.2-0.7
			c0.1-0.9,0.1-1.7,0.1-2.6c0-0.7-0.1-0.8-0.8-0.7c-0.1,0-0.2,0-0.2,0c-3.9,0.5-7.8,1-11.7,1.5c-0.2,0-0.3,0.1-0.5,0.2
			C215.5,158.4,217.8,162,220.1,165.7z"/>
	</g>
</g>
<g id="black" class="st2">
	<path class="st3" d="M180.8,550c-0.7-1.2-1-1.9-1.5-2.6c-5.6-7.8-11.1-15.6-16.9-23.3c-12.1-15.9-24.3-31.8-36.4-47.7
		c-13.4-17.6-26.7-35.2-40-52.8c-20.7-27.3-41.3-54.6-62-81.9c-10.4-13.8-21-27.5-31.4-41.2c-11.7-15.4-23.5-30.7-34.8-46.4
		c-15.8-21.9-31.1-44.3-46.7-66.3c-2.8-3.9-3.6-8.2-4.2-12.7c-2.5-17.5-5-35-7.5-52.5c-1-7-1.9-14.1-2.9-21.1
		c-0.2-1.4,0.1-2.4,0.9-3.5c9-12,17.9-24,26.9-35.9C-60.4,42-44.9,22-29.6,1.9c15.8-20.6,31.5-41.3,47.3-62
		c21.9-28.6,43.8-57.1,65.7-85.7c18.9-24.7,37.8-49.4,56.8-74.1c14.5-19.2,29.3-38.4,44-57.6c0.7-0.9,1.4-1.7,2.2-2.8
		c0.8,1,1.4,1.8,2,2.6c18.6,25.3,37.2,50.7,55.8,76c10.3,14.1,20.5,28.2,30.8,42.3c22.5,30.8,44.9,61.7,67.4,92.5
		c17.1,23.5,34.3,46.8,51.4,70.3c23.2,31.8,46.5,63.7,69.7,95.6c2.3,3.1,4.5,6.2,6.6,9.4c0.5,0.7,0.7,1.8,0.7,2.7
		c-0.6,12.6-1.3,25.2-1.9,37.9c-0.4,6.6-0.7,13.3-1.2,19.9c-0.1,0.9-0.3,1.9-0.7,2.7c-8.1,14.8-16.2,29.6-24.4,44.4
		c-0.8,1.4-1.6,2.7-2.6,4c-13.8,17.9-27.6,35.7-41.4,53.5c-15.4,20-30.9,40-46.3,60.1c-23.6,30.7-47.2,61.3-70.8,92
		c-18.3,23.8-36.6,47.7-54.9,71.6c-9.7,12.6-19.4,25.3-29,37.9c-1.4,1.8-2.8,3.7-4.2,5.6c-0.4,0.5-0.8,0.9-1.5,1.7
		c-0.7-1.3-1.4-2.4-1.9-3.5c-3.8-7.8-7.4-15.8-11.4-23.5c-8.7-16.7-15.4-34.3-22.7-51.6C134.5,413.5,113.3,363,92,312.6
		c-9.9-23.5-19.9-47-29.7-70.5c-0.9-2.2-2.2-4.2-3.8-6c-10.7-11.7-21.2-23.5-31.9-35.2c-6-6.6-11.9-13.2-17.9-19.7
		c-1-1.1-2-2-3.2-2.9c-2-1.6-3.3-1.5-5.5-0.1c-1,0.7-1.9,1.5-2.8,2.3c-9.9,9.3-19.8,18.6-29.7,28c-2.6,2.4-5.1,4.8-7.7,7.3
		c-1.8,1.8-1.8,1.9-0.3,4c6.1,8.8,12.3,17.5,18.4,26.4c13.8,20.1,27.5,40.3,41.3,60.4c16.2,23.6,32.5,47.1,48.8,70.7
		c19.8,28.7,39.4,57.5,59.2,86.3c11.9,17.3,23.8,34.5,35.7,51.7c0.5,0.7,0.9,1.3,1.3,2c2.6,4,5.4,7.7,9.1,10.8
		c1.3,1.1,2.4,2.5,3.6,3.8c3.8,4,7.5,8.1,11.3,12.1c1.7,1.8,1.6,1.8,0.2,3.7c-0.5,0.6,0.3,2-2,3.1C181.9,552.1,181.9,551,180.8,550z
		 M273.6,177.3c0.2-0.1,0.3-0.2,0.5-0.3c-0.2-1.1-0.3-2.3-0.5-3.4c-5.7-28.8-11.3-57.6-17-86.4c-7.1-36.1-14.3-72.2-21.4-108.3
		c-5.4-27.1-10.8-54.1-16.2-81.2c-4.3-21.7-8.7-43.4-13-65.2c-3.5-17.5-7.1-35-10.4-52.5c-0.8-4.3-3.1-7.2-6.7-9.3
		c-0.5-0.3-1-1-1.1-1.6c-0.3-1.6-0.3-3.2-0.4-4.8c-0.2-2.1-0.4-2.4-2.5-2.9c-0.6-0.2-1.3-0.3-1.9-0.3c-2-0.1-2.6,0.3-3,2.3
		c-0.9,5.2-1.8,10.4-2.6,15.6c-0.5,3.4-0.7,6.8-1.1,10.3c-1.5,12.3-3,24.6-4.4,36.9c-1,8.3-1.8,16.5-2.8,24.8
		c-1.7,14.5-3.5,29-5.2,43.6c-0.7,5.6-1.3,11.3-1.9,16.9c-1.2,9.8-2.4,19.5-3.5,29.3c-0.9,8.1-1.8,16.2-2.7,24.3
		c-1.4,12.1-2.9,24.3-4.3,36.4c-0.9,7.9-1.8,15.9-2.7,23.8c-1.7,14.4-3.4,28.7-5.1,43.1c-0.9,7.9-1.8,15.9-2.7,23.8
		c-1.4,12.2-2.9,24.4-4.4,36.7c-1,8.5-2,17-3,25.5c-0.7,5.9-1.3,11.8-1.9,17.6c-0.2,2-0.2,2.2,1.9,2.6c4.8,0.9,9.6,1.8,14.4,2.4
		s9.6,0.8,14.3,1.3c7.4,0.7,14.8,1.8,22.2,2.3c10.6,0.6,21.2,1,31.9,1.2c8.3,0.1,16.6-0.1,24.9-0.5c8-0.3,15.9-1.2,24.1-2.9
		c-0.7-1-1.2-1.8-1.9-2.5c-1-1-2-1.8-3.1-2.7c-12.3-10.7-24.5-21.3-36.7-32c-4.1-3.6-8.6-6.7-11.9-11c-0.9-1.1-2.2-2.4-2.2-3.6
		c0-2.6,0.6-5.1,1.6-8c10.6,10,20.9,19.8,31.3,29.5C252.8,157.9,263,167.8,273.6,177.3z M215.5-212c-0.3,0.1-0.5,0.2-0.8,0.3
		c0.3,0.8,0.5,1.6,0.9,2.3c4.9,10.3,9.7,20.5,14.6,30.8c11.8,24.7,23.5,49.4,35.3,74.1c13.5,28,27.1,56,40.5,84
		c9.3,19.4,18.5,38.8,27.8,58.2c10.2,21.3,20.6,42.5,30.8,63.7c5.9,12.2,11.7,24.5,17.6,36.8c5.2,10.8,10.3,21.6,15.5,32.5
		c0.3,0.7,0.7,1.5,0.7,2.2c-0.1,2.5-0.1,5.1-0.5,7.6s0.6,4,2.4,5.5c9.6,8.3,19.2,16.7,28.8,25c0.5,0.4,1.1,0.8,1.8,1.3
		c1-1.4,1.9-2.6,2.7-3.9c5.8-8.9,11.5-17.9,17.3-26.8c0.8-1.3,1.4-2.8,2.2-4.2c0.2-0.4,0.8-0.5,1.1-0.7c-0.1-2.9-0.2-5.6-0.3-8.7
		c-2.4,0.1-4.5,0.1-6.6,0.2c-9.7,0.3-19.3,0.6-29,1c-4.5,0.2-4.5,0.2-7.3-3.4c-1.7-2.3-3.5-4.5-5.3-6.9c4.2-5,8.2-10,12.3-14.9
		c9.7-11.7,19.4-23.4,29-35.2c1.6-1.9,1.6-2.4,0.1-4.4c-2.9-4-5.9-8-8.8-12c-12.5-17.3-25.1-34.6-37.6-51.9
		c-20-27.6-39.9-55.2-59.9-82.8c-20.6-28.4-41.2-56.7-61.8-85c-12.2-16.8-24.6-33.6-36.9-50.3c-6.8-9.2-13.7-18.4-20.5-27.5
		C219.5-207.3,217.4-209.6,215.5-212z M120.8,175.4c0.3-1,0.5-1.5,0.6-2.1c0.9-6.3,1.9-12.6,2.8-19c1.1-8.2,2.2-16.3,3.3-24.5
		c1.5-11.2,3.2-22.5,4.7-33.7c1.3-9.4,2.6-18.9,3.9-28.3c1.9-13.5,3.7-27.1,5.6-40.6c1-7.4,2-14.9,3-22.3
		c1.6-11.2,3.1-22.5,4.7-33.7c1.3-9.8,2.6-19.6,4-29.5c1.8-13.5,3.7-27.1,5.6-40.6c0.8-5.7,1.5-11.4,2.3-17.1
		c1.4-9.9,2.7-19.8,4.1-29.7c0.8-6.1,1.6-12.2,2.5-18.3c1.6-11.3,3.1-22.6,4.7-34c0.9-6.6,1.8-13.1,2.7-19.7
		c0.2-1.8,0.5-3.6,0.6-5.5c0.1-1.3-0.4-1.8-1.6-1.9c-1.6-0.2-2.7,0.4-3.4,2.1c-0.7,1.7-1.2,3.5-1.8,5.2
		c-5.8,19.1-11.5,38.3-17.2,57.4c-10.5,35.5-21,71-31.5,106.5c-6.9,23.1-13.7,46.3-20.5,69.5c-9.6,32.5-19.1,65-28.9,97.5
		c-1.1,3.7-0.5,6.3,2.1,8.8c0.8,0.8,1.6,1.6,2.4,2.3c0.4,0.4,0.8,0.7,1.2,1.1c1.1,1.3,2,2.7,3.1,3.9c7.2,8.1,14.4,16.3,21.7,24.4
		c5.8,6.5,11.5,13.1,17.3,19.6C119.1,173.9,119.9,174.5,120.8,175.4z M195.8,252.2c-0.4-0.5-0.7-0.9-1-1.2
		c-3.8-3.2-7.6-6.4-11.4-9.6c-13.7-11.4-27.5-22.7-41.3-34.1c-4.8-3.9-9.6-7.8-14.4-11.6c-2-1.6-3.2-1.5-5.3-0.3
		c-1.9,1-1.2,2.5-0.9,4c3,16.3,6,32.5,9,48.8c3.9,21.1,7.8,42.3,11.8,63.4c4.5,24,9,48.1,13.5,72.1c6.1,32.4,12.2,64.9,18.2,97.3
		c0.7,3.9,1.2,7.9,1.8,11.8c0.1,0.9,0.2,1.9,0.6,2.8c4.3,10,8.6,20,12.9,29.9c0.2,0.5,0.5,0.9,0.8,1.3c0.2,0,0.3-0.1,0.5-0.1
		c0-1.9,0.1-3.7,0.1-5.6c0.1-9.6,0.2-19.2,0.3-28.8c0.1-14.8,0.2-29.6,0.3-44.4c0.1-8.6,0.1-17.3,0.2-25.9c0.1-7.7,0.2-15.3,0.3-23
		c0.1-14.4,0.2-28.8,0.3-43.2c0.1-12.5,0.2-24.9,0.3-37.4c0.1-13.6,0.3-27.2,0.4-40.8c0.1-7.3,0.1-14.6,0.1-21.8c0-1,0.1-2,0.1-2.9
		C194,252.7,194.8,252.5,195.8,252.2z M206.1,503.6c0.2,0,0.4,0.1,0.6,0.1c0.3-0.6,0.6-1.3,0.9-1.9c6.2-13.6,12.4-27.2,18.6-40.8
		c19.6-43.3,39.2-86.5,58.8-129.8c11.4-25.2,22.9-50.4,34.3-75.6c1.5-3.3,3-6.7,4.6-10c0.7-1.4,0.7-2.6-0.5-3.7
		c-0.3-0.3-0.5-0.6-0.8-0.9c-14.2-16.1-28.3-32.2-42.5-48.3c-1.2-1.3-2.3-2.6-3.6-3.9c-1.6-1.6-2.8-1.3-3.3,0.9
		c-0.1,0.4-0.2,0.8-0.3,1.2c-1.4,6.5-2.7,13-4.1,19.5c-2.5,11.8-5.1,23.6-7.6,35.4c-2.9,13.7-5.8,27.4-8.7,41
		c-3.6,16.7-7.2,33.4-10.8,50.2c-2.8,12.9-5.5,25.8-8.3,38.7c-2.7,12.8-5.5,25.6-8.2,38.5c-2.2,10.5-4.3,21.1-6.6,31.7
		c-1.2,5.6-2.6,11.2-3.8,16.8c-2.4,10.9-4.7,21.7-7,32.6C207.3,498,206.8,500.8,206.1,503.6z M152.6-179.7c-0.1-0.1-0.3-0.1-0.4-0.2
		c-0.5,1-0.9,1.9-1.4,2.9c-2.2,4.2-4.5,8.3-6.4,12.6c-4.7,10.5-9.2,21.1-13.6,31.7c-8.1,19.4-16.2,38.8-24.3,58.2
		c-4.3,10.4-8.7,20.8-13,31.2c-3.9,9.4-7.9,18.9-11.8,28.3c-7.4,17.8-14.7,35.7-22,53.5c-5.8,14-11.7,28.1-17.5,42.1
		c-4.7,11.4-9.4,22.8-14.1,34.2c-6.1,14.8-12.1,29.6-18.2,44.4c-0.6,1.5-1.1,3-1.6,4.5c-0.1,0.5,0,1,0,1.7c2.1-0.8,3.5-2.2,4.9-3.4
		c7.1-5.9,14.2-11.9,21.3-17.9c8.5-7.2,17-14.3,25.5-21.5c1.1-0.9,1.8-1.9,2.2-3.3c4.4-14.5,8.9-29,13.3-43.6
		c9.2-30.3,18.5-60.7,27.7-91.1C113.9-50.2,124.5-85,135-119.8c5.5-18.3,10.9-36.6,16.4-54.9C151.8-176.2,152.1-177.9,152.6-179.7z
		 M330.2,236.4c0.6-0.5,1-0.8,1.4-1.2c3.3-3.4,6.7-6.9,10-10.4c13.2-14.2,26.3-28.4,39.4-42.6c0.7-0.7,1.5-1.4,2.4-1.7
		c4.9-1.9,9.1-5,13.3-8c0,0,0-0.2,0.1-0.5c-0.7-0.6-1.4-1.3-2.2-1.9c-16.2-13.6-32.4-27.1-48.6-40.7c-1.3-1.1-2.7-2.2-4.1-3.3
		c-1-0.8-1.8-0.8-2.8,0c-3.2,2.9-6.5,5.7-9.6,8.7c-13.8,13.3-27.6,26.7-41.3,40.1c-0.4,0.4-0.7,0.9-1.4,1.8c1.4,0.1,2.4,0.2,3.4,0.1
		c12.5-0.5,25.1-0.8,37.6-1.6c15-1,29.9-2.4,44.9-3.7c3.2-0.3,3.5-0.1,3.9,3.2c0,0.1,0,0.2,0,0.2c0.1,1.6-0.6,2.5-2.3,2.6
		c-11.5,1.2-23,2.7-34.6,3.6c-18,1.4-36,3.1-54.1,3.1c-0.6,0-1.1,0.2-1.9,0.4c0.4,0.6,0.6,1,0.8,1.3c2.6,2.7,5.2,5.4,7.8,8.2
		c9,9.9,18.5,19.2,27,29.6c0.7,0.9,1.5,1.8,2.3,2.7C324.5,229.7,327.3,233,330.2,236.4z M161.2-228c-2-0.2-2.6,0.8-3.3,1.7
		c-2.6,3.8-5.2,7.7-7.8,11.5c-6.7,10.1-13.3,20.1-20,30.2c-5.6,8.5-11.1,17.1-16.7,25.7c-5.5,8.5-11.1,17-16.6,25.6
		c-6.7,10.3-13.3,20.7-20,31.1C69.6-91.1,62.4-80,55.2-68.8c-11,17.2-21.9,34.4-32.9,51.6C15.6-6.6,8.8,3.9,1.9,14.5
		c-3.9,6.1-7.7,12.2-11.5,18.3c-5,7.9-9.9,15.9-14.9,23.8c-4.5,7.1-9.1,14.1-13.6,21.2c-5.4,8.6-10.8,17.2-16.3,25.7
		c-5.5,8.6-11.2,17.1-16.8,25.7c-0.8,1.2-1.6,2.5-2,4.4c1.2-0.4,2.1-0.5,2.8-0.9c7.4-3.1,14.8-6.1,22.1-9.2c1.2-0.5,2.1-1.3,2.8-2.5
		c4.7-7.8,9.5-15.5,14.3-23.3C-14.8,71.1,1.5,44.6,17.8,18C32.9-6.9,48.1-31.8,63.4-56.7c20.3-33.2,40.7-66.4,60.9-99.7
		c4.9-8.1,10.4-15.9,14.4-24.6c6.9-14.8,14-29.5,21-44.2C160.4-225.9,160.8-226.8,161.2-228z M16.9,177.3c-0.1,0.2-0.2,0.4-0.3,0.7
		c14.6,17.2,29.2,34.4,44.2,51.2c0.5-0.3,0.7-0.4,0.9-0.6c10.1-7.7,20.2-15.4,30.3-23.2c8.2-6.3,16.4-12.6,24.5-18.9
		c0.9-0.7,1.6-1.5,2.8-2.5c-0.8-0.7-1.5-1.1-2-1.7c-4.6-5.1-9.2-10.2-13.8-15.3c-6-6.6-11.9-13.4-18-20c-4.5-4.9-9-9.7-13.7-14.5
		c-3.1-3.2-5-3.2-8.6-0.5c-0.1,0.1-0.3,0.2-0.4,0.3c-13.7,11.3-27.6,22.3-40.7,34.3c-0.6,0.5-1,1.1-1.7,2c0.9,0.3,1.5,0.6,2.1,0.7
		c1.8,0.3,3.6,0.6,5.5,0.7c3.2,0.3,6.4,0.5,9.6,0.6c8.3,0.5,16.6,1.1,24.9,1.3c10.2,0.3,20.5,0.4,30.7,0.5c2.2,0,4,0.8,5.8,1.8
		c1.5,0.8,2,2,1.9,3.5c0,1.5-0.9,2.4-2.3,3.1c-1.8,0.9-3.6,1.2-5.6,1.1c-18.1-1.1-36.2-2.2-54.4-3.3c-6.3-0.4-12.6-1-18.9-1.5
		C18.9,177.2,17.9,177.3,16.9,177.3z M257.4,192.3c-0.1-0.2-0.3-0.4-0.4-0.7c-1,0.1-2,0.2-3,0.4c-6.6,1.4-13.2,2.8-19.9,2.9
		c-4.4,0.1-8.8-0.2-13.2-0.3c-3-0.1-5.9-0.2-8.9-0.3c-1.9,0-3.5,0.6-4.9,2.1c-2.1,2.3-4.4,4.4-6.5,6.7c-3.3,3.5-7,6.3-11.4,8.3
		c-1.5,0.6-2.9,1.4-4.3,2.2c-0.7,0.4-1.4,0.8-2,1.4c-2.7,2.9-5.3,5.8-7.9,8.6c2.1,2.7,26,21.6,29.6,23.1
		C222.2,228.7,240.6,211.3,257.4,192.3z M-7.6,171.5c-2.2-0.4-4.1-0.8-6.1-1.2c-18.4-3.4-36.6-7.7-54.7-12.5
		c-1.4-0.4-2.8-0.7-4.2-0.8c-1.7-0.1-2.5,0.7-2.1,2.3c0.9,4.2,1.6,8.5,3.9,12.3c7.4,12.3,14.7,24.6,22.1,36.8
		c0.5,0.9,1.1,1.7,1.7,2.5C-44.4,209.2-8.8,173.7-7.6,171.5z"/>
</g>
</svg>
