<?xml version="1.0" encoding="utf-8"?>
<!-- Generator: Adobe Illustrator 24.0.3, SVG Export Plug-In . SVG Version: 6.00 Build 0)  -->
<svg version="1.1" xmlns="http://www.w3.org/2000/svg" xmlns:xlink="http://www.w3.org/1999/xlink" x="0px" y="0px"
	 viewBox="0 0 400 400" style="enable-background:new 0 0 400 400;" xml:space="preserve">
<g id="adoptGraphic">
	<path d="M343.3,196.8c11.2,26.9-27.6,75.6-50.4,101.3c-59.9,44.3-151.8,35-200.3-25.2C74.7,233,74,142.5,124.8,145.4
		c18.1,1,23.5,6.8,28.3,9.7c9.7,5.9,21,9.3,32.5,11.2c43.3,16.5,64.9-14.9,101.6-19.4C316.7,142.9,343.3,168.1,343.3,196.8z"/>
	<path d="M45.2,106.3c-2.6-34.2,46.9-41.4,49-6.4C100.2,138,40.9,148.7,45.2,106.3z"/>
	<path d="M213.5,33.8c32,3.1,29.1,57.3-3.3,57.8C174.8,94.7,184.1,32.2,213.5,33.8z"/>
	<path d="M372.5,119.6c1.1,38.8-49.8,39-45.6,1.2C327.8,83.5,374.7,80.8,372.5,119.6z"/>
</g>
<g id="adopt">
	<path d="M71.3,170.7c4.6,24.4,8.8,52.7,19.5,73.9c4.2-0.1,7.4,3.1,5.9,7.3c0.3,3.9-2,3.8-5.2,4.1c15.3,65.7,21.3,42.9,7.3-7.5
		c-2.9-21.7-5.5-43.4-7.3-65.2c-0.6-3.8-8.3,0-7.4-5.6c3.4-4.2,21.7-6.7,24.9-1.6c37.5,15.4,73.1,58.5,50.3,99.8
		c-4.7,8.4-12.3,14.8-17.1,23c-11.2,2.8-25.1,10.3-36.1,5.8c-1.3,3.1,1.4,7.9-3,9.3c-5.5,0.1-26.9,5-23.9-3.8
		c20.3-3.6-3.9-36.6-5.6-51.3c-27.4-1.2-26.7-4.4-30.1,21.8c0.7,8.5-6.1,21.8-1.5,28.3c3.4-0.8,5.2,2,7.5,3.6
		c3,6.5-34.4,8.8-24.5,0.3c5.3-9,3.4-24.1,7-35.1c-0.2-6.3,4.9-15.9,1-20.8c-1.8-0.6-2.3-2-1.9-5c7.2-6.3,4.9-17.7,8.8-27.2
		c3.8-17.7,7.1-36.1,12.1-53.1c-0.7-2.3-3.2-0.8-5-1.1c-3.3,0.3-4.6-7.4-0.7-7.1C55,160.4,102.2,165.9,71.3,170.7z M105.7,189.1
		c7.9,31.1,7.7,73.7,20.8,101.5c23.4-7.6,26.2-48.5,18.9-69.8C136.1,205.5,117.7,201.6,105.7,189.1z M59.4,192
		c-7.5,17.1-7,37.7-10.2,56.2c6-2.1,17.4,2.2,20.6-2.3C65.9,228,63.2,210.1,59.4,192z"/>
	<path d="M233.2,193c-6.9,2.2-13.9-10-5.6-11.4c17.2,2.7,33.7-9.7,50.1-3.9c12-6.5,28.5-0.4,42.5-0.4c12.7,4.4,63.9-5.3,59.3,12.6
		c-1.2,3.9-0.6,16.5-6.9,14.1c-4.9-13.9-30.8-2.7-44.8-4.5c-11,31.1-5.7,69.6-12.2,103.2c10.7-3.3,15.3,4.1,3.3,6.2
		c-9.4-0.3-18.9-0.6-28.2-2.3c-8.7-6.8,7.8-4.7,11.7-4.5c5.1-33.8,5.5-70.2,11.5-104.7c-5.1,1.7-10.2-0.5-15.4-0.2
		c24.8,32-23.2,63.8-53.2,52.2c-0.9,13.8,2.1,27.3-0.8,40.9c0.6,3.5-3.8,11.3,1.5,11.7c3.2,0.5,8.5-1,8.3,3.8
		c6.1,11.3-23.6,3.4-30,4.9c-3.2,0.2-5.9-3.2-4.5-6.2c1.9-3.4,8.8,0.9,8.5-4C228.8,264.7,233.7,229,233.2,193z M247.2,202.5
		c0.2,10.5-3.6,24.1-0.4,33.4c9.1,2.9,21.5,4.5,29.1-2.3C302.4,207.6,274.3,171.2,247.2,202.5z"/>
	<path d="M169.1,257.7c5-22.9,2.5-83.8,39.5-68.2C269,234.5,180.7,353.8,169.1,257.7z M216.7,236.9c-1.3-75.2-41.2-7-33,25.1
		C199.6,301.3,212.2,256.7,216.7,236.9z"/>
</g>
</svg>
