<?xml version="1.0" encoding="utf-8"?>
<!-- Generator: Adobe Illustrator 24.0.3, SVG Export Plug-In . SVG Version: 6.00 Build 0)  -->
<svg version="1.1" xmlns="http://www.w3.org/2000/svg" xmlns:xlink="http://www.w3.org/1999/xlink" x="0px" y="0px"
	 viewBox="0 0 800 800" style="enable-background:new 0 0 800 800;" xml:space="preserve">
<style type="text/css">
	.st0{fill:#AFAFAF;}
	.st1{fill:none;}
	.st2{font-family:'MyriadPro-Regular';}
	.st3{font-size:72px;}
</style>
<g id="circles_x5F_2">
	<g>
		<path d="M516.5-51.3c-0.3-1.6-0.7-3.2-1.1-5.1C516.6-55.1,516.6-55.1,516.5-51.3z"/>
		<path class="st0" d="M588.2,379.2c2.8,127.7-175.6,183.9-219.3,52.2C329,256.7,554.8,203.9,588.2,379.2z"/>
		<path class="st0" d="M125.7,450c59.6-2.3,105.5,56.3,102.2,112.8c-10.6,41.8-50.3,69.1-91.3,78.1C5.4,658.6,15.6,466.9,125.7,450z
			"/>
	</g>
	<rect x="19.6" y="709.9" class="st1" width="732.9" height="79.3"/>
	<text transform="matrix(1 0 0 1 19.561 761.0459)" class="st2 st3">No one likes to be alone</text>
</g>
<g id="square">
	<path d="M210.9,229.3c-32.6-34.3-42.6-90.4-64.6-133.5c-2.2-15.7,132.4-85.2,144.9-79c21.8,35.5,44,70,62.2,107.4
		c9.6,14.5,18.3,20-2.7,28.4C303.6,175.9,255.5,202.5,210.9,229.3z"/>
</g>
<g id="circles">
	<path d="M459.4,198.8c-141-37.7-62.8-216.5,64.5-182.6C660,50.4,570.6,212.3,459.4,198.8z"/>
	<path d="M642.4,636.6c-110.3,26.5-115.7-152.5-16-155.2C707.3,483.6,718.7,619.5,642.4,636.6z"/>
	<path d="M684.6,145.7c91.4,5.2,78.1,140.4-9.1,134.3C592.9,279.8,607.4,142,684.6,145.7z"/>
	<path d="M338.7,630c1.8-68,118.8-76.2,122.9-5.8C454.9,705.2,342.2,722.4,338.7,630z"/>
	<path d="M353.5,302.1c1.6,74.2-119.4,97.2-123.4,12.8c-0.8-32.7,34.4-56.2,62.8-61.9C320.1,252.4,353.9,272,353.5,302.1z"/>
	<path d="M321.1,517.1c0.6-0.6,0.9-1,1.4-1.5c-21.6,28-80.5,13.8-66.6-27.7C278.6,427.4,361,467.8,321.1,517.1z"/>
	<path d="M113.1,252.8c0.6-0.6,0.9-1,1.4-1.5c-21.6,28-80.5,13.8-66.6-27.7C70.6,163,153,203.5,113.1,252.8z"/>
	<path d="M195.5,344.2c1.6,74.2-119.4,97.2-123.4,12.8c-0.8-32.7,34.4-56.2,62.8-61.9C162.1,294.6,195.9,314.2,195.5,344.2z"/>
</g>
</svg>
