<?xml version="1.0" encoding="utf-8"?>
<!-- Generator: Adobe Illustrator 24.0.3, SVG Export Plug-In . SVG Version: 6.00 Build 0)  -->
<svg version="1.1" xmlns="http://www.w3.org/2000/svg" xmlns:xlink="http://www.w3.org/1999/xlink" x="0px" y="0px"
	 viewBox="0 0 180.7 55.7" style="enable-background:new 0 0 180.7 55.7;" xml:space="preserve">
<g id="equality">
	<g>
		<path d="M152.3,50.4c-0.1-0.2-0.6-0.3-0.6-0.1c-0.1-0.1-1.8-1-2.3-0.7c-0.1-0.5-12.2-0.8-12.7-0.4c-1.4-0.1-2.6-0.3-3.8-0.4
			c-2.8-0.2-5.6-0.5-8.5-0.6c-2.4-0.1-4.8-0.2-7.3-0.3c-3.7-0.1-7.4-0.1-11.1-0.2c-1.6,0-3.3-0.2-4.9-0.3c-3-0.2-6.1-0.3-9.1-0.4
			c-2.1-0.1-4.3,0.1-6.4,0c-0.5,0-1.1-0.5-1.4-0.9c-1.1-1.7-2.1-3.5-3.1-5.2c-0.7-1.1-3-1.7-4.1-1.1c-0.2,0.1-0.2,0.3-0.4,0.5
			c-2.1,2.9-4.3,5.7-7.5,7.6c-1.8,1.1-3.8,1.6-5.8,1.6c-3.4,0-6.7-0.4-9.9-1.6c-0.9-0.4-1.9-0.6-2.7,0.5c0,0.1-0.1,0.1-0.2,0.1
			c-2.1,1.3-3.1,2-4.6-1.2c-0.4-0.9-0.9-1.8-1.4-2.6c-0.3-0.6-0.7-0.9-1.3-0.5c-2.3,1.5-4.7,1.5-7.2,0.7c-0.2,0-0.3-0.1-0.5-0.1
			c-2.3-0.2-4.5-0.6-6.8-0.4c-6.2,0.4-12.3,0.5-18.5,0C9.2,44.2,8.1,44.1,7,44c-0.2,0-0.4-0.4-0.4-0.6c-0.2-2.2-0.5-4.5-0.6-6.8
			C5.6,32.3,5.2,27.9,5,23.5c-0.1-2.9,0.2-5.9,0.2-8.8c0-0.5-0.1-1.1-0.2-1.7c-0.2-1,0.1-1.6,1.1-1.7c0.6-0.1,1.2-0.1,1.8,0
			c5.2,0.9,10.5,0.7,15.7,0.9c2,0.1,4,0.4,6,0.5c0.6,0,1.2-0.2,1.7-0.3c2.8-0.7,5.7-1.4,8.5-2.1c0.3-0.1,3.9,0.6,5.4,0.5
			c2.5-0.1,5,0,7.4,0.3c3.2,0.4,3.8,1.3,4.3,4.4c0.6,3.3,1.1,6.5,1.9,9.7c0.4,1.8,1.2,3.6,3.4,3.8c0.8,0.1,1.7-0.2,2.4-0.6
			c4.1-2.7,7.2-11.5,7.8-12.7c1.2-2.4,2.5-4.7,3.9-7c0.2-0.4,0.8-0.7,1.3-0.7c3.7-0.3,7.5-0.5,11.2-0.8c1.5-0.1,2.9-0.1,4.4-0.1
			c0.4,0,1,0.4,1.2,0.7c1.3,2.5,2.7,5,3.7,7.6c1.5,4,2.8,8.2,4.2,12.3c0.1,0.3,0.2,0.5,0.3,0.8c0.5,2,1.7,2.8,3.8,2.5
			c1-0.1,2.1,0.3,3.1,0.4c0.3,0.1,0.7,0.1,1.3,0.2c0-0.8,0-1.5,0-2.2c0.2-2.9,0.4-5.8,0.6-8.7c0.1-0.9-0.1-1.3-1.1-1.4
			c-2.1-0.2-4.2-0.6-6.4-0.8c-0.9-0.1-1.6-1.2-1.7-2.6c0-3.1-0.1-6.3-0.1-9.4c0-0.7,0-1.3,0-2.1c1.2-0.9,3.5-0.6,4.2-0.6
			c1.2,0,2.4-0.1,3.6-0.1c3.2-0.1,6.4-0.2,9.5-0.2c2.1,0.1,4.2,0.5,6.4,0.7c0.6,0.1,1.1,0.2,1.7,0.3c3.3,0.2,6.6,0.5,9.8,0.6
			c2.3,0.1,4.6-0.2,6.9-0.2c1,0,2,0,3,0c0.6,0,1.3-0.2,1.9-0.3c0.2,0,0.4,0.1,0.7,0.1c0.3,0,0.8,0.2,1,0c0.9-0.7,1.8-0.8,2.8-0.4
			c0.4,0.2,0.9,0.4,1.3,0.7c0.9,0.6,1.8,1.3,2.7,1.9c0.1,0.1,0.2,0.3,0.3,0.4c0.7,1,1.3,1.9,2.1,3c0.8-0.7,1.6-1.4,2.3-2
			c1.3-1.2,2.6-2.4,4-3.6c1.2-1,4.7-0.8,5.8,0.3c1.7,1.8,3.4,3.6,5.1,5.5c0.8,0.8,1,1.8,0.4,2.8c-1.2,1.9-2.4,3.7-3.6,5.5
			c-0.6,0.9-1.2,1.8-1.8,2.7c-0.7,0.9-1.3,1.9-2,2.8c-2.8,4-5.6,8.1-8.5,12.1c-1.5,2.1-3.1,4-4.6,6.1
			C156.4,44,153.6,49.8,152.3,50.4z M49.8,32.3c0.1,0.3,0.1,0.5,0.1,0.7c0.6,3.3,2.1,6.2,5.2,7.6c2.2,0.9,4.7,0.9,7.1,1.2
			c1,0.1,2,0,2.9-0.4c3.2-1.2,5.7-3.3,7.5-6.2c0.7-1.1,1.4-1.8,2.7-1.5c0.6,0.1,1.2,0.1,1.8,0.1c1.7,0,3.4,0,5.1,0
			c0.8,0,1.4,0.3,1.8,1.2c0.7,1.7,1.3,3.4,2.2,4.9c0.6,1,1.6,2.2,2.6,2.5c1.8,0.5,3.8,0.3,5.7,0.3c1.6,0,3.1-0.4,4.7-0.3
			c2.6,0.1,5.2,0.6,7.8,0.8c2.5,0.2,5.1,0,7.6,0.2c2.4,0.2,4.7,0.5,7.1,0.9c1.6,0.3,3.3,0.8,4.9,1c1.8,0.2,3.7,0.1,5.5,0.2
			c0.4,0,0.8,0,1,0.2c0.7,0.8,1.5,0.4,2.3,0.4c0.7,0,1.4,0,2-0.1c1.6-0.2,3.3-0.2,4.7-0.8c1.5-0.7,3.1-0.7,4.5-0.5
			c2.3,0.3,4-0.2,5.2-2.1c0.4-0.6,0.6-1.4,1-2c0.5-0.7,4.2-5.5,4.3-5.7c0.7-0.9,1.3-1.8,2-2.6c1.1-1.5,2.2-3.1,3.5-4.5
			c2.3-2.3,4.3-4.8,6.1-7.6c1.3-2.1,2.8-4,4.3-6.1c-1.1-1.5-2.3-2.9-3.4-4.4c-0.6-0.7-1.1-0.6-1.7,0.2c-1.1,1.5-2.5,2.8-3.7,4.2
			c-0.7,0.8-1.2,1.7-1.9,2.6c0.1,0-0.1,0-0.3-0.1c0.1,0.4-1.1,1.2-1.4,1.1c-0.8-0.1-1.5-0.1-2.1-0.9c-1.6-2.4-3.2-4.8-5.4-6.7
			c-0.4-0.3-0.8-0.8-1.2-0.8c-1.1-0.1-2.2,0-3.3,0c-1.9,0-3.8,0.1-5.7,0.2c-1.2,0-2.5-0.1-3.7-0.1c-3.2,0-6.5,0-9.7,0.2
			c-3,0.2-6,0.5-8.9,0.1c-1-0.2-2.1-0.3-3.1-0.3c-3.5,0.1-7,0.3-10.5,0.4c0.1,1.6,0.3,3.2,0.5,4.8c0,0.3,0.6,0.9,0.9,0.8
			c2.1-0.4,3.8,0.6,5.7,1.1c0.4,0.1,0.8,0.7,0.8,1.1c0.1,2.7,0.1,5.3,0.2,8c0,3.2,0,6.3,0.1,9.5c0.1,2.1,0.1,2.2-2,2.1
			c-0.2,0-0.5,0-0.7,0c-1.1,0.1-2.2,0.2-3.3,0.3c-0.1,0.2-1.9-0.2-2.6-0.3c-1.1-0.1-2.3-0.1-3.4,0.2c-1.2,0.3-1.6-0.2-2-1.2
			c-1-3.1-2-6.2-3.1-9.3c-1.4-3.8-2.9-7.6-4.3-11.4c-0.6-1.5-1.2-2.7-3.1-2.8c-0.5,0-0.9-0.2-1.4-0.4c-1.8-0.6-3.6-0.3-5.5-0.1
			c1.5,2.5,2.8,4.9,4.2,7.2c0.4,0.6,0.5,1.4,0.8,2.1c1.2,2.1,2.4,4.2,3.6,6.2c0.7,1.1,1.5,2.1,2,3.3c0.6,1.3,0.9,2.6,1.3,3.9
			c0.5,1.9,0.5,1.9-1.3,2.9c-0.8,0.5-1.2,0.3-1.6-0.5c-0.4-1-2.6-3.8-2.9-4.5c-1-2-1.8-4.2-2.8-6.2c-1.7-3.2-3.5-6.2-5.3-9.4
			c-0.9-1.6-1.8-3.1-2.7-4.6c-1.7,0.8-1.7,2.6-2.4,3.9c-1.8,3.4-3.6,6.8-5.5,10c-1.2,2-2.5,4-4.6,5.3c-3.8,2.2-6.6,2.6-9.5-0.8
			c-1.1-1.3-1.9-2.9-2.5-4.5c-1.1-2.9-2.6-5.7-2.7-8.9c0-0.9-0.1-1.8-0.3-2.7c-0.1-0.3-0.5-0.7-0.8-0.7c-1.8,0.1-3.6,0.3-5.3,0.5
			c-0.4,0-0.7,0.1-1.1,0c-1.7-0.5-3.3-0.2-5,0.2c-4.4,1.1-7.7,3.4-10,7.4c0.2,0.1-2,2.5-3.4,1.6c-1.1-0.7-2.8-0.4-4.3-0.4
			c-3,0-6,0.1-8.9,0.3c-1.2,0.1-1.5-0.5-1.5-1.3c-0.1-1.8,0-1.8,1.7-1.9c3.5-0.3,7-0.5,10.5-0.6c0.8,0,1.2-0.3,1.5-1.1
			c0.5-1.9,1.5-3.5,3.3-4.4c0.4-0.2,0.7-0.6,1.1-1c-0.8-0.1-1.5-0.1-2.1-0.2c-1.3-0.1-2.7-0.4-4-0.4c-4.2-0.1-8.4-0.1-12.5-0.1
			c-0.9,0-1.7-0.4-2.6-0.5c-0.8-0.1-1.7,0-2.4,0C5.8,22.6,5.2,33,7.5,43.2c7.6,1.1,15.3,0.7,23,0.2c-0.4-0.4-0.8-0.7-1.3-1
			c-0.6-0.3-1.5-0.5-1.8-1c-1.1-1.9-2-3.8-3-5.8c-1-2-0.3-2.1-2.8-1.6c-0.2,0-0.4,0-0.6,0c-2.7,0.1-5.4,0.2-8,0.2
			c-0.6,0-1.2-0.6-1.8-1c-0.1-0.1,0.1-0.6,0.1-0.7c-0.3-0.4-0.7-0.8-0.7-1c0.2-0.4,0.5-1.1,0.9-1.1c2.5-0.5,4.9-1,7.4-1.2
			c1.7-0.1,3.5,0.2,5.2,0.3c0.5,0,1.2,0,1.6,0.3c1.8,1.7,3.5,3.5,4.3,5.9c0.3,0.9,0.7,1.9,1.2,2.7c1,1.4,3.6,2.1,5.3,1.7
			c0.8-0.2,1.6-0.3,2.3-0.3c2.3,0,5.4-2.1,5.9-4.3c0.4-2,1.3-2.9,3.3-2.8C48.6,32.6,49.1,32.5,49.8,32.3z"/>
		<path d="M135.1,38.1c-1.5-0.1-2.9-0.2-4.4-0.2c-2.4,0-4.9,0.1-7.3,0.2c-0.1,0-2.4-1.2-2.6-1.6c-0.1-0.2-0.3-4.2-0.1-5.5
			c0.1-1.2-0.3-2.4-0.4-3.7c-0.1-1-0.1-2-0.1-3c-0.1-2.7-0.2-5.4-0.3-8.1c0-0.2,0.5-0.6,0.8-0.7c3.1-0.6,6.2-0.4,9.2,0.9
			c0.6,0.3,1.4,0.3,2.1,0.4c1.2,0.2,2.4,0.3,3.6,0.5c0.9,0.1,1.5,0.4,1.5,1.5c0,1.8,0.1,3.6,0.2,5.4c0.1,3.9,0.1,7.7,0.2,11.6
			c0.1,2.1,0.2,2.1-2,2.1c-0.1,0-0.2,0-0.4,0C135.2,38,135.2,38,135.1,38.1z M124.3,32.3c0.9,0.1,1.9,0.2,2.9,0.3c0.4,0,0.8,0,1.2,0
			c1.5-0.1,5-0.7,5.2-1.2c0.2-0.4-0.9-6.1-0.9-6.5c0-1,0-2.1-0.2-3.1c-0.1-0.4-0.5-0.9-0.8-0.9c-2.8-0.4-5.7-0.8-8.9-1.2
			C123.4,24.1,123.8,28.2,124.3,32.3z"/>
		<path d="M141.9,18.5c0-0.9,0.7-1.2,1.6-1.3c3.4-0.2,6.7-0.5,10.1-0.8c0.4,0,0.9,0.3,1.1,0.6c0.9,1.2,1.7,2.4,2.5,3.6
			c0.4,0.6,0.5,1.2,0.1,2c-2.1,4.2-4.6,8.1-7.7,11.6c-0.8,0.9-1.3,1.9-2.1,2.7c-1,1.1-2.1,2.1-3.2,3.1c-0.3,0.2-0.9,0.5-1.1,0.4
			c-0.3-0.2-0.6-0.7-0.6-1.1c-0.1-2.2-0.1-4.4-0.1-6.6c-0.1-3.6-0.1-7.2-0.2-10.8c0-0.7,0-1.3,0-2C142.2,19.5,142,19,141.9,18.5z
			 M146.3,33.9c3.7-3.4,5.7-7.6,8.1-12c-2.9,0.4-5.5,0.8-8.1,1.1C146.3,26.7,146.3,30.2,146.3,33.9z"/>
		<path d="M40.7,30.9c-3.4-0.6-5.2-1.7-4.9-5.8c0.1-0.8-0.2-1.5,0.2-2.4c1.2-2.7,3.7-3.4,6-4.5c0.1-0.1,0.6,0.1,0.7,0.3
			c1,2.2,1.9,4.5,2.8,6.7c0.3,0.8,0.7,1.7,0.9,2.5c0.1,0.3,0.1,0.8-0.1,0.8C44.7,29.7,43.1,31.1,40.7,30.9z"/>
		<path d="M79.2,18.5c0.1,0.3,0.2,0.6,0.2,0.9c0,0.3,4.9,8.9,5.4,8.9c-0.8,1.8-8.5,2.2-11.7,0.6c0.5-1.4,1.1-2.8,1.6-4.2
			c0.5-1.2,0.8-2.4,1.5-3.4c0.7-1.1,1.7-1.9,2.5-2.9C78.9,18.4,79.1,18.5,79.2,18.5z"/>
	</g>
</g>
<g id="equal">
	<rect x="11.1" y="19.6" width="14.8" height="4.2"/>
	<rect x="11.1" y="29.6" width="14.8" height="4.2"/>
</g>
</svg>
