<?xml version="1.0" encoding="utf-8"?>
<!-- Generator: Adobe Illustrator 24.0.3, SVG Export Plug-In . SVG Version: 6.00 Build 0)  -->
<svg version="1.1" xmlns="http://www.w3.org/2000/svg" xmlns:xlink="http://www.w3.org/1999/xlink" x="0px" y="0px"
	 viewBox="0 0 674.9 536.2" style="enable-background:new 0 0 674.9 536.2;" xml:space="preserve">
<g id="horseMain">
	<path d="M98.5,182.2c-2.8,0.8-5.3,1.2-7.5,2.2c-5.4,2.4-10.7,5-16,7.6c-1.1,0.5-2,1.5-3,2.3c-0.5,0.4-0.8,0.8-1.3,1.2
		c-5.6,3.7-10.1,8.7-14.9,13.4c-3.1,3.1-7.1,5.1-11.7,6.7c0.2-0.9,0.2-1.5,0.4-1.9c3.5-6.4,6.5-13.1,11.9-18.2
		c1.2-1.1,2.3-2.4,3.6-3.4c2.1-1.6,3.6-3.5,4.4-6c0.9-2.5,1.8-4.9,2.7-7.3c2.8-6.8,5.5-13.7,8.5-20.4c1.7-3.7,4.3-6.9,7.4-9.6
		c2-1.8,3.9-3.7,5.9-5.6c6.5-6.3,14-11.3,22-15.6c2.3-1.2,4.4-2.7,6.4-4.4c-2.7,0.4-5.5,0.6-8.2,1.1c-4.1,0.7-8.2,1.4-12.2,2.6
		c-3,0.9-5.9,2.4-8.8,3.6c-2,0.8-4.1,1.8-6.2,2.1c-3,0.5-5.3,2-7.5,3.8c-2.8,2.4-5.6,4.8-8.5,7c-3.5,2.7-7.6,4-11.8,5.2
		c-1.2,0.4-2.6,0.1-3.9,0.1c-0.1-0.2-0.2-0.4-0.3-0.6c0.5-0.5,0.9-1,1.4-1.5c1.1-1,2.2-1.9,3.3-2.8c1.4-1.2,1.6-2.6,0.7-4.2
		c-1.2-0.4-2.5-0.8-4-1.3c5.4-5.2,9.1-11.3,13.3-17c5.8-7.7,12.2-14.9,19.3-21.4c3.6-3.4,8.2-5.1,12.8-6.8c7.5-2.8,15.2-4.8,23-6.4
		c2.8-0.6,5.8-1,8.7-1.1c6.2-0.4,12.4-1,18.6-0.7c8.5,0.4,17,1.5,25.5,2.4c6.2,0.6,12.4,1.1,18.6,0.6c2.4-0.2,5,0.2,7.2-0.5
		c4.9-1.7,10.1-1.7,15.1-2.8c3-0.7,6.2-0.5,9.2-0.6c6.3-0.2,12.5-0.2,18.8-0.4c2.8-0.1,5.5-0.8,8.3-1.2c3.1-0.4,6.2-0.6,9.2-0.9
		c1.3-0.2,2.6-0.7,4-0.8c3-0.2,6.1-0.7,9-0.1c2.8,0.5,5.3,2.2,7.9,3.4c0.2,0.1,0.4,0.3,0.4,0.4c-0.5,2.5,1.7,2.3,3,3
		c4.3,2.5,9,4,13,7c3.3,2.5,6.5,5.2,9.1,8.5c0.7,0.9,1.5,1.7,2.3,2.7c1.1-1.3,2-2.4,2.9-3.5c1.6,0.9,1.4,2.2,1.4,3.3
		c-0.1,3.9,0.6,7.5,3,10.7c2.1,2.8,4.1,5.6,6,8.6c1.3,2,2.6,4.2,3.4,6.4c0.9,2.8,2.5,5.1,4.5,7c4.7,4.5,9.5,8.9,14.1,13.5
		c4.2,4.1,9.3,6.6,14.5,9.1c2,1,4,1.9,6,2.9c4,2.2,7.8,4.8,12,6.5c2.5,1,5,2.1,7.5,3.2c3.4,1.4,7.1,2.3,10.3,4
		c2.7,1.5,5.4,3.7,7.3,6.1c4.5,5.6,8.5,11.6,10.4,18.7c0.4,1.4,0.3,2.9,0.2,4.3c-0.1,1.1-1.1,1.7-2.1,1.6c-2.3-0.2-4.5-0.7-6.8-1.1
		c-1.3-0.2-2.1-1.1-2.7-2.4c-2.1-4.5-5.4-7.4-10.5-8.1c-8.6-1.2-17.1-2.7-25.6-4.1c-0.5-0.1-0.9-0.1-1.9-0.1c0.6,1.1,1,2,1.5,2.8
		c3.3,4.8,6.3,9.8,10,14.3c5.1,6.2,8.8,13.2,12.9,20.1c7,11.6,10.3,24.4,10.4,38c0,2.5-0.7,5-1.3,7.4c-0.6,2.8-1.2,5.7-2,8.5
		c-1.2,4.7-3.4,8.8-7.5,11.7c-0.2,0.2-0.4,0.4-0.7,0.8c0.6,1,1.1,2,1.8,2.9c3.2,4.4,6.3,8.9,9.5,13.2c3.4,4.5,5.8,9.4,7.8,14.6
		c0.7,1.8,1.4,3.7,2.4,5.3c4,6.6,6.3,14,9,21.1c1.2,3.3,2.6,6.5,3.7,9.8c1.2,3.5,2.5,6.9,3.4,10.5c1.1,4.3,1.4,8.7-1,12.4
		c2.2,6.5,2.8,12.4-0.9,18.4c-1.7,2.6-3.9,4.5-6.1,6.5c-0.5,0.5-1.5,1-2.1,0.8c-2.6-0.6-4.7,0.7-7.2,1.3c0.2,0.6,0.2,1.1,0.5,1.6
		c1.8,3.8,1.5,7.6,0,11.3c-1.5,3.8-4,6.8-7.2,9.4c-2.3,1.9-3.5,1.7-4.6-1.1c-0.3-0.8-0.3-1.8-0.4-3c-1.6-0.1-3.3-0.2-5.1-0.3
		c-5.5-0.2-9.3-2.8-11.7-7.7c-0.5-1-1.3-1.9-2.1-2.6c-1-0.8-1.5-1.7-1.3-3c0.2-1.4,1.1-2.1,2.4-2.6c1.9-0.7,3.7-1.6,5.5-2.5
		c0.7-0.4,1.3-1.1,2.2-1.9c-3.2-1.8-6.3-3-9.4-3.9c-7.7,5.9-16.4,6.7-25.5,5.8c-2.8-0.3-5.6-0.3-8.4-0.5c-3-0.2-3-0.1-3.2-3.2
		c-1.8-0.9-3.6-1.4-5.8-0.9c-1.8,0.4-3.8-0.1-5.8-0.2c-0.8,0-1.6,0-2.4,0c-0.1,0.2-0.1,0.5-0.2,0.7c1.1,0.5,2.1,1.1,3.3,1.3
		c3,0.6,5.6,2.2,8,4c2.9,2.2,4.4,5.5,5.7,8.7c1.9,4.6,3.2,9.4,4.7,14.1c0.5,1.7,1.1,3.3,1.7,5.3c1.2-0.2,2.3-0.2,3.3-0.6
		c1.6-0.7,3.1-1.6,4.6-2.5c0.5-0.3,1-1,1.4-0.9c1.8,0.2,2.5-0.8,3.4-2.1c0.8-1.3,2.2-1.2,3.1,0.1c2.4,3.7,6.1,5.2,10.2,6
		c2.8,0.6,4.5,2.1,4.6,4.9c0,6.6-3.5,12.6-11.4,14c-0.7,0.1-1.5-0.1-2.5-0.2c-0.6,1.8-1.1,3.5-1.7,5.2c-1.1,3-2.9,4.1-6,3.9
		c-4.6-0.3-9.3-0.6-13.7-2.4c-2.9-1.2-5.3-3.2-7.1-5.8c-1.9-2.7-3.6-5.5-5.3-8.3c-1-1.7-2.2-2.7-4.3-2.8c-5.9-0.5-11.2-2.8-16.6-5
		c-1.6-0.7-3.3-1.2-4.8-2c-1.5-0.7-3-1.4-4.3-2.5c-3-2.4-5.9-4.8-8.6-7.4c-4.5-4.3-6.9-9.6-7-15.8c0-1.3,0-2.6-0.7-3.9
		c-0.6-1.2-1.5-1.8-2.6-2.5c-5.2-3.6-10.9-6.4-15.5-10.8c-3.1-3-6.3-6-9.7-8.7c-2.9-2.3-5.3-5.1-7.8-7.8c-2.8-3-5.6-6.2-8.4-9.3
		c-0.6-0.6-1.3-1.3-2.1-1.5c-5.3-1.6-10.3-3.8-14.7-7.2c-2.1-1.6-4.2-3.2-6.4-4.5c-6.7-3.6-12.2-8.6-17.6-13.8
		c-4.5-4.3-8.9-8.7-12.7-13.7c-0.5-0.6-1-1.1-1.9-2.1c-0.3,2.1,0.5,3.4,1.3,4.6c1.4,2,3.4,3.5,3.6,6.2c0,0.3,0.7,0.5,1,0.9
		c0.3,0.4,0.8,1.1,0.7,1.4c-1,1.7-0.1,3.2,0.1,4.8c0.2,1.2,0.3,2.3,0.5,3.5c0.3,1.4,0.8,2.8,1.6,4.2c-0.9,5.1-1.3,10.2-2.7,15.1
		c-3,10.5-5.6,21.2-9.5,31.5c-5.2,13.5-6.4,27.5-5.4,41.9c0.2,3.5,0.1,7,0.1,10.5c0,2.2-0.9,2.7-3,1.8c-0.8-0.3-1.4-0.9-2.1-1.5
		c-0.4-0.4-0.6-1.2-1.1-1.3c-2.5-0.5-2.1-2.4-2.2-4.1c-0.4-6.2,0.4-12.4,0.8-18.6c0.4-6,1.1-11.8,2.6-17.5c0.8-3,1.6-6,2.4-9
		c0.3-1,0.4-2,0.8-3.7c-0.8,0.7-1.2,0.9-1.5,1.2c-4.3,5.5-9.8,9.7-15,14.2c-4.1,3.5-8.6,6.4-12.4,10.1c-5.2,5.1-10.4,10.2-14.7,16.2
		c-1.8,2.6-3.3,5.5-6.7,6.6c-2-1.9-2.1-1.9-0.7-4c1.3-2.1,2.7-4.1,4-6.2c-0.9-0.2-1.7-0.4-2.5-0.5c-3,2.7-6.1,5.3-8.1,9.1
		c-0.2-0.1-0.3-0.2-0.5-0.4c0.4-1,0.8-2.2,1.3-3.1c3.1-5.5,6-11.1,9.4-16.4c3-4.7,7.4-8.1,12-11.3c6.9-4.9,13.8-10,20.4-15.4
		c5-4.1,9.5-8.9,13.3-14.2c1.2-1.7,2.4-3.6,3.4-5.4c0.5-0.8,1.2-1.5,1.7-2.2c1.1-1.6,2-3.6,2.4-5.5c0.5-2.5,0.7-5.2,0.6-7.8
		c-0.1-5.2,0.1-10.5-0.7-15.7c-1-6.6-2.8-13.1-4.2-19.6c-0.3-1.2-0.4-2.5-0.4-3.8c0.2-5.6,0.6-11.2,0.8-16.9c0.1-2.2,0-4.5-0.3-6.7
		c-1-9.8-1.6-19.5-0.8-29.4c0.5-6.6,0.2-13.2-1-19.7c-0.2-1-1-2-1.8-3.3c0.2-1,0.5-2.3,0.9-4.2c-1.5,0.7-2.6,1.4-3.7,1.5
		c-1.1,0-2.2-0.7-3.6-1.2c-0.5,0.5-1.3,0.9-1.7,1.6c-2.9,4.5-7.2,7.9-10.4,12.1c-3.8,5-8.7,9.2-10.9,15.4c-0.5,1.4-1.4,2.7-2.2,4.1
		c-2.9,4.9-5.8,9.8-8.8,14.9c0.5,0,0.9,0,1.2-0.1c1.5-0.4,2.5,0.3,2.9,1.7c0.7,2.4,1.4,4.9,1.9,7.3c0.4,1.7,0.4,3.5,0.8,5.2
		c1.7,6.1,0.4,11.9-1.9,17.6c-2.4,6.1-6.1,11.4-10.1,16.6c-0.9,1.2-1.6,2.5-2.5,3.6c-1.8,2.3-3.5,4.7-5.7,6.6
		c-5.5,4.8-10.7,9.8-16.8,13.9c-5.9,4-11.3,8.9-17,13.2c-4.1,3-8,6.2-11.3,10c-2.9,3.4-5.7,6.9-8.2,10.6c-2.6,3.9-4.8,8-7.1,12
		c-0.6,1.1-1.2,2.3-1.5,3.5c-1.5,5.1-4.4,9.4-7.3,13.8c-0.6,0.9-1.8,1.3-3,2.2c-0.3-1.8-0.5-3.1-0.7-4.7c-1,0.3-1.8,0.6-2.4,0.8
		c0-3.1-0.1-6.1,0-9c0.1-2.8,0.2-5.6,0.5-8.4c0.9-7.4,2.1-14.8,3-22.2c0.3-2.6,0.5-5.2,0.7-7.8c0-0.4-0.1-0.7-0.3-1.4
		c-1.4,0.6-2.6,1.1-3.8,1.7c-0.2,0.1-0.4,0.2-0.5,0.3c-2.5,2.5-6.6,1.8-8.8,4.8c-2.1,2.8-5.5,3.8-8.6,5.5c-1.9-1.5-4.2-2.1-6.7-1
		c-0.4-0.9-0.7-1.7-0.9-2.2c2.2-1.7,4.1-3.2,5.7-4.5c0.3-1.5,0.1-2.9,0.7-3.8c1.3-2.2,1.6-4.6,2-7c1-6.1,2.2-12.2,4.1-18.2
		c1.4-4.3,2.2-8.9,3.6-13.2c2.6-8.1,6.3-15.9,10-23.6c2.6-5.3,5.9-10.2,9.1-15.2c2.4-3.9,4.6-7.9,7-11.7c1-1.6,2.3-3.1,3.4-4.7
		c3.7-5.2,7.3-10.5,11-15.7c0.7-0.9,1.4-1.8,2.2-2.7c0.8-1,1.7-2.1,2.3-3.5c-0.4,0.2-1,0.3-1.3,0.6c-3.4,3.2-6.6,6.6-10.1,9.6
		c-3.8,3.3-6.9,7-8.6,11.8c-0.1,0.3-0.4,0.6-0.8,1.1c-2.1-0.8-3.3,0.4-4.5,2c-2.9,3.9-5.6,7.9-8.9,11.5c-2.9,3.1-5.6,6.7-9.8,8.4
		c-1.5,0.6-2.8,1.9-4.7,3.2c0.2-1,0.1-1.5,0.3-1.9c1.3-2.7,2.5-5.4,3.9-8c1.1-1.9,2.5-3.7,3.7-5.5c1.9-2.7,3.6-5.6,5.7-8.1
		c2.6-3.2,3.7-7.1,4.8-10.8c1.4-4.7,2.3-9.6,3.4-14.4c0.7-2.9,1.1-5.9,1.9-8.8c2-7.2,4-14.4,6.2-21.5c0.9-2.8,2.1-5.7,3.7-8.2
		c6.3-9.7,12.7-19.3,19.3-28.8c3.9-5.6,9.1-10.1,14.9-13.8c0.4-0.3,0.8-0.5,1.2-0.8C98.3,183.1,98.3,182.9,98.5,182.2z M179.8,244.4
		c0.2,0.6,0.4,1.2,0.8,1.8c1.8,2.8,2.5,5.8,2.5,9.1c0,1.3,0.1,2.5,0.3,3.8c0.8,4,1.9,7.9,2.4,12c1,7.3,1.8,14.6,2.6,22
		c0.2,2.4,0,4.8,0,7.3c-0.1,3.9-0.2,7.7-0.3,11.6c-0.1,2.6-0.3,5.2-0.4,7.8c-0.1,1.9,0.1,3.9-0.2,5.8c-0.2,1.4,0,2.5,0.8,3.5
		c3.2,4.6,6.8,9,10.9,12.8c6.2,5.8,12.5,11.4,19.9,15.6c4.5,2.6,8.5,6.1,13.2,8.4c1.8,0.9,3.2,0.9,5,0.2c6.9-2.4,13.3-5.9,19.1-10.4
		c2.6-2.1,5.3-3.9,7.9-5.8c2.6,1.7,2.7,4.4,0.4,6.3c-1.9,1.5-4,2.8-5.6,4.6c-3.1,3.3-6.9,5.6-11,7.6c-1.8,0.9-3.6,1.8-5.6,2.8
		c0.7,0.9,1.1,1.5,1.6,2c3.2,3.4,6.2,7,9.6,10.2c3.8,3.7,7.8,7.3,12,10.6c4.8,3.8,9.7,7.4,14.9,10.7c5,3.2,7.2,2.9,11.6-0.9
		c2-1.7,3-3.8,2.5-6.4c-0.6-2.9-0.3-5.8,0.3-8.7c1.1-4.8,4.1-8.3,8.2-10.9c0.5-0.3,1.2-0.7,1.6-0.5c1.5,0.7,2.6-0.4,3.8-0.8
		c1.5-0.5,2.9-1,4.4-1.3c1.9-0.3,3.9-0.1,5.8-0.7c2.5-0.7,4.1,0.6,5.8,1.8c1.5,1.1,1.1,2.4-0.6,2.9c-0.7,0.2-1.5,0.3-2.3,0.4
		c0.2,1.1,0.4,2,0.7,3.3c9.2-1.1,18.3-1.5,27.4-0.2c7.7,1.1,23.3,5.4,25.9,8c-1.6,0.5-2.9,0.4-4.3-0.1c-1.4-0.5-2.8-0.8-4.2-1.3
		c-1.5-0.5-3.3-0.8-4.5-1.7c-3.2-2.5-7.1-3-10.8-2.8c-3.1,0.2-5.9,0.4-9-0.2c-2.5-0.5-5-0.6-7.5-0.8c-0.5,0-1-0.1-1.4,0
		c-2.8,0.3-5.6,0.7-8.4,1.1c-0.9,0.1-1.9,0.4-2.6,1c-1,0.9-2,1-3.2,0.9c-1.7-0.2-3.4-0.1-5.1,0.8c-1.6,0.9-3.2,0.7-4.4-0.9
		c-0.9-1.3-1.9-1.1-2.6-0.1c-1.3,1.9-2.7,3.9-3.3,6.1c-0.9,3.1-1.2,6.5-1.8,9.7c-0.3,1.4-0.5,2.9-1.1,4.2c-1.9,4.3-5,7.5-9,10.1
		c0.1,4,0.7,7.9,4.8,10.1c0.5,0.3,0.9,0.7,1.3,1.1c0.9,1.2,0.8,2.5-0.2,3.7c-0.3,0.3-0.7,0.5-1.1,0.8c4.6,5.3,21.5,12.2,28.5,11.7
		c0.2-3.4,0.7-6.9-2.7-9.4c-1.6-1.2-1.6-3-0.4-4.7c0.3-0.5,0.9-0.8,1.1-1.3c0.4-1.1,1.4-1.6,2.3-1.3c0.6,0.2,1.2,1.2,1.4,1.9
		c0.8,2.2,1.3,4.5,2.2,6.6c1.1,2.6,1.7,5.2,0.9,7.9c-0.6,2-0.1,4.1,0.7,5.6c1.8,3.4,4.1,6.6,6.6,9.5c1.8,2.1,4.2,3.4,7.1,3.6
		c2,0.1,4,0.1,6,0.2c3.2,0.2,4.5-0.5,6.2-3.9c-1.2-0.7-2.4-1.5-3.7-2.1c-2.5-1.1-4.2-3.1-5.8-5.2c-4.8-5.9-7.3-13-9.6-20.1
		c-1.3-4-3-7.5-7-9.6c-4.9-2.5-9.3-5.9-14.5-7.9c-0.8-0.3-1.6-0.7-2.3-1.2c-3.5-2.2-5.3-6.6-4.4-10.6c0.3-1.2,0.1-2.5,0.4-3.7
		c0.2-0.9,0.5-2.1,1.1-2.5c1.6-1,3.4-2.1,5.2-2.4c4-0.6,8.1-0.7,12.2-1.1c0.6-0.1,1.6-0.2,1.8-0.6c0.8-1.8,2.3-1.5,3.7-1.5
		c3-0.1,6-0.2,9-0.2c4.6,0,9.1-0.2,13.6,0.9c4.2,1,8.5,1.7,12.8,2.6c0.7,0.1,1.3,0.4,1.9,0.6c3.9,1.4,7.9,2.7,11.8,4.1
		c2.1,0.7,4.2,1.6,6.2,2.5c0.5,0.2,0.9,1.1,0.8,1.6c-0.1,0.5-0.9,1.2-1.4,1.2c-1.3,0.1-2.7-0.1-3.9-0.4c-2.5-0.6-4.9-1.3-7.3-2
		c-0.1,0.2-0.1,0.4-0.2,0.6c1.3,0.5,2.6,1.3,4,1.6c4.4,1,8.9,2,13.4,2.8c2.1,0.4,4.2,0.1,6.4,0.2c1.6,0.1,3.3,0,4.9,0.3
		c2.4,0.3,4.2-0.3,5.4-2.3c1-1.8,2-3.6,2.9-5.4c1.5-3.1,1.3-6.3,1.1-10.1c-2.1,0.8-3.8,1.6-5.5,2c-1.8,0.5-3.7,1.5-5.7-0.1
		c0.9-2.4,2.2-4.1,4.9-4.8c1.9-0.5,3.9-1.4,5.4-2.7c1.7-1.4,3-3.6,2.6-5.9c-0.5-2.6-1.1-5.2-2.4-7.4c-2.3-3.9-4.1-8.1-6.1-12.2
		c-5.5-11.3-11.1-22.5-16.7-33.6c-1-2.1-2.7-3.8-3.6-5.9c-2.6-5.9-5.8-11.4-10-16.2c-4.4-5-8.5-10.1-12-15.8
		c-2.1-3.5-4.4-6.9-6.4-10.4c-1.6-2.9-2.8-6-4.2-9c-2.3-4.9-4.3-10-5.6-15.3c-0.3-1.2-0.8-2.4-1.3-3.5c-2.1-4.1-4.3-8-7.7-11.2
		c-0.9-0.9-1.7-1.9-2.6-2.8c-1-0.9-1.1-1.7-0.5-2.8c0.2-0.4,0.3-0.9,0.6-1.5c-1.1-0.9-2.1-1.8-3.2-2.5c-2.7-1.9-5.7-3.1-8.9-4.3
		c-4.3-1.6-8.5-3.7-12.7-5.7c-2.8-1.3-5.5-2.9-8.2-4.3c-0.6-0.3-1.2-0.5-2-0.8c-0.9,2.9-1.6,5.7-2.6,8.4c-1.1,2.6-2.5,5.1-3.7,7.6
		c1.7,1.1,3,2.1,4.5,2.9c1.5,0.8,2.8,2.2,4.8,1.3c0.3-0.2,0.9,0.2,1.3,0.4c3.1,1.4,6.2,2.8,9.1,4.4c2.2,1.3,4.2,3,6.3,4.6
		c2.9-1.7,4.8-1.6,6.2,0.8c3.7,6.2,6.7,12.7,6.6,20.2c-0.1,3.8,0.3,7.5,1.9,11.1c0.4,0.9,0.6,1.9,0.7,2.8c0.2,1.2-0.4,2.2-1.5,2.6
		c-1.1,0.4-2.3,0.4-3-1c-0.2-0.4-0.5-0.8-0.8-1.1c-2.8,0.4-3.3,0.4-4.3-2.1c-0.8-2-1.3-4.2-1.9-6.4c-0.3-1-0.3-2.1-0.4-2.6
		c-1.3-0.7-2.6-0.9-3-1.7c-1.4-2.7-3.8-3.8-6.3-4.9c-0.9-0.4-1.8-0.8-2.5-1.4c-6.2-4.5-10.2-10.3-10.5-18.2c-0.1-1.6-0.7-2.5-2-3.1
		c-2.6-1.2-4.8-2.9-6.5-5.3c-0.1-0.1-0.3-0.1-0.7-0.2c-4.7,5.7-9.6,11.3-9.6,18.8c-1.8,0.9-3,1.7-4.3,2.2c-0.5,0.2-1.3,0.2-1.8,0
		c-0.3-0.2-0.6-1-0.5-1.5c0.2-1,0.7-2,1-3c0.6-1.8,0-2.5-1.9-2.4c-1,0.1-2.1,0.5-3.1-0.6c2.4-2.5,5.9-4.3,5.9-8.5
		c-2.2,0.7-2.3,0.7-2.8-1.2c-0.7-2.4-0.9-5-1.9-7.3c-2-4.3-2.2-8.8-2.1-13.4c0.3-8.5,0.5-17,0-25.5c0-0.6-0.2-1.2-0.4-1.7
		c-0.7-1.7-1.3-3.5-2.2-5.1c-0.9-1.7-1.9-3.5-3.3-4.7c-3.1-2.4-6.6-4.4-9.9-6.6c-0.6-0.4-1.4-1-2-1c-1.9,0.1-3.4-0.8-4.9-1.6
		c-1.2-0.7-2.5-1.1-4.1,0c1.7,3.1,3.1,6.4,5.2,9.2c1.6,2.2,4,4.1,6.4,5.5c5.8,3.5,9.2,8.5,10.5,15c0.9,4.7,0.6,9.3-1.7,13.6
		c-0.6,1-1.2,1.7-2.4,1.9c-1.6,0.3-3.1,0.2-4.6-0.7c-0.8-8.2-6.1-12.5-13.6-15.2c-0.1,1.1-0.3,1.8-0.3,2.6c0.1,3.4-0.8,6.5-1.9,9.6
		c-0.5,1.5-1.1,2.7-2.9,2.7c-0.4,0-1,0.3-1.2,0.7c-1.1,1.7-2.8,2.2-4.6,2.8c-1.4,0.4-2.8,1-4.3,1.5c1.8,3.4,1.6,6.7-0.8,9.4
		c-4.2,4.6-8.3,9.3-13.3,12.9c-0.9,0.7-2,1.5-3.1,1.6c-2.8,0.3-5.5,0.2-8.3,0.2c-0.4,0-0.9-0.2-2-0.4c4.4-4.2,8.8-7.8,12-12.7
		C212.7,227.7,183.9,240.4,179.8,244.4z M34.9,379.5c2.8-0.2,4.6-1.7,6.5-3c6.9-5,13.3-10.5,18.1-17.6c2.4-3.5,4.9-7,7.3-10.5
		c0.6-0.8,1.2-1.5,1.8-2.3c1.6-2.1,3.3-4.1,4.8-6.2c4.5-6.4,9.3-12.4,15.1-17.6c3.7-3.3,7.1-6.9,10.6-10.4c0.5-0.5,1-0.9,1.5-1.3
		c3.3-2.5,6.6-5,10-7.5c6.7-4.9,11.8-11.2,16-18.2c1.3-2.2,2.7-4.5,4-6.7c3.2-5.1,6.3-10.2,9.6-15.2c3.8-5.8,7.9-11.5,12.8-16.6
		c1.7-1.7,3.5-3.5,5.5-4.7c2.2-1.2,2.7-4,5.1-4.8c2-3.3,5.4-5,8.3-7.1c2.5-1.8,5.2-3,8.1-3.8c2.3-0.6,4.6-1.4,6.9-2.1
		c2-0.6,4-1.5,6.1-2c2.1-0.5,4.2-0.5,6.3-0.9c3.3-0.7,6.6-1.5,9.9-2.2c4.1-0.9,8.2-1.6,12.3-2.5c2.5-0.6,5.1-1.3,6.6-3.8
		c2.8,0.5,5-0.8,7-2.6c1.7-1.5,1.6-2.2-0.2-3.9c0.9-1.5,0.9-1.5,0.1-3c-4.3-8.4-6.9-17.2-7.5-26.7c-0.3-5.5-1-11-1.8-16.5
		c-1.1-7-3.8-13.6-6.2-20.3c-0.3-1-0.5-2.1-0.4-3.1c0.1-2.1,1.8-2.5,3.3-3.1c1.5-0.6,2.1,0.5,2.8,1.4c0.4,0.5,0.8,1,1.2,1.4
		c1.1-0.2,2-0.4,3.1-0.6c0.2,0.8,0.3,1.5,0.5,2.1c0.2,0.8,0.3,1.8,0.7,2.5c1.5,2.4,3.5,4.4,5.9,5.9c4.5,2.8,9,5.7,13.6,8.4
		c5.9,3.5,12,6.8,17.9,10.3c1.9,1.1,3.7,2.5,5.4,4c1.6,1.4,3,3,4.5,4.6c1.9,1.9,3.7,3.9,5.5,5.8c0.2-0.1,0.4-0.2,0.7-0.3
		c-0.5-6.7-1.7-13.2-3.5-20.1c1.7,0.6,3.1,1,4.9,1.6c-0.2-1.4-0.3-2.6-0.4-3.5c-2.9-1.1-5.6-1.9-8.2-3c-6.8-2.7-12.9-6.7-18.7-11.1
		c-4-3-7.5-6.5-10.6-10.4c-1.1-1.4-1.7-3.2-2.6-4.9c0.7,0,1.1,0.2,1.4,0.4c3.4,3.1,6.7,6.5,10.4,9.3c8.1,6.4,16.8,11.9,26,16.6
		c1.5,0.8,3.5,1.3,3.7,3.5c2.6,2.5,3.4,6,4.8,9.1c1,2.1,2.1,4.1,3.2,6.2c0.7,1.2,1.6,2.2,2.2,3.4c3.1,5.9,7.2,10.8,12.6,14.6
		c1.3,0.9,2.7,2,3.8,3.2c4,4.5,8,9,11.9,13.6c1.2,1.3,2.1,2.8,2,4.7c-0.1,1.4,0.6,2.3,1.4,3.4c1.6,2.2,3.9,2.6,6.2,3.5
		c2.9,1.1,5.8,2.1,8.6,3.4c3.7,1.7,7.2,3.8,10.9,5.5c3,1.4,5.5,3.3,7.7,5.6c1.9,2,3.6,4.1,5.7,5.7c2.8,2.2,5.2,4.7,7.2,7.6
		c0.3,0.5,0.9,0.8,1.7,1.5c-0.1-1-0.1-1.5-0.3-1.9c-1.2-2.7-2.3-5.3-3.6-7.9c-1.5-2.8-3.1-5.6-6-7.3c-0.6-0.3-1-0.9-1.5-1.4
		c-2.1-2.1-4-4.4-6.2-6.4c-2.2-1.8-4.7-3.3-7.1-4.9c-1.6-1-3.5-1.6-5.1-2.7c-3-2-5.9-4.1-8.8-6.1c-5.3-3.6-10.5-7.3-13.7-13.2
		c-0.2-0.3-0.5-0.6-0.8-0.9c-2.3-3.2-4.9-6.3-6.9-9.7c-4.2-7-8.1-14.2-12.1-21.3c-1.9-3.3-2.8-6.9-3.5-10.9c2.9,1.3,5.6,2.2,7.1,5.1
		c1.8,3.4,3.6,6.7,6.1,9.8c3.2,3.9,5.3,8.5,7.9,12.8c0.7,1.2,1.4,2.4,2.2,3.4c2.3,2.8,4.8,5.4,6.9,8.2c1.8,2.4,4,4.2,6.5,5.8
		c1.8,1.2,3.4,2.6,5.1,3.8c2.4,1.7,4.7,3.8,7.4,5c5.1,2.3,9.4,5.8,13.8,9.1c2.4,1.8,4.8,3.4,7.8,5.5c-0.4-1.1-0.5-1.6-0.7-2
		c-1.7-3.6-4.1-6.6-6.9-9.3c-5.4-5.4-11.2-10.6-14.7-17.5c-1.5-3-3.1-6.1-4.5-9.2c-1-2.3-2.4-3.9-5.2-4c-0.5,0-1-0.2-2-0.4
		c1.3-0.6,2.2-1,3.1-1.5c-0.6-0.8-1.3-1.3-1.4-2c-0.3-1.9-1.6-2.7-3.1-3.6c-3-1.7-6.1-3.5-9-5.3c-3.6-2.2-6.6-5-9.3-8.3
		c-1.9-2.4-3.9-4.9-5.7-7.3c-1-1.3-1.9-2.7-2.8-4.1c0.2-0.1,0.3-0.2,0.5-0.4c3.4,2.4,6.8,4.6,9.5,8c2,2.5,4.2,5,6.8,6.8
		c8.1,5.6,16.5,10.6,25.8,13.9c1.1,0.4,2.2,0.6,3.3,0.9c-0.3-0.9-0.7-1.4-1.2-1.7c-5-3.5-9.9-7.2-15-10.5c-4.5-2.8-9.2-5.5-13.2-9
		c-1.8-1.6-3.3-3.5-4.9-5.4c-1.2-1.4-2.2-2.9-3.2-4.5c-1.9-3-4.1-5.9-5.6-9.1c-1.6-3.4-2.8-7.1-3.6-10.7c-1.4-6.1-4.7-11.5-5.7-17.6
		c-2.3-3-4.3-6.4-7.2-8.7c-2.8-2.4-6.4-4.1-9.9-5.4c-5.3-2-10.7-3.9-16.4-4.7c-6.5-0.9-12.9-2.9-19.3,0.4c-0.2,0.1-0.4,0-0.6,0.1
		c-3.6,1-7.3,1.9-10.9,2.9c-3.2,0.9-6.3,2.2-9.6,2.5c-5.5,0.6-11,0.9-16.5,0.8c-5.5-0.1-11-0.7-16.5-1c-1.6-0.1-3.3-0.1-4.9-0.1
		c-5.2,0.2-10.5,0.3-15.6-1c-2.3-0.6-4.8-0.8-7.2-0.9c-2-0.1-4.1,0.2-6.1,0c-5.2-0.6-10.3-1.4-15.6-1.6c-4.6-0.2-9.3-0.5-13.9,0.2
		c-3.6,0.5-7.3,1.2-10.9,2c-4.6,0.9-9.3,1.9-13.9,3c-1.3,0.3-2.5,0.9-3.7,1.4c-2.3,1.1-4.7,2.2-6.9,3.5c-2.9,1.7-6.7,1.8-8.8,5
		c-0.3,0.5-1.1,0.7-1.7,1.1c-1.8,0.9-3.6,1.8-5.3,2.8c-0.4,0.2-0.7,0.7-1,1c-2.9,3.3-5,7.3-8.4,10.2c-1.7,1.5-1.7,2.3-0.6,4.6
		c0.4-0.2,1-0.2,1.3-0.5c1.4-1,2.6-2.3,4.2-3.1c6-3,12.1-5.7,19-6.2c3.3-0.2,6.6-0.6,9.8-0.7c9.8-0.3,19.2-2.5,28.7-4.5
		c5.1-1.1,10.2-2.7,15.5-0.8c0.9,0.3,2.1-0.1,3.1-0.2c0.3,0,0.6-0.1,0.9-0.1c0.3,0.6,0.5,1.2,0.9,2c2.7-1.4,5.3-2.8,7.9-4.1
		c1.6,3.1-1.5,4.4-2.3,7c3.4,1.5,6.7,2.9,10.2,4.4c-1.1,0.9-1.9,1.4-2.5,1.9c-3.5-0.3-6.4-1.4-9.2-3.1c-1.5-0.9-2.8-0.6-4.3,0.3
		c-3.1,1.8-6.2,3.6-9.6,4.8c-5.1,1.9-10.3,3.4-15.5,4.8c-7.1,2-14.2,4-20.1,8.8c-3.4,2.7-6.8,5.5-10.4,8c-4.8,3.4-8.8,7.5-12.2,12.4
		c-2,3-3.8,6-5.5,9.2c-1.9,3.7-3.6,7.5-4.8,11.5c-0.2,0.6-0.1,1.2-0.2,2.2c1.2-0.6,1.9-0.9,2.7-1.3c1.8-0.8,3.5-1.7,5.3-2.3
		c5.4-1.7,10.9-3.6,16.6-4c1.4-0.1,2.9-0.6,4.1-1.3c2.4-1.4,2.7-1.5,4.5,0.5c0.6,0.7,1.3,1.7,1.2,2.5c-0.1,1.2-1.4,0.9-2.3,1.2
		c-0.1,0-0.2,0.3-0.4,0.6c0.7,0.6,1.5,1.3,2.2,1.9c-0.3,4.1-1.5,7.4-5.1,9.8c-2.6,1.8-5,3.9-7.6,5.9c-6.4,4.8-10.6,11.3-13.9,18.4
		c-0.5,1-1,2-1.8,2.6c-3.2,2.3-4.8,5.7-6.4,9.2c-0.4,1-1.2,2-2.1,2.7c-3.9,2.7-5.4,6.8-6.5,11c-1.5,5.8-2.9,11.7-5,17.3
		c-1.4,3.7-2.3,7.6-3.3,11.5c-0.4,1.4-0.6,2.9-0.1,4.6c0.6-0.4,1-0.5,1.2-0.8c3.7-4.3,8.4-7.5,12.9-10.8c8.9-6.6,18-12.8,26.3-20.2
		c2.5,2.1,2.7,2.1,5-0.1c0.9-0.9,1.7-1.8,2.8-2.9c1.4,0.7,2.8,1.3,4.2,2c-0.6,1-1.4,1.6-1.4,2.2c-0.2,3.6-2.7,5.7-5,7.9
		c-4.2,3.9-8.5,7.6-11.8,12.4c-2.2,3.3-5,6.3-6.8,9.7c-1.9,3.5-4,6.6-6.4,9.7c-3.7,4.8-7,9.8-9.4,15.3c-0.9,2.1-2.1,4.2-3.3,6.2
		c-4.5,7.8-9.8,15.1-14.2,23c-3.7,6.5-6.7,13.3-9.5,20.2c-1.4,3.5-2.6,7.1-3.6,10.7c-0.7,2.6-0.9,5.3-1.4,8
		c-0.1,0.5-0.2,0.9-0.3,1.4c-0.8,3.7-1.7,7.4-2.4,11.1C34.9,377.3,34.9,378.3,34.9,379.5z M52.6,376.6c0.4,2.6,0.9,4.7,1.1,6.9
		c0.2,3.5-0.1,7-1.2,10.4c-0.2,0.7-0.6,1.4,0.6,2c0.6-1,1.1-2,1.6-2.9c4.1-7.4,9-14,15.9-19.1c4.5-3.3,9-6.4,13.5-9.6
		c6.6-4.6,13.2-9.2,19.7-13.9c5-3.7,9.2-8.3,12.6-13.5c1.7-2.7,3.4-5.4,5.2-8.1c5.5-8.1,7.9-17,6.8-26.8c-0.1-0.5-0.3-1-0.6-1.7
		c-1.2,1.4-2.1,2.6-3.1,3.7c-3.5,4-7.7,6.7-13.2,7.1c-4,0.3-7,1.9-8.8,5.6c-0.4,0.9-1.4,1.6-2.2,2.3c-3.2,3.1-6.3,6.3-9.5,9.4
		c-0.7,0.8-1.5,1.5-2.1,2.4c-3.2,4.5-6.2,9.1-10.4,12.8c-1.9,1.7-3.5,4-4.8,6.2c-1.6,2.7-3.5,5.1-5.7,7.3c-1.6,1.6-2.7,3.4-3.1,5.5
		c-0.5,2.5-1.7,4.5-3.5,6.2c-2.3,2.1-4.7,4-7,6.1C53.7,375.6,53.1,376.2,52.6,376.6z M354,238.8c-0.1,0.2-0.2,0.3-0.3,0.5
		c1.4,2.8,3.1,5.4,4.1,8.3c2.8,7.9,6.6,15.3,10.4,22.7c1.4,2.7,2.7,5.4,4.5,7.8c2.9,3.9,5.8,7.7,8.2,11.9c0.6,1.1,1.5,2,2.5,3.3
		c1.1-3.3,0.8-5.8-0.5-8.3c-1.5-3-3-6.1-4.3-9.2c-1.5-3.9-2.7-7.9-4.1-11.8c-0.6-1.7-1.3-3.5-2.3-5c-3.8-6.3-8.6-11.7-13.7-17
		C357.4,240.8,355.6,239.9,354,238.8z M319.5,211.8c-0.7-1.2-0.9-1.8-1.3-2.2c-5.5-6.4-11-12.8-17.4-18.4c-2.1-1.8-4-4-5.9-6
		c-0.5-0.5-0.9-1.1-1.8-2.2c1.1,4.6,1.7,8.7,3.7,12.3c0.4,0.7,0.8,1.4,0.8,2.2c0.2,2.7,1.9,3.6,4.2,4c2.4,0.4,4.3,1.6,6.1,3.2
		c1,0.9,2.1,1.7,3.2,2.5c2.1,1.3,4.2,2.5,6.3,3.7C317.9,211,318.4,211.2,319.5,211.8z M374.8,187.6c0.1-0.3,0.2-0.5,0.3-0.8
		c-0.4-0.2-0.8-0.5-1.2-0.6c-4.2-1.1-7.9-3.1-11.6-5.3c-1.2-0.7-2.7-0.8-4.1-1c-2-0.3-4-0.4-6-0.6c-1.1-0.1-2.2-0.2-3.3-0.3
		c-0.1,0.2-0.2,0.5-0.3,0.7c2.6,2.5,5.4,5.1,9,5.8C363.3,186.4,369.1,186.8,374.8,187.6z M202.5,229.6c-0.1-0.2-0.2-0.5-0.3-0.7
		c-8.9,3.5-18.3,5.8-26.4,11.4c0.7,1.8,1.6,1.3,2.5,0.8c2.5-1.5,4.9-3.2,7.5-4.4c4.8-2.1,9.7-3.9,14.5-5.9
		C201.1,230.4,201.8,229.9,202.5,229.6z M309.8,239.5c-1.1,1.8-0.4,3.4,0,4.9c0.3,1.2,0.8,2.4,2.3,2.6c1.2,0.2,3.3-1,3.9-2.1
		c0.8-1.4,0.7-2.3-0.6-3.3C313.9,240.4,312.1,239.6,309.8,239.5z M281.8,206.6c-1,1.7-1.3,3.4-0.6,4.7c0.9,1.6,0.8,3.1,0.8,4.7
		c0.1,2.1,0.1,4.2,0.2,6.4c0,0.6,0.3,1.2,0.5,2.1C285.3,218.9,284.9,210.7,281.8,206.6z M385.9,264.7c0.3,0,0.6,0,0.8,0
		c-0.2-3.3-0.5-6.5-0.7-9.8c-0.2,0-0.5,0-0.7,0.1C385.5,258.2,385.7,261.5,385.9,264.7z M301.7,386.1c-2.8,3.5-3.8,7.1-2.9,10
		C299.7,392.8,300.7,389.6,301.7,386.1z M317.9,402.8c-1.5,2.5-0.5,3.8,3.3,4.3C320.1,405.6,319,404.2,317.9,402.8z M306.1,381.9
		c2.9-0.7,5.1-1.3,7.3-1.9c0-0.2-0.1-0.5-0.1-0.7c-2,0.2-4,0.4-5.9,0.8C307,380.1,306.8,380.8,306.1,381.9z M322.6,256
		c1.1,0.4,1.7,0.6,2.8,0.9c-0.5-1-0.8-1.6-1.1-2.3C323.8,255,323.4,255.3,322.6,256z M361.6,169.4c0.1-0.2,0.3-0.4,0.4-0.6
		c-0.9-0.5-1.9-1-2.8-1.6c-0.1,0.2-0.2,0.3-0.3,0.5C359.8,168.3,360.7,168.8,361.6,169.4z M218,224.8c0,0.1,0,0.3-0.1,0.4
		c0.4,0.1,0.8,0.2,1.2,0.3c0,0,0.1-0.5,0.2-0.7C218.9,224.8,218.4,224.8,218,224.8z"/>
	<path d="M473.2,355.3c2.1-4.1,3.8-7.7,5.9-11.1c2.1-3.4,4.5-6.5,6.8-9.9c1.7-0.3,3.6-0.7,5.5-1c0.3-0.1,0.8,0,1.1,0.1
		c2,1.3,4.4,2.1,6,4.1c1.1,1.4,2.5,2.7,3.9,3.9c4.3,3.9,6.8,9,8.8,14.2c2.5,6.6,4.8,13.3,7.1,20c0.9,2.5-0.4,4.1-2.9,3.6
		c-1.8-0.3-3.4-0.1-5.1,0.3c-2.6,0.5-4.2,0.4-7-0.4c0.6-0.7,1.1-1.3,1.7-2c-0.8-0.4-1.6-0.9-2.5-1.4c0.9-3.4-0.5-6.2-2-9
		c-0.3-0.5-0.9-1.1-1.5-1.2c-2.2-0.3-4.4-0.3-6.6-0.6c-1.4-0.1-2.8-0.4-4.4-0.6c-1,5.5-5.1,9.3-7,15c-2.2-3.2-4.3-2.5-6.6-1
		c0.2,0.9,0.8,2.2-1,2c-2.4-0.2-4.7-0.7-7.2-1c1-2.3,1-2.3,4.6-1.9c-1.9-2-3.6-3.9-5.5-6c-0.1,0-0.5,0.1-0.7,0.4
		c-2.7,2.8-6.3,4.1-9.8,5.5c-1.2,0.5-2.3,0.9-3.5,1.3c-0.6,0.2-1.3,0.5-1.9,0.5c-5.5-0.4-11-1-16.3-2.8c-1.1-0.4-2.1-0.8-3.4-1.3
		c0.5-0.8,0.9-1.4,1.2-2c-0.1-0.2-0.2-0.6-0.4-0.7c-4.3-3.3-5.1-8.1-5.3-13c-0.1-1.5,0-3.1,0.1-4.7c0.3-8.4,0.4-16.9,0.9-25.3
		c0.3-6.3,0.9-12.6,1.5-18.9c0.1-1.4,0.6-2.8,1-4.3c0.6-2.3,1.4-4.6,0.1-7.3c0.8,0.1,1.4-0.1,1.7,0.1c3.5,2.3,7.3,0.4,10.9,1
		c0.3,0.1,0.8-0.1,1.1-0.3c2.3-1.9,4.9-1.5,7.5-0.9c2.3,0.5,4.5,1.1,6.8,1.7c0.3,0.1,0.6,0.1,0.8,0.2c2.6,2.3,5.4,4.5,6.6,7.9
		c0.5,1.3,0.7,2.6,1.2,3.9c0.7,1.9,1.7,3.7,0.3,5.8c-0.3,0.4-0.1,1.1,0,1.7c0.9,4.3,1.4,8.6,0.5,13c-0.1,0.6,0.2,1.4,0.5,1.8
		c4.3,5.5,6.7,11.7,6.5,18.8C472.9,354,473,354.3,473.2,355.3z M444.3,346.9c0.3,7.7,0.5,15,0.8,22.9c2.1-1.6,2.6-3.4,3.1-5
		c1.7-5.5,3.3-11.1-0.7-16.8C446.8,347.8,445.7,347.4,444.3,346.9z M446.7,328.9c4.4-4.4,4-12.8-0.7-16.4
		C446.3,317.7,446.5,323,446.7,328.9z M498.1,354.8c-1-2.2-1.8-3.9-2.7-5.9c-1.7,2.1-2.2,4.2-2.9,6.6
		C494.3,355.2,495.9,355,498.1,354.8z"/>
	<path d="M471.7,246.5c-2.7,2.7-5.2,1.4-7.5,0.8c-2.6-0.6-5.1-1-7.7-0.8c-3.2,0.2-6.3,0-9.7,0c2,2.8,0.9,5.8,0.1,8.7
		c-0.9,3.1-1.3,6.2-1.5,9.4c-0.3,4.3-1,8.7-1.6,13c-0.2,1.2-0.8,2.4-1.2,3.5c-0.6,1.3-1.4,1.9-3,1.5c-0.8-0.2-1.9,0.1-2.8,0.3
		c-2.3,0.4-4.5,1.3-6.8-0.1c-0.5-0.3-1.3-0.1-2-0.1c-0.8,0-1.6,0.2-2.3,0.1c-3.3-0.7-4.1-1.6-4.6-5c-0.7-4.4-1.5-8.8-1.8-13.3
		c-0.3-3.6,0.1-7.2,0.2-10.8c0.4-9.3,0.8-18.6,1.3-27.9c0.2-3.6,0.8-7.1,1-10.7c0.3-4.5,0.4-8.9,0.5-13.4c0-0.8-0.3-1.7-0.7-2.3
		c-0.8-1-0.4-1.7,0.4-2.2c1.4-0.9,2.9-1.4,4.7-0.7c1.1,0.5,2.4,0.7,3.6,0.9c1,0.1,1.8-0.2,2.5-1.1c0.4-0.6,1.4-1.1,2.2-1.1
		c3-0.1,6,0.1,9,0.1c3.8,0.1,7.6,0,11.4,0.1c5.3,0.2,10.6,0.7,16,1c2.1,0.1,4.3-0.1,6.4,0.1c5.2,0.4,7.8,3.4,7.8,8.6
		c0,0.9-0.1,1.7-0.1,2.6c0,4.7-2.1,7.1-6.8,7.4c-7.3,0.4-14.5,0.6-21.8,0.9c-1.8,0.1-3.7,0.2-5.5,0.3c-2,3.7-0.4,7.9-2.3,11.4
		c1.6,1.8,3.8,1.8,5.9,1.7c3.4-0.1,6.9,0.2,10.1-0.3c3.4-0.5,5.4,2,8.3,2.3c1,0.1,1.4,1.3,1,2.1c-1.4,2.6,0,5.1,0.1,7.5
		c2.7,1.9,5.5,1.2,8.2,0.7c2.8-0.4,3.4,0.1,4.5,2.7c1.9,4.7,2,9.7,1.9,14.6c-0.1,5.7-0.5,11.4-0.9,17.1c-0.2,3.6-0.5,7.1-0.7,10.7
		c-0.2,3-0.9,3.8-3.8,4.8c-1,0.3-2.1,0.6-3,1c-3.8,1.8-8.4-0.5-8.7-4.8c-0.4-7.6-0.6-15.3-0.6-23c0-5.3,0.4-10.7,0.6-16
		C471.7,248.6,471.7,248,471.7,246.5z"/>
	<path d="M543.5,256.1c2.7-0.9,4.9-1.5,7-2.4c2.6-1.1,5.2-0.9,7.7-0.5c1.3,0.2,2.4,0.3,3.6,0c2.3-0.5,3-0.2,3.5,2.1
		c1,4.2,1.6,8.4,1.4,12.7c-0.1,1.1,0,2.3,0,3.6c2.4,0.6,4.7,0.4,7.3,0.1c0.1-1.2,0.3-2.4,0.3-3.6c0-1.9-0.1-3.9-0.2-5.8
		c-0.1-3.2,0.2-6.3,3.3-8.1c-0.4-1-0.7-1.8-1.1-2.7c1.7-1.2,3.4-1.1,5.1-0.8c2.3,0.4,4.6,1,6.7,1.7c1,0.4,1.6,1.5,2.9,2.7
		c1-0.1,2.5-0.3,4-0.5c2.2-0.3,4.4-0.8,6.6-0.9c5.9-0.4,11.8-0.6,17.7-0.9c1-0.1,1.9-0.1,2.9-1c0.8-0.7,2.3-1,3.5-1.1
		c5-0.2,10.1-0.3,15.1-0.2c2.6,0,5.2,0.3,7.8,0.7c2.3,0.3,3.9,1.5,4.7,3.8c1.8,5.2-0.2,10.7-6.7,11.2c-2.1,0.2-4.2-0.1-6.3,0
		c-1.8,0-3.7,0.1-5.5,0.4c-2,0.3-4,1-5.7-1.3c-1.5,2.8-1.6,5.4-1.5,8c0,0.3,0.3,0.7,0.6,0.9c1.9,1.4,2.4,3.5,2.7,5.6
		c0.2,1.2,0.3,2.3,0.3,3.5c0.1,4.7,0.1,9.3,0.1,14c0,2-0.6,2.9-2.2,2.5c-2.2-0.6-3.7,0.6-5.3,1.6c-3.3,2-8.4,0.4-9.9-3.1
		c-2-4.5-2.1-9.2-1.6-14c0.6-5.7,0.9-11.4,1.3-17.1c0.2-2.8-0.2-3.1-2.8-3.2c-2.6-0.1-5.2-0.1-7.9-0.2c-3.6-0.1-7.4,0.7-11-1.8
		c0,3.2,0,5.9,0,8.6c-0.1,4.5-0.1,8.9-0.3,13.4c-0.1,3.9-0.4,7.7-0.7,11.6c-0.1,0.8-0.2,1.5-0.4,2.3c-0.3,1.2-1,1.7-2.3,1.7
		c-1.1-0.1-2.3,0.2-3.4,0.1c-1.3-0.2-2.7-0.3-3.9-0.9c-1.7-0.9-3.2-2.2-4.3-3.1c0-6,0-11.7,0-17.3c-4,0-8,0-12.3,0
		c-0.2,4-0.4,7.7-0.6,11.4c-0.1,1.2-0.1,2.3-0.3,3.5c-0.5,2.4-1.2,2.7-3.7,1.8c-0.2,0.1-0.4,0.1-0.5,0.2c-1.7,3.2-4.8,4-7.9,4.7
		c-0.7,0.2-1.9,0-2.3-0.5c-2.8-3.2-4.3-6.8-3.9-11.1c0.4-5.1,0.9-10.2,0.6-15.4c-0.2-3.6,0.3-7.2,0.4-10.8c0-0.8,0-1.5,0-2.3
		c-1-0.3-1.8-0.5-2.7-0.7C543.5,257.9,543.5,256.9,543.5,256.1z"/>
	<path d="M564.7,333.8c0.5-0.1,1-0.3,1.2-0.2c1.4,1.4,3.2,1.1,4.9,1.1c2.7,0,5.5-0.1,8.1,0.3c3,0.5,4.4,3,5.3,5.6
		c0.8,2.5,1.1,5.1,1.7,7.7c0.1,0.4,0.2,0.7,0.3,1.4c2.5-2.8,3.9-6,4.1-9.3c0.3-3.5,2-4.9,5-5.1c2-0.2,4-0.1,6,0.1
		c2,0.2,3.1,1.6,3.3,3.6c0.6,5,0.6,10-1.6,14.6c-1.1,2.2-2.7,4.2-4.2,6.4c0.4,0.3,0.7,0.8,1.2,1.1c4.3,2.7,6.1,6.9,7.1,11.6
		c0.8,4,1.3,8.1-0.4,12c-0.2,0.5-0.2,1.1-0.2,1.7c-0.1,2.8-1.2,4-4,4.3c-1.2,0.1-2.3,0.1-3.5,0.1c-3.1-0.1-5.6-2.4-6.1-5.9
		c-0.6-4.1-0.4-8.4-2.1-12.3c-0.7-1.8-1.5-3.6-2.7-5.1c-1.2-1.7-3.3-1.1-5.5-1.3c0,1.7-0.2,3.2,0,4.6c0.5,2.8,0,5.4-0.5,8.1
		c-0.1,0.6-0.3,1.1-0.4,1.7c-0.7,3.3-2.6,5.1-6,5.6c-1.5,0.2-3.1,0.4-4.6,0.6c-2,0.2-2.4-0.1-2.7-2c-0.1-0.5-0.1-1.3-0.4-1.5
		c-3.1-2-2.9-5.4-3-8.3c-0.3-4,0.3-8.1,1.4-12.1c2.1-7.9,2.3-15.9,0.4-23.9C566.2,337.2,565.4,335.7,564.7,333.8z"/>
	<path d="M514.9,262.7c-4.8,0.8-9.5,7.8-8.2,12.6c0.3,1.3,0.8,2.7,0.8,4c0,2.2,1.2,3.3,3.1,3.9c1.4,0.4,2.7,1,4.1,1.5
		c1.3,0.4,2.2,0,3.4-1c-1.3-1.7-3.9-1.8-4.8-3.9c-0.8-1.8-2-3.5-3-5.1c5.1-0.2,10.2-0.5,15.3-0.7c1.3-0.1,2.5-0.2,3.8-0.1
		c2.4,0.2,4.8,0.5,7.2,0.7c2.2,0.2,4.1,1,5.3,3.1c0.8,1.3,1.9,2.5,2.5,3.9c0.9,1.7,0.1,2.9-1.8,3.4c-2,0.4-3.9,0.9-5.9,1.4
		c-1,0.2-1.5,0.8-1.6,1.8c-0.5,2.3-2,3.6-4,4.7c-4.8,2.6-10,3.8-15.4,3.4c-2.4-0.2-4.8-0.3-7.2-0.7c-1.2-0.2-2.4-0.8-3.4-1.5
		c-3.1-1.9-6.4-3.7-9.3-5.9c-3.1-2.3-4.3-5.9-4.7-9.7c-0.3-2.6-0.4-5.2-0.4-7.9c0.1-4.5,2.2-8.4,4.3-12.2c2.8-4.9,7.2-7.4,12.8-8
		c5.2-0.6,10.4-1.4,15.6-1.9c1.8-0.2,3.7,0.1,5.5,0.2c0.8,0,1.7,0.2,2.3-0.1c1.9-1.1,2.9,0.3,3.9,1.4c1,1.1,1.8,2.3,2.5,3.6
		c0.5,0.9,1,1.9,1.1,2.9c0.2,1.6,0.3,2.9,1.7,4.1c1.1,0.8,0.5,2.9-0.9,4c-1.8,1.5-4.1,1.9-6.3,1.9c-2.3,0-4.6-0.4-6.9-0.8
		c-2.7-0.5-5.3-1.1-8-0.3C516.5,265.7,516.1,265.3,514.9,262.7z"/>
	<path d="M551.6,350.7c-3.9-2.5-6.7,0.3-9.3,2.5c-2.1,1.8-3.7,4.2-4.5,7c-0.7,2.3-0.8,4.4,0.7,6.4c0.7,1,1.3,2.2,2.1,3.2
		c1.3,1.7,3.3,2.2,5.2,1c1.7-1.1,4.2-1.1,5.1-3.5c0.2-0.4,2-0.6,2.9-0.4c2.2,0.4,3.8,1.9,5,3.7c1.5,2.1,2.2,4.5,2.5,7
		c0.1,1.2-0.5,1.8-1.3,2.4c-3.2,2.2-6.5,4.5-10.1,6.9c0,0.2-0.1,0.9-0.1,1.6c-0.4,0-0.7,0-0.7-0.1c-0.7-1.1-1.6-1.4-2.9-1.5
		c-2-0.2-3.9-0.9-5.9-1.5c-2-0.5-4-1.2-6.2-1.1c-1.4,0.1-2.9-1.1-4.3-1.5c-5.4-1.6-7.9-6.3-11-10.3c-0.4-0.5-0.5-1.3-0.6-1.9
		c-0.7-5.7-1.2-11.4,0.2-17.1c1.1-4.6,4.1-8.3,7.2-11.8c0.1-0.1,0.3-0.3,0.5-0.3c2.7-0.1,4.5-2,6.7-3.3c2.1-1.2,4.4-2.1,6.9-2.2
		c4.5-0.1,9-0.2,13.1,1.8c1.7,0.8,3.3,1.9,5,3c0.7,0.4,1.2,1.1,1.9,1.4c2.6,1.3,4.5,3.3,5.7,6c0.1,0.3,0.3,0.5,0.5,0.7
		c1.8,2.2,1.9,2.5,0.1,4.5c-1,1.1-2.2,2.2-3.5,3c-3,1.8-6.1,1.1-8.1-1.7C553.1,353.5,552.5,352.1,551.6,350.7z"/>
	<path d="M586.2,416.1c-1.1,0.2-2.2,0.3-3.3,0.5c0-0.1-0.1-0.3-0.1-0.4c1.1-0.3,2.2-0.5,3.3-0.8
		C586.1,415.7,586.1,415.9,586.2,416.1z"/>
	<path d="M487.9,292c0.4-0.6,0.8-1.3,1.2-1.9c0.1,0.1,0.2,0.2,0.4,0.2c-0.4,0.6-0.8,1.3-1.2,1.9C488.1,292.2,488,292.1,487.9,292z"
		/>
	<path d="M464.3,297.7c-0.7,0.3-1,0.5-1.3,0.5c-0.2,0-0.4-0.3-0.6-0.5c0.2-0.2,0.5-0.6,0.7-0.7C463.4,296.9,463.7,297.3,464.3,297.7
		z"/>
	<path d="M498.5,418.7c0.6,0.9,0.9,1.4,1.4,2.3C498.5,420.8,497.9,420.6,498.5,418.7z"/>
	<path d="M477.6,296.3c-0.2-0.5-0.6-0.8-0.5-1c0.1-0.2,0.5-0.5,0.8-0.5c0.2,0,0.6,0.5,0.6,0.7C478.4,295.7,478,295.9,477.6,296.3z"
		/>
	<path d="M308.8,318.2c2.1,3.7,3.4,7.6,2.6,12.3c-2.2-3.2-4.1-6-6.3-9.1c-0.3,0.7-0.5,1-0.5,1.2c0.6,8.3,1.1,16.7,5.3,24.2
		c0.5,0.8,0.7,1.8,0.8,2.8c0.2,1.8-0.2,2.1-2.2,1.8c-0.2,0-0.4-0.1-0.6-0.1c-0.1,0-0.2,0-0.4,0.1c-0.2,0.3-0.5,0.6-0.8,1
		c-1,1.8-2.3,2.1-3.5,0.6c-1.1-1.3-2.2-2.8-2.9-4.3c-3.3-7.7-5.6-15.7-6.2-24.1c-0.8-11.1-1.6-22.2-4.1-33.2
		c-1.9-8.2-6-15.1-11-21.6c-4.5-5.9-9.4-11.6-13.7-17.7c-2-2.7-3.2-5.9-4.6-9.1c-0.9-2-0.4-3.3,0.8-3.8c1.5-0.6,2.8,0,3.7,1.8
		c3.3,6.7,8.4,12.1,13.6,17.3c7,6.9,13.1,14.5,17.7,23.3c0.9,1.8,2,3.6,3,5.3c3.8,6.2,6,13,7.6,20c0.5,2.1,1.4,4.2,2.4,6.2
		C310.7,315.8,310.8,315.8,308.8,318.2z M300,331.8c0.3,0,0.6,0,0.9,0.1c-0.4-3.7-0.7-7.5-1.2-11.2c-0.3-2.3-0.4-4.4,1.6-6.2
		c-1-2.1-1.8-4.1-2.7-6c-0.2,0.1-0.4,0.1-0.6,0.2C298.3,316.4,298.6,324.2,300,331.8z"/>
	<path d="M396.8,360.9c2.7-3.5,3.6-3.5,7.2-1.4c2.5,1.5,3.7,3.9,5.1,6.2c0.6,1.1,0.3,2.3-0.9,3.1c-0.5,0.4-1.1,0.7-1.6,0.9
		c0.6,2.2,1.5,4.2,1.7,6.3c0.2,2-0.1,4-0.4,6c-0.1,0.7-0.8,1.5-1.4,2.1c-1.1,0.9-2.3,1.6-3.7,2.5c-0.2-0.1-0.8-0.5-1.3-0.8
		c-0.7-0.4-1.3-1-2-1c-2.9-0.1-4.9-1.8-6.8-3.6c-2.6-2.4-5.4-4-9.1-3.6c-1.4,0.1-2.3-0.4-2.6-1.7c-0.1-0.5-0.3-1.1-0.4-1.8
		c-1.3,0-2.6,0.1-3.8,0c-0.8-0.1-1.8-0.3-2.4-0.8c-0.5-0.5-0.8-1.5-0.8-2.3c0-1,0.8-1.4,1.9-1.4c8.1-0.2,16.1-2.4,24.3-1.9
		c0.2,0,0.5-0.2,1.3-0.4c-2.7-1.9-5.2-2.6-8-2.5c-4.7,0.2-9.5,0.6-14.2-0.1c-2.6-0.4-5.2-0.9-7.8-1.5
		C379.6,361.7,388,358.6,396.8,360.9z"/>
	<path d="M332.2,238.2c-1.5-0.7-3.1-1.4-4.6-2.2c-3.7-1.9-7.4-3.8-11.1-5.7c-1-0.5-2.1-1-3.1-1.6c-1.2-0.7-1.6-2.1-1-2.9
		c0.7-0.9,1.6-0.9,2.6-0.5c0.7,0.3,1.5,0.7,2.2,0.6c2.5-0.4,4.2,1,6,2.4C326.8,231.1,329.9,234.3,332.2,238.2L332.2,238.2z"/>
	<path d="M332.2,238.3c1.7,1.7,3.1,3.5,3.4,6.2c-1.7,0.1-2.1-0.9-2.4-2.1C332.9,241,332.6,239.6,332.2,238.3
		C332.2,238.2,332.2,238.3,332.2,238.3z"/>
	<path d="M208.9,179.8c1.6,3.8,0.5,6.9-1.4,9.9c-1.2,1.8-2.3,3.6-3.5,5.3c-2.3,3.1-4.9,5.7-8.2,7.7c-2.4,1.5-4.7,3.1-6.9,4.9
		c-4.2,3.6-9.3,5.5-14.2,7.9c-5.2,2.6-10.5,5.1-15.5,8.1c-3,1.8-5.6,4.1-8.1,6.6c-4.8,4.9-9.5,10-14.1,15.1c-1.9,2.1-3.5,4.4-5,6.8
		c-4.3,7.1-9.2,13.7-14.6,19.9c-1.8,2-3.2,4.4-4.7,6.6c-1.9,2.8-3.6,5.7-5.6,8.5c-0.5,0.8-1.4,1.3-2.1,2c-0.7,0.7-1.5,0.9-2,0.2
		c-0.4-0.5-0.4-1.5-0.2-2.1c0.6-1.4,1.5-2.7,2.2-4.1c0.8-1.6,2-3,2.3-4.8c-0.2-0.1-0.3-0.2-0.5-0.3c-2.1,2.6-4,5.3-6.2,7.8
		c-1.1,1.2-2.5,2.1-3.8,3c-0.6,0.4-1.4,0.7-2.6,1.3c0.8-1.5,1.3-2.7,2-3.7c3.3-5.4,6.6-10.7,10-16c4.3-6.7,8.6-13.4,12.9-20
		c2.8-4.4,5.7-8.8,8.5-13.2c4.5-6.9,10.3-12.6,16.5-18c7.3-6.4,15.7-11.3,24.4-15.6c5.1-2.5,10.6-4.4,15.6-7
		c5.7-2.9,11.7-5.2,16.6-9.5C203.5,184.9,206.1,182.4,208.9,179.8z"/>
	<path d="M105.8,210.8c-0.7,0.2-1.4,0.3-2.1,0.6c-1.2,0.7-2.4,1.4-3.6,2.2c-0.1-0.1-0.3-0.3-0.4-0.4c0.2-0.5,0.3-1,0.7-1.4
		c3-3.6,6-7.1,9.1-10.6c0.7-0.8,1.2-1.7,2-2.5c3.8-4.1,7.4-8.4,11.6-12.1c3.7-3.2,7.9-5.9,12.1-8.5c9.5-5.9,20.3-7.9,31.1-9.8
		c3.3-0.6,6.6-1.4,9.8-2.5c6.2-2,12.3-4.2,17.6-8.2c2.5-1.9,5.3-3.1,8-4.8c1.5-0.9,2.9-2.1,4.3-3.2c0,0,0.2,0.1,0.2,0.2
		c-0.5,6.1-1.2,12-6,16.7c-4.6,4.5-9.8,7.9-15.8,10.1c-5.4,2-10.9,3.5-16.3,5.5c-13.4,4.9-26.7,10-39.4,16.6
		c-3.3,1.7-5.6,4.4-8.2,6.9c-3,2.9-6.1,5.7-9.3,8.3c-2.9,2.2-4.5,1.4-5.2-2.1C105.8,211.3,105.8,211.1,105.8,210.8
		c2.8-0.3,4.6-2,6.7-4.5C109.3,207.1,107.6,209,105.8,210.8z"/>
	<path d="M110.3,160.1c-5.3,1.6-11,1.7-15.7,4.9c0.8-1.5,4.3-4.7,6.7-6.2c5.5-3.4,10.9-7,16.4-10.3c3.4-2,7-3.7,10.6-5.3
		c6-2.6,12.1-4.8,18.5-6.1c1-0.2,2.1-0.4,3.1-0.5c4-0.4,8.1-0.9,12.1-1.3c4.2-0.4,8.5-0.5,12.7-1c3.2-0.4,6.5-1.3,9.6-2.2
		c3.5-1,7-2.3,10.5-3.5c1.1-0.4,2.1-0.6,2.7-1.9c0.5-1.1,2.4-1,3.2,0.2c1.1,1.8,1.9,3.8,2.8,5.7c0.1,0.3,0.2,0.9,0,1.1
		c-2.1,2.4-3.4,5.6-7.1,6.4c-1.9,0.5-3.8,1.3-5.6,2.4c-2.4,1.4-4.8,2.5-7.5,3c-2,0.4-4,1-6,1.4c-1.6,0.3-3.3,0.7-4.9,0.7
		c-5.5-0.1-10.8,0.9-16.2,1.8c-5.1,0.9-10.2,1.7-15.3,2.3c-5.6,0.7-10.8,2.5-15.9,4.5c-3.1,1.2-5.8,3.5-8.6,5.4
		c-3.9,2.6-7.7,5.3-11.5,7.9c-1,0.7-2,0.7-2.9-0.1c-0.7-0.6-0.6-2.5,0.2-3.2c0.9-0.8,2.1-1.4,3.1-2.2c1.7-1.2,3.4-2.4,5.1-3.6
		C110.5,160.5,110.4,160.3,110.3,160.1z"/>
	<path d="M164.5,102.2c2.2-0.8,3.9-0.2,5.2,0.5c3.4,1.9,7.2,2.3,10.9,2.9c9.3,1.4,18.6,1.1,27.9,0.6c4.8-0.2,9.6-1.3,14.4-1.9
		c3.6-0.4,7.3-0.6,11-1c5.5-0.5,11-1.1,16.5-1.8c3.3-0.4,6.5-0.7,9.8-0.1c4.3,0.8,8.6,1.2,12.9,2.2c7.1,1.5,12.9,5.4,17.7,10.6
		c3.8,4.1,7.3,8.6,11,12.8c2.1,2.4,4.5,4.6,6.7,6.9c0.7,0.7,1.2,1.4,2.3,2.7c-1.3-0.2-1.9-0.2-2.4-0.5c-2.8-1.8-5.7-3.3-8.2-5.5
		c-2.8-2.4-5.1-5.3-7.5-8.1c-2.9-3.3-5.9-6.4-10.1-8.1c-1.5-0.6-2.9-1.7-4.4-2.3c-2.4-1-5-1.5-7.6-1.6c-3.6-0.1-7.1-1-10.7-1.1
		c-2.8-0.1-5.6,0.4-8.3,0.7c-3.2,0.3-6.3,0.9-9.5,1c-5.4,0.2-10.7,0.6-15.9,1.6c-3,0.6-6,1.4-9,2c-1.4,0.3-2.9,0.4-4.3,0.4
		c-7.7-0.1-15.5,0-23.2-0.6c-4.3-0.3-8.6-1.6-12.7-2.9c-1.7-0.5-3.3-2.1-4.6-3.5c-1.8-1.9-3.7-3.6-6.1-4.9
		C165.6,103.4,165.2,102.9,164.5,102.2z"/>
</g>
<g id="horseHighlight">
	<path d="M419,387.2c-1.2,1.1-2.3,2-3.4,2.9c-1,0.7-2.1,1.6-3.2,1.9c-0.8,0.2-2.1-0.1-2.6-0.6c-0.6-0.7-0.9-2-0.7-2.9
		c0.2-1.5,1.2-1.8,3.5-1c1.4-1.3,3.2-2.5,4.3-4.2c0.8-1.2,1.5-2.9,1.3-4.3c-0.5-4.8-1.3-9.6-2.3-14.3c-0.6-2.7-2-5.2-2.9-7.9
		c-2.9-9.4-7.3-18.1-11.7-26.9c-0.6-1.3-1.5-2.5-2.4-3.6c-3.8-4.6-6.9-9.6-9.5-14.9c-2-3.9-4.2-7.7-6-11.7
		c-2.4-5.7-6.3-10.4-9.2-15.9c-2.5-4.8-4.9-9.7-7.8-14.3c-3.4-5.5-6.9-11-10.7-16.3c-4.1-5.5-7.3-11.6-8.7-19.2
		c0.5-0.3,1.1-0.6,1.8-1c1.2-0.7,2.3-0.4,2.9,0.9c0.2,0.3,0.2,0.7,0.4,1.1c2.6,7.1,6.3,13.5,10.9,19.5c2.9,3.8,5.3,7.9,7.7,12
		c3.3,5.7,6.3,11.6,9.5,17.3c1.4,2.5,3.1,4.9,4.9,7.8c1.4-2.8,2.4-5,3.5-7.2c3.1-6.4,4.2-13.1,2.2-20.1c-0.5-1.9-0.6-3.8-1-5.7
		c-1.1-5.4-2.2-10.8-3.2-16.3c-0.8-4.4-2.9-8.2-5.3-11.9c-3-4.9-6.2-9.6-9.1-14.6c-3.8-6.5-7.3-13.2-11-19.9
		c-1.9-3.5-3.8-7-5.7-10.5c-0.5-1-1.4-2.1,0-3.1c1.4-1,3-0.8,4.1,0.6c0.7,0.9,1.3,1.9,1.9,2.9c4,6.9,7.9,13.8,11.9,20.7
		c2,3.5,4,7.1,6.1,10.6c2.8,4.6,5.9,9.1,8.6,13.8c1.4,2.5,2.6,5.3,3.3,8.1c1.5,6.4,3.5,12.7,3.9,19.4c0.2,3.5,0.7,6.9,0.8,10.4
		c0.3,7.5-1.9,14.3-5.3,20.9c-0.9,1.8-2.3,3.1-4.4,3.5c0,2.4,1.5,4.1,2.4,5.9c1.8,3.3,3.9,6.5,5.5,9.9c2.4,5.2,5.8,9.8,9.2,14.5
		c1.9,2.7,3.7,5.4,4.8,8.6c0.7,2,1.7,3.9,2.7,5.8c3.2,5.9,4.6,12.3,6.6,18.6c0.6,1.8,1.4,3.6,1.8,5.5c0.8,4.2,1.5,8.4,2,12.6
		c0.3,2.3,0.2,4.6,0.3,7c0,0.4,0.2,1,0.5,1.3c2.5,2.4,2.9,5.5,2.4,8.7c-0.6,3.9-1.4,7.8-2.4,11.7c-1,4.2-4.4,6.2-8.1,7.6
		c-1.3,0.5-2.1-0.5-2.6-1.3c-0.3-0.5-0.1-1.5,0.2-2.1c0.5-1,1.1-1.9,2.6-2c0.7,0,1.8-1,2-1.8c1.6-5,3-10.1,3-15.4
		C419.6,388.2,419.3,387.8,419,387.2z"/>
	<path d="M141.6,305.3c-0.7,9-3.7,17.3-7.4,25.3c-2.1,4.6-3.7,9.5-7.1,13.3c-5,5.5-10.1,11-15.6,16c-4.2,3.8-9,7-13.7,10.4
		c-4.5,3.3-9,6.4-13.5,9.6c-0.9,0.7-2,1.2-3.1,1.7c-3.1,1.5-5.8,3.5-7.8,6.4c-3.4,4.9-7,9.5-10.3,14.5c-3.8,5.7-6.6,11.9-9.1,18.2
		c-0.4,1-0.8,2-1.3,2.9c-0.7,1.3-2.3,2.1-3.7,1.8c-1.3-0.2-2.5-2.5-1.4-3.8c2-2.6,1.8-5.9,3.7-8.4c0.4-0.5,0.7-1.2,0.9-1.8
		c2.3-6.5,6.4-12,10.3-17.5c0.3-0.5,0.8-0.9,1-1.4c1.5-4,5-6.6,7.6-9.8c0.9-1.1,2.4-2,3.8-2.6c4.2-2.1,8.1-4.6,11.3-8
		c0.3-0.4,0.7-0.7,1.1-0.9c6.3-3,11.3-7.8,16.5-12.3c0.4-0.3,0.7-0.8,1.2-0.8c2.3-0.4,3.6-2.2,5-3.7c3.9-4.1,7.7-8.2,11.6-12.2
		c2.4-2.4,3.9-5.3,5.3-8.3c1.7-4,3.4-8,5.1-12.1c2.9-6.7,4.2-13.7,4.9-20.9c0-0.4,0.1-0.8,0.1-1.2c0-1.1,0.2-2.2,1.6-2.4
		c1.1-0.2,2.7,1.1,2.9,2.4C141.6,301.4,141.5,303.4,141.6,305.3z"/>
	<path d="M301,324.8c0.4-1.9,0.8-3.6,1.3-5.3c0.1-0.5,0.4-1.2,0.9-1.4c2-1,2-2.7,1.8-4.5c-0.3-3.9,0.1-7.9-0.9-11.9
		c-1.3-4.9-4.2-8.9-6.7-13.1c-3.3-5.4-7.8-9.6-11.9-14.2c-2.9-3.3-5.5-6.8-8.1-10.3c-2.7-3.7-5.3-7.4-7.9-11.2
		c-1.8-2.5-3.5-5.2-4.3-8.2c-0.3-1.2-0.5-2.5,0.7-3.5c1.3-1.1,2.5-1,3.4,0.5c0.2,0.3,0.4,0.7,0.5,1c1.5,4.3,4.3,7.8,7.1,11.2
		c2.6,3.1,5.2,6.3,7.4,9.7c3.3,4.9,7.6,8.8,11.5,13.2c2.4,2.8,4.7,5.6,6.8,8.6c2.2,3.1,3.9,6.4,5.9,9.7c1.9,3.1,2.5,6.5,2.7,10
		c0.2,3.8,0.4,7.6,0.6,11.3c0.1,3-0.4,4-3.3,5c-1.5,0.5-1.7,1.4-1.6,2.7c0.6,6,1,12,3.9,17.5c0.6,1.1,1,2.3,1.3,3.5
		c0.5,1.9,0,3.1-1.6,3.8c-1.4,0.7-3.1,0.1-4-1.4c-0.3-0.4-0.4-0.9-0.6-1.3c-0.8-2.1-1.7-4.1-2.5-6.2
		C301.4,335.1,301.7,329.8,301,324.8z"/>
	<path d="M312.2,102.7c0.1-2.6,0.7-3.2,2.5-3c1.1,0.1,1.8,0.6,2,1.8c0.3,1.3,0.5,2.7,0.9,4c0.6,1.9,1,4,1.9,5.8
		c2.3,4.6,4.7,9.2,7.3,13.6c2.6,4.5,6.3,8.3,9.8,12.2c3.3,3.7,7.5,6.1,11.4,8.9c4.2,3,7.9,6.5,12.1,9.6c4.2,3.1,8.6,6,13,8.8
		c4.7,3,9.6,5.9,14.4,8.8c2.5,1.5,5,2.9,7.4,4.6c2.5,1.8,4.8,3.9,7.1,6c2,1.8,3.6,4,4.5,6.7c1.4,3.7,3.1,7.3,4.6,11
		c0.2,0.4,0.4,0.9,0.5,1.4c0.3,1.7-1.5,3.3-3.1,2.6c-0.9-0.4-1.8-1.2-2.3-2.1c-1.7-3.6-3.5-7.1-4.9-10.9c-1-2.6-2.5-4.7-4.4-6.4
		c-3.4-2.9-6.9-5.7-10.6-8c-9.6-5.7-19.1-11.5-28.2-18c-2.6-1.8-5-4-7.5-6c-3.5-2.9-7.4-5.3-11-8c-4.2-3.1-7.7-7.1-11.3-10.9
		c-1.9-2-3.7-4.3-5.1-6.7c-3.1-5.3-6.2-10.6-8.8-16.1C313,109.4,311.8,106.1,312.2,102.7z"/>
	<path d="M210.7,180.9c0.7,0.2,1.4,0.4,2,0.7c1.2,0.6,1.3,1.6,0.5,2.6c-1.4,1.9-3,3.6-4,5.6c-3.4,6.7-8.8,11.2-15.4,14.5
		c-4.9,2.4-9.7,4.9-14.5,7.5c-3,1.6-5.8,3.5-8.7,5.2c-3.1,1.9-6.2,3.6-9.1,5.8c-4.1,3.1-8.2,6.3-11.7,10
		c-9.3,9.7-17.4,20.4-24.8,31.6c-3.7,5.7-7.5,11.3-11.7,16.7c-0.8,1-1.4,2.3-1.9,3.6c-0.6,1.3-1.5,2-3,1.9c-2-0.2-3-1.7-2.1-3.5
		c0.8-1.7,1.9-3.4,3.1-4.9c4.3-5.1,7.9-10.8,11.5-16.4c1.8-2.9,3.9-5.5,6-8.2c4.2-5.6,8.2-11.3,12.7-16.6c3.8-4.4,8.3-8.1,12.4-12.3
		c4.8-4.9,10.9-8,16.6-11.7c5.7-3.8,12.1-6.6,18.1-9.9c4-2.2,7.9-4.5,11.8-6.9c1-0.6,2-1.4,2.6-2.3c2.5-3.7,4.8-7.5,7.1-11.3
		C208.8,181.3,209.4,180.6,210.7,180.9z"/>
	<path d="M180.5,247.3c-3.8-0.3-5.2-2.8-3.2-5.5c1.3-1.6,3-3,4.8-4.2c2.2-1.5,4.6-2.9,7.1-3.9c8.2-3.2,16.5-6.3,25-8.4
		c0.9-0.2,1.8-0.8,2.7-1.1c0.5-0.1,1.3-0.1,1.5,0.2c0.3,0.5,0.5,1.4,0.2,1.8c-0.8,0.9-1.7,1.9-2.8,2.3c-3.4,1.4-6.9,2.4-10.4,3.7
		c-4.5,1.7-9.1,3.3-13.6,5.2c-2.1,0.8-3.9,2.1-5.9,3.1c-1,0.5-1.3,1.4-1.1,2.5c0.3,1.3,0.7,2.6,1.2,3.9c2.9,6.9,4.8,14.2,6,21.5
		c1,6.3,1.8,12.7,2.4,19c0.6,6.1,0.6,12.2-0.5,18.3c-0.9,5.2-1.6,10.4-2.3,15.5c-0.1,0.8-0.2,1.5-0.4,2.3c-0.7,2.8-3.9,3.7-5.9,1.7
		c-0.4-0.4-0.6-1.4-0.5-2.1c0.3-1.8,0.6-3.7,1.1-5.4c1.7-5.5,2.3-11.2,2.6-16.9c0.1-1.3,0.6-2.7,0.5-4c-0.1-2.7-0.4-5.4-0.6-8.1
		c-0.2-2.9-0.2-5.8-0.6-8.7c-0.5-3.7-1.4-7.4-2.1-11.1c-0.5-2.3-0.9-4.6-1.4-6.8C183.1,257.2,181.8,252.3,180.5,247.3z"/>
	<path d="M169.6,435.9c0.8-9,1.6-17.9,5.2-26.4c2.5-5.9,5.5-11.6,6.5-18c0.5-3.2,0.9-6.5,1.4-9.7c0.2-1.4,0.6-2.8,1-4.2
		c0.4-1.9,0.8-3.8,1.3-5.7c0.2-0.8,0.3-1.7,0.6-2.5c1.5-4,1.7-8.1,0.6-12.3c-0.9-3-2.3-5.9-2.3-9.3c0-1.6-0.9-3.2-1.4-4.7
		c-1-3-1.9-5.9-1.7-9.1c0.1-0.9,0.4-1.9,0.9-2.6c0.6-0.9,1.6-1.3,2.8-1c1.2,0.3,1.8,1.1,2,2.3c0.2,1,0.6,2.1,0.6,3.1
		c0.4,5.7,2.5,11,4,16.4c1.6,5.9,1.9,11.5,0.3,17.5c-1.3,4.8-1.7,9.7-2.6,14.6c-1.2,6.6-3.1,13-5.6,19.3c-1.9,4.6-3.8,9.2-5.3,13.9
		c-1.1,3.5-1.7,7.2-2,10.8c-0.6,5.9-1.5,11.8-0.4,17.7c0.3,1.9-0.1,2.7-1.7,3.1c-1.2,0.4-3-0.6-3.3-2.1c-0.4-1.9-0.6-3.8-0.7-5.8
		C169.5,439.4,169.6,437.7,169.6,435.9z"/>
	<path d="M438.7,298.7c0.5-0.2,1-0.5,1.5-0.5c4.1,0.2,8.1,0.3,12.2,0.6c1.9,0.1,3.4,1.1,4.7,2.6c3.8,4.1,5.6,9,6.8,14.3
		c1,4.6,1.1,9.3,0.1,13.9c-0.3,1.4,0.1,2.4,0.9,3.5c2.8,4,5.7,8.1,8.4,12.3c2.4,3.7,3,7.7,1.7,12c-0.4,1.4-0.8,2.8-1.2,4.2
		c-2,7.2-6.7,12.3-13,16.1c-1.6,1-3.6,1.4-5.5,1.7c-3.8,0.7-7.7,0.6-11.5-0.3c-1.4-0.3-2.9,0-4.3,0.1c-2,0.2-4.1,0.4-6-0.4
		c-0.6-0.2-1.4-0.8-1.4-1.2c0-0.6,0.4-1.5,0.9-1.9c1.5-1.1,3.2-1.6,5.1-1.4c5.4,0.5,10.7,1.8,16.2,0.9c1.1-0.2,2.3-0.5,3.2-1.1
		c4.9-2.6,7.8-6.9,9.6-12c0.9-2.5,1.6-5.2,2.2-7.8c0.7-2.8,0.2-5.5-1.5-7.8c-3.1-4.3-5.1-9.4-9-13.2c-0.7-0.7-1.1-1.5-0.5-2.6
		c2-3.7,1.7-7.8,1.1-11.7c-0.5-3.6-1.5-7.2-2.7-10.7c-1.3-3.8-3.9-6-8.3-6c-2.7,0-5.4-0.8-8-1.3
		C439.3,300.7,438.6,300.1,438.7,298.7z"/>
	<path d="M321.7,396.3c1,2.6,0.2,4-1.5,5.3c-1.7,1.3-1.8,2.3-0.3,3.8c0.9,0.9,1.9,1.6,3,2.2c1.1,0.6,2.3,1,3.5,1.5
		c5.9,2.2,10.1,6.4,13.3,11.7c2.3,3.8,2.9,8.2,3.5,12.5c0.2,1.7-0.7,2.9-2,3c-1.5,0.2-2.8-0.8-3.2-2.4c-0.4-2.1-0.7-4.2-1.2-6.3
		c-1.7-6.9-5.9-11.7-12.6-14.1c-2.6-0.9-4.8-2.4-6.8-4.3c-3.9-3.8-3.8-8.3,0.5-11.7c0.3-0.2,0.6-0.5,1.1-0.8c-0.4-0.5-0.8-0.8-1-1.3
		c-0.7-1.4,0-3,1.6-3.4c1.4-0.4,2.9-0.4,4.3-0.6c4.8-0.6,9.6-1.5,14.4-1.9c5.9-0.5,11.8-0.6,17.7,0.7c2.9,0.6,5.9,1,8.9,1.6
		c0.9,0.2,1.7,0.5,2.5,0.7c3.1,0.8,6.2,1.6,9.3,2.4c3.1,0.8,6.2,1.4,9.4,2.2c0.5,0.1,1,0.2,1.3,0.5c0.4,0.4,1.1,1.2,1,1.6
		c-0.1,0.6-0.8,1.4-1.4,1.6c-0.9,0.3-1.9,0.2-2.9,0c-6-1.4-12-3-18.1-4.5c-1.6-0.4-3.2-0.7-4.8-1c-1.4-0.2-2.9-0.3-4.3-0.6
		c-5-0.9-9.9-1.8-15-1.1C335.2,394.6,328.7,395.4,321.7,396.3z"/>
	<path d="M112.2,213.5c-2.7-0.1-3.7-1.7-2.5-3.5c1-1.6,2.3-3.1,3.7-4.5c1.7-1.8,3.8-3.3,5.4-5.3c3.9-4.9,8.8-8.4,14.4-11
		c7.2-3.4,14.4-6.8,22.1-8.9c5.1-1.4,10.3-2.8,15.2-4.8c3-1.3,6.3-2,9.6-2.4c8-1,14-5.3,19.5-10.7c2.4-2.4,5-4.5,7.6-6.8
		c0.9-0.8,1.9-0.8,2.9,0.1c0.9,0.8,1,1.7,0.3,2.6c-0.8,1-1.6,2-2.5,2.8c-3.1,2.7-6.2,5.2-9.2,8c-3.7,3.4-7.9,5.6-12.7,6.7
		c-6.8,1.6-13.5,3.5-20.1,5.8c-5.2,1.8-10.7,3-15.8,5c-5.4,2.1-10.6,4.8-15.8,7.3c-1,0.5-1.9,0.9-2.8,1.5c-1.2,0.8-2.5,1.5-3.5,2.5
		c-3.7,3.6-7.2,7.3-10.8,11c-1,1-1.8,2.3-2.8,3.3C113.4,212.8,112.5,213.2,112.2,213.5z"/>
	<path d="M433.7,194.2c1.5-1.2,3-1.6,4.7-1.5c7.7,0.5,15.5,0.9,23.2,1.3c2.5,0.2,5,0.6,7.5,0.7c5.4,0.1,10.8,0.1,16.2,0.1
		c1.5,0,2.5,0.4,3,1.7c1,2.7,1.6,5.4,0.5,8.2c-0.9,2.2-1.7,4.6-2.7,6.8c-1.5,3.4-4.6,4.3-7.9,4.4c-6.1,0.1-12.2,0-18.3-0.1
		c-2.1,0-2.4,0.2-2.8,2.1c-0.4,2.2-0.5,4.4-0.9,6.6c-0.2,1.1-0.6,2.2-1.1,3.2c-0.5,1-1.5,1.6-2.7,1.1c-1.1-0.4-1.7-1.3-1.6-2.5
		c0.2-2.3,0.5-4.6,0.8-6.9c0.2-1.8,0.5-3.6,0.6-5.4c0.2-2,1.4-3.4,3.4-3.1c6.7,0.8,13.4-0.2,20.1,0.1c0.6,0,1.2,0,1.7,0
		c2.7-0.1,4.7-0.9,5.3-3.9c0.3-1.5,1-2.9,1.4-4.4c0.3-1.4-0.4-2.2-1.7-2.5c-0.6-0.1-1.2-0.2-1.7-0.2c-5.7,0-11.4-1-17-1.6
		c-9.2-1-18.5-1.7-27.8-2.4C434.9,195.7,434.1,195.6,433.7,194.2z"/>
	<path d="M292.4,194.3c-0.2,1.5-1.3,2.5-2.6,2.2c-1.5-0.3-2.8-0.8-3.4-2.7c-1.2-4-2.5-8-4-11.8c-2.1-5.1-5.4-9.4-9.7-12.9
		c-3.1-2.5-6.4-4.8-10.2-6.1c-0.6-0.2-1.2-0.6-1.8-0.9c-5.9-3.7-11.9-7.3-17.3-11.8c-1.9-1.6-4-2.7-5.8-4.4
		c-2.4-2.2-4.7-4.6-6.8-7.1c-0.8-0.9-1.1-2.2-1.6-3.4c-0.5-1.3-0.1-2.3,1.2-2.8c1.4-0.6,2.5-0.3,3.1,1.2c2.2,5.5,6.9,8.5,11.3,11.8
		c1.1,0.8,2.3,1.4,3.3,2.3c4.7,4.1,10.2,7.1,15.4,10.5c2.4,1.6,5.3,2.4,7.8,3.8c4.9,2.7,8.8,6.5,12.3,10.9c3.6,4.6,5,10,6.9,15.3
		c0.6,1.6,1.1,3.3,1.6,4.9C292.4,193.6,292.4,194,292.4,194.3z"/>
	<path d="M206,135.5c-3.2,2.2-5.8,5.1-9.7,6.5c-5.9,2.2-12,2.9-18.2,3.6c-5,0.6-10,1.3-15,1.7c-3.3,0.3-6.6,0.1-9.9,0.3
		c-2,0.2-4,0.8-5.9,1.3c-1.5,0.4-2.9,1.1-4.5,1.3c-5.3,0.8-10.3,2.8-15.3,4.6c-4.8,1.7-9,4.8-12.6,8.6c-1.7,1.7-3.7,3.2-5.6,4.7
		c-1.3,1-2.7,1-4.1,0.2c-1-0.6-1.1-1.6-0.2-2.4c0.2-0.2,0.5-0.3,0.7-0.5c2.1-1.9,4.1-3.9,6.3-5.6c2.9-2.2,5.9-4.5,9-6.3
		c2.4-1.4,5.1-2.2,7.7-3.3c3.9-1.6,7.9-2.7,12-3.4c1.9-0.3,3.7-1.2,5.6-1.6c2.5-0.5,5.1-0.9,7.7-1.2c5.9-0.5,11.8-1,17.6-1.4
		c0.9-0.1,1.7-0.3,2.6-0.3c5.4,0.3,10.6-1.1,15.8-2.3c3.4-0.8,6.9-1.8,10-3.9c1.2-0.8,2.6-1.3,4-1.7c0.6-0.2,1.3,0.3,1.9,0.4
		C206,135,206,135.2,206,135.5z"/>
	<path d="M603.7,387.2c1.8-4.6,1.5-12.5-0.2-16.7c-1.4-3.6-3.7-6.3-7.1-8.1c-2.2-1.2-2.5-2.9-0.8-4.7c1.1-1.1,2.3-2.2,3.5-3
		c4.8-3.3,5.8-7.9,4.7-13.4c-1.5-0.1-3.1-0.2-4.6-0.3c-1,0-1.9,0-2.9,0c-1.1,0-2.2,0-2.4-1.5c-0.2-1.4,0.6-3.1,1.8-3.3
		c4-0.6,8.1-1.3,11.6,1.8c1.1,1,1.8,2,1.7,3.5c-0.1,2-0.1,4.1-0.1,6.1c0,4.1-1.6,7.5-4.5,10.4c-0.8,0.8-1.6,1.6-2.5,2.5
		c0.4,0.6,0.7,1.2,1.1,1.5c6.6,5.7,7.5,13.3,6.7,21.3c-0.2,2.3-0.8,4.6-1.4,6.8c-0.4,1.5-1.3,2.1-3,2c-2-0.2-4.1,0.1-6.1,0.3
		c-1.4,0.2-2.7,0.1-3.7-1.1c-1.2-1.4-1-2.9,0.7-3.5c1.3-0.5,2.8-0.5,4.3-0.6C601.6,387.1,602.6,387.2,603.7,387.2z"/>
	<path d="M652,264.9c-0.2-1.7-0.4-3.2-0.6-4.7c-0.1-1-0.8-1.5-1.8-1.6c-3.9-0.5-7.8-1.2-11.8-1.6c-4.1-0.4-8.3-0.5-12.5-0.7
		c-0.7,0-1.4,0.1-2-0.1c-0.7-0.4-1.6-1-1.8-1.6c-0.1-0.7,0.4-1.8,0.9-2.2c0.9-0.7,2.1-1.2,3.2-1.2c2.6-0.1,5.2-0.1,7.8,0.2
		c6.6,0.7,13.3,1.6,19.9,2.4c2.6,0.3,3.2,0.8,3.4,3.4c0.3,3.1,0.4,6.2,0.5,9.3c0.1,2.6-0.7,3.5-3.3,3.9c-2.5,0.4-5,0.9-7.5,0.7
		c-4.3-0.3-8.2,1-12.3,1.7c-1.3,0.3-2.7,0.3-4,0.4c-1.3,0.1-2.3-0.5-2.6-1.8c-0.4-1.4,0.7-2.1,1.8-2.7c0.4-0.2,0.9-0.4,1.4-0.4
		c6.2-0.6,12.2-3.1,18.6-2.6C650.1,265.6,650.9,265.1,652,264.9z"/>
	<path d="M521,277.9c-0.7-3.5-0.2-4.2,2.6-4.3c7.4-0.3,14.7,0.8,22,1.9c0.9,0.1,1.9,0.4,2.7,0.9c1,0.6,1.7,1.6,1.4,3
		c-0.3,1.3-1.2,1.6-2.4,1.7c-0.4,0-0.8,0.1-1.3,0.2c-0.1,1.6-0.1,3.1-0.3,4.6c-0.5,3.1-1.8,4.2-5,4.5c-0.5,0-1,0.3-1.4,0.2
		c-2.5-0.2-4.1,0.6-5.1,3.1c-1,2.4-3.6,3-5.9,3.1c-3.7,0.1-7.4-0.1-11-0.4c-3.2-0.3-3.7-1.7-2.1-4.5c0.1-0.2,0.3-0.5,0.5-0.8
		c0.8,0.1,1.7,0,2.5,0.2c3.3,0.6,6.6,0.6,9.8-0.2c1.7-0.4,3.2-0.9,3.7-3.1c0.3-1.8,1.7-2.5,3.7-2.5c1.2,0,2.3-0.1,3.4-0.3
		c1.3-0.3,2.1-1.4,2.2-2.8c0.1-1.4-0.9-2-2-2.1c-3.1-0.5-6.3-0.9-9.5-1.3C526.7,278.5,523.9,278.2,521,277.9z"/>
	<path d="M124.9,445.5c0.4-1.1,0.6-1.9,0.9-2.6c2.7-5.3,5.9-10.2,9.9-14.6c4.8-5.3,10.5-9.5,16.1-13.7c4.3-3.2,8.5-6.8,12.3-10.6
		c3.9-3.9,7.3-8.3,10.9-12.4c0.3-0.3,0.5-0.7,0.8-0.8c0.5-0.2,1.2-0.5,1.5-0.3c0.4,0.2,0.7,1,0.6,1.5c-0.2,1-0.6,2.1-1.2,2.9
		c-3,3.8-5.9,7.7-9.1,11.3c-4.4,5-9.5,9.1-14.8,13.1c-6.8,5-13,10.8-18,17.7c-1.8,2.5-3.7,5-4.3,8.2c-0.1,0.6-0.4,1.1-0.7,1.6
		c-0.7,1.3-2.3,2.1-3.4,1.4C125.7,447.4,125.3,446.2,124.9,445.5z"/>
	<path d="M276.3,204.7c-2.5,0.7-4.2,4.5-7.8,1.5c-0.2-1.9-0.5-4.3-0.8-6.7c-0.7-7-4.3-12.4-10.1-15.8c-6.7-3.9-12-9.4-17.2-15
		c-2-2.2-1.8-4.8-1.6-7.4c0.1-0.7,1.2-1.4,2-1.8c1-0.5,1.7,0.3,2.1,1.1c0.4,0.8,0.6,1.6,0.7,2.5c0.1,2.2,1.3,3.9,2.7,5.3
		c1.9,1.9,3.9,3.8,6,5.4c2.5,2,5.2,3.8,7.9,5.5c7.2,4.5,12.2,10.5,12.9,19.3C273.3,201.3,275,202.8,276.3,204.7z"/>
	<path d="M589.9,295.6c1.4-2.5,1.1-5.2,1.1-7.7c0-7.6-0.2-15.3-0.7-22.9c-0.2-2.7-1.7-5.3-2.8-7.9c-0.2-0.6-1.2-0.9-1.8-1.2
		c-0.5-0.2-1.2-0.2-1.7-0.4c-1.2-0.4-1.9-1.3-1.8-2.6c0.2-1.3,0.9-2.3,2.3-2.2c1.8,0.1,3.7,0.4,5.4,0.9c1.3,0.3,1.7,1.7,2.2,2.9
		c2.4,5.9,3.4,12,3.8,18.4c0.5,8.5,0.2,16.8-1.2,25.2c-0.4,2.4-1.3,3.3-3.6,3.2c-1.5,0-3.1-0.3-4.6-0.4c-0.1,0-0.2,0-0.3-0.1
		c-1.7-0.5-2.7-1.5-2.5-2.7c0.2-1.2,2.1-2.6,3.4-2.6C588,295.5,588.9,295.5,589.9,295.6z"/>
	<path d="M553.6,356.3c-0.5-1.2-1.1-2.3-1.5-3.5c-0.5-1.6,0.2-2.4,2-2.1c0.8,0.1,1.6,0.6,2.3,1.1c1.5,1.2,3.2,2.1,5.3,2.4
		c0-0.5,0.2-1,0.1-1.2c-1.8-2.5-3.5-5.1-5.6-7.4c-2.1-2.4-5-3.5-8.3-3.7c-1.9-0.1-3.9-0.9-5.7-0.6c-3.1,0.4-6.3,0.1-9.3,1.5
		c-0.6,0.3-1.3,0.5-2,0.5c-1.5,0.2-2.9-0.8-3.2-2c-0.3-1.2,0.2-2.3,1.8-2.9c1.9-0.7,3.9-1.4,5.9-1.7c7-0.9,13.8-0.2,20.2,2.8
		c3.4,1.6,5.7,4.6,7.7,7.7c1.3,2,2.9,3.9,4.4,5.8c1.4,1.7,1.5,2.7,0,4.4c-1.1,1.2-2.5,2.2-3.6,3.3c-1.7,1.8-4.8,0.5-5.3-1.4
		C558.1,356.4,556.2,355.9,553.6,356.3z"/>
	<path d="M487.1,246.2c-2.1-1.7-4.3-2.3-6.7-2c-1.3,0.1-2.4-0.2-2.6-1.7c-0.1-1.3,0.6-2.2,1.9-2.6c4.1-1.2,7.9-0.4,11,2.4
		c0.7,0.6,0.9,1.9,1,2.9c0.9,6.3,0.4,12.6,0.3,18.9c-0.1,2.6,0.2,5.2,0.1,7.8c-0.1,4.3-0.3,8.5-0.5,12.8c-0.1,1.6-0.1,3.3-0.5,4.9
		c-0.2,1-0.8,2.1-1.5,2.6c-1.7,1.1-3.5-0.5-3.3-2.8c0.2-3,0.7-6,0.7-9c0.1-5.6,0-11.2,0-16.8c0-4.6,0.2-9.3,0.3-13.9
		C487.5,248.6,487.3,247.4,487.1,246.2z"/>
	<path d="M521.5,253.8c-1.8-0.1-3.7-0.2-5.5-0.4c-1.1-0.1-2.2-0.5-2.2-1.9c0-1.4,1-2.1,2.1-2.4c0.5-0.2,1.2-0.2,1.7-0.2
		c5.6,0.1,11.3-0.1,16.8,1.4c2.2,0.6,4.8,1,5.9,3.3c1.5,3,2.6,6.3,1.9,9.8c-0.2,0.7-0.9,1.5-1.6,1.9c-3.7,2.2-7.7,3.2-11.9,3.2
		c-3.2,0-6.4-0.2-9.6-0.2c-1.6,0-2.7-0.8-3-2.2c-0.2-1.3,1.2-3.1,2.7-3.3c1.5-0.1,3.1,0.1,4.6,0.1c3.4,0,6.8,0,10.1-0.1
		c0.6,0,1.1-0.2,1.7-0.5c1.1-0.5,2.6-0.6,2.5-2.4c-0.1-2.2-1.1-3.7-3-4C530.2,255.1,526,253.4,521.5,253.8z"/>
	<path d="M318.7,379.3c-1,1-1.4,1.6-1.9,2.1c-0.7,0.5-1.4,1-2.2,1.4c-5.3,2.3-7.6,6.9-9.2,12c-1.1,3.5-2.3,7-3.4,10.5
		c-0.9,3.1-2.6,5.4-5.7,6.5c-1.8,0.6-2.8,1.8-2.9,3.9c-0.3,3.9,0.2,7.4,3.8,9.8c0.8,0.5,1.1,1.3,0.6,2.3c-0.5,1-1.4,1.5-2.4,1.2
		c-0.9-0.3-1.8-0.7-2.5-1.3c-4-3.4-5.4-10.1-3.2-14.9c1.1-2.4,2.2-4.7,5.3-5.2c1.3-0.2,2.1-1.3,2.5-2.6c1.2-3.7,2.4-7.4,3.7-11
		c0.9-2.4,2-4.8,3.1-7.2c2.1-4.3,6.2-6,10.3-7.6C315.5,378.7,316.8,379.2,318.7,379.3z"/>
	<path d="M364.6,461.8c-2.2,6.5-7.9,9.7-13.7,8.1c-1.1-0.3-2.1-0.7-2-2c0.1-1.3,0.7-2.3,2-2.6c1.5-0.3,3.1-0.5,4.6-0.7
		c3.4-0.5,3.8-1,4.3-4.3c0.3-2.3,1.8-3.8,4.1-3.6c2.2,0.2,3.9-0.7,5-2.3c1.1-1.5,2.1-3.3,2.8-5c0.8-2,0.3-2.7-1.7-3.6
		c-1.7-0.7-3.5-1.2-5.1-2c-1.2-0.6-2.3-1.4-3.3-2.3c-1.1-1.2-1-2.2-0.1-3.4c0.9-1.2,1.8-0.9,3-0.3c3.5,1.7,7,3.2,10.6,4.7
		c1.6,0.7,2.4,1.8,2,3.4c-0.9,3.1-1.7,6.2-3.1,9.1C372.1,458.7,369.2,461.5,364.6,461.8z"/>
	<path d="M487.3,333.3c1,0.1,2.1,0.1,3.2,0.4c3.2,1,6.4,2.2,9.5,3.4c0.8,0.3,1.5,1,2.1,1.6c6.1,6,11,13,14.4,20.9
		c1.7,4,3.1,8.1,4.7,12.2c0.4,1.1,0.6,2.3-0.4,2.9c-0.8,0.4-2.1,0.2-2.9-0.3c-0.8-0.5-1.4-1.6-1.8-2.5c-2.4-5.5-4.4-11.2-7-16.6
		c-2.4-5.1-5.8-9.6-10-13.5c-2.4-2.2-5.7-2.7-8.7-3.7c-2.6-0.8-3.3-1.6-3.4-4C486.8,334,487,333.8,487.3,333.3z"/>
	<path d="M388.7,372.6c-2,0.2-3.9,0.3-5.8,0.6c-2.2,0.3-4.2-0.1-6.2-1.2c-1.4-0.8-1.4-1.6,0-2.4c0.7-0.4,1.6-0.7,2.4-0.8
		c3.6-0.5,7.3-0.7,11-1.2c3.9-0.5,7.7-0.3,11.4,1.2c5.1,2.1,7,7.9,6.9,12.1c0,1.2-0.7,2-1.9,2.3c-1.2,0.3-2-0.3-2.7-1.2
		c-2.4-3.1-5.3-5.3-9.3-6c-0.3,0-0.6-0.2-0.9-0.1C391.1,376.2,389.5,375.2,388.7,372.6z"/>
	<path d="M326.9,240.2c3.2-1.9,4-1.7,5.8,0.8c5,7.1,6.1,15.1,6,23.5c0,2.7,0.4,5.4,0.7,8c0.2,1.3,0.2,2.3-1.2,2.9
		c-1.4,0.6-2.7,0.4-3.6-0.9c-1.5-2.4-1.5-5.1-1.5-7.9c0-3.8,0-7.6-0.3-11.3c-0.3-3.8-1.6-7.4-3.5-10.7
		C328.5,243.2,327.7,241.7,326.9,240.2z"/>
	<path d="M546.1,389c-1.5,0-3,0.1-4.6,0.1c-1.5,0-3.2-1.6-3.1-2.8c0-1.2,1.2-2.2,2.9-2.3c0.5,0,1,0,1.4,0.1c2.6,1,5.2,0.2,7.7-0.2
		c1.3-0.2,2.8-1.1,3.7-2.2c1.4-1.7,2.5-3.7,3.5-5.6c0.7-1.3,0.4-2.5-0.7-3.7c-0.8-0.9-1.6-2-1.9-3.1c-0.5-1.7,0.6-2.5,2.3-2.1
		c3.8,1,6.4,5.7,5.4,9.5c-0.7,2.6-1.3,5.1-3.1,7.4c-2.8,3.6-6.5,4.7-10.6,5.2c-1,0.1-1.9,0-2.9,0C546.1,389.2,546.1,389.1,546.1,389
		z"/>
	<path d="M350.1,412.9c-1.6-0.4-3.2-0.7-4.8-1.1c-2-0.5-3.9-0.9-5.9-1.4c-1.1-0.3-2.4-0.4-2.3-2.1c0.1-1.6,1.1-2.6,2.9-2.6
		c0.6,0,1.2,0,1.7,0.3c6.7,3.1,13.4,2.2,20.1,0.5c2.8-0.7,5.6-1.6,8.4-2.3c0.5-0.1,1.1-0.3,1.4-0.1c0.8,0.5,1.7,1,2.1,1.7
		c0.5,1-0.3,1.9-1.2,2.3c-2.1,0.8-4.1,1.8-6.3,2.2c-4.7,1-9.5,1.8-14.3,2.6c-0.6,0.1-1.2-0.1-1.7-0.1
		C350.1,412.8,350.1,412.9,350.1,412.9z"/>
	<path d="M577.2,333.9c2,0.3,4,0.4,6,0.8c3.2,0.7,4.8,2.9,5.4,6.1c0.8,4.3,0.4,8.7,0.3,13c0,1.2-0.1,2.4-1.7,2.6
		c-1.3,0.1-3-1.2-3.1-2.5c-0.1-2,0-4.1,0-6.1c0-1.9-0.1-3.9-0.3-5.8c-0.2-1.9-0.9-2.4-2.8-2.6c-1.5-0.1-3.1,0-4.6-0.2
		c-1.8-0.2-3.6-0.5-5.4-1c-1.5-0.5-2-1.5-1.7-2.9c0.3-1.4,1.3-1.5,2.4-1.5c1.8,0.1,3.7,0.2,5.5,0.4
		C577.2,334.2,577.2,334.1,577.2,333.9z"/>
	<path d="M579.8,377.3c0-1.5,0-3.1,0-4.6c0-1.4,0-2.7,0.1-4.1c0.1-0.9,0.2-2.2,1.5-2.1c0.9,0.1,1.9,0.8,2.6,1.5
		c0.4,0.4,0.5,1.3,0.5,1.9c0.1,3.1,0.7,6.2-0.2,9.3c-0.3,1-0.4,2.1-0.3,3.2c0.2,2.3-0.9,3.8-2.9,4.5c-1.9,0.7-3.9,1-5.8,1.4
		c-0.9,0.2-1.9,0.2-2.9,0.2c-0.9,0-2-0.1-2.8-0.5c-0.7-0.4-1.6-1.4-1.6-2.1c0-0.7,0.8-1.7,1.5-2.2c1.1-0.7,2.2-1.4,4-0.9
		c1.4,0.4,3.2-0.3,4.7-0.8c0.5-0.1,0.8-1,1-1.6c0.3-1,0.3-2.1,0.4-3.2C579.6,377.3,579.7,377.3,579.8,377.3z"/>
	<path d="M447,247.1c2.5,1.1,2.8,1.4,2.5,3.9c-0.6,6.5-1.4,12.9-2.1,19.4c-0.3,2.5-0.5,5-0.8,7.5c-0.2,1.8-1.1,2.7-2.8,2.6
		c-1.4-0.1-2.3-1.2-2.1-2.9c0.3-3.2,0.8-6.3,1.2-9.5c0.6-5.1,1.1-10.2,1.7-15.3C444.9,250.6,445.2,248.5,447,247.1z"/>
	<path d="M448.6,350.3c0,3.2,0.2,6.1,0.1,9c-0.1,3.2-0.3,6.4-0.6,9.6c-0.2,2.1-1.2,2.8-2.8,2.5c-1.9-0.3-3-1.4-3-3.3
		c0-6.1,0.1-12.2,0.1-18.3c0-2.2,3.4-4.2,5.3-3c0.6,0.3,1,1.2,1.1,1.9C448.9,349.2,448.7,349.9,448.6,350.3z"/>
	<path d="M408.6,418.9c-0.9,6.3-3.2,10.8-6.5,14.8c-0.5,0.6-1.2,1-1.8,1.4c-1.6,1-2.4,1-3.3-0.1c-1.1-1.4-1.1-2.9,0.1-4.1
		c2.8-2.8,4.6-6.2,6-9.8c1-2.7,0.8-5.5,0.3-8.3c-0.1-0.7-0.4-1.3-0.5-2c-0.1-1.3,0.5-1.8,1.8-1.5c1.2,0.3,2.2,1,2.4,2.2
		C407.8,414.3,408.3,417.1,408.6,418.9z"/>
	<path d="M537.2,363.6c0-3.3,1.5-6.2,2.8-9.1c0.3-0.8,1-1.4,1.7-2c1.4-1.3,3.2-1.3,4.4-0.1c1.2,1.2,1.1,2.4-0.1,4.1
		c-1.1,1.5-2,3.1-2.8,4.7c-1.7,3.6-1.3,5.7,1.6,8.3c1.5,1.3,1.7,2.7,1.4,4.4c-0.2,1.3-1.2,1.7-2.4,1
		C539.6,372.8,536.9,368.3,537.2,363.6z"/>
	<path d="M631.6,274.5c0.5,1.1,1.3,2,1.4,2.9c1,7.3,1.1,14.5-0.9,21.6c-0.2,0.7-0.5,1.5-0.8,2.2c-0.5,1.3-1.6,1.6-2.9,1.4
		c-1.2-0.2-1.9-1.1-1.8-2.3c0.1-1.1,0.2-2.1,0.6-3.1c1.9-5.4,1.6-10.9,1.2-16.4c0-0.4-0.2-0.8-0.2-1.1
		C628,276.7,628.3,276.1,631.6,274.5z"/>
	<path d="M264.6,354.4c-0.8,2.6-2,4.8-4,6.7c-4,3.7-8.7,6.2-14.1,7.1c-0.7,0.1-1.3,0.2-2,0.4c-2.1,0.5-3.1,0.3-3.5-0.8
		c-0.4-1.3,0.9-3.4,2.4-3.8c0.5-0.1,1-0.1,1.4-0.2c4.8-0.6,8.8-2.8,12.4-5.9c1.5-1.3,2.7-2.7,3.3-4.7c0.3-1.1,0.5-2.5,2.2-2
		C264,351.5,264.8,353,264.6,354.4z"/>
	<path d="M443.3,312c0.9-0.2,1.4-0.4,2-0.5c2.2-0.3,3.4,0.5,3.6,2.7c0.2,2.3-0.1,4.6-0.1,6.9c0,2.3-0.1,4.6,0.1,6.9
		c0.1,1.3,0.3,2.6-1.2,3.2c-1.4,0.6-3.8-0.2-4.2-1.6c-0.5-2-0.9-4.2-0.9-6.3C442.6,319.6,443.1,315.9,443.3,312z"/>
	<path d="M486.1,364.4c0.4,0,1.1-0.1,1.8,0c1.8,0.2,3,1.6,2.7,3.4c-0.3,1.4-0.8,2.8-1.4,4.1c-1.2,2.5-2.7,4.9-4,7.4
		c-0.7,1.3-1.9,1.9-3.1,1.5c-1.7-0.6-3-2.2-2.7-3.7c0.1-0.6,0.4-1.1,0.6-1.6C481.9,371.8,484,368.2,486.1,364.4z"/>
	<path d="M329.8,439.6c-0.5,2.3-1,4.5-1.5,6.6c-0.4,1.7-1.1,2.2-2.5,2c-1.4-0.3-2.5-1.5-2.3-2.8c0-0.3,0.1-0.6,0.2-0.8
		c2.1-4.2,1.2-8.3-0.8-12.3c-0.6-1.2-0.5-2.2,0.3-3.2c0.6-0.8,1.4-1.1,2.3-0.5c0.6,0.4,1.3,0.9,1.7,1.5
		C328.9,433,329.6,436.3,329.8,439.6z"/>
	<path d="M563.7,281.2c1.8,0.7,2.3,2.2,2.7,3.7c1,4.3,0.4,8.5-0.4,12.7c-0.3,1.3-0.9,2.1-2.4,1.9c-1.4-0.2-2.1-1-2.1-2.6
		c0-1.1,0.3-2.1,0.3-3.2c0-2.7,0.1-5.4,0-8.1C561.6,283.4,561.6,283.2,563.7,281.2z"/>
	<path d="M563,266c0.5-2.7,1.1-5.3,1.6-8c0.1-0.4,0.1-0.8,0.3-1.1c0.5-1.2,1.3-2.3,2.7-2.3c1.1,0,2.1,1.4,1.9,3.1
		c-0.5,3.9-1.1,7.8-1.8,11.7c-0.2,1.4-1.3,2-2.6,1.8c-1.1-0.2-2.2-1.4-2.3-2.7c0-0.5,0.1-1,0.1-1.4C563,266.8,563.1,266.4,563,266
		C563.1,266,563.1,266,563,266z"/>
	<path d="M469.1,236c0-1.3,0-2.5,0.1-3.8c0.1-1.1,0.7-2.1,2-2.1c1.3,0,2.3,0.6,2.5,2c0.1,1.1,0.2,2.1,0.2,3.2
		c0.1,2.7,0.3,5.4,0.4,8.1c0,0.7-0.1,1.6-0.4,2.2c-0.5,0.9-1.4,1.7-2.6,1.3c-1.1-0.3-1.9-0.9-2-2.2c-0.1-2.9-0.2-5.8-0.3-8.7
		C469,236,469,236,469.1,236z"/>
	<path d="M320.4,244.8c2.6-1.4,3.3-1.3,4.8,0c0.6,0.5,1.3,0.7,1.9,1c0.6,0.4,1.5,0.6,1.8,1.2c1.4,2.8-0.4,7-3.4,7.9
		c-2.4,0.7-3.2,0.3-4.6-2.3c0.8-0.8,1.6-1.7,2.5-2.7C322.4,248.2,321.5,246.6,320.4,244.8z"/>
	<path d="M400.7,357c3.9,0.9,6.6,2.6,8.4,5.6c0.9,1.5,0.3,3.3-1.1,3.9c-1.2,0.6-2.4,0.1-3.1-1.6c-0.6-1.5-1.7-2.3-3-3
		c-0.8-0.4-1.6-0.8-2.3-1.3c-0.9-0.7-1.1-1.7-0.5-2.6C399.5,357.5,400.4,357.2,400.7,357z"/>
	<path d="M491,347.4c4-0.2,5.2,1,4.8,4.4c-0.1,1.3-0.4,2.7-1,3.9c-0.7,1.7-1.9,1.8-3.2,0.5c-1.2-1.1-1.8-2.4-1.5-4.1
		C490.5,350.6,490.7,349,491,347.4z"/>
	<path d="M513.2,396.6c-0.3-0.5-0.5-1-0.8-1.5c0.2-0.1,0.4-0.2,0.6-0.3c0.2,0.5,0.5,1,0.7,1.5C513.6,396.4,513.4,396.5,513.2,396.6z
		"/>
</g>
</svg>
