<?xml version="1.0" encoding="utf-8"?>
<!-- Generator: Adobe Illustrator 24.0.3, SVG Export Plug-In . SVG Version: 6.00 Build 0)  -->
<svg version="1.1" xmlns="http://www.w3.org/2000/svg" xmlns:xlink="http://www.w3.org/1999/xlink" x="0px" y="0px"
	 viewBox="0 0 400 401" style="enable-background:new 0 0 400 401;" xml:space="preserve">
<g id="needsCircle">
	<path d="M370.4,258.5c-2.6,1.3-2.1,3.6-1.4,5.8c-0.9,0.4-1.9,0.6-2.1,1.1c-0.8,2-1.4,4.1-1.8,6.2c-0.3,1.4-0.1,2.9-0.4,4.4
		c-0.1,0.4-0.9,0.6-1.5,1c0.3,2.9-1.1,5.6-2.5,8.3c-3.1,5.9-8.2,10.2-12.4,15.2c-1,1.1-1.8,2.4-2.8,3.8c2.1,2.6,0.8,4.5-1.3,6.4
		c-1.7,1.6-3,3.5-4.6,5.2c-0.6,0.7-1.2,1.4-2,1.9c-6,4.1-10.8,9.3-14.6,15.5c-0.6,1.1-1.3,2.1-2.8,2.3c-0.9,0.1-1.8,0.9-2.7,1.4
		c-0.4,0.2-0.8,0.6-1.1,0.7c-5,0.3-8.1,3.9-11.8,6.5c-1,0.7-2.1,1.3-3.2,1.9c-0.5,0.3-1.2,0.4-1.5,0.8c-1.8,2.4-4.9,2.5-7.2,3.9
		c-2.3,1.3-4.4,3-6.8,3.9c-4,1.6-6.9,5.4-11.7,5.4c-1.7,0-3.3,1.2-4.2,2.8c-0.8,1.5-1.9,2.2-3.7,1.7c-0.6-0.2-1.4-0.1-2,0
		c-2.1,0.6-4.1,1.4-6.2,1.9c-2.8,0.6-5.5,1.5-8,2.8c-1.1,0.6-2.4,0.6-3.7,0.8c-0.4,0.1-1.1-0.1-1.3,0.1c-2.8,2.4-6.7,1.8-9.9,3.5
		c-2.4,1.3-5.6,1.3-8.4,1.8c-0.1,0-0.2,0-0.3,0c-3-0.2-4.9,2.9-8.1,2.3c-2.9-0.6-5.6,0.8-8.5,1.2c-5.2,0.8-10.6,1.1-15.9,1.5
		c-3.1,0.2-6.5-0.6-9.2,0.5c-4.3,1.7-8.4,1-12.5,0.6c-6.4-0.6-12.8-2.2-19.2-2.7c-3.7-0.3-7-1.2-10.4-2.2c-1-0.3-2.1-0.1-3.1-0.3
		c-1.2-0.2-2.4-0.4-3.6-0.7c-0.4-0.1-0.9-0.7-1.2-0.6c-4.2,1-7.4-2-11.1-2.9c-2.7-0.6-5.4-1.6-8.4-2.5c0,0-0.2-0.6-0.4-1
		c-0.2-0.1-0.3-0.2-0.4-0.2c-4.3,1-6.5-3.4-10.2-4c-3.2-0.5-6.1-2-8.7-3.9c-0.5-0.4-1.4-0.1-2.1-0.1c-0.6,0-1.3,0.3-1.8,0
		c-1.1-0.5-2.3-1.2-3.3-2c-1.9-1.6-3.6-3.2-6.4-3.3c-1.8-0.1-3.5-1.2-4.5-3c-0.3-0.6-0.8-1.3-1.3-1.5c-2.4-0.7-3.7-3.3-6.4-3.6
		c-0.2,0-0.5-0.1-0.6-0.3c-1.5-3.9-6-3.5-8.6-5.9c-4.1-3.8-8.4-7.4-12.7-11.1c-1-0.9-2.1-1.8-3.4-2.3c-2.9-1.4-5-3.3-6.6-6.3
		c-1.8-3.5-4.3-6.5-6.6-9.7c-2.1-2.9-4.2-5.8-6.4-8.6c-0.8-1.1-1.8-2.1-3-2.7c-1.7-1-2.9-2-3.7-3.9c-1.5-3.7-3-7.4-4-11.3
		c-0.1-0.3-0.3-0.8-0.2-1c1.5-2.9-0.3-5.5-0.9-8.2c-0.6-2.7-1.4-5.4-2.6-7.9c-2.8-5.7-3.4-11.9-4.5-18.1c-0.6-3.6-1-7.3-1.3-10.9
		c-0.4-5.2-0.4-10.3,0.3-15.5c0.5-3.9,0.1-7.9,0.7-11.8c1.2-7.2,2.9-14.3,4.5-21.4c0.9-4.3,1.9-8.6,3.1-12.8c0.7-2.5,1.8-5,2.7-7.4
		c1.5-3.7,3-7.5,4.7-11.1c1.4-3,3.1-5.9,4.7-8.8c2-3.7,4-7.5,6.2-11.2c3.9-6.6,7.9-13,11.9-19.5c1.1-1.8,2.2-3.5,3.4-5.2
		c0.9-1.3,2-2.5,3-3.7c1.4-1.7,2.7-3.5,4.1-5.2c1.2-1.5,2.6-2.9,3.9-4.4c0.6-0.7,1.4-1.3,1.8-2.1c1.8-3.3,4-6.1,6.9-8.6
		c2.2-1.9,3.9-4.6,6-6.7c3-3,6.2-5.8,9.3-8.7c1.8-1.6,3.6-3.2,5.4-4.9c2.7-2.6,5-6,8.2-7.8c4.2-2.3,7.2-6.1,11.5-8.1
		c0.7-0.3,1.4-0.8,2-1.4c6.5-5.5,13.5-10.4,21.6-13.6c3.5-1.4,6.8-3.3,10.2-5.1c4.7-2.4,9.4-4.4,14.8-4.5c1,0,2-0.4,3.1-0.5
		c4-0.5,7.9-1.8,12-1c0.6,0.1,1.4,0,2-0.2c10.3-2.6,20.8-3.1,31.3-3.4c7.4-0.2,14.8-0.3,22.1,1c5.3,1,10.3,2.7,15.1,5.2
		c3.8,1.9,7.3,4.3,11.1,6.3c3.4,1.8,6.9,3.2,10.4,4.9c5.6,2.8,11.2,5.5,15.5,10.2c1,1,2.5,1.6,3.9,2.2c10.6,4.5,19.6,11.2,27.8,19.3
		c1.2,1.1,2.4,2.1,3.5,3.3c1.3,1.4,3.6,2.4,3,5c0,0.1,0.1,0.2,0.2,0.3c2.8,2,4,5.7,7.5,6.9c3.3,1.1,5.5,3.2,6.1,6.2
		c1.6,1,2.8,1.6,3.9,2.5c1.5,1.2,2.9,2.7,4.3,4c0.1,0.1,0.2,0.1,0.3,0.2c4.8,6.3,11.9,10.7,16,17.6c1.3,2.2,2.1,4.6,3.2,6.8
		c0.5,1,1,2.2,1.8,2.8c1.7,1.2,2.7,2.8,3.6,4.5c1,1.7,2,3.2,3.7,4.4c3,2.2,3.4,5.9,4.3,9.2c0.2,0.6-0.6,1.4-1,2.4
		c2.1,0.5,2.4,2.2,2.4,4c0,3.7,1.4,7,2.4,10.4c0.2,0.8,0.6,1.6,0.6,2.4c0.1,6.4,2.7,12.1,4.7,18c0.9,2.5,1.1,5.2,1.5,7.8
		c0.1,0.6-0.2,1.3-0.4,2.3c-2.5-3-1.9-6.6-2.8-9.7c-1.8,0-2.7,0.8-2.1,2.1c1.1,2.1,0.3,4.3,0.7,6.4c1.3,8.8,1.1,17.5-0.2,26.3
		c-0.1,0.9-0.1,1.9,0.3,2.7c0.9,1.9,0.5,3.6-0.7,5.2c-2.3,3.2-2.8,6.5-0.8,10.3c-0.7,0.3-1.2,0.6-1.8,0.9c-0.2,2.7,0,5.5-2.2,7.9
		c-0.8,0.9-0.7,2.8-0.7,4.2c0.1,1.6,1.2,3.3-1.2,4.3C369.8,255.3,370.2,257,370.4,258.5z M237.9,360.5c-4.6-0.8-8.5,1.2-12.4,3
		c2.6-0.2,5.3-0.4,7.8-0.9C235,362.2,236.8,362.2,237.9,360.5c0.7-0.2,1.4-0.3,2.1-0.4c-0.1-0.2-0.2-0.5-0.3-0.7
		C239.1,359.7,238.5,360.1,237.9,360.5z M281.3,73.7c-0.1,0.1-0.2,0.3-0.2,0.4c-1.6-0.6-3.2-1.2-4.8-1.8c-2-0.8-4.4-1.3-6-2.7
		c-1.8-1.7-4.5-1.5-6.1-3.4c-5.1-0.8-9-5.1-14.3-5.2c-0.1,0-0.2-0.1-0.3-0.1c-4-2.4-8.4-3.9-12.6-5.8c-8.6-4-17.6-6.7-27-8.1
		c-5.3-0.8-10.5-2.6-16-2.3c-5.3,0.3-10.7,0.5-16,0.3c-10.9-0.5-21.2,2-31.3,5.6c-1.6,0.6-3.3,1.1-4.8,2
		c-5.8,3.5-11.6,7.2-17.4,10.8c-1.3,0.8-2.7,1.6-2.6,3.7c0,0.6-1,1.5-1.8,1.9c-5.2,3.3-10.6,6.2-15.6,9.7c-4.8,3.3-9.4,7.1-14,10.8
		c-1.2,1-2.2,2.2-3.4,3.3c-3.4,3.1-6.9,6.1-10.5,9.4c2,1.2,1.8,2.3,0.5,3.6c-4.3,4.3-8.4,9-12.8,13.1c-5,4.7-8.2,10.5-11.6,16.2
		c0.4,0.8,0.5,1.5,0.9,2c1.4,1.7,1,3.2,0,5.1c-3.3,6.5-6.4,13.1-9.6,19.6c-1.9,3.8-3.7,7.6-5.7,11.4c-0.6,1.1-1.5,2.1-2,3.2
		c-1.7,4.7-3.3,9.4-5,14c-0.4,1-1,2.5-1.8,2.8c-2.3,0.7-2.5,2.4-3,4.2c-0.4,1.5-1,3-1.6,4.5c-1.3,3.7-1.7,7.5-0.8,11.3
		c-0.6,0.1-1.2,0.1-1.8,0.2c0.1,0.6,0.1,1.5,0.4,1.7c1.3,0.8,1.4,2,1.5,3.3c0.2,2.1,0.3,4.1,0.4,6.2c-0.7,0.3-1.3,0.6-1.9,0.9
		c-2.6,1.2-2.7,2-2.4,4.8c0.2,1.6,1.8,1.9,1.8,2.9c0.1,1.4-0.6,2.9-0.8,4.3c-0.1,0.5,0.3,1.1,0.3,1.7c0.6,5.7,1.1,11.4,1.8,17.1
		c0.3,2.1,0.3,4.2,1.5,6.3c1.5,2.6,2.5,5.8,2.9,8.8c0.5,3.2,1.8,5.5,3.8,7.9c3.4,4.2,6.7,8.5,7.9,14c0.2,0.9,1,2.1,1.8,2.4
		c2.2,0.9,2.5,2.7,3.2,4.6c0.8,2.1,1.9,4.2,3.3,6c1.6,2.2,3.7,4,5.6,6.1c0.4,0.4,1,0.9,0.9,1.3c-0.4,2.1,1.2,2.8,2.4,3.9
		c0.8,0.7,1.6,1.4,2.3,2.1c3.6,3.7,7.1,7.6,10.9,11.1c2.1,1.9,4.5,4,7.1,4.8c6.2,2.1,12,4.8,17.5,8.3c2.3,1.5,4.8,2.7,7.4,3.6
		c2,0.8,4.4,0.4,6,2.3c0.3,0.4,1.3,0.2,2,0.3c0.7,0,1.5-0.1,2.1,0.1c3.8,1.5,7.5,3,11.2,4.6c3.6,1.6,6.7,4.2,10.7,4.7
		c0.5,0.1,1,0.5,1.4,0.7c0.1,1.2,0.2,2.2,0.4,3.3c4.3,1.3,8.4,2.5,12.9,2.5c2.8,0,5.5,0.5,8.3,0.6c2.5,0.1,5-0.1,7.6-0.1
		c1.7-0.1,3.5-0.1,5.2-0.2c3.8-0.2,7.6-0.4,11.4-0.8c2.9-0.3,5.7-0.7,8.6-1.2c3.3-0.5,6.6-1,9.9-1.7c5.9-1.2,11.7-2.5,17.6-3.8
		c6.7-1.5,13.3-2.9,19.9-4.5c5.2-1.3,10.4-2.8,15.6-4c4.1-1,8.3-1.5,12.4-2.5c2-0.5,3.8-1.6,6-1c0.3,0.1,0.8-0.3,1.2-0.5
		c3.1-1.7,6.9-2.3,9.3-5.3c0.3-0.4,1.1-0.2,1.6-0.5c1.7-0.8,3.5-1.7,5.1-2.7c2.1-1.1,4-2.5,6.1-3.5c5.5-2.7,11.1-5,15.9-9
		c4.7-3.9,9.6-7.5,14.3-11.4c1.1-0.9,2.2-2.1,3-3.3c1.7-2.4,2.9-5.5,5.1-7.3c3.3-2.7,4.3-6.6,5.8-10c2.7-5.9,4.5-12.3,7.6-18.1
		c1.9-3.4,2.9-7.3,5.5-10.4c0.9-1.1,1.1-2.8,1.4-4.2c1.3-5.5,2.5-11,4-16.5c1.3-4.9,2.8-9.7,4.3-14.6c0.1-0.4,0-0.9,0.1-1.4
		c0.1-1.5,0-3,0.2-4.5c0.6-4.5,1.3-8.9,1.8-13.3c0.3-2.6,0.4-5.2,1.6-7.7c0.8-1.7,1.2-3.9,0.8-5.7c-1.1-4.5,0-9.3-1.8-13.6
		c0.2-6.8-3.7-12.5-4.9-19c-2.5,0.8,1,3.7-1.9,4.1c-4.3-3.9-5.8-9.3-8.2-14.3c-2.3-4.7-4.1-9.7-6.2-14.5c-0.7-1.6-1.9-2.9-2.5-4.5
		c-1.3-3.8-3.5-7.1-6.1-10.1c-0.9-1-2.1-2-2.5-3.3c-1.5-4.4-5.2-7-7.6-10.6c-2.4-3.7-6-6.4-8.3-10.2c-0.6-1-1.8-1.7-2.8-2.5
		c-1.5-1.3-3.8-1.9-4.2-4.4c-0.1-0.5-0.9-1.1-1.4-1.3c-1.3-0.4-2.8-0.6-4.3-0.9c-0.1-0.6,0.1-1.4-0.2-1.8c-2.1-2.9-4.3-5.7-7.5-7.5
		c-2.5-1.4-4.8-3.3-7.3-5.1c-0.2,0.4-0.5,1.1-1,1.9c-1.7-1.3-3.2-2.4-4.5-3.6C282.2,75.4,281.8,74.5,281.3,73.7z M351.3,145.6
		c-0.9,3.8,0.6,6.1,1.3,8.6c0.8,2.7,3.3,3.6,4.9,5.5C356,155,354.6,150.4,351.3,145.6z M139.8,42c3.1,2.2,3.4,2.1,5.6-0.9
		C143.5,41.4,142,41.7,139.8,42z M271.5,357.3c1.5-0.8,2.8-1.4,4.1-2.1C271.8,355.5,271.8,355.5,271.5,357.3z M247.2,364.1
		c0.1,0.2,0.2,0.5,0.3,0.7c0.7-0.3,1.4-0.6,2-1c0,0-0.1-0.4-0.2-0.8C248.6,363.4,247.9,363.7,247.2,364.1z M363.9,143.4
		c0.2-0.1,0.4-0.2,0.6-0.4c-0.4-0.7-0.8-1.4-1.2-2.1c-0.2,0.1-0.4,0.3-0.6,0.4C363.1,142,363.5,142.7,363.9,143.4z M185.1,374.1
		c-0.3,0.3-0.6,0.5-0.6,0.7c0,0.2,0.3,0.6,0.5,0.7c0.2,0,0.5-0.3,0.7-0.5C185.5,374.8,185.3,374.5,185.1,374.1z"/>
	<path d="M222.2,173.7c-4.2,1.4-5.4,0.6-5.3-3.3c0.4-10.3,0-20.5-1-30.8c-0.2-1.9-0.9-3.7-1.5-6.2c1.1-2.9,2.2-6.6,0.7-10.5
		c-0.3-0.8,0.6-2.1,0.6-3.1c-0.2-3-0.6-6-1-8.9c-0.3-2.5,0-4.6,2.3-6c2-1.3,4.2-0.5,4.7,1.9c0.2,1,0.1,2.1,0.1,3.1
		c-0.1,9.6-0.4,19.2-0.2,28.8c0.1,8.1,0.9,16.2,1.2,24.3C222.9,166.4,222.4,170,222.2,173.7z"/>
	<path d="M241.4,330c-0.9,1.4-1.8,2-3.8,1.8c-2.7-0.2-5.4,0.8-8.1,1.4c-5.3,1-10.6,2.3-16,3.1c-12.7,1.9-25.4,3.7-38.1,5.5
		c-2.5,0.4-5.1,0.6-7.6,0.8c-1.2,0.1-2.2-0.3-2.8-1.6c-0.8-1.8-0.2-2.9,1.7-3.1c7-0.9,14-1.9,20.9-2.8c3.8-0.5,7.6-1,11.4-1.4
		c11.5-1.2,23-2.4,34.1-6c0.9-0.3,1.8-0.4,2.7-0.6C239.3,326.1,239.5,326.3,241.4,330z"/>
	<path d="M119.8,100.8c-1.1,1.5-2.4,2.3-4.2,2.1c-2.5-0.3-4.5,0.8-6.8,2.1c0.6,5.3,1.2,10.6,1.8,15.8c0.6,5.2,1.4,10.3,1.9,15.5
		c0.5,5,0.3,5-4.7,6.9c-2.4-1.9-2.4-4.7-1.9-7.2c0.4-2,0.4-3.8,0-5.8c-1.2-5.2-2.3-10.4-3.3-15.6c-0.4-2.3-0.6-4.6-0.7-6.9
		c-0.1-2.4,1.2-4.2,2.9-5.7c3.4-2.9,7.5-4.1,12-3.6C118.2,98.6,119.2,99.1,119.8,100.8z"/>
	<path d="M150.1,116.7c-1.1,1.4-2,2.8-3.1,3.9c-2.9,2.9-5,6.3-6.6,10.1c-0.6,1.5-1,3.1-1.2,4.7c-0.2,2,0.7,3.6,2.6,4.5
		c2.8,1.3,5.6,2.1,8.7,1c2.4-0.9,5-1.1,7.2,0.7c0.1,1.9-0.8,3-2.5,3.2c-3.9,0.5-7.8,1.5-11.7,1.4c-8.6-0.3-12.9-9.8-9.4-15.4
		c1.8-2.9,3.2-6.1,4.9-9.1c0.4-0.7,1-1.2,1.7-1.7c1.7-1.2,3.5-2.3,5.2-3.5C147.1,115.6,148.2,115.2,150.1,116.7z"/>
	<path d="M261.1,231.2c0,2.4-0.1,4.9,0,7.3c0.1,1.7-0.8,2.6-2.3,2.9c-1.7,0.4-3.1-0.3-3.6-1.9c-1-3.1-2.1-6.3-2.8-9.5
		c-0.3-1.3-0.3-3.4,0.5-4.2c2.2-2.3,2.2-5.3,3.3-7.9c0.2-0.5,0-1.4,0.3-1.7c2.8-2.5,5-6,9.2-6.4c3-0.2,5.4,1.7,7.9,3.1
		c0.4,0.2,0.6,1.3,0.3,1.8c-0.3,0.6-1.1,1.4-1.7,1.4c-1.4,0-2.7-0.3-4.1-0.5c-3-0.6-4.3-0.2-5.6,2.6c-0.8,1.8-1.2,4-1.6,6
		c-0.2,1.1-0.2,2.3-0.2,3.5C260.8,228.8,260.9,230,261.1,231.2C261,231.2,261.1,231.2,261.1,231.2z"/>
	<path d="M38.1,241.7c1.1-3.3-0.1-6.6-1.4-10c-0.8-2.1,0-3.9,1.5-5.3c1.6-1.5,3.9-1,4.8,1c0.3,0.6,0.4,1.3,0.5,2
		c0.4,4.1,1,8.3,2.6,12.1c0.2,0.5,0.3,1.3,0,1.6c-1.3,1.4-0.9,3-0.7,4.6c0.6,4,0.2,8.1,2.4,11.8c0.5,0.9,0.4,1.8-0.7,2.4
		c-1.4,0.8-3.3,0.9-4.1-0.2c-0.9-1.3-1.7-2.8-2.1-4.3c-0.7-2.5-1-5.2-1.5-7.8C39.1,247,38.6,244.5,38.1,241.7z"/>
	<path d="M291.6,100c-0.6,2.2-2.4,2.7-4,3.1c-5,1.4-8.4,4.7-11.4,8.6c-1.3,1.7-2.1,3.5-2,5.8c0.2,3.2,2.1,5.1,5.3,5.2
		c0.9,0,1.9-0.2,2.8,0c0.7,0.2,1.7,0.8,1.8,1.3c0,0.7-0.4,1.8-1.1,2.3c-2.8,1.9-8.8,1.2-11.4-1.1c-3.8-3.5-4.5-7.7-2.2-12.4
		c3.8-7.9,10.2-12.2,18.6-14C289.5,98.3,290.7,98.4,291.6,100z"/>
	<path d="M339.5,207.8c-2.3,2.5-5.2,2.8-7.8,3.4c-4,0.9-5.3,3.5-5.7,6.8c-0.3,2.3,0.3,4.8,0.6,7.2c0.3,2,0.9,4.1,1.2,6.1
		c0.1,0.5-0.2,1.1-0.5,2c-1.8-0.4-3.5-0.9-4.6-1.1c-1.1-2.4-2.3-4.3-3-6.5c-0.7-2-1-4.2-1.5-6.5c-1.3,0.6-2.3,1-3.3,1.5
		c1.4-1.9,2.5-3.6,3.1-6c0.4-1.5,2.4-2.6,3.7-3.8c0.3-0.3,1-0.4,1.1-0.7c2.5-4.9,7.4-3.9,11.6-4.5
		C336.2,205.5,338.1,206.1,339.5,207.8z"/>
	<path d="M143.3,213.1c-1.5,0.3-2.7,0.6-3.9,0.8c-1.7-2.8-2.6-5.5-2.6-8.4c0-5.5-0.8-10.8-2-16.1c-0.8-3.7-1.1-7.5-1.3-11.3
		c-0.1-2.2,1.2-4,2.6-4c1.6-0.1,3.1,1.6,3.3,3.8c1.1,9.5,2.1,19,3.2,28.5C142.8,208.5,143,210.5,143.3,213.1z"/>
	<path d="M217.8,220.1c2.4-4.4,5.9-7.3,11-7.5c5-0.3,9,1.7,11.5,6.2c2,3.6,2.5,7.6,2.7,11.7c0.2,2.9-3.4,4.9-6.3,4.1
		c-1.4-0.4-2.1-1.9-1-2.9c1.4-1.4,1.1-2.7,0.4-4.1c-1.1-2.4-2.2-4.8-3.6-7c-2-3-4.7-3.3-7.8-1.4c-1.1,0.7-2.2,1.3-3.4,1.7
		c-1,0.3-2.1,0.2-3.2,0.3C218,220.7,217.9,220.4,217.8,220.1z"/>
	<path d="M260,92.1c3.1,1.7,3.2,1.9,2.7,5.1c-1.1,7.1-2.1,14.2-3.2,21.3c-0.3,1.8-0.3,3.6,0.8,5.4c1,1.6,0.5,3-0.7,3.6
		c-1.8,0.8-4.6,0.1-5.1-1.5c-0.4-1.3-0.5-2.7-0.6-4.1c-0.1-3.1-1.2-6.2,0.6-9.2c0.4-0.6,0.1-1.6,0.2-2.4c0.5-4.3,0.9-8.7,1.6-13
		C256.7,94.5,257.6,93.6,260,92.1z"/>
	<path d="M286.5,262c4,0.2,7.3,1.1,10.3,2.9c2.3,1.4,3.5,3.5,3.3,6.4c-0.5,6.7-4.1,11.5-10,13.2c-0.3,0.1-0.7,0.2-1,0.3
		c-1.2,0.3-2.3,0-2.5-1.2c-0.1-0.7,0.5-1.8,1.1-2.2c2.1-1.4,3.9-2.9,4.9-5.3c1.6-3.8,0.4-6.6-3.6-7.8c-2-0.6-4.1-0.8-6.1-1.2
		c-1-0.2-2.4-0.4-2.2-1.7c0.2-1,1-2.2,1.8-2.6C283.8,262.2,285.4,262.2,286.5,262z"/>
	<path d="M112,304.1c-1,1.5-1.5,2.8-2.4,3.5c-2,1.7-3.2,1.4-4.8-0.8c-2.4-3.4-3.7-7-3-11.2c0.4-3.1-0.8-5.9-2.1-8.6
		c-1.1-2.2-1.3-4.1,0.3-6.1c1.5-2,3.1-2.3,4.8-0.4c0.6,0.6,1,1.6,1.2,2.4c1,5.5,2,10.9,2.7,16.4C108.9,301.3,109,303.2,112,304.1z"
		/>
	<path d="M202.3,222.4c-1,1.1-1.7,2-2.5,2.8c-1.3,1.2-1.7,2.5-1.5,4.3c0.6,5.8,1,11.7,1.5,17.5c0.1,1.5-0.5,2.4-1.9,2.8
		c-1.6,0.5-3.2-0.1-3.8-1.5c-0.4-0.8-0.4-1.8-0.7-2.7c-0.7-2.2-1.3-4.4-2.1-6.6c-1.6-4.8-1.1-9.2,2.1-13.4c1.8-2.4,3.6-4.1,6.7-4
		C200.7,221.7,201.3,222.1,202.3,222.4z"/>
	<path d="M190.7,121.7c-1.5,2.7-3.2,5.3-4.6,8.1c-1.6,3.1-0.8,5.8,1.9,7.9c1.6,1.2,3.3,1.1,4.9,0.2c1.6-0.9,2.8-0.5,4.4,0.9
		c-0.6,0.9-1,2-1.8,2.6c-3.5,2.7-9,2.7-12.7,0.2c-3.5-2.4-4.7-7.6-3.4-11.6c1.3-3.9,3.9-6.7,6.8-9.3
		C188.2,119.1,189,119.3,190.7,121.7z"/>
	<path d="M181.1,277.4c-4.7,2.5-5.3,6.7-5.1,11.1c0.1,1.2,0.3,2.5,0.8,3.7c1.5,3.6,2.9,4.1,6.3,2.3c0.5-0.3,1-0.6,1.5-0.8
		c1.4-0.3,2.3,0.6,1.9,1.9c-0.2,0.7-0.4,1.4-0.9,1.8c-3.9,3.6-9.9,4.9-13.2-0.9c-2.7-4.8-3.6-9.7-1.9-15c0.9-2.9,3.3-4.7,5.7-6.3
		C177.8,274.4,178.7,274.9,181.1,277.4z"/>
	<path d="M238.2,282.1c-0.3-6.1-3.1-9.7-8.9-11.4c-1.5-0.4-3.2,0-4.8,0.1c-1.1,0.1-2.3,0.4-3.4,0.3c-1.8-0.2-2.4-1.5-1.4-3
		c0.4-0.6,1.1-1.2,1.8-1.5c7.8-4,17.5-1.3,21.8,6.2c0.9,1.5,1.1,3.6,1,5.3C244.3,280.9,241.8,282.4,238.2,282.1z"/>
	<path d="M177,188.6c0.9-3.4,1.3-4.1,3.8-4.1c2.3,0,4.6,0.2,6.8,0.7c2.7,0.6,4.9,2.1,6.1,4.8c1.2,2.6,2.5,5.2,3.4,7.9
		c0.5,1.6,0.5,3.4,0.3,5.1c-0.2,2-1.6,2.7-3.9,2.5c-1.7-0.1-2.1-1.2-2.4-2.8c-0.5-2.6-1.1-5.2-2.3-7.5c-1.8-3.2-4.3-6.1-8.7-5.9
		C179.2,189.4,178.2,188.9,177,188.6z"/>
	<path d="M259.6,193c-0.1,0.9-0.1,1.3-0.3,1.6c-2.2,2.9-8.7,3.4-11.3,1c-3.9-3.7-4.7-8.3-3.9-13.3c0.5-2.9,1.6-5.5,3.9-7.5
		c2.6-2.3,3.9-2.2,7,0.5c-0.4,0.5-0.8,1-1.3,1.4c-3.5,2.9-4.4,6.7-3.7,10.9c0.3,1.5,1.3,2.9,2.3,4.1c1.1,1.5,2.6,1,4.1,0.7
		C257.4,192.3,258.4,192.8,259.6,193z"/>
	<path d="M166,246c0.7-1.7,1.1-3,1.6-4.2c0.7-1.7,1.8-3.3,2.3-5c1.2-4.8-1-8.5-4.1-11.9c-0.2-0.2-0.6-0.4-0.8-0.6
		c-0.2-0.1-0.3-0.4-0.4-0.5c1.7-3.4,3.7-4.1,6.8-2.5c2.2,1.2,3.6,3,4.2,5.3c2,6.7,0.3,12.5-4,17.8C170.3,245.9,168.7,246.1,166,246z
		"/>
	<path d="M223,194.8c0.6-0.2,1-0.2,1.3-0.3c1.2-0.8,2.3-1.1,3.3,0.2c0.7,0.9,0.1,3.4-1,4.1c-2.8,1.9-7.5,1.4-9.1-1.1
		c-0.4-0.7-1.1-1.3-1.4-2c-1.9-4.1-3.9-8.1-5.4-12.3c-0.4-1.1,0.7-3,1.5-4.3c0.5-0.8,1.6-1,2.4-0.1c0.7,0.8,1.4,1.7,1.9,2.7
		c1.5,3.4,2.8,6.8,4.3,10.2C221.3,192.9,222.3,193.8,223,194.8z"/>
	<path d="M125.1,239.9c0.5,4.1,1,8.3,1.7,12.4c0.2,1.1,0.9,2.1,1.5,3.1c0.8,1.3,0.3,2.2-1,2.8c-1.6,0.8-3.2,0.5-4.3-1
		c-0.7-1-1.4-2.2-1.6-3.4c-1-5-2.1-10-1.4-15.1c0.2-1.4,0.6-2.7,1.1-4c0.4-1,1.1-2.1,2.3-1.5c0.9,0.4,2,1.4,2.2,2.3
		c0.4,1.4,0.1,3,0.1,4.5C125.4,239.9,125.2,239.9,125.1,239.9z"/>
	<path d="M96.1,259.6c-3.7,2-4.9,1.7-6-1.9c-0.9-2.9-1.1-6-1.6-9.1c-0.2-1-0.4-2.1-0.3-3.1c0.1-1.9,0.3-3.9,0.8-5.7
		c0.3-1.2,1.2-2.2,2.9-1.8c1.7,0.4,2.1,1.4,2.1,3c0,2.4,0.1,4.8,0.1,7.2c0.1,3.3,0.2,6.7,1.8,9.8C96.2,258.4,96.1,259.1,96.1,259.6z
		"/>
	<path d="M213.4,273.7c2,0.3,3.2,1.2,3.8,2.9c1.1,2.7,2.1,5.4,3.2,8.1c0.5,1.3,1.1,2.6,1.8,3.7c0.8,1.1,0.9,2.1,0,3.1
		c-1.2,1.3-3.3,1.6-4.3,0.6c-0.7-0.6-1.2-1.4-1.7-2.2c-1.9-3.6-3.7-7.2-5.5-10.8c-0.7-1.4,0.2-4,1.6-4.9
		C212.7,273.9,213.1,273.8,213.4,273.7z"/>
	<path d="M80.4,260.3c-0.2,0.1-0.6,0.5-1.1,0.8c-1.4,1-2.5,0.5-3.1-0.9c-0.8-2-1.8-4.1-2.1-6.2c-0.4-3.7-1.2-7.6,0.7-11.2
		c1.1-1.9,2.8-2.2,4.2-0.7c0.5,0.5,0.6,1.4,0.7,2.2C80,249.4,80.2,254.6,80.4,260.3z"/>
	<path d="M267,259.9c-1.2,1.8-4.2,2.1-4.5,5c1.4,0.5,2.9,1,4.2,1.5c0.1,0.3,0.1,0.4,0.1,0.5c-0.2,2.8-2.6,2.6-4.4,3
		c-2,0.5-4.1,1.3-5.9-0.3c-1.2-1-1.5-4.2-0.2-6.2c1.3-2,3-3.8,4.8-5.3C263.5,256.4,265,256.9,267,259.9z"/>
	<path d="M156.6,236.5c-0.5,2.9-1,5.2-1.2,7.5c-0.1,1.5,0.5,2.9,2.4,3.3c0.6,0.1,1.5,1,1.5,1.5c0,0.6-0.8,1.3-1.4,1.6
		c-3.1,1.4-7-0.7-8.1-4.3c-1-3.1,0.2-7.1,2.7-9C153.9,235.9,155.3,235.6,156.6,236.5z"/>
	<path d="M116.5,275.2c0.5-0.9,0.8-1.7,1.3-2.3c1.4-1.9,3.3-2.2,4.9-0.4c2.6,2.9,4.5,6.1,4.8,10.2c-1.1,0.7-2.1,1.3-3.4,2.1
		C120.8,282.2,119.6,278,116.5,275.2z"/>
	<path d="M153.4,304.4c-0.7,2.5-2.3,3.4-3.8,3.8c-1.8,0.5-3.9,0.6-5.8,0.3c-3.2-0.4-5.2-4.1-4-7c0.4-0.9,1.3-1.9,2.1-2
		c1.1-0.2,2.6,0,3.2,1.5c0.8,2.2,2.1,3,4.5,2.6C150.6,303.4,151.9,304.1,153.4,304.4z"/>
	<path d="M140.3,297.5c-4.8-2.4-7.2-5.8-7.3-10.8c0-1.1,0.4-2.3,0.8-3.3c0.4-1.1,1.3-1.4,2.6-1.2c1.2,0.3,2.4,0.7,2.2,2.1
		c-0.3,3.5,0.8,6.5,3.1,9.2C143.2,295.3,141.3,296.2,140.3,297.5z"/>
	<path d="M139.6,359.9c-1,1-1.4,1.5-2.1,2.2c-0.4-0.6-0.7-1.1-1.1-1.9C137.5,360.1,138.2,360,139.6,359.9z"/>
	<path d="M187.5,86.8c0.4,0.4,0.7,0.8,1.1,1.2c0,0-0.3,0.3-0.4,0.4c-0.4-0.4-0.8-0.8-1.1-1.2C187.2,87.1,187.4,86.9,187.5,86.8z"/>
	<path d="M309.3,224.9c0.6-0.3,1.2-0.6,1.9-0.9c0.1,0.1,0.3,0.3,0.4,0.4c-0.6,0.3-1.2,0.6-1.9,0.9
		C309.6,225.2,309.5,225.1,309.3,224.9z"/>
</g>
<g id="needsText">
	<path d="M170.3,143.8c-0.6,3.8-3,6-5.8,7.7c-6,3.6-12.4,6.4-19.7,5.4c-8.5-1.1-15-5.3-19-12.9c-1.1-2.1-1.2-4.6-1.6-7
		c-0.3-1.7-0.3-3.4-0.4-5.3c-6.2,1.3-12.1,2.5-18.4,3.8c0,0.7-0.1,1.8-0.1,2.8c-0.1,2.7-0.1,5.3-0.1,8c0,1.3-0.3,2.6,1.1,3.4
		c0.3,0.2,0.7,0.7,0.7,1.1c0.4,4.5,0.5,9.1-2.3,13c-1.9,2.7-4.7,4-7.8,3.4c-3.1-0.7-5.6-2.8-6.8-5.9c-1.3-3.3-2.5-6.7-3.5-10.2
		c-0.6-2.1-0.7-4.3-1.3-6.4c-1.3-5-1.9-10.1-2.3-15.2c-0.2-2.9,0.1-5.9,0.2-8.9c0.2-5.1,0.3-10.1,0.5-15.2c0.1-2.2,0.7-4.3,2.9-5.6
		c0.5-0.3,1-0.8,1.1-1.3c1.5-4.2,5.4-5.5,8.9-7.1c2.8-1.2,5.7-1.9,8.5-3.1c5.6-2.3,11.3-1.8,17.1-0.6c3.8,0.7,7.1,2.2,9.8,4.9
		c1,1,1.9,2.3,2.6,3.6c2.4,4.1,4.7,8.2,4,13.2c4-1.2,7.6-2.6,11.2-3.3c5.1-1,10.3-1.4,15.4,0.4c3.2,1.1,5.1,3,6.2,6
		c0.6,1.6,1,3.3,1.6,5.2c10.5-9.4,21.9-10.3,34.7-4c0.1-1.9,0.3-3.6,0.4-5.3c0.2-2.7,0.1-5.3,0.4-8c0.5-4.3,2.9-5.5,7.1-4.3
		c0.8,0.2,1.8,0.1,2.6-0.2c1.5-0.6,2.9-1.5,4.3-2.2c8-4.1,17.2-1.2,21.4,6.7c1.1,2.1,2.2,4.2,3.7,6.2c0-0.4,0-0.9-0.1-1.3
		c-1.8-6.9-0.4-13.6,2.1-20c1.1-2.8,3.2-4.4,5.3-4.3c2.6,0.1,5.3,2.2,6.1,5c0.5,1.7,0.7,3.4,0.9,5.1c0.4,4.3,0.8,8.5,1.2,12.8
		c0.1,0.6,0.3,1.2,1,2c1.2-2.7,2.4-5.4,3.5-8.1c2.7-6.5,7.5-10.1,14.5-10.8c4.5-0.5,9-0.9,13.5-0.1c3,0.5,5.3,1.9,6.6,4.5
		c1.3,2.4,2.3,5,3.5,7.5c0.4,0.9,0.8,1.9,1.3,2.8c0.3,0.7,0.9,1.4,1.1,2.2c0.9,3.2-2.1,11.5-4.9,13.5c-0.7,0.5-1.5,1.1-2.3,1.6
		c-3.7,2.3-3.9,2.3-7.6-0.3c-1.5,2.5-4.2,2.7-6.8,3.1c-2.4,0.4-4.8,0.7-7.2,1.2c-1.2,0.2-2.4,0.6-3.6,1.3c2.5,2.2,5.2,3.6,8.7,3.3
		c5.5-0.4,10.8-1.4,15.9-3.2c0.5-0.2,1.1-0.3,1.7-0.3c2.8-0.1,4.4,2.1,3.1,4.6c-1.9,3.7-4.9,6.7-8.9,7.9c-4.4,1.3-9,2-13.6,2.7
		c-2.1,0.3-4.4,0.3-6.6,0c-3.6-0.4-7-1.6-9.5-4.5c-0.7-0.8-1.7-1.5-2.9-2.6c-0.4,1.6-0.7,2.7-0.8,3.8c-0.3,2.4-1.6,4.3-3.2,6.1
		c-1.6,1.8-4.7,2.2-6.7,0.9c-2.2-1.4-3.9-3.3-4.2-6.1c-0.5-4.2-0.9-8.5-1.3-12.8c-0.1-0.5-0.1-1.1-0.2-2.4c-0.9,1.6-1.5,2.5-2,3.6
		c-1.5,3.4-3.8,6.1-6.7,8.2c-3.1,2.2-6.3,4.4-9.6,6.3c-2,1.2-3.4,2.7-3.7,5.1c-0.5,3.8-1.2,7.6-1.6,11.4c-0.6,5.7-4.7,10-10.2,10.4
		c-3.2,0.2-5.4-2.1-5.2-5.4c0.3-4.9,0.5-9.9,0.7-14.9c0-0.9-0.3-1.8-0.5-3.1c-1,0.9-1.6,1.6-2.2,2.2c-3,2.7-5.9,5.6-9,8.1
		c-1.3,1-3.2,1.4-4.8,1.6c-5,0.7-9.9,0.7-14.6-1.7c-3.5-1.8-6-4.3-6.8-8.2C170.7,144.5,170.5,144.2,170.3,143.8z M216.4,127.9
		c1.6-0.5,2.8-1.1,4.1-1.3c1.4-0.2,2.8-0.2,4.2,0c5.8,1.3,11.8-5.5,11.1-10.9c-0.2-1.7-0.1-3.5-0.5-5.2c-0.5-1.7-1.2-3.6-2.4-4.9
		c-2-2.1-4.4-3.4-7.5-1.9c-0.7,0.4-1.7,0.8-2.3,0.6c-2-1-3.3,0.1-4.7,1.2c-1.5,1.2-2,2.8-2,4.6c-0.1,4.3-0.4,8.6-0.5,12.8
		C215.9,124.6,216.3,126.3,216.4,127.9z M104.1,121.2c5.2,1.7,9.3-0.1,13.6-2.5c3.6-2,4.4-4.8,4-8.4c-0.6-6-4.1-9.9-9.8-11.6
		c-3.7-1.1-6.8,0.6-10.1,1.5c-1.8,0.5-2,1.6-1.5,3.2c0.8,2.4,1.5,4.9,2,7.3C103,114.2,103.5,117.6,104.1,121.2z M200.2,131.5
		c-0.3-1.2-0.6-3.5-1.3-5.7c-1.4-4.3-4.8-5.5-8.8-3.2c-3.6,2.1-6.4,5-8.7,8.3c-0.9,1.3-1.1,3.2-1.2,4.9c-0.2,5.2,7.7,10.5,13.9,6.4
		C197.7,140,199.7,136.7,200.2,131.5z M171.1,130.3c-11.3,2.2-22.1,4.3-33,6.4c2.1,4.1,6.7,5.6,10.6,4.8c4.6-1,9.3-1.9,14-2.6
		c2.2-0.4,4.4-0.3,6.9-0.5C170,136,170.6,133.2,171.1,130.3z M137,125.5c2.5,0.3,25.3-2.4,27.4-3.3c0.1-2.2-0.8-3.9-2.7-5.2
		C152.9,111.2,140.9,115.2,137,125.5z M296.9,102.1c-5.5-5.1-9.8-5.6-15.8-1.9c-4.1,2.5-6.4,7.3-5.4,11.5c3-0.5,6.1-0.9,9.1-1.5
		C290,109.4,293.9,106.6,296.9,102.1z"/>
	<path d="M117.8,300c0-1.1,0.1-2-0.1-2.7c-1.7-6-2.8-12.2-5.7-17.8c-0.8-1.5-1.2-3.3-1.7-4.9c-0.9-2.9-0.2-4.1,2.8-5
		c0.6-0.2,1.3-0.4,2.2-0.7c0.6,0.7,1.4,1.3,1.6,2.1c0.6,2.1,1.9,2.7,4.1,1.8c1.8,4,3.6,7.8,5.7,12.3c0.9-2.1,1.6-3.4,2-4.8
		c2-6.4,6.8-9.5,12.9-10.6c2.9-0.5,6-0.3,9-0.3c2.7,0,4.9,1.3,6.5,3.5c1.2,1.7,2.3,3.4,3.5,5.1c0.3,0.4,0.8,0.7,1.4,1.2
		c1.4-1.9,2.7-3.6,3.8-5.4c3.9-6.6,9.8-8.3,17-7.4c0.3,0,0.7,0.2,1,0.2c5.8,0.6,11,2.5,14.9,7.5c-0.1-1.2-0.3-2.4-0.3-3.6
		c-0.1-2.3,0.6-3.2,2.9-3.4c0.1,0,0.2,0,0.3,0c3.5,1.1,6.6-0.6,9.6-1.9c9.6-4.1,16-1,22.8,5.7c2.3,2.3,4.4,4.8,5.1,8.1
		c0.9,4.2,0.7,8.2-1.7,12c-1.2,1.9-1.6,4.1-3.1,6.1c-3.8,4.9-9.1,6.1-14.6,6.8c-0.8,0.1-1.6-0.2-2.4,0c-1.6,0.3-3.3,1.1-4.6-0.2
		c-1.8-1.7-3.8-3.5-4.9-5.6c-2.3-4.5-4-9.3-6.2-14.3c-2.7,4.1-6.9,4.7-11.1,5.5c-3.7,0.7-7.4,2-11,3.2c-1.4,0.5-2.5,1.6-3.7,2.3
		c1.6,4,5.5,5.3,9.5,3.2c3.2-1.7,6.3-3.4,9.5-5c3.2-1.6,5.9-0.6,7.2,2.8c0.5,1.3,0.9,2.6,1.3,4c0.1,0.5,0.3,1.2,0.1,1.7
		c-1.6,3.3-4.1,5.7-7.5,6.8c-0.8,0.3-2-0.7-2.6-1c-5.2,0.7-10.1,1.4-15,2c-3.4,0.4-6.4-0.9-9.1-2.7c-1.1-0.7-2.1-1.4-3.4-2.3
		c-1.6,1.4-3.2,2.7-4.7,4c-6.5,5.5-14,7.1-22.1,5.2c-2.6-0.6-5-2.3-7.4-3.5c-0.6-0.3-1.2-0.6-2-1.1c-0.6,0.7-1.3,1.4-1.8,2.1
		c-3.3,5.1-8.2,6.3-13,2.6c-3.8-3-7.2-6.5-10.7-9.8c-0.8-0.8-1.6-1.6-2.8-2.8c-0.8,2.7-0.2,4.8,0.5,6.8c0.8,2.2,0.8,4.2,0.4,6.4
		c-0.3,1.8,0.1,3.9,0.5,5.7c1,4.1,0.7,4.9-3.7,6.8c-1.5-1.4-3.2-2.2-5.5-2c-2,0.1-3.8-2.1-4.2-4.3c-0.4-2-0.9-4-1.3-6.1
		c-0.2-1.2-0.4-2.5-0.5-3.8c-0.1-1.4,0.1-2.8-0.2-4.1c-0.8-3.6-1-7.3-0.8-11c0.2-4,0.5-8,0.8-12.1c0.1-0.9,0.5-1.8,0.9-2.6
		c0.7-1.5,1.5-3,1.8-4.8c0.9-0.5,1.8-1.1,2.7-1.5c2.9-1.3,4.1-0.6,4.6,2.4c0.2,1.2,0.6,2.4,1,3.6c0.8,2.6,2.5,4.6,4.4,6.6
		c1.8,1.9,3.4,4.1,5.1,6.2C109.8,295.6,114.1,298.7,117.8,300z M214.6,293.4c2.6-1,4.8-2,7-2.8c3.6-1.4,6.1-4.4,5.7-7.4
		c-0.6-4.1-2.2-8-7.2-8.4c-2.8-0.2-5.5-0.4-8.3-0.5c-0.7,0-1.5,0.3-2.2,0.5C210,280.3,213,291.1,214.6,293.4z M159,293.1
		c-8.3,1.4-14.5,6.5-21.8,9.3c0.6,0.5,1.1,0.7,1.6,0.8c3.4,0.5,6.9,0.8,10.3,1.6c5.4,1.2,8.8-2.2,12.7-4.7
		C160.7,297.5,159.8,295.4,159,293.1z M134.3,290.5c0.8-0.1,1.2,0,1.6-0.2c4.9-2.1,9.5-4.7,14.8-5.8c0.6-0.1,1.3-1,1.5-1.7
		c0.6-2.7-1.6-6-4.3-6.7c-2.2-0.6-4.4-0.2-6.3,1C136.8,280.2,135,284.9,134.3,290.5z M171.6,285.8c3.2-1,6.1-1.9,9.1-2.7
		c2-0.6,4-1,5.9-1.8c1.5-0.6,2.7-1.7,2.5-3.7c-0.1-1.8-1.4-2.1-2.7-2.7c-4.8-2.1-9-0.3-13.1,2C171,278.2,170.1,283,171.6,285.8z"/>
	<path d="M149.8,199.1c-4.2,0.9-8,1.6-12.1,2.5c-0.5,6.6,1.6,13.3-1,19.6c0.5,0.4,0.6,0.6,0.8,0.7c1.2,0.4,2.6,0.5,2.5,2.3
		c-0.1,1.5-1.5,2.9-3.2,3.2c-4.9,0.8-9.8,1.6-14.7,2.4c-0.7,0.1-1.3,0.3-2.3,0.6c0.1,1.8,0.1,3.6,0.2,5.2c6.2,0.3,12,0.7,18,1
		c0.3-0.7,0.6-1.2,0.7-1.7c0.3-4,3-6.7,4.9-9.8c0.7-1.1,2.5-2.2,3.7-2.2c3-0.1,4.6-2.2,6.9-3.4c3.3-1.8,6.5-3.7,10.6-3.7
		c2.9,0,4.9,1.1,6.7,3c2.4,2.6,3.8,5.8,4.8,9.1c0.7,2.4-0.1,3.2-3.9,4.4c0,0.8,0,1.7-0.1,2.5c-0.2,1.8-1.2,2.8-2.9,3.5
		c-4.4,1.6-8.8,3.4-13.2,5.2c-1.5,0.6-3,1.2-4.4,1.8c0,2.1,1.3,2.8,2.8,3.4c3.7,1.5,7.5,1.2,11.2,0.1c4.1-1.2,8.2-2.4,12.2-3.5
		c2,2.4,2.2,3.3,0.2,4.6c-1.9,1.3-2.8,3.1-4,5c-1.7,2.6-4.5,4.6-7.6,5c-4.7,0.5-9.5,1.1-14.2,0.6c-6.3-0.7-11.2-4.1-13.5-10.4
		c-0.7-1.8-1.3-3.7-2-5.6c-0.7,0-1.3-0.1-2-0.1c-2.9,0.2-5.8,0.5-8.6,0.7c-0.7,0.1-1.4,0.1-2.1,0.2c-4.1,0.7-4.4,0.9-4.3,5.1
		c0.1,1.9,0.4,3.9,0.9,5.8c0.4,1.9-0.5,5.5-2,6.7c-1.3,1.1-2.7,0.8-3.8-0.7c-3.2-4.3-4.4-9.4-5.2-14.5c-0.7-4.6-1.3-9.2-1.8-13.7
		c-0.3-2.3-0.3-4.6-0.4-6.9c-0.1-2,1-3,2.9-3.2c2.1-0.3,4.1-0.3,6.2-0.5c4.5-0.5,8.9-1,14.1-1.5c-1.5-1.6-2.6-2.7-3.6-3.8
		c-2.2-2.4-2.9-5.6-3.4-8.6c-1.2-6.9-2-13.9-2.9-20.9c-0.1-0.7-0.4-1.5-0.1-2.1c0.8-2.6,0.3-5-0.5-7.4c-1.1-3.2,1.2-5.2,2.7-7.3
		c1-1.5,4-1.1,5.3,0.5c1.5,2,3.1,4.1,3.9,6.4c1.2,3.5,1.8,7.2,2.7,10.8c0.2,1,0.5,2,0.7,3.1c0.3,1.3,1,2,2.4,2
		c4.2,0,8.2-1.2,11.9-2.1c-0.1-2.2-0.4-3.8-0.3-5.5c0.1-2.1,0.5-4.1-0.8-6c-0.3-0.5-0.2-1.3-0.1-2c0.1-2.5,0.2-5,0.2-7.6
		c0-1.3-0.1-2.7,1.5-3.2c1.6-0.5,3-1.4,4.9-0.1c2.3,1.6,3.8,3.5,4.4,6.2c1.4,6.8,2.9,13.6,3.3,20.6c0.3,5.8,0.5,11.6-0.4,17.3
		c-0.3,2.2-1.2,2.9-3.1,2.7c-3.2-0.3-7.7-4.3-8.2-7.5c-0.1-0.7-0.3-1.5,0-2.1C151.7,203.2,150.7,201.4,149.8,199.1z M147.9,238.6
		c2.8-0.6,4.8-0.9,6.7-1.5c3-0.9,5.8-2.1,8.8-3c2.7-0.8,3.1-1.7,2.3-5.2c-0.4-1.9-1.2-2.3-3.7-1.6c-4.6,1.2-8.5,3.7-11.7,7.1
		C149.4,235.3,149,236.6,147.9,238.6z"/>
	<path d="M233.2,191.7c-0.1,1-0.2,2.1-0.4,3.2c-0.5,3.9-1.2,7.8-3.7,11c-1.9,2.4-4.5,3.1-7.4,3.1c-6.7-0.1-12.3-2.2-15.6-8.5
		c-0.2-0.4-0.5-0.7-0.8-1.1c-0.1-0.1-0.2-0.1-0.6-0.2c-0.1,1-0.2,2-0.1,2.9c0.1,2.1-0.4,3.9-2,5.3c-6.6,5.8-13.9,9-23,6.2
		c-4-1.2-6.9-3.8-9-7.3c-1.8-3-0.2-5.9,1.6-8.4c2.3-3.3,5.5-5.6,9.4-6.9c2.4-0.8,4.9-1.3,7.4-1.8c0.9-0.2,1.8-0.3,3-0.5
		c0-2.5-0.9-4.6-2-6.5c-1.2-2.1-3.5-2.8-5.8-1.7c-2.1,1-4.1,2.3-5.6,3.9c-2,2.1-3.5,4.6-5.3,7c-2.2,0.7-4.3,0-5.3-1.9
		c-1-1.8-1.8-3.9-1.1-6.2c0.9-3,2.7-5.4,5.3-7.1c5.9-3.8,12.2-6,19.4-4.2c3.8,0.9,6.5,2.4,7.2,6.4c0.1,0.3,0.3,0.6,0.5,1.3
		c1.8-0.3,3.8-0.4,5.6-0.8c2.9-0.7,4.6,0,5.9,2.6c1.1,2.2,2,4.4,3.2,6.6c1.5,2.7,3.3,5.3,6.5,6.5c2.6-2.5,2.6-5.6,1.7-8.5
		c-1.1-3.7,0.5-7.1,0.7-10.6c0-0.8,0.8-1.6,1.5-2.3c2-1.9,5-1.2,5.7,1.6c0.7,2.6,0.9,5.2,1.4,7.9c0.3,1.7,0.8,3.3,1.2,5
		c1.8,0,2.2-1,2-2c-0.5-2.5,0.6-4.7,1.7-6.6c3.3-5.6,7-11,13.4-13.6c1.3-0.5,2.6-1.1,3.9-1.4c4.8-1.2,8.4,0.4,11.7,4
		c4.4,4.7,3.5,8.2,1.3,13.5c-2.3,5.4-6.2,6.7-11.1,7.1c-1.1,0.1-2.2,0.3-3.4,0.5c1.9,3.9,4.6,5.4,8.3,4.6c2.9-0.6,5.8-1.6,8.6-2.6
		c3-1,4.5-0.2,4.7,2.9c0.1,0.9,0.3,1.4,1,1.9c1.9,1.6,1.6,3.6-0.7,4.4c-0.2,0.1-0.4,0.1-0.7,0.2c-5.6,0.9-11.2,2.3-16.8,2.6
		c-5.5,0.3-11.2-0.8-15.8-4.3c-1.8-1.3-3.1-3.4-4.5-5.2C235.6,192.8,235.2,191.4,233.2,191.7z M178.9,202.9c3.1,2.9,6.7,3,10.1,3.3
		c4.8,0.4,7.3-2.4,6.9-7.2c-0.2-3.1-1.4-4.2-4.4-3.9c-3.7,0.3-7,1.7-9.8,3.9C180.5,199.9,179.9,201.5,178.9,202.9z M247.3,182.6
		c3.1-1,5.8-1.9,9-2.9c-0.4-1.9-0.6-3.4-1.1-4.9c-0.4-1.1-1.4-1.4-2.5-1.1C248.6,174.8,246.8,177.5,247.3,182.6z"/>
	<path d="M210,244.4c-0.2,3.9,0.5,5,3.7,5.7c4.6,0.9,9.2,0.7,13.7-0.7c2.2-0.7,4.2-1.7,6.7-0.9c1.1,0.3,2.5-0.3,3.7-0.6
		c1.4-0.2,2.7,0,3.2,1.4c0.5,1.4-0.2,2.4-1.4,3.2c-0.7,0.4-1.3,1.1-2,1.3c-7.1,2-14.2,4.3-21.7,3.8c-5.1-0.3-9.9-1.2-12.8-6.2
		c-1.8-3.1-2.5-6.1-1.4-9.6c0.8-2.6,1.4-5.4,2.4-7.9c0.7-1.6,1.9-3,2.6-5c-0.7,0.3-1.5,0.6-2.1,1.1c-3.1,2.5-6.1,4.9-9.1,7.5
		c-0.6,0.5-1,1.5-1,2.3c-0.2,5.9-0.2,11.8-0.3,17.7c0,1.7-1.6,3.8-3,4.3c-1.7,0.5-3.2,0-4.4-1.8c-0.8-1.1-1.6-2.4-1.9-3.7
		c-0.8-4.5-1.6-9.1-2-13.7c-0.4-4.7-0.4-9.5-0.5-14.2c0-0.5,0-1.3,0.4-1.6c3.4-3.6,7.1-6.5,12.3-7c2.5-0.3,5-0.8,7.6-0.9
		c1.9-0.1,4-0.2,5.8,0.4c1.6,0.5,2.8,2.1,4.3,3.2c2.4-1.5,4.9-3.2,7.6-4.5c2.1-1.1,4.4-2.1,6.7-2.7c6.1-1.7,13.3,1.4,15.1,8.6
		c0.7,2.7,1.3,5.4,2,8.1c0.9,3.6,0.1,5.8-3.4,7.2c-2.3,1-4.8,1.7-7.3,2c-5.9,0.9-11.9,1.5-17.9,2.3C213.7,243.6,211.8,244,210,244.4
		z M235,231.4c0.2-3-1.4-5-2.7-7.2c-1.3-2.1-1.5-2.2-3.8-1.5c-3.8,1-7,3-9.9,5.6c-1.4,1.3-2.5,2.8-4.1,4.6
		C221.9,233.7,228.5,233,235,231.4z"/>
	<path d="M273,277.8c-3.2,0.7-6.5,1.4-9.7,2c-2.7,0.5-5.4,1.2-8.2,1.5c-2,0.2-4.2-0.1-6.1-0.6c-4.1-1-6.7-3.8-7.2-8
		c-0.6-5.3,0.1-10.4,3.9-14.6c1-1.1,2.3-1.9,3.6-2.7c1.9-1.1,3.8-2.1,5.7-3.2c3.1-1.8,6.4-1.8,9.8-1.4c1.4,0.1,1.5,0.5,3,3.9
		c-1.5,0.6-3.1,1.3-4.9,2c0.2,0.6,0.3,1.4,0.6,2.3c-3,2.3-5.7,4.9-6.4,9.4c1.5-0.1,2.9,0,4.1-0.3c2.9-0.7,5.8-1.5,8.7-2.3
		c3.1-0.8,6.2-0.5,9.2,0.6c1.6,0.6,3.3,1.2,4.9,1.8c3.5,1.3,6.3,4,6.9,7.3c0.7,4.3,1.5,9-3.2,12.6c-3.5,2.7-6.6,5.9-10.7,7.6
		c-5,2-10.2,3.7-15.4,5.2c-3.4,0.9-7.4-1.5-9.1-4.8c-0.5-0.9-1.1-1.8-1.7-2.6c-1.4-1.8-1.4-2.4,0.6-3.5c1.7-1,2.9-2.1,3.2-4.2
		c0.1-1.3,1.1-1.5,2.3-1.4c3.3,0.4,6.6,0.8,10,1.2c0.5,0.1,0.9,0,1.4,0C273.2,285.4,274.6,283.3,273,277.8z"/>
	<path d="M60.7,237.8c-1,8-2.4,14.5-7.9,19.7c-2.3,2.2-4.1,4.9-7.3,6.2c-0.2,0.1-0.5,0.2-0.6,0.4c-0.7,1.5-1.8,3.1-3.6,2.8
		c-2.5-0.4-5-1.1-7.2-2.3c-1.7-1-3.2-2.7-4.3-4.4c-3.8-6-5.7-12.7-5.8-19.8c0-2.7,0.5-5.4,0.7-8.2c0.3-5.6,0.5-11.3,1.1-16.9
		c0.3-3.4,1.2-6.8,1.9-10.2c0.5-2,2-2.8,4.3-2.5c6.2,0.9,11.8,3.4,15.6,8.2c2.8,3.5,6.5,6.2,9,9.9c0.8,1.2,1.9,2.5,2.1,3.9
		C59.7,229.3,60.2,234.1,60.7,237.8z M37.6,216.4c-0.1,2.1-0.3,4-0.3,5.9c0,2.5,0.1,5.1,0.2,7.6c0.2,8,0.8,16,3.5,23.6
		c1,2.9,2.2,3.5,4.8,1.7c2.6-1.7,4.4-4,5.4-7c1.4-4,0.7-8,0.4-12.1c-0.4-6.4-2-12.3-6.3-17.3C43.3,216.6,41.1,215.6,37.6,216.4z"/>
	<path d="M311.6,219.1c-2.5-0.1-4.5-0.2-6.4-0.3c-3.4-0.2-6.7-0.2-10-0.6c-3.4-0.4-4.4-1.7-4.4-5.2c0-0.7-0.3-1.4-0.3-2
		c0.2-2.1,0.9-3.9,3-4.6c1.5-0.5,3.1-1.3,4.6-1.3c3.9-0.1,7.4-1.7,11.1-2.5c4.4-1,8.8-2,13.2-2.5c4.4-0.5,8.8-0.6,13.2-0.5
		c2.4,0.1,4.7,0.9,7,1.7c1.8,0.6,3,2.2,3.4,4.1c1.2,4.8-0.3,6.6-4.1,7.6c-3.4,0.8-6.7,1.5-10.3,1c-3.8-0.5-5.2,0.8-5,4.6
		c0.2,4.3,0.7,8.5,1.1,12.8c0.4,3.5,0.1,6.9-1.6,10.1c-1.1,2.1-2.6,3.8-5.2,4.2c-2.4,0.4-4.9-0.3-5.9-2.4c-0.9-2-1.5-4.1-1.8-6.2
		C312.7,231.2,312.2,225.3,311.6,219.1z"/>
	<path d="M247.6,216.3c2-0.7,4-1.4,6.2-2.1c0.8,1.5,1.4,2.7,2.1,4.2c1.6-1.3,3.1-2.5,4.6-3.7c5.5-4.1,11.4-5.3,18-2.9
		c1,0.4,2,0.6,3,0.7c4.6,0.7,7.7,3.3,10,7.2c2.9,5.2,4,10.8,4.4,16.6c0.1,1.7,0.3,3.5,0.4,5.2c0.3,3.8-1.9,5.9-5.6,5.3
		c-3.6-0.6-4.2-1.1-4.9-4.6c-0.6-3.3-1-6.5-3.1-9.5c-1.7-2.4-3.6-4-6.5-4.8c-6.1-1.6-7.1-1.4-10.9,3.5c-2.2,2.9-3.8,6.2-4.2,9.8
		c-0.3,3.5-3,5.1-5.2,7c-1.1,1-2.8,0.5-3.7-0.8c-0.9-1.3-1.8-2.8-2-4.4c-1-8.1-1.8-16.3-2.7-24.4
		C247.5,218.1,247.6,217.4,247.6,216.3z"/>
	<path d="M94.8,230.4c-0.1,2.3-0.2,4.3-0.4,6.8c1.5-0.1,2.7-0.1,3.9-0.1c1.5-0.1,3-0.4,4.5-0.4c2.1,0,3.3,1.1,3.5,3.1
		c0.2,1.9-0.7,3.3-2.8,3.7c-2.7,0.6-5.4,1-8.6,1.6c0.1,2.4,0.1,4.7,0.2,6.9c0.3,3.2,0.7,6.4,1,9.7c0.1,0.8,0.2,1.7-0.2,2.4
		c-0.4,0.9-1.2,2-2,2.1c-0.7,0.2-2.1-0.5-2.5-1.2c-1-1.5-2.1-2.2-3.8-3c-3.3-1.6-5.6-4.6-6.2-8.3c-1.2-8.1-2.3-16.3-3.4-24.4
		c-0.4-2.6,0-3.1,2.6-4c0.8-0.3,1.8-0.7,2.3-1.3c1.3-1.7,3.1-1.8,4.6-1c1.5,0.8,2.6,0.2,3.9-0.1c3.6-1.1,7-3,11-3
		c1.6,0,3-0.2,3.8,1.6c0.7,1.5,0.2,3.5-1.1,4.8c-2.2,2.1-4.4,4.2-7.8,3.8C96.8,229.8,96,230.2,94.8,230.4z"/>
	<path d="M158.8,331.1c-2.6-0.1-4.4-0.9-5.7-2.5c-1.2-1.5-0.9-2.8,1-3.5c0.9-0.3,1.8-0.5,2.7-0.7c5.2-0.8,10.5-1.8,15.7-2.4
		c6.4-0.8,12.8-1.3,19.3-2c6.2-0.6,12.4-1.3,18.6-1.9c2.5-0.2,5.1-0.3,7.6-0.4c1.2,0,1.9,0.7,2.1,1.9c0.3,1.5,0.1,2.8-1.3,3.6
		c-0.8,0.4-1.7,0.6-2.6,0.8c-7.2,1-14.4,2.1-21.7,2.9c-10.1,1.1-20.3,1.5-30.3,3.6C162.2,330.9,160.2,330.9,158.8,331.1z"/>
	<path d="M75.3,260.4c0,2.1-2.1,4.7-4.2,5.3c-0.6,0.1-1.5,0-1.8-0.4c-0.9-1-1.9-2.2-2.3-3.4c-2.2-7.2-3.8-14.5-3.6-22.1
		c0.1-2.6,0.5-5,2.3-7c1.1-1.2,2.3-1.9,4-1.7c1.7,0.2,2.2,1.5,2.5,2.9c0.8,4.2,1.6,8.4,2.1,12.6C74.8,251.2,75,255.8,75.3,260.4z"/>
	<path d="M56.1,209.7c2.6-2.8,4.3-2.8,6.2-0.1c1.2,1.7,2,3.6,3,5.5c1.8,3.4,2.2,3.3,5.5,1.4c3-1.7,6.2-2.9,9.4-4.3
		c0.5-0.2,1.3,0.1,1.9,0.2c0.5,1.9-1,2.4-2,3c-2.7,1.8-5.5,3.4-8.2,5.2c-3.5,2.3-7.5,1.7-10.1-1.7c-1.1-1.5-2-3.1-3-4.6
		C57.9,212.9,57,211.4,56.1,209.7z"/>
	<path d="M290.9,148.6c-1.1,0.5-2,1-2.9,1.4c-1.6,0.8-3.2,1.4-4.7,2.3c-3.3,1.9-5.3,4.6-5.5,8.7c-0.2,3.1-1.6,3.7-4.4,2.4
		c-1.2-0.5-1.4-1.4-1.4-2.5c-0.3-6.3,5.6-13.6,11.3-13.9c1.4-0.1,2.8-0.4,4.1-0.4C288.6,146.6,289.9,146.6,290.9,148.6z"/>
	<path d="M316.5,259.8c-6.2,2.4-12.8,3.8-15.2,10.9c-4.4-2-5.1-6-1.6-8.8c4.1-3.2,8.6-4.9,13.9-4.4
		C314.9,257.7,316.2,257.8,316.5,259.8z"/>
	<path d="M189.2,107.4c-0.7,0.3-1.3,0.9-2,1c-4.2,0.5-8.4,0.9-12.7,1.4c-1.8,0.2-3-0.4-4.3-1.7c-1.6-1.6-3.5-2.9-5.3-4.3
		c-0.9-0.7-1.8-1.5-2.7-2.2c0.2-0.3,0.3-0.5,0.5-0.8c1.6,0.6,3.3,0.9,4.7,1.7c4.8,2.8,9.8,4.4,15.4,3.1c1.4-0.3,3,0,4.5,0.1
		c0.7,0.1,1.4,0.6,2,0.9C189.2,106.9,189.2,107.2,189.2,107.4z"/>
	<path d="M359.7,202c-2.7-0.3-4.2-2-5.9-3.2c-0.9-0.6-1.5-1.4-2.3-2.1c-1.6-1.5-3.4-2.3-5.7-1.4c-1.5,0.6-2.4,0-2.7-1.7
		c3.8-2.8,7.6-3,11.4-0.4C357.4,195.3,359.7,197.9,359.7,202z"/>
	<path d="M70.2,273.4c2.7-2.6,6.8-2.3,8.7,1c1.3,2.2,2.3,4.5,3.6,6.9c-0.7,1.6-1.7,2.2-3.5,1.3c-1.9-1-3.3-2.2-4.4-4.1
		C73.5,276.5,71.7,275.1,70.2,273.4z"/>
	<path d="M124.7,79.9c1.2-1.6,2.2-2.6,3.7-2.2c3.9,0.8,7.9,1.6,11.8,2.6c1.4,0.3,3.4,0.9,2.8,2.8c-0.6,1.8-2.5,1.1-3.9,0.8
		C134.4,82.6,129.8,81.3,124.7,79.9z"/>
	<path d="M295.1,290.4c0,1.2,0.4,2.6-0.1,3.5c-1.3,2.8-3.5,4.8-6.2,6.2c-1.4,0.7-2.4,0.2-3-1.2c1.1-2,2.2-4,3.4-6
		C290.1,291.4,290.9,291.1,295.1,290.4z"/>
	<path d="M104.6,174.3c4.9-2.2,10.3,1.5,10,6.7C109.2,181.7,107.8,177,104.6,174.3z"/>
</g>
</svg>
