<?xml version="1.0" encoding="utf-8"?>
<!-- Generator: Adobe Illustrator 24.0.3, SVG Export Plug-In . SVG Version: 6.00 Build 0)  -->
<svg version="1.1" id="phone_xA0_Image_1_" xmlns="http://www.w3.org/2000/svg" xmlns:xlink="http://www.w3.org/1999/xlink" x="0px"
	 y="0px" viewBox="0 0 470.6 731.5" style="enable-background:new 0 0 470.6 731.5;" xml:space="preserve">
<g>
	<path d="M175,493.2c1.5-0.9,2-2.3,2.1-3.7c0.4-4.1,0.8-8.3,1-12.4c0.3-6.4,0.5-12.8,0.5-19.2c0-3.7,1.8-5.4,5.1-6.8
		c4.7-1.9,9.5-1.9,14.4-2c4.9-0.1,9.7,0.1,14.6,0.2c0.9,0,1.8,0.2,2.2,1.2c0.4,1.2-0.3,1.8-1.2,2.3c-0.1,0-0.1,0.1-0.1,0.2
		c1.5,3.3,2,6.9,2.2,10.5c0.3,7.9,0.3,15.8,0.4,23.7c0,0.4,0,0.8,0,1.2c-0.6,3.2,0.4,5.8,3.1,8.1c0.2-1.8,0.3-3.3,0.4-4.8
		c0.2-3.8,0.3-7.7,0.7-11.5c0.5-4.9,2.2-9.5,5.6-13.2c0.6-0.7,1.2-1.3,1.7-2c2.9-3.9,6.8-6.1,11.2-7.9c1.6-0.7,3.2-1.5,4.9-2
		c1.8-0.6,3.7-0.8,5.8,0.7c-0.7,0.4-1.1,0.8-1.6,1c-3.5,1.4-7.2,2.6-10.7,4.3c-5,2.4-7.9,6.8-10.5,11.4c-2.2,4-2.5,8.4-2.6,12.8
		c-0.3,8.1-0.4,16.3-0.7,24.5c-0.1,1.7,0,3.5-1.7,4.7c-0.9,0.7-0.6,3.8,0.5,4.5c1.1,0.7,1.3,1.6,1.3,2.6c0,1.8,0,3.5,0,5.3
		c0.2,6.7,0.5,13.4,0.7,20.1c0.1,1.6,0.2,3.2,0.2,4.8c0,6.1,0.7,12.1,1.6,18.1c0.5,3.5,0.9,7,1.2,10.5c0.5,5.8,1.2,11.6,3.1,17.2
		c0.8,2.5,1.8,5,3,7.3c1.1,2.3,2.9,4,5.5,4.9c1.1-1.1,2.5-1,4-0.8c3,0.2,6.1,0.3,9.1,0.1c3.6-0.2,6.6-2.4,9.6-4
		c2.4-1.3,4.2-3.2,5.6-5.5c0.8-1.3,1.3-2.7,1.8-4.2c2.6-8.1,4.4-16.4,4.2-24.9c-0.1-4-0.4-8-0.4-12c-0.1-6.7-0.1-13.4-0.1-20.1
		c-0.1-6-0.2-12-0.2-18c0-4.2,0.2-8.5,0.4-12.7c0.1-1.2,0.4-2.3,0.5-3.5c0.1-0.5,0.2-1.1,0.2-1.6c-0.4-6.1-0.8-12.3-1.3-18.4
		c-0.5-5.5-1.4-10.9-3.2-16.2c-0.3-0.9-0.7-1.8-1.3-2.5c-3.2-3.5-6.7-6.4-11.6-7.2c-0.6-0.1-1.3-0.3-1.9-0.5c-0.9-0.3-1.4-1-1-1.9
		c0.2-0.4,1-0.8,1.5-0.8c2.1,0.3,4.2,0.8,6.3,1.3c0.8,0.2,1.5,0.4,2.6,0.7c-0.3-1.8-0.5-3.3-0.7-4.6c-0.4-0.2-0.5-0.3-0.6-0.3
		c-5.9,1.1-11.6-0.2-17.2-1.8c-2.8-0.8-5.6-1.8-8.4-2.7c-1.6-0.5-1.7-0.7-1.5-2.9c1.5,0.1,3.2,0,4.7,0.4c3.7,0.9,7.3,2.2,11.1,3.1
		c3.7,0.9,7.4,1.4,11.1,0.1c2.4-0.8,5-1.1,7.4-1.9c3.3-1,5.7-3,7.8-5.7c3.2-4.1,5.2-8.6,6.4-13.6c1.1-4.8,2.2-9.7,3.3-14.5
		c0.2-0.8,0.3-1.6,0.3-2.4c0-1.1-0.1-2.2,1.3-2.8c0.4-0.2,0.6-1.4,0.6-2.1c0-1.9-0.3-3.8-0.1-5.7c0.7-7.2,0.6-14.3,0.4-21.6
		c-0.2-5.4,0.4-10.8,0.6-16.3c0.1-4.2,0.1-8.5,0.1-12.7c0-1.6,0-3.2-0.1-4.8c-0.1-2.2-0.6-2.7-2.8-3.2c-1.6-0.3-3.2-0.6-4.7-0.7
		c-3.2-0.1-6.4,0-9.6,0.1c-0.7,0-1.4,0.2-2.1,0.4c-2.4,0.6-3.6,1.8-4,4.6c-0.9,7.1-0.6,14.2-0.3,21.3c0.2,4.6,0.1,9.3-1,13.8
		c-0.7,3.1-1.7,6-4.4,8c-2.6,1.8-5.3,1.1-6.2-2c-0.7-2.4-1.4-5-1.4-7.5c0-5.5,0.3-11,0.6-16.5c0.2-5.3,0.7-10.5,0.8-15.8
		c0.1-2.7-1.1-3.9-3.8-4.3c-6.8-1.2-13.5-0.8-20.2,1c-1.7,0.5-3.3,1.5-4.9,2.2c-0.6,5.9-1.3,11.7-1.6,17.5
		c-0.2,3.9,0.3,7.8,0.3,11.7c0,15.2-0.3,30.4,0,45.6c0.1,5.8,0.4,11.7,2.2,17.3c0.5,1.5,1.3,2.8,2,4.3c-1.5,1.6-2.7,1.8-4.2,0.4
		c-1.6-1.5-2.6-3.2-2.9-5.4c-0.5-3.6-1.1-7.3-1.3-11c-0.3-4.9-0.5-9.7-0.5-14.6c0-8.9,0.1-17.7,0.1-26.6c0-5.7-0.1-11.5-0.1-17.2
		c0-2.3,0.1-4.6,0.4-6.9c0.6-4.4,1.4-8.8,2.2-13.2c0.2-1.1,0.5-2.2,1.9-2.6c0.3-0.1,0.5-0.4,0.6-0.6c0.6-1.9,2.3-2.5,3.9-3.2
		c3.6-1.4,7.3-2.2,11.2-2.3c1.8,0,3.7-0.1,5.5-0.1c4.3,0.1,8.5,0.4,12.4,3c0.3-0.8,0.5-1.5,0.7-2.1c0.6-2.8,1.6-5.3,3.2-7.7
		c1.4-2.1,1.1-4.5,1.1-7.3c-0.9,0.5-1.6,0.6-2.1,1.1c-2.6,2.4-5.8,3.2-9.1,4.1c-1.4,0.4-2.8,0.8-4.1,1.2c-2.5,0.8-5,1-7.6,0.7
		c-3.7-0.4-7.5-0.9-10.9-2.5c-3.7-1.7-5.8-4.5-5.9-8.6c-0.1-4.7-0.1-9.4-0.2-14.1c-0.1-4.1-0.3-8.1-0.4-12.2
		c-0.2-8.1-0.5-16.3-0.4-24.4c0.1-6.6,1-13.2,1.2-19.9c0.2-6.1,2-11.8,3.9-17.5c0.8-2.4,2.4-4.7,3.9-6.8c0.6-0.8,2-1.3,3.1-1.6
		c3.3-0.8,6.7-1.5,10.1-1.9c3.7-0.4,7.5-0.5,11.2-0.6c1.9,0,3.8,0.2,5.7,0.5c5.5,0.8,11,0.8,16.5,0.6c6.5-0.2,13.1-0.6,19.6-0.9
		c14.2-0.6,28.4-1.3,42.6-1.9c9.7-0.4,19.5-0.8,29.2-1.1c4-0.1,8,0.1,12,0.3c1.9,0.1,3.8,0.6,5.7,1c5,1,7.4,4.6,8.4,9.1
		c1.2,5.3,0.9,10.8,0.2,16.2c-0.2,1.8-1.2,3.4-1.8,5.2c-0.2,0.6-0.5,1.1-0.9,2.1c3.4,0,6.5-0.3,9.5,1.8c0.3-1,0.5-1.5,0.6-2.1
		c0.4-5.1,0.6-10.2,1.1-15.3c0.2-2.7,0.8-5.3,1.2-7.9c2.7-0.2,3.6,0.6,3.6,3.1c0,2.2-0.1,4.5-0.4,6.7c-1,8.3-1.1,16.6-0.9,24.9
		c0.2,7.9,0.4,15.8,0.5,23.7c0,2.7,0.2,5.4-0.8,8c-0.5,1.2-0.3,2.7-0.2,4c0,0.5,0.5,1.2,0.9,1.6c1.1,0.9,1.4,2,1.5,3.4
		c0,5.4,0,10.7,0.1,16.1c0.2,6.9,0.1,13.7-0.1,20.6c-0.3,9.5-0.8,19-1.2,28.5c0,1.1,0.1,2.2-0.1,3.4c-0.1,0.9-0.3,1.9-0.6,2.7
		c-0.7,1.9-0.6,2.6,1,3.8c1.2,0.8,1.3,2,1.2,3.2c-0.2,3-0.5,6.1-0.6,9.1c-0.1,4.8,0.1,9.6-0.2,14.4c-0.5,9.6,0.3,19.2,0.5,28.7
		c0.1,6-0.2,12-0.4,18c-0.1,2.8-0.3,5.6-0.4,8.4c0,0.5-0.1,1,0.1,1.4c1.5,3.5,0.9,7.1,0.6,10.7c-0.4,5.1-0.2,10,0.3,15.1
		c0.3,3.3,0.6,6.5,0.5,9.8c-0.6,15.2-0.7,30.4-0.6,45.6c0.1,6.1-0.4,12.1-0.5,18.2c-0.1,10.9,0,21.7-0.2,32.6
		c-0.1,6.4-0.7,12.8-1.1,19.1c-0.1,1.8-0.3,3.5-0.3,5.3c-0.1,1.3-0.5,2.3-1.9,2.7c-0.6,0.2-1.1,0.6-1.6,0.9c-0.6,0.3-1.3,0.6-2,0.7
		c-9.8,0.8-19.6,1.4-29.4,2.4c-10.8,1.1-21.7,1.3-32.6,1.6c-3.8,0.1-7.5-0.1-11.3-0.1c-4.3,0-8.6,0.3-12.9,0.4
		c-10.2,0.2-20.3,0.3-30.5,0.6c-6.4,0.2-12.8,0.6-19.1,0.7c-6.9,0-13.9-0.3-20.8-0.4c-3.6,0-7.2,0.1-10.8,0.3
		c-4.6,0.2-9.3,0.5-13.9,0.9c-3.2,0.3-6.4,0.6-9.5,1.1c-5.5,0.7-11,0.4-16.5-0.3c-8-1.1-16.1-1.1-24.2-0.5c-1.6,0.1-3.2,0.2-4.8,0.2
		c-5.7,0.3-11.3,0.5-17,0.8c-0.2,0-0.3,0-0.5,0c-6.9,0.1-13.7,0.2-20.6,0.1c-7-0.1-13.8-1.5-20.7-2.5c-4.4-0.7-8.8-1.5-13.3-2
		c-3.3-0.4-6.7-0.4-10-0.8c-1.7-0.2-3.4-0.8-5.1-1.2c-0.6-0.1-1.2-0.3-1.9-0.2c-2.7,0.2-4.9-0.7-7.1-2.4c-4-3.1-6.3-7.2-7.5-11.9
		c-1.6-6.2-2.4-12.5-2.5-19c-0.1-6.1-0.8-12.1-1-18.2c-0.2-4.7-0.2-9.4-0.3-14.1c-0.1-8-0.1-16-0.1-24c0-1.8,0.1-3.5,0-5.3
		c-0.3-5.3-0.6-10.7-0.9-16c-0.4-7.1-0.9-14.2-1.2-21.3c-0.2-4.5,0.2-9,0.2-13.4c-0.1-10.3-0.3-20.6-0.4-30.9
		c-0.1-6.3-0.2-12.6-0.5-18.9c-0.4-8.7-1.1-17.4-1.5-26.1c-0.2-4.1-0.1-8.1,0-12.2c0.1-5.1,0.4-10.2,0.6-15.3
		c0.3-8.1,0.8-16.3,0.9-24.4c0.1-6.6-0.1-13.3-0.5-19.9c-0.5-9.3-0.9-18.7-0.9-28c0-3.7-0.5-7.5-0.7-11.2c-0.1-3.3-0.1-6.6-0.1-9.8
		c0.1-3.5,0.2-7,0.3-10.5c0.1-5.8,0.3-11.5,0.4-17.3c0.1-7.5,0.1-15,0.2-22.5c0-5.1,0-10.2,0-15.3c0-0.7,0-1.5,0.2-2.1
		c0.2-0.5,0.7-1.1,1.2-1.2c0.8-0.1,1.5,0.3,1.7,1.3c0,0.2,0,0.5,0,0.7c0.3,7.4,0.9,14.9,1,22.3c0.1,8.9-0.3,17.7-0.5,26.6
		c0,2.4,0.1,4.8,0,7.2c0,3.7-0.1,7.4-0.3,11c-0.3,4.6-0.1,9.3,0.3,13.9c0.3,4.3,0.3,8.6,0.5,12.9c0.3,7.6,0.7,15.2,0.9,22.8
		c0.2,6.5,0.6,13.1,0.5,19.7c-0.1,8.7-0.7,17.4-1,26.1c-0.3,6.5-0.6,12.9-0.7,19.4c0,4.6,0.5,9.3,0.7,13.9
		c0.4,8.2,0.9,16.4,1.3,24.7c0.2,6.2,0.3,12.5,0.4,18.7c0.1,8.5,0.2,16.9,0.3,25.4c0,5.6-0.1,11.2,0.1,16.8
		c0.3,7.6,0.7,15.2,1.5,22.7c0.7,6.4,0.4,12.8,0.6,19.2c0.2,9,0.3,18.1,0.2,27.1c-0.1,11,1,22,1.5,33.1c0.2,4.6,1.4,9.2,2.8,13.6
		c0.8,2.4,2.5,4.1,4.3,5.7c1.6,1.4,3.6,2.3,5.4,3.4c4.2,2.3,8.7,1.8,13.1,2.2c4.3,0.4,8.6,0.8,12.9,1.3c7.7,0.9,15.3,2,23.1,2.8
		c3.3,0.3,6.7-0.1,10.1-0.1c6.8-0.1,13.6-0.2,20.4-0.5c5.7-0.2,11.3-0.6,17-0.9c8.2-0.4,16.3,0.1,24.4,1.2c5.5,0.7,11,0.4,16.5-0.5
		c1.4-0.2,2.9-0.3,4.3-0.4c1.3-0.1,2.5-0.3,4-0.5c-0.7-1.7-1.4-3.2-2-4.7c-1.9-5-2.8-10.2-3.3-15.4c-0.3-2.7-0.4-5.4-0.7-8.1
		c0-0.5-0.2-1-0.4-1.8c-1.5,1-2.7,1.8-3.4,3.4c-0.4,1-1.3,1.9-2.2,2.4c-4.9,2.6-9.8,5.2-15.2,6.4c-2.8,0.6-5.9,0.1-8.8,0
		c-2,0-4-0.2-6-0.3c-0.5,0-1,0-1.4-0.1c-2.7-0.3-3.9-1.4-4.2-4.1c-0.7-6.8-1-13.7-0.5-20.6c0.6-8.2,1.1-16.4,1.5-24.6
		c0.1-1.7-0.1-3.4-0.2-5c0-0.4-0.3-0.8-0.6-1.6c-1.4,2-2,4-2.6,5.9c-1.7,5.7-2.1,11.6-2,17.6c0,5.9,0.2,11.8,0.3,17.7
		c0.1,4.5-1.4,8.4-4.4,11.9c-2.1,2.5-4.9,3.9-8,4.2c-4.1,0.4-8.1,0.6-12.2,0.7c-2,0-4-0.2-5.9-0.7c-2.4-0.6-4.1-2.1-4.4-4.8
		c-0.4-4.6-0.9-9.2-1.2-13.8c-0.3-4-0.5-8-0.7-12c-0.3-6.6-0.5-13.3-0.8-19.9c-0.3-6.3-0.7-12.6-0.9-18.9c-0.2-6.8,0-13.6,0.9-20.3
		c0.1-0.5,0.1-0.9,0.2-1.4c0.2-1.1,0.7-1.7,2-1.5c1.3,0.2,1.9,0.8,1.8,2.1c-0.1,1.7-0.3,3.3-0.5,5c-0.6,7.1-0.4,14.2-0.1,21.3
		c0.3,7.3,0.5,14.7,0.9,22c0.2,4.9,0.6,9.7,0.9,14.6c0.3,5.3,0.5,10.5,0.8,15.8c0.1,2,0.5,4,0.7,5.9c0.2,1.5,1.1,2.3,2.5,2.5
		c1.8,0.2,3.7,0.6,5.5,0.5c3.6-0.1,7.2-0.5,10.8-0.7c2.6-0.2,4.3-1.5,5.7-3.5c1.5-2.2,2.4-4.5,2.4-7.2c0-5.8,0-11.7-0.1-17.5
		c-0.2-7.8,0.1-15.5,2.8-22.9c0.7-2,1.8-3.9,2.9-5.8c1.1-2,3.9-1.7,5.3-0.5c1.9,1.6,2.5,3.7,2.6,6c0.1,3,0,6.1-0.2,9.1
		c-0.3,5.7-0.6,11.3-0.9,17c-0.2,4.9-0.4,9.7-0.5,14.6c0,3,0.4,6,0.6,9.1c0.5,0.2,1,0.4,1.4,0.5c4.4,0.2,8.8,0.5,13.2,0.7
		c0.7,0,1.5,0,2.1-0.2c4.1-1.8,8.2-3.6,12.3-5.4c0.2-0.1,0.5-0.3,0.5-0.4c0.4-2.4,2.8-3.5,3.9-5.5c2.4-4.3,2.6-9,2.1-13.8
		c-0.6-6-1.2-11.9-1.8-17.9c-0.5-5.3-1.3-10.6-1.6-16c-0.3-6.1-0.1-12.1-0.1-18.2c0-2.6,0.4-5.3,0.6-7.9c0.2-3.4,0.4-6.9,0.7-10.3
		c0.1-0.8,0.4-1.7,0.9-2.3c0.7-0.9,0.7-1.8,0.2-2.7c-1.3-2.2-1.5-4.6-1.6-7c-0.1-4,0.1-8,0.1-12c0-5.7-0.1-11.5,0-17.2
		c0.1-4.4-0.4-8.8-1-13.1c-0.1-0.6,0-1.3,0-2c-2.6-0.1-5.1-0.4-7.6-0.4c-3.7,0-7.4,0-11,0.1c-2.8,0-5.3,1-7.8,2.1
		c-1.3,0.6-1.9,1.5-2,3c-0.1,5-0.2,9.9-0.4,14.9c-0.2,5.1-0.5,10.2-0.7,15.3c-0.2,3.1-1.3,5.9-3.5,8.2c-1.2,1.2-2.5,1.5-3.9,0.9
		c-2.3-1-4-2.6-4.5-5.2c-0.9-5.6-1-11.3-0.9-17c0.1-4.1,0.3-8.1,0.2-12.2c-0.2-4.8-1.3-6.3-7.1-7.3c-4.3-0.8-8.6,0-12.9,0.7
		c-4.1,0.7-8.1,1.7-12.2,2.5c-0.5,0.1-1.4-0.2-1.6-0.5c-0.2-0.4,0.1-1.3,0.4-1.6c1-0.7,2.1-1.3,3.2-1.5c6.9-1.5,13.7-3.2,20.8-3.1
		c2.4,0,4.8,0.3,7,1.3c3.9,1.6,5.8,4.9,6.1,8.8c0.3,4-0.2,8-0.1,12c0.1,5.5,0.4,11,0.7,16.5C173.2,491.7,173.5,491.9,175,493.2z
		 M382,450.1c0.3-2.4,0.6-4.4,0.8-6.4c0.1-1.1,0.4-2.2,0.3-3.3c-0.1-2-0.3-4-0.5-6c-0.7-7.3-2-14.4-4.9-21.2c-1.3-3-2.1-6.3-4.4-8.7
		c-2.6-2.8-5.6-5.2-9.1-7c-2.2-1.2-4.4-2.2-6.6-3.3c-1.6-0.8-3.3-1.2-5.1-1c-1.3,0.1-2.6,0-3.8,0c-0.7,0-1.4-0.3-1.3-1.1
		c0.1-0.4,0.7-0.7,1.1-1c0.2-0.1,0.5-0.1,0.7-0.1c4.6-1,9.2-1.8,13.8-3c3.9-1,7.4-2.8,10-5.9c1-1.2,2-2.8,2.3-4.4
		c0.5-2.8,0.8-5.7,0.7-8.6c-0.3-6.6-1.6-13-4.5-19c-2.7-5.6-6.8-9.7-13.3-10.6c-1.5-0.2-3-0.2-4.5-0.4c-8.7-1.4-17.5-1.6-26.3-1.4
		c-6.2,0.2-12.4,0.9-18.6,1.7c-2,0.2-4,1.1-5.9,1.9c-1.9,0.8-2.7,2.3-2.7,4.4c0.1,5.3,0.1,10.6,0.3,15.8c0.3,9.5,0.9,19,1.2,28.5
		c0.2,7.7,0.1,15.3,0.2,23c0,2,0.1,4-0.1,6c-0.6,5.7-1.4,11.4-2.1,17.1c-0.4,3.2-0.8,6.3-1.1,9.5c-0.1,0.6,0.2,1.6,0.6,1.9
		c4.3,2.9,9.1,4.1,14.3,4.2c1.4,0,2.9,0,4.3,0.1c3.5,0.2,7,0.6,10.5,0.8c3.3,0.2,4.3-0.5,5.4-3.5c0.2-0.6,0.5-1.2,0.5-1.9
		c0.2-2.9,0.2-5.9,0.3-8.8c0.1-3.2,0-6.4,0.4-9.6c0.3-2.6,1.7-4.8,4.3-5.9c2.3-1,4.8-0.6,6.2,1c1.6,2,2.9,4.3,3,6.9
		c0.1,1.8,0.2,3.5,0.2,5.3c0,4.2-0.3,8.3-0.1,12.5c0.2,3.9,0.4,5,5.6,5.6c0.3,0,0.6,0.1,1,0c5.4-0.2,10.9-0.3,16.3-0.8
		c2.3-0.2,4.7-0.8,6.6-1.9C379.3,450.8,380.5,450,382,450.1z M226.3,284.3c0.1,0,0.3,0,0.4,0c0.2,9.3,0.4,18.5,0.6,27.8
		c0.1,3.6,0.3,7.2,0.4,10.8c0.1,2.8,1.8,4.1,4.3,4.7c1.6,0.4,3.1,0.6,4.7,0.9c3.9,0.8,7.8,0.9,11.6-0.5c2.4-0.9,4.8-1.6,7.2-2.5
		c2.6-1,4.4-2.9,4.5-5.7c0.1-4,0-8-0.2-12c-0.2-3.6-1-7.1-1.2-10.7c-0.2-3.7,0.8-4.7,4.4-5c3.4-0.2,6.9-0.4,10.3-0.7
		c5.1-0.4,10.2-4.9,9.2-11.2c-0.3-1.8-0.2-3.7-0.3-5.5c-0.1-1.1-0.2-2.2-0.4-3.3c-0.4-1.7-0.7-2-2.4-2.2c-1.7-0.2-3.5-0.4-5.3-0.2
		c-4,0.5-7.9,1.2-11.8,1.7c-1.7,0.2-3.4,0.4-5,0.3c-4.5-0.4-7-4.7-5-8.7c1.1-2.1,2.8-3.9,4.2-5.8c1.3-1.7,3-2.5,5.2-2.7
		c2.7-0.3,5.4-0.8,8-1.2c1.1-0.2,2.2-0.4,3.3-0.5c8.5-0.9,17.1-0.9,25.6-0.7c4.4,0.1,8.8,0.3,13.2,0.5c7.5,0.3,15,0.6,22.5,1
		c6.9,0.3,13.7,0.8,20.6,0.9c7.4,0.1,14.7-0.2,22.1-0.3c2.9,0,5.7-0.4,8.5-1.3c4.1-1.4,6-3.7,6.3-8c0.1-1.9,0.1-3.8,0.3-5.7
		c0.4-3.1,0.2-6.2-0.5-9.3c-0.7-2.8-2.3-4.4-5-4.9c-2.6-0.5-5.2-0.9-7.8-0.9c-7.9,0-15.8,0.2-23.7,0.4c-8.2,0.2-16.5,0.6-24.7,0.9
		c-6.1,0.2-12.3,0.5-18.4,0.7c-4.4,0.2-8.8,0.5-13.2,0.7c-5,0.2-9.9,0.1-14.9,0.4c-6.6,0.4-13.3,0.4-19.9-0.4
		c-4.5-0.6-9.1-0.9-13.6-0.9c-4.9,0-9.7,0.8-14.4,2c-1.2,0.3-2.4,0.7-2.9,1.9c-1.1,2.3-2.4,4.5-3.2,6.9c-1.7,5.1-2.8,10.3-2.7,15.7
		c0,1.5,0,3,0,4.6C226.8,265.8,226.6,275,226.3,284.3z M319.9,477.5c0,0,0.1,0,0.1,0c-0.1,3.4-0.2,6.7-0.4,10.1
		c-0.2,2.4-0.8,4.7-2.3,6.7c-1.8,2.3-4.5,2.1-5.9-0.3c-0.8-1.4-1.5-2.8-1.9-4.4c-1.2-4.7-2.2-9.5-3.3-14.2c-0.7-3.1-1.2-6.3-1.9-9.4
		c-0.2-0.9-0.8-1.9-1.6-2.3c-2.1-1-4.2-2.1-6.5-2.4c-3.4-0.5-6.8-0.4-10.3-0.5c-3,0-4.7,1.5-5.2,4.5c-0.1,0.9-0.2,1.8-0.1,2.6
		c0.2,6.4,0.5,12.8,0.7,19.2c0.2,7.7,0.5,15.3,0.7,23c0.1,5,0.1,10.1,0.3,15.1c0.5,9.4,1.2,18.8,1.7,28.2c0.3,4.6,0.4,9.3,0.6,13.9
		c0.3,5.7,0.6,11.5,0.8,17.2c0.1,3.7,0,7.3,0.1,11c0,2.2,0.3,4.3,0.4,6.5c0.1,1,0.4,1.9,1.4,2.3c3.4,1,6.7,2.1,10.3,1.9
		c2.7-0.1,4.4-1.8,4.7-4.5c0.1-1,0.1-2.1,0.1-3.1c0.1-7.5-1.3-14.8-2.7-22.1c-0.8-4.2-1.5-8.5-1.9-12.8c-0.2-2.4,0.4-4.9,0.8-7.3
		c0.3-1.6,1.3-2.3,2.6-2.4c1.5-0.1,1.9,1,2.3,2c0.7,2,1.4,4.1,2,6.1c2.6,8.7,4.7,17.4,6.2,26.3c0.6,3.6,2.1,6.7,4.4,9.4
		c1.1,1.3,2.3,2.7,4.2,3.1c2,0.3,4,0.5,6,0.6c4.8,0.2,7.4-1.5,8.2-6.2c0.9-5.3,1.6-10.8,1.7-16.2c0.1-10.6-0.5-21.3-0.6-31.9
		c-0.1-8.5,0.4-16.9,1.9-25.3c0.2-0.9,0.4-1.8-0.5-2.7c-0.3-0.3-0.2-1-0.1-1.5c0-0.6,0.3-1.3,0.2-1.9c-0.6-7.4-0.3-14.8,0.6-22.2
		c0.8-6.6,1.5-13.2,2.2-19.8c0.3-2.7,0.5-5.4,0.5-8.1c-0.1-2.8-1.7-4.5-4.5-4.5c-4.1,0.1-8.3,0.5-12.4,0.9c-2.2,0.3-2.6,1-2.8,3.2
		C320.3,469.5,320.1,473.5,319.9,477.5z M391.7,571.5c-1.6,0.8-3.2,1.5-4.7,2.3c-3.4,1.9-7,3.6-10.9,4.2c-4.2,0.7-5.5-0.2-6.6-4.2
		c-0.1-0.5-0.2-1.1-0.3-1.7c-0.2-3.9,0.2-7.8,1.1-11.7c0.6-2.7,2.3-4.6,5-5.6c3.6-1.3,7.2-2,11-2.4c5.5-0.6,7.4-3,7.8-7.2
		c0.2-2.5,0.3-4.9,0.5-7.4c0.2-4.2,0.5-8.5,0.6-12.7c0-3-1.5-4.1-4.3-3.2c-2.3,0.7-4.5,1.6-6.7,2.7c-3.5,1.7-7,3.4-10.8,4.5
		c-2.5,0.7-5.4,0.4-5.5-3.5c-0.1-5.4-0.1-10.7,0.1-16.1c0.1-3.5,1.3-6.7,5-8c1.2-0.4,2.5-0.8,3.7-0.9c2.1-0.2,4.2-0.1,6-1.3
		c0.4-0.2,0.9-0.3,1.4-0.2c3.3,0.2,6.2-1,9-2.7c1.7-1,2.8-2.4,2.4-4.5c0-0.3,0-0.6,0.1-0.9c0.2-1.2,0.6-2.5,0.5-3.7
		c0-2.8-0.4-5.6-0.4-8.4c-0.1-4.6-1.2-9-2-13.5c-0.1-0.5-0.3-0.9-0.5-1.4c-0.9-2.1-1.6-2.6-3.9-2.4c-4.5,0.4-8.9,0.7-13.3,1.4
		c-6.1,1-12.1,2.3-18.1,3.5c-0.7,0.1-1.6,0.4-1.9,0.8c-1.5,2.3-3.6,4.4-4,7.3c-0.5,4.4-0.9,8.9-1.2,13.3c-0.2,2.6-0.2,5.3-0.2,7.9
		c0,1.9-0.1,3.8-0.1,5.8c-0.1,5.1-0.2,10.2-0.4,15.3c-0.1,3-0.4,6-0.6,9.1c0,0.6-0.2,1.3-0.6,1.6c-1.3,1-1.1,2.2-0.6,3.4
		c1,2.4,1.1,4.8,0.8,7.3c-0.9,7.2-1,14.5-0.9,21.8c0.1,8.6,0.6,17.2,0.8,25.9c0.1,4.8-0.3,9.6-0.3,14.4c0,1.2,0.4,2.5,0.8,3.7
		c0.3,0.9,1,1.4,2,1.4c3.4,0,6.9,0.5,10.3-0.3c4.9-1.1,9.9-1.9,14.8-3.1c3.3-0.8,6.6-2,9.8-3.2c1.7-0.6,3.2-1.6,4.7-2.3
		c0.1-1.1,0.2-2.4,0.4-3.7c0.3-1.7,0.8-3.3,1-4.9c0.3-3.5,0.7-7,0.6-10.5C392.9,575.8,393.3,573.6,391.7,571.5z"/>
	<path d="M393.8,692.7c-10.1-0.3-20.1-0.4-30.2-0.8c-12.9-0.5-25.9-1.2-38.8-1.6c-5.3-0.2-10.5-0.3-15.8-0.2
		c-14.5,0.1-28.9,0.4-43.4,0.4c-5.1,0-10.2-0.5-15.3-0.3c-6.7,0.2-13.4,0.8-20.1,1.3c-7.7,0.6-15.4,1.5-23.2,2.1
		c-7.4,0.6-14.8,1-22.3,1.3c-6.4,0.2-12.8-0.1-19.2,0.2c-8.1,0.4-16.1,1.1-24.2,1.6c-3.6,0.2-7.2,0.4-10.8,0.6
		c-4.5,0.2-8.9,0.5-13.4,0.4c-6.1-0.1-12.1,0.7-18.1,1.7c-7.1,1.2-14.3,1.4-21.5,1.1c-6.4-0.2-12.8-0.1-19.2,0.1
		c-4.8,0.1-9.6-0.1-14.2-1.5c-2.2-0.6-3.9-1.8-5.1-3.7c-0.4-0.5-1-1.2-1.5-1.3c-2-0.4-2.6-1.7-2.7-3.4c-0.3-3.1-0.6-6.2-0.7-9.3
		c-0.3-6.7-0.6-13.4-0.8-20.1c-0.2-3.9-0.6-7.8-0.5-11.7c0.2-5.7,0.5-11.5,1.2-17.2c1.2-9.5,2.2-19,2.6-28.6
		c0.2-5.3,0.4-10.5,0.5-15.8c0-1.8-0.2-3.7-0.2-5.5c0-4,0.2-7.9,0.2-11.9c0.1-7.4,0.1-14.7,0.2-22.1c0.1-6.4,0.3-12.8,0.3-19.2
		c0-3.7-0.5-7.3-0.8-11c-0.8-9.5-1.7-18.9-2.5-28.4c-0.6-8.1-1-16.2-1.5-24.4c0-0.4,0-0.8-0.1-1.2c-0.1-0.9,0.1-1.6,1.1-1.8
		c1-0.2,2,0.3,2.2,1.3c0.3,1.2,0.5,2.4,0.6,3.5c0.6,8.2,1.1,16.4,1.8,24.6c0.5,5.6,1.3,11.3,1.8,16.9c1,11.1,2,22.1,1.6,33.2
		c-0.4,11.6-0.4,23.2-0.5,34.8c0,0.6,0.2,1.3-0.1,1.6c-1.6,1.7-0.9,3.6-0.8,5.4c0.6,8.6,0.7,17.3,0,25.9c-0.8,9.2-1.8,18.4-2.7,27.7
		c-0.7,6.7-0.8,13.4-0.4,20.1c0.5,8,0.8,16,1.2,24c0.1,2.6,0.3,5.3,0.4,7.9c0.1,1,0,2.1,1.3,2.5c0.1,0,0.3,0.2,0.4,0.3
		c2.7,4.7,7.6,4.9,12,5c10.5,0.2,20.9,0,31.4-0.2c5.3-0.1,10.7-0.5,16-1.5c5.3-1,10.6-1.4,16-1.4c3.8,0,7.5-0.1,11.3-0.3
		c4.9-0.2,9.7-0.6,14.6-0.9c7.3-0.5,14.5-1.2,21.8-1.5c6.1-0.3,12.3-0.1,18.4-0.2c5.4-0.1,10.9-0.4,16.3-0.8
		c9.4-0.7,18.8-1.5,28.2-2.4c8.3-0.8,16.5-1.7,24.9-1.7c6.1,0,12.1,0.4,18.2,0.4c8.5,0,17.1,0,25.6-0.4c9.4-0.4,18.9,0,28.3,0.1
		c2.5,0,5,0.1,7.4,0.2c9.7,0.3,19.5,0.7,29.2,1c10.7,0.3,21.4,0.6,32.1,1c3.2,0.1,6.4,0.4,9.6,0.3c6.9-0.1,13.9-0.4,20.8-0.5
		c1.4,0,2.8,0.3,4.2,0.7c0.6,0.2,1.4,1,1.3,1.4c-0.1,0.7-0.8,1.3-1.4,1.8c-0.4,0.3-1.1,0.2-1.6,0.2c-6.6,0.1-13.1,0.1-19.7,0.2
		c-3.8,0-7.7,0-11.5,0C393.8,692.7,393.8,692.7,393.8,692.7z"/>
	<path d="M105.3,342.2c1.7-1,1.6-1.2,4,0.9c0.2-0.3,0.4-0.5,0.5-0.8c1.5-3.1,4.3-4.1,7.5-4.3c1.2-0.1,2.4,0,3.6,0.1
		c4.7,0.5,9.4,0,14.1-0.1c3,0,6,0.3,9.1,0.7c1,0.1,2,0.7,2.9,1.1c1.2,0.6,1.9,1.6,1.9,3.1c0,1.9,0.3,3.8,0.3,5.7
		c-0.1,4.2,0.7,8.4,0.9,12.6c0.2,3.8,0,7.7,0,11.5c-0.1,2.9-0.2,5.8-0.3,8.6c-0.2,4.5-0.5,8.9-0.8,13.4c-0.4,6.1-1.1,12.3-1.4,18.4
		c-0.4,6.8-1.7,13.5-4.4,19.8c-3.4,7.9-9.8,12.1-18,13.9c-6.8,1.5-13.7,2.2-20.6,2.7c-7.6,0.6-15.2,1-22.7-0.5
		c-3.9-0.8-7.8-1.9-10.4-5.4c-0.7-0.9-1.3-1.8-1.8-2.8c-2.9-6.5-3.9-13.1-1.7-20c0.2-0.7,0.6-1.4,1.1-1.8c3.6-2.8,7.2-5.6,11.9-6.4
		c3-0.5,5.8-0.3,8.4,1.1c2.5,1.4,4.8,3.3,7.2,5.1c1.3,1,2.3,2.2,3.5,3.2c1.3,1.1,2.7,1.2,4.2,0.5c2.4-1.1,4.1-2.8,4.7-5.4
		c0.9-3.4,0.3-6.6-1.1-9.9c-2.2,0.3-4.2,0.4-6.2,0.8c-3.9,0.9-8,0.9-11.9,0.8c-4.7-0.2-8.9-1.9-12.4-5.1c-2.2-1.9-3.3-4.7-4.5-7.3
		c-4.9-10.7-6.2-22-6.3-33.6c0-4.4-0.3-8.8-0.5-13.2c-0.1-1,0.2-1.7,0.9-2.5c2.1-2.6,5.1-4.1,8.1-4.8c5.8-1.4,11.7-2.6,17.6-3.4
		C97,338.3,101.1,339.8,105.3,342.2z M129.1,341.7c0,0,0-0.1,0-0.1c-3.3,0-6.6,0-9.8,0c-0.9,0-1.8,0-2.6,0.1c-2.4,0.5-3,1.2-3.3,3.7
		c-0.1,0.6,0,1.3-0.1,1.9c0,1.4,0,2.7-0.1,4.1c-0.3,4.1-0.5,8.3-0.8,12.4c-0.2,2.1-0.4,4.3-0.9,6.4c-0.7,2.7-2.7,4.2-5.2,4.1
		c-3.5-0.2-4.8-1.2-5.6-4.4c-0.8-3.3-0.7-6.7-0.3-10c0.5-3.8,1-7.6,1.4-11.4c0.1-1.2-0.1-2.5-0.3-3.8c-0.2-0.9-0.8-1.4-1.8-1.8
		c-2.3-0.8-4.6-1.2-7.1-0.8c-4.2,0.7-8.4,1.3-12.5,2.2c-2.7,0.6-5.4,1.5-8,2.4c-2.1,0.7-2.4,1.5-2.3,3.3c0.5,6.1,1.1,12.2,1.3,18.4
		c0.3,9.4,2.2,18.4,6,26.9c1.3,2.9,2.8,5.6,5.9,7.3c3.9,2.1,8.1,2.5,12.3,2.2c4.1-0.3,8.2-1.1,12.3-1.7c1.7-0.3,2.5,0,3.2,1.4
		c1.5,3,2.6,6.2,2.6,9.6c0,6.4-3.4,10.6-9.5,12.1c-1.7,0.4-3.4,0.4-4.9-0.5c-1.5-0.8-2.9-2-4.2-3.2c-1.9-1.7-3.7-3.5-5.7-5.1
		c-1.8-1.4-4-2.2-6.5-1.9c-4,0.5-7,2.9-10,5.3c-0.4,0.3-0.5,1-0.7,1.5c-1.5,6.3-0.6,12.2,2.5,17.8c1,1.7,2.4,2.9,4.3,3.7
		c3.4,1.4,6.9,1.9,10.5,2c6.3,0.1,12.6,0,18.9-0.7c4.6-0.5,9.2-0.8,13.8-1.6c2.5-0.4,4.9-1.3,7.3-2.2c5.9-2.4,8.9-7,10.7-12.7
		c1.2-4,2.4-8,2.5-12.2c0.1-2.1,0.3-4.1,0.5-6.2c0.6-6.3,1.3-12.6,1.8-18.9c0.5-7.9,1-15.8,1.1-23.7c0.1-6.5-0.4-12.9-0.6-19.4
		c0-1.4-0.1-2.7-0.1-4.1c-0.1-1.3-0.6-2.1-2-2.3c-1.1-0.1-2.2-0.4-3.3-0.4C136.1,341.6,132.6,341.7,129.1,341.7z"/>
	<path d="M230.1,115.5c0.3-1.6,1.6-1.9,2.8-2c7.4-0.5,14.8-1.6,22.2-1.5c11.9,0.2,23.8,0.3,35.7,0.3c6.1,0,12.1-0.5,18.2-0.5
		c6.5,0,13.1,0.3,19.6,0.5c4.5,0.1,9.1,0.2,13.6,0.6c6,0.5,11.9-0.8,17.9-0.5c4.5,0.2,9.1,0.3,13.6,0.6c2.1,0.2,4.2,1,6.3,1.4
		c4.1,0.8,6.1,3.6,7,7.3c0.8,3.2,1.5,6.4,2.1,9.6c0.7,3.8-0.4,7.5-1.8,11c-0.4,1.1-1.4,2.1-2.4,2.9c-3.1,2.4-6.5,4.4-10.5,4.9
		c-3.6,0.5-7.3,1.2-10.9,1.6c-7.2,0.8-14.5,0.4-21.8,0.3c-3-0.1-6.1,0-9.1-0.1c-4.2-0.2-8.5-0.4-12.7-0.9c-4.5-0.5-4.9-0.2-4.2,4.4
		c1.2,7.2,2.6,14.5,3.8,21.7c1,6.2,1.6,12.4,1.2,18.6c-0.3,4.4-1.7,8.8-3.8,12.8c-1.3,2.4-3.5,3.8-6.1,4.7c-4.4,1.5-9,2.3-13.6,2.6
		c-6,0.5-12,0.7-17.9,1.1c-0.6,0-1.3,0-1.9-0.1c-4.2-0.7-6.3-2.9-7.2-8.3c-0.8-4.3-0.6-8.8,0-13.1c1-6.6,1.9-13.3,3.1-19.9
		c1.2-6.4,2.4-12.9,2.7-19.4c0.1-1.4,0-2.9-0.1-4.3c0-0.9-0.4-1.5-1.4-1.6c-3.6-0.5-7.1-0.6-10.7,0.1c-5.6,1-11.2,1.7-16.8,2.5
		c-2.4,0.3-4.8,0.5-7.2,0.5c-5.1,0.1-10.2,0-15.1-2.1c-2.6-1.1-4.1-3-4.8-5.6c-0.3-1-0.5-2-0.6-3.1c-0.2-6.4-0.4-12.8,1.7-19
		c0.8-2.2,2.1-4.3,3.4-6.3c0.5-0.7,1.7-1.2,2.6-1.5C228,115.3,229,115.5,230.1,115.5z M311.5,147.5c1.2,0,2.1-0.1,2.9-0.1
		c4.1,0.3,8.3,0.8,12.4,0.8c8.1,0.1,16.1,0.1,24.2,0.1c3.2,0,6.4,0.1,9.6-0.1c4.3-0.4,8.6-0.8,12.8-1.8c8.5-2.2,11.4-3.8,12-11.6
		c0-0.4,0.1-0.8,0.1-1.2c0.2-4.7-1.4-9-2.7-13.3c-0.2-0.7-0.8-1.5-1.5-1.7c-1.8-0.8-3.7-1.6-5.7-1.8c-3.4-0.4-6.8-0.5-10.3-0.6
		c-3.5-0.1-7.1-0.3-10.5,0.1c-3.5,0.5-6.9-0.8-10.3,0.3c-0.4,0.1-0.8,0-1.2,0c-6-0.2-12-0.3-18-0.5c-9.2-0.2-18.4-0.6-27.6-0.1
		c-5.3,0.3-10.5,0.2-15.8,0.2c-2.2,0-4.3-0.2-6.5-0.2c-6-0.1-12-0.1-18-0.1c-4.7,0-9.4-0.1-14.1,0.4c-3.9,0.4-7.8,0.4-11.7,0.2
		c-2.3-0.1-3.7,0.8-4.8,2.3c-1.6,2.4-2.8,5-3.1,8c-0.4,4.3-0.7,8.6-0.9,12.9c-0.1,1.3,0.1,2.7,0.3,4c0.2,1.8,1.1,3.2,2.9,3.8
		c2,0.7,4.1,1.4,6.2,1.8c5.1,1,10.2,0.2,15.3-0.2c2.9-0.2,5.7-0.7,8.6-1c6.1-0.8,12-2.8,18.3-1.6c3.1,0.6,4.1,1,4.9,4
		c0.3,0.9,0.6,1.9,0.5,2.8c-0.2,4.1-0.2,8.2-0.7,12.2c-1.3,8.9-2.9,17.8-4.4,26.7c-0.8,5.1-1.4,10.3-0.6,15.5c0.6,3.8,2.4,5.8,6.3,6
		c2.1,0.1,4.1-0.1,6.2-0.3c2.1-0.2,4.3-0.5,6.4-0.6c5.7-0.4,11.3-1.2,16.7-2.9c2.5-0.8,4.1-2.4,4.9-4.8c1.9-5.4,2.6-10.9,2.3-16.7
		c-0.6-10.1-3.1-19.9-4.2-29.9C312.3,154.9,311.9,151.4,311.5,147.5z"/>
	<path d="M169.7,296.3c0.5,2.6,0.9,4.7,1.3,6.9c0.6,4.3,1.4,8.7,1.6,13.1c0.2,4.7-2.3,7.2-7,7.7c-4.4,0.4-8.7,1-13.1,1.3
		c-2.4,0.1-4.9,0.2-7.1-0.4c-4.3-1.1-6.9-4.1-8-8.4c-1.6-6.4-1.4-13-1.4-19.6c0-8.8-0.1-17.6-0.2-26.4c-0.1-7.4-0.5-14.8-0.7-22.3
		c-0.1-5.6,1.2-10.9,2.6-16.3c0.8-3.3,3-5.4,6.1-6.6c1.1-0.4,2.2-0.6,3.2,0.8c-0.5,0.5-1,0.9-1.5,1.3c-2.5,1.6-3.7,3.9-4.5,6.8
		c-2.2,8.7-1.9,17.4-1.4,26.2c0.8,12.7,1.1,25.4,0.9,38.1c-0.1,5.1-0.3,10.2,0.6,15.3c0.3,1.4,0.6,2.8,1.3,4.1
		c1.5,2.9,4.1,4.3,7.3,4.1c5.2-0.3,10.4-0.8,15.5-1.2c2.3-0.2,3-0.9,3.3-3.1c0.2-1.5,0.3-3.1,0.1-4.5c-0.6-4.3-1.5-8.7-2.2-13
		c-0.3-1.7-0.5-3.3-0.7-5c-0.2-2.1,0.3-2.7,2.3-2.8c2.3-0.1,4.6,0,6.9,0.2c2.6,0.3,5.1,0.4,7.6-0.2c2.7-0.7,5.4-1.4,8.1-2.1
		c1.6-0.4,2.6-1.5,3.3-2.9c2-4,1.8-8.2,1.3-12.5c-0.1-0.9-0.3-1.7-0.5-2.6c-0.6-2.6-1.9-3.7-4.5-3.7c-2.7,0-5.4,0.3-8.1,0.5
		c-2.1,0.2-4.3,0.6-6.4,0.8c-4.3,0.3-8.6,0.5-12.9,0.6c-2.3,0.1-3.5-1.1-3.9-3.4c-0.6-3.1,0.1-6.1,1.5-8.8c1-1.9,3-2.8,5-2.9
		c4.8-0.4,9.6-0.5,14.3-0.8c3.2-0.2,6.4-0.3,9.6-0.5c5.6-0.4,11.2-0.8,16.7-1.3c6.5-0.6,10.7-4.4,11.6-10.8c0.6-4.1,1-8.2,0.5-12.4
		c-0.4-2.5-0.8-3.2-3.3-3.6c-1.3-0.2-2.5-0.3-3.8-0.3c-7,0.1-14.1,0.1-21.1,0.8c-4.5,0.5-9.1,0.2-13.7,0.3
		c-3.4,0.1-6.9,0.5-10.3,0.5c-5.2,0.1-10.4,0-15.6-0.1c-1,0-1.8-0.3-1.8-1.5c0-1,0.6-1.7,1.9-1.7c2.7-0.1,5.4,0,8.2-0.1
		c8.1-0.2,16.1-0.5,24.2-0.8c8.9-0.3,17.9-0.8,26.8-1c2.4-0.1,4.8,0.4,7.1,0.9c3,0.7,4.6,2.6,5.2,5.8c0.9,5.7,0.5,11.2-0.9,16.7
		c-1.7,6.5-5.4,10.4-12.8,11.1c-6,0.6-12.1,1-18.2,1.2c-6.1,0.3-12.1,0.2-18.2,0.5c-2,0.1-4.1,0.5-6.1,1.1c-2.2,0.7-3.6,4.4-2.6,6.4
		c0.2,0.4,1,0.9,1.5,0.8c5.5-0.8,11-0.1,16.5-1.5c3.9-1,7.7-0.9,11.6,0c3.3,0.7,5.2,2.9,5.8,6c0.5,2.7,0.9,5.4,1.1,8.1
		c0.3,3.8-0.7,7.3-2.4,10.6c-0.9,1.9-2.6,2.9-4.4,3.5c-6.2,1.9-12.4,3.8-19,2.6C172.6,296.1,171.4,296.3,169.7,296.3z"/>
	<path d="M174.8,149.9c1,0.1,2,0.3,3,0.2c2.1-0.2,4.1-0.6,6.2-0.8c5.3-0.3,10.5-0.6,15.8-0.8c3.4-0.1,5.8,1.7,7,5.1
		c1.2,3.4,2,6.9,1.9,10.6c-0.1,3.4-2,6.5-5,7.3c-2.2,0.6-4.3,1.2-6.5,1.1c-4.4,0-8.8,0.4-13.2-0.4c-1-0.2-2.1-0.1-3.1,0
		c-3.1,0.4-5.4,3.4-4.9,6.5c0.1,0.5,0.6,1.2,1.1,1.4c0.9,0.3,1.9,0.6,2.8,0.5c3.8-0.2,7.7-0.4,11.5-0.9c3.6-0.5,7.1-1.3,10.6-1.8
		c2.2-0.3,4.4-0.3,6.6,0.5c4.8,1.7,6.8,5.3,7.4,10.2c0.7,5.9,0.1,11.6-1.5,17.3c-1.1,4.1-3.6,6.6-7.6,7.9
		c-5.8,1.9-11.8,2.4-17.9,2.9c-5.5,0.4-11-0.4-16.5-0.4c-1,0-1.9-0.2-2.9,0c-4.7,0.7-9-0.9-13.4-2.2c-2-0.6-3.9-2-5.6-3.4
		c-0.9-0.7-1.4-1.9-1.8-3.1c-1.1-3.3-1.7-6.6-1.8-10.1c-0.3-9.2-0.6-18.4-0.9-27.5c-0.1-2,0.2-4,0.3-6c0.5-9.1,1-18.2,1.6-27.3
		c0.2-2.8,0.6-5.6,1.3-8.3c0.5-1.7,1.6-3.3,2.6-4.8c3.1-5.2,8.1-6.9,13.7-7.5c0.8-0.1,1.6,0.2,2.4,0.4c0,1.4-0.9,1.4-1.7,1.6
		c-1.4,0.4-2.8,0.6-4.1,1.2c-6,2.4-9.1,7-9.9,13.3c-0.5,4.8-1,9.7-1.3,14.6c-0.5,7.6-0.9,15.2-1.1,22.7c-0.1,3.6,0.3,7.2,0.4,10.8
		c0.1,5.8,0,11.7,0.3,17.5c0.2,3,1,6,1.8,8.9c0.5,1.7,1.6,2.9,3.6,3.3c3,0.6,6,1.6,9,2.4c0.8,0.2,1.6,0.3,2.4,0.2
		c5.1-0.7,10.1,0.1,15.1,0.4c7,0.4,13.9,0.2,20.8-1.3c0.8-0.2,1.5-0.4,2.3-0.7c2.9-0.9,4.6-2.8,5.3-5.9c1.2-5.5,2.3-11,1.3-16.6
		c-0.2-1-0.3-2.1-0.6-3c-0.8-2.7-3.6-4.9-6.4-5c-1.2,0-2.4,0.1-3.6,0.3c-6.4,1.1-12.9,2.5-19.4,2.8c-2.1,0.1-4.1-0.1-6.2-0.4
		c-2.2-0.3-3.7-2.1-3.8-4.3c-0.2-2.5,0.3-4.9,1.7-6.9c1.4-2.2,3.8-3.3,6.4-3.3c3.7,0,7.3,0.3,11,0.4c2.3,0.1,4.6,0,7,0.1
		c1.9,0,3.5-0.8,5.1-1.8c1.1-0.6,1.5-1.7,1.6-2.8c0.3-4-0.4-7.8-2.5-11.3c-0.7-1.2-1.8-1.7-3.2-1.7c-5.7,0.3-11.3,0.2-17,1.2
		c-2.5,0.4-5.1,0.4-7.6,0.2c-3.2-0.3-4.5-2.6-3.7-5.7c0.4-1.6,1.6-2.3,2.9-2.9c3.6-1.6,7.5-2.1,11.4-2.2c5.3-0.1,10.7-0.6,16-1.1
		c1.9-0.2,3.8-0.8,5.6-1.4c3.2-1.1,4.5-3.1,4.4-6.5c-0.1-3.1-0.1-6.2-0.5-9.3c-0.6-4.2-2.4-6.1-6.7-6.6c-4.4-0.5-8.8-1-13.1-1
		c-4.2,0-8.4,0.7-12.6,1.1c-1.9,0.2-3.8,0.3-5.7,0.4c-0.5,0-1.2,0-1.6-0.3c-0.5-0.4-0.8-1-1.3-1.6c0.5-0.3,1-0.8,1.5-0.9
		c7.7-0.8,15.3-2.2,23.1-2.1c4.6,0.1,9.1,0.8,13.5,2c3.4,0.9,5.4,3.3,6.3,6.6c0.2,0.8,0.4,1.6,0.5,2.4c0.1,4.1,0.5,8.3,0.1,12.4
		c-0.3,3.8-3.4,5.7-6.7,6.8c-5,1.6-10.3,2.3-15.6,2.4c-3.7,0.1-7.3,0.2-11,0.5c-1.8,0.2-3.6,0.8-5.3,1.4c-0.6,0.2-1.1,1-1.7,1.4
		C174.6,149.4,174.7,149.7,174.8,149.9z"/>
	<path d="M70.6,463.8c-0.8-2.1,0-3.3,1.7-4c3.1-1.3,6.1-2.7,9.3-3.8c6-2,12.2-3.3,18.6-3.2c5.5,0.1,10.8,1,16.1,2.5
		c2.6,0.7,4.6,2.3,6,4.8c1.3,2.4,2.1,5,2.5,7.7c0.6,3.8,1.1,7.6,1.6,11.4c0.7,5.6,1.4,11.3,1.8,16.9c0.6,8.3,0.5,16.6-0.7,24.9
		c-0.2,1.4-0.3,2.9-0.5,4.3c-0.9,5-3,9.5-6.4,13.2c-4.3,4.7-9.7,7.4-16.3,7.3c-2,0-4,0-5.8,0c-0.2,0.3-0.3,0.4-0.3,0.6
		c0.5,6.1,1.1,12.2,1.5,18.4c0.2,4.1,0,8.2,0.2,12.2c0.2,6,0.6,12,0.8,18c0.1,2.5-0.3,5-2,7c-2.5,2.8-5.4,4.9-9.3,5.3
		c-3.1,0.3-6.2,0.6-9.3,0c-1.2-0.3-2.5-0.6-3.7-1c-2.3-0.9-3.6-2.5-3.8-5c-0.4-4-0.9-8.1-1.2-12.1c-0.5-6.2-0.8-12.4-1.2-18.7
		c-0.4-5.9-0.6-11.8,0-17.7c0.2-1.9,0.1-3.8,0.1-5.8c0.1-2.5,0.4-5,0.4-7.5c0-2.5-0.2-4.9-0.4-7.4c-0.4-5.4-0.9-10.8-1.2-16.3
		c-0.2-3.8,0-7.7-0.1-11.5c-0.2-6.7-0.5-13.4-0.8-20.1c-0.2-4.8-0.2-9.6-0.3-14.4C67.7,467.4,68.2,465.2,70.6,463.8z M94.3,545.4
		c-0.6-0.3-1.5-0.5-2.2-1c-0.9-0.5-0.9-1.3,0-1.9c1.1-0.7,2.3-1.1,3.6-1c3.4,0.2,6.9,0.4,10.3,0.5c4.5,0.1,8.3-2,11.2-5.2
		c3.3-3.7,5.3-8.2,5.9-13.1c0.5-3.7,0.8-7.5,1-11.2c0.2-5.1,0.5-10.2,0.1-15.3c-0.6-8.6-1.7-17.2-2.7-25.7c-0.4-3.1-1.3-6.1-2.1-9.1
		c-0.6-2.1-2.3-3.4-4.4-4c-5.2-1.6-10.4-2.4-15.8-2.4c-5.2,0-10.2,1.1-15.1,2.5c-3.1,0.9-6.2,2-9.3,3.2c-0.8,0.3-1.7,1-2,1.8
		c-1,2.6-1.8,5.3-1.6,8.2c0.3,4.6,0.6,9.2,0.8,13.9c0.2,5.5,0.3,11,0.9,16.5c0.7,7.2,0.1,14.5,1.1,21.8c0.4,3.5,0.4,7,0.7,10.5
		c0.3,3.7,0.8,7.3-0.2,10.9c-0.1,0.4-0.2,0.8-0.2,1.2c-0.1,3.2-0.3,6.4-0.2,9.6c0.1,6.1,0.3,12.1,0.6,18.2c0.2,4.7,0.6,9.4,0.9,14.1
		c0.3,3.9,0.6,7.8,0.8,11.7c0.1,1.9,1.3,2.9,3,3.3c3.6,0.8,7.2,1,10.7,0.1c3.3-0.8,5.8-2.7,6.4-6.3c0.2-1.1,0.2-2.2,0.2-3.3
		c-0.3-7.2-0.6-14.4-1-21.6c-0.3-6.5-0.6-13.1-0.9-19.6C94.6,550.3,94.4,547.9,94.3,545.4z"/>
	<path d="M408.8,30.9c-8.7,0.4-17.4,0.9-26.1,1.2c-14.4,0.4-28.8,0.5-43.2,0.7c-5.3,0.1-10.5,0.4-15.8,0.6
		c-3.4,0.1-6.7,0.2-10.1,0.2c-6.8,0.1-13.6,0.1-20.4,0.2c-4.9,0.1-9.7,0.2-14.6,0.2c-5,0-9.9-0.2-14.9-0.3c-2,0-4,0.1-6,0.1
		c-5.5,0.1-11,0-16.5,0.3c-4,0.2-7.9,1-11.9,1.2c-5.2,0.3-10.4,0.3-15.6,0.5c-8,0.3-16,0.8-24,1c-10.1,0.3-20.1,0.3-30.2,0.6
		c-6,0.2-12-0.3-17.9-0.9c-1.7-0.2-3.4-0.1-5-0.1c-3.7,0.1-7.3-0.5-10.9-1.4c-0.6-0.2-1.2-0.1-1.8-0.1c-3.9,0.3-7.8,0.6-11.7,1
		c-0.4,0-0.9,0.1-1.2-0.1c-0.4-0.3-0.9-0.7-1-1.1c0-0.4,0.4-1.1,0.8-1.3c1-0.3,2-0.5,3.1-0.5c3,0,6.1,0.2,9.1,0.3
		c0.5,0,1,0.2,1.4,0.1c2-1,4.1-0.3,6.1-0.1c3.2,0.2,6.4,0.1,9.6,0.3c3.5,0.2,7,0.5,10.5,0.7c2,0.1,4,0.1,6,0.1
		c7.8,0.2,15.5-0.1,23.2-0.8c1.3-0.1,2.6-0.1,3.8-0.2c6-0.3,12-0.7,17.9-0.9c6.8-0.2,13.6-0.3,20.4-0.5c4.1-0.2,8.1-0.6,12.2-0.9
		c4-0.3,8-0.9,11.9-0.9c8.3-0.2,16.6-0.1,24.9-0.1c7.3,0,14.5-0.1,21.8-0.1c5.4,0,10.9,0.1,16.3,0c6.1-0.1,12.3-0.6,18.4-0.7
		c6.9-0.2,13.7-0.2,20.6-0.3c4.9,0,9.8,0.1,14.6,0c5.7-0.1,11.5-0.4,17.2-0.7c8.1-0.3,16.1-0.6,24.2-0.8c4.1-0.1,8.3,0.2,12.4,0.4
		c0.6,0,1.3,0,1.9,0c4.7-0.2,9,0.8,13,3.4c1.6,1.1,3.4,2.1,5,3.2c0.8,0.5,1.4,1.3,1.9,2.1c2.4,4.2,4.5,8.4,4.6,13.4
		c0.2,8.8,0.6,17.6,0.9,26.4c0.1,4,0.3,8,0.5,12c0,1.4,0,2.7,0,4.1c0,1-0.6,1.6-1.5,1.9c-0.9,0.3-1.6-0.1-1.7-1
		c-0.3-2.5-0.7-5.1-0.8-7.6c-0.3-10-0.5-20-0.6-30c-0.1-4.5-0.4-8.9-2-13.2c-0.4-1.2-1.1-2-2-2.9c-2.5-2.3-5.3-4.1-8.2-5.8
		c-2.4-1.4-5-2.3-7.7-2.3c-3.7-0.1-7.4,0-11,0C408.8,31.2,408.8,31,408.8,30.9z"/>
	<path d="M22.6,119.9c0.4,6.5,0.9,13.1,1.2,19.6c0.5,9.8,0.7,19.6,1.1,29.5c0.2,5.6,0.6,11.2,0.8,16.8c0.3,9.7,0.3,19.5,0.6,29.2
		c0.2,7.8,0.7,15.6,1.1,23.5c0.1,3.3,0.1,6.5,0.1,9.8c0.1,5,0,10.1,0.2,15.1c0.2,7.7,0.3,15.5,1.1,23.2c1,9.5,1.6,19.1,2.4,28.7
		c0.8,10,1.5,20.1,2.2,30.1c0.6,9.7,1.4,19.4,1.7,29.2c0.3,9.6,0.3,19.2,0.3,28.8c0,9.1-0.3,18.2-0.2,27.3
		c0.1,6.6,0.5,13.3,0.8,19.9c0,1.2,0.2,2.4,0,3.6c-0.1,0.6-0.6,1.5-1.1,1.6c-0.8,0.2-1.8-0.1-2.1-1.1c-0.4-1.4-0.9-2.8-1-4.2
		c-0.4-7.3-0.8-14.7-0.9-22c-0.1-9,0.2-18.1,0.3-27.1c0-5.6-0.1-11.2-0.2-16.7c0-3.3,0.1-6.6-0.1-9.8c-0.4-6.9-0.9-13.7-1.3-20.6
		c-0.4-6.1-0.7-12.1-1.1-18.2c-0.4-6.8-0.9-13.5-1.4-20.3c-0.5-6.6-0.9-13.2-1.5-19.8c-0.4-4.6-1.1-9.2-1.3-13.8
		c-0.4-6.2-0.5-12.5-0.6-18.7c-0.2-5.6-0.3-11.2-0.4-16.8c0-2.6,0-5.1-0.1-7.7c-0.2-5.3-0.6-10.5-0.8-15.8
		c-0.2-4.5-0.1-9.1-0.2-13.7c-0.1-6.7-0.1-13.4-0.4-20.1c-0.3-8.3-0.7-16.6-1-24.9c-0.1-4.2,0.1-8.5-0.1-12.7
		c-0.3-6.6-0.8-13.2-1.2-19.9c-0.1-2.3-0.1-4.6,0-7c0.1-3.8,0.2-7.7,0.3-11.5c0-1,0-1.9,0.1-2.9c0.1-0.9,0.5-1.5,1.5-1.5
		c0.9,0.1,1.2,0.7,1.2,1.5c0.1,3.1,0.3,6.2,0.4,9.3C22.9,119.9,22.7,119.9,22.6,119.9z"/>
	<path d="M130,176c0.4,2.3,0.9,4.3,1.2,6.3c0.7,4.1,1,8.2,0.8,12.4c-0.2,2.8-1.5,5-3.3,7c-3.5,3.9-7.9,6.1-12.9,7.5
		c-3.5,0.9-7.1,1.9-10.7,2.7c-2.2,0.5-4.4,0.8-6.7,0.8c-4.2,0-8.5,0-12.7-0.3c-4.3-0.3-7.6-2.7-10-6.3c-0.3-0.4-0.3-1-0.5-1.5
		c1.8-0.8,2.4-0.6,3.7,0.6c1,1,2.1,2,3.3,2.8c1.6,1,3.5,1.5,5.5,1.6c3,0,5.9,0.2,8.9,0.3c3.8,0.1,7.5-0.6,11.1-1.7
		c2.5-0.8,5.1-1.3,7.7-1.9c4.5-1.1,8.2-3.5,11.4-6.8c1.8-1.9,2.4-4.4,2.3-6.8c-0.3-4.4-1-8.7-1.6-13.1c-0.2-1.3-0.9-2.5-1.3-3.8
		c-0.4-1.4-0.2-1.9,1.2-2.4c0.7-0.3,1.5-0.4,2.3-0.5c2.5-0.2,4.9-0.9,7.1-1.9c2.3-1,2.6-1.7,2.2-4.1c-0.2-1.1-0.5-2.2-0.8-3.3
		c-0.7-3.1-1.8-4.1-5.1-4.2c-1.8,0-3.7,0.1-5.5,0.2c-4.2,0.2-8.5,0.4-12.7,0.7c-2.3,0.1-4.6,0.3-6.9,0.6c-1.9,0.3-2.2,1-1.9,2.8
		c0.2,1.3,0.4,2.5,0.9,3.7c0.3,0.8,1,1.6,1.6,2.3c0.4,0.4,0.9,0.6,1.4,1c2.3,1.8,2.7,4,1.3,6.6c-1.7,2.9-4.3,4.2-7.6,4.3
		c-1.7,0-3.3-0.2-5-0.3c-2.5-0.2-4.3-1.6-5.8-3.4c-3.7-4.5-4.7-9.8-3.9-15.3c0.6-3.8,1.5-7.5,2.7-11.2c1.4-4.7,4.6-8.2,8.5-11
		c0.3-0.2,0.8-0.5,1.1-0.4c1.5,0.6,2.6-0.4,3.8-0.8c4.3-1.3,8.8-1.8,13.3-1.4c5.1,0.5,10.2,0.4,15.3,0.2c1.7-0.1,3.4-0.6,5.1-1.1
		c1.1-0.3,1.9-1.2,1.8-2.5c0-3,0.1-5.9-0.2-8.8c-0.4-3.3-2.4-5.5-5.7-5.9c-4.7-0.6-9.4-1-14.1-1.3c-5.6-0.4-11,0.8-16.4,1.7
		c-1,0.2-2.1,0.3-3.1,0.3c-3.6-0.1-7,0.6-10.4,1.7c-7,2.2-11.6,7-13.2,14.2c-1.2,5.1-1.7,10.2-1.9,15.4c-0.3,7.4-1.2,14.8-1.9,22.2
		c-0.1,0.9-0.1,1.8-0.1,2.6c0.4,6.6,0.8,13.2,1.3,19.9c0.1,1.4,0.4,2.8,0.5,4.3c0,0.6-0.1,1.6-0.5,1.9c-0.8,0.6-1.6,0-2-0.8
		c-0.4-0.9-0.9-1.9-1-2.9c-0.7-7.6-1.3-15.1-1.9-22.7c-0.1-1.3,0.2-2.5,0.3-3.8c0.6-6.6,1.5-13.2,1.8-19.8
		c0.2-5.9,0.9-11.8,2.1-17.6c1-4.8,3.7-8.6,7.4-11.7c5-4.3,11.2-5.2,17.4-6.1c3.4-0.5,6.8-0.7,10.2-1.3c6.3-1.1,12.5-1.3,18.9-0.6
		c2.4,0.3,4.8,0.5,7.1,0.9c5.3,1,8.2,4.1,8.8,9.6c0.3,2.8,0.3,5.6,0.3,8.4c0,3-1.6,4.9-4.2,6.1c-1.7,0.8-3.5,1.1-5.3,1.3
		c-5.8,0.3-11.7,0.3-17.5-0.3c-3.2-0.3-6.4,0.1-9.5,0.8c-0.9,0.2-2,0.4-2.8,0.2c-1.4-0.4-2.3,0.1-3.1,1.1c-1.5,1.7-3.3,3.2-4.7,5.1
		c-1.1,1.5-1.9,3.3-2.5,5.1c-0.9,3-1.7,6-2.3,9.1c-1,5-0.5,9.7,3.2,13.7c1.1,1.2,2.3,2,3.9,2.1c1.6,0.1,3.2,0.2,4.8,0.1
		c0.8,0,1.7-0.3,2.5-0.8c2.3-1.3,2.5-3.1,0.3-4.6c-3-2-3.7-5-4.5-8.2c-0.1-0.5-0.1-1-0.1-1.4c-0.3-2.7,0.7-4.5,3.4-5.1
		c2-0.5,4.1-0.9,6.1-0.9c5.4-0.1,10.9-0.3,16.3-0.9c3.2-0.4,6.4-0.4,9.5,0.7c1.8,0.6,2.9,1.8,3.3,3.5c0.6,2.6,1.1,5.2,1.5,7.8
		c0.3,2-0.7,3.5-2.4,4.3c-2.6,1.2-5.3,2.1-8,3C131.4,175.7,130.9,175.8,130,176z"/>
	<path d="M437.2,356c2.8,0.8,3,1,3,3.5c0,8.2-0.1,16.3,0,24.5c0.1,5.2,0.6,10.4,0.7,15.6c0.1,6.9,0,13.7-0.2,20.6
		c-0.1,4.9-0.4,9.7-0.7,14.6c-0.3,6.5-0.9,12.9-1,19.4c-0.1,4.6,0.2,9.3,0.3,13.9c0.3,8.8,0.6,17.6,0.8,26.4
		c0.2,7.5,0.3,15,0.4,22.5c0,4.4-0.1,8.8,0,13.2c0.2,11.3,0.5,22.7,0.9,34c0.1,4.9,0.3,9.7,0.5,14.6c0.3,6.1,0.7,12.1,1.1,18.2
		c0.4,6.4,0.6,12.8,1,19.2c0.5,7.6,1.3,15.1,1.7,22.7c0.2,2.9-0.1,5.9-0.3,8.9c-0.3,4-0.7,8-1,11.9c-0.3,4.2-0.2,8.5-0.6,12.7
		c-0.2,2.8-1.2,5.5-1.4,8.2c-0.2,2.6-1.7,4.1-3.6,5.3c-2.6,1.5-5.4,1.8-8.4,1.5c-0.5,0-1.1-0.4-1.4-0.8c-0.3-0.4-0.5-1-0.5-1.4
		c0-0.3,0.7-0.6,1.1-0.6c1.2-0.2,2.4-0.2,3.6-0.3c3.4-0.3,4.7-1.8,5.6-5.1c1.5-5.6,0.8-11.3,1.4-16.9c0.6-5.5,1.1-11,1.3-16.5
		c0.1-4.1-0.2-8.3-0.5-12.4c-0.2-3.4-0.5-6.9-0.8-10.3c-0.4-5.7-0.8-11.3-1.1-17c-0.3-5.7-0.6-11.3-0.8-17
		c-0.5-9.8-1.2-19.6-1.4-29.5c-0.3-13.7-0.4-27.3-0.5-41c-0.1-6,0.1-12-0.1-18c-0.3-11.7-0.6-23.3-1.1-35c-0.5-11.6,0.2-23.2,1-34.7
		c0.1-0.7,0-1.4,0.1-2.2c0.3-6.9,0.7-13.7,0.9-20.6c0.1-3.7-0.3-7.3-0.4-11c-0.1-1.7-0.2-3.3-0.3-5c-0.2-7.7-0.5-15.3-0.5-23
		c0-3.8,0.5-7.6,0.8-11.5C436.8,357,437,356.6,437.2,356z"/>
	<path d="M127.6,261.4c-0.2-3.3-0.2-7.7-0.8-12c-0.5-3.7-1.7-7.3-2.8-10.9c-1.7-5.3-5.6-9-9.8-12.4c-2.9-2.4-6.1-3.3-9.8-3.1
		c-0.5,0-1.2,0-1.6-0.3c-0.5-0.5-1.1-1.2-1.2-1.9c-0.1-0.9,0.9-1.1,1.6-1.1c3.3-0.3,6.7-0.4,9.6,1.2c8.7,4.9,14.3,12,17,21.8
		c2.4,8.6,2.3,17.3,2.1,25.9c-0.1,8.5-0.7,17.1-1.5,25.6c-0.4,4.4-1.6,8.8-3,13c-1.2,3.8-2.9,7.7-4.9,11.1c-2.7,4.6-7,7.7-12.3,8.9
		c-4.9,1.1-9.8,2.2-14.8,2.8c-3.8,0.5-7.7,0.2-11.5,0.3c-0.3,0-0.7,0-0.9-0.1c-4-2.2-8.3-3.6-10.8-8.1c-3.8-7.1-5.7-14.7-6.2-22.7
		c-0.4-6.3-0.7-12.6-0.9-18.9c-0.4-9,0-18,1.6-27c0.7-4.2,1.4-8.4,3.4-12.2c2.3-4.3,4.8-8.4,8.4-11.6c2.3-1.9,4.9-3.6,7.6-4.9
		c3.2-1.5,6.7-2.5,10.1-3.6c1.1-0.3,2.4-0.3,3.5-0.2c0.4,0,0.9,0.8,1.1,1.3c0.1,0.2-0.6,0.8-1.1,1c-1.6,0.6-3.2,1.1-4.8,1.6
		c-8.7,2.3-15,7.5-19.5,15.2c-2.2,3.8-3.7,7.7-4.3,12.1c-0.9,6.6-2,13.1-1.8,19.8c0.2,6.6,0.5,13.3,0.7,19.9
		c0.2,5.9,0.6,11.8,1.9,17.6c1,4.5,2.5,8.9,5.1,12.9c0.7,1.1,1.5,2,2.9,2.3c0.6,0.1,1.2,0.5,1.7,0.9c1.5,1.5,3.3,2,5.3,2
		c3.9-0.2,7.8-0.4,11.7-0.8c3.5-0.4,6.9-1.2,10.4-1.9c4.3-0.9,7.4-3.4,9.6-7c3-4.7,4.7-9.9,6-15.3c1.4-6.1,2-12.3,2.3-18.5
		c0.2-4.5,0.6-8.9,0.8-13.4C127.7,267.9,127.6,265.2,127.6,261.4z"/>
	<path d="M185.4,342.1c0.8-1,2.4-0.8,4-0.6c3.7,0.4,7.5,0.4,11,2.1c2.4,1.2,4.7,2.4,6.9,3.8c1.8,1.1,3,2.9,3.5,5
		c1.1,3.8,2.3,7.7,3.2,11.5c0.6,2.7,1,5.5,1.2,8.3c0.3,4.8,0.5,9.6,0.6,14.4c0.1,4.7,0.2,9.4-0.1,14.1c-0.5,6.5-1.3,13-2,19.5
		c-0.2,1.7-0.5,3.3-0.8,5c-1,5-3.8,8.9-7.7,12.1c-4,3.3-8.4,6.2-13.3,7.9c-1,0.4-2.2,0.6-3.3,0.7c-3.2,0.5-6.3,1-9.5,1.3
		c-4.1,0.4-8.2,0.3-12.1-0.8c-5.4-1.5-8.8-5.3-10.7-10.5c-1.4-3.7-1.8-7.6-2.2-11.5c-0.7-5.8-1.3-11.6-1.6-17.4
		c-0.3-5.8-0.2-11.7-0.2-17.5c0-2.9,0.1-5.8,0.3-8.6c0.7-8.1,1.7-16.1,5.7-23.3c1.8-3.3,3.6-6.6,6.6-9.1c4.5-3.7,9.6-6,15.3-6.9
		C181.8,341.3,183.4,341.9,185.4,342.1z M211.2,389.6c0,0,0.1,0,0.1,0c0-2.3-0.1-4.6,0-7c0.3-10.3-1.5-20.2-4.6-29.9
		c-0.7-2.1-1.9-3.7-3.7-4.8c-4.5-2.6-9.3-3.7-14.4-3.8c-1.4,0-2.7,0.3-3.8-0.8c-0.3-0.3-1.1-0.2-1.6-0.1c-4.7,0.7-9.1,2.5-13.1,5.1
		c-1.9,1.2-3.5,2.8-4.8,4.6c-6,8.4-7.9,18.1-8.4,28.1c-0.3,6.9-0.1,13.9-0.1,20.8c0,2.1,0.2,4.1,0.4,6.2c0.3,3.1,0.7,6.2,1,9.3
		c0.5,4.8,0.8,9.5,1.4,14.3c0.9,6.8,5.2,10.8,12.1,11.6c3.5,0.4,7,0.2,10.5-0.1c8-0.6,15-3.6,20.8-9.2c3.1-2.9,5.3-6.3,5.9-10.7
		c1.2-8.1,2.2-16.1,2.2-24.3C211.2,395.9,211.2,392.7,211.2,389.6z"/>
	<path d="M399.3,102.7c-7.1-0.8-13.9-1.6-20.7-2.2c-3.9-0.3-7.8-0.3-11.7-0.3c-6.9-0.1-13.7-0.1-20.6-0.2c-4.2,0-8.5-0.2-12.7-0.1
		c-7.1,0.2-14.2,0.5-21.3,0.7c-2.2,0.1-4.3,0.1-6.5,0.1c-6.1,0.1-12.3,0.3-18.4,0.4c-9,0.2-17.9,0.4-26.9,0.5
		c-3.2,0-6.4-0.4-9.6-0.6c-1.9-0.1-3.8,0.1-5.7-0.1c-5.6-0.5-11.3-1.1-16.9-1.6c-8.5-0.9-17.1-0.7-25.6-0.1
		c-1.6,0.1-2.8-0.3-2.9-1.1c-0.1-0.8,0.8-1.6,2.5-1.8c5.6-0.9,11.3-1.1,17-0.8c6.1,0.3,12.3,0.6,18.4,1.4c5.4,0.7,10.8,0.9,16.3,1
		c6.9,0.1,13.9,0.4,20.8,0.3c10.9-0.2,21.9-0.5,32.8-0.9c7.1-0.2,14.2-0.6,21.3-0.8c3-0.1,6.1,0,9.1,0c4,0,8,0.1,12,0.2
		c7.1,0,14.2,0,21.3,0c8.7,0,17.2,1.3,25.8,2.2c0.5,0.1,1.1,0.1,1.6,0c1.9-0.2,2.9,0.2,3.6,2c0.7,1.5,1.2,3.1,1.5,4.8
		c2.1,12.1,4.3,24.3,3.6,36.7c0,0.6-0.1,1.1-0.1,1.7c0,1.2-0.4,2-1.6,2.4c-2-0.5-2.4-1.8-2.4-3.8c0-5.8-0.1-11.5-0.5-17.3
		c-0.3-4.3-1.1-8.6-1.7-12.8c-0.4-2.5-0.8-5.1-1.2-7.6C399.8,103.9,399.5,103.2,399.3,102.7z"/>
	<path d="M436.4,244.9c-0.2-7.2,0.9-14.3,1.6-21.5c0.3-3.1,0.3-6.2,0.4-9.3c0.2-8.5,0.5-16.9,0.7-25.4c0.1-6.2-0.1-12.5-0.1-18.7
		c0-5.1,0.2-10.2,0.2-15.3c0-2.6-0.1-5.3-0.3-7.9c-0.9-8.7-0.1-17.2,0.7-25.9c0.1-1,0.3-1.9,0.5-2.8c1-3.7,1.2-7.4,1.3-11.2
		c0.1-3.1,0.6-6.2,0.9-9.3c0.1-0.5,0.1-1,0.4-1.4c0.3-0.4,0.7-0.9,1.1-0.9c0.4,0,1,0.4,1.3,0.9c0.3,0.5,0.3,1.2,0.3,1.9
		c-0.2,5.2-0.5,10.4-0.7,15.6c-0.1,1.3-0.4,2.5-0.6,3.8c-1.1,5.3-1.3,10.6-1.5,16c-0.3,5.7,0.2,11.3,0.5,17c0.3,5.3,0,10.7-0.1,16.1
		c0,4.2,0,8.5-0.1,12.7c-0.1,7-0.1,14.1-0.2,21.1c-0.1,6.4-0.2,12.8-0.5,19.2c-0.2,4.5-0.7,9.1-1,13.6c-0.3,4.5-0.4,9.1-0.5,13.6
		c-0.1,2.3-0.2,4.6-0.2,6.9c-0.1,3.3,0,6.6-0.2,9.8c-0.2,3.9-0.6,7.8-0.9,11.7c0,0.4-0.2,1-0.6,1.3c-0.6,0.4-1.5,1-2,0.9
		c-0.5-0.1-1-1.2-1.1-1.9c-0.2-0.9,0.1-1.9,0.1-2.9c0.1-3.4,0.2-6.7,0.4-10.1c0.1-3.8,0.3-7.7,0.4-11.5
		C436.4,248.9,436.4,246.9,436.4,244.9z"/>
	<path d="M87,281.5c0.3-5.7,1.5-11.1,3.4-16.4c1.2-3.5,3.2-5.8,7.2-6.1c1.2-0.1,2.2,0.3,3.3,0.9c4,2.3,4.8,6.1,4.6,10.1
		c-0.4,6.1-0.9,12.1-2.8,17.9c-1.2,3.6-2.6,7-5.1,10c-1.8,2.1-3.8,2.3-6,0.7c-2.4-1.8-3.7-4.2-3.9-7.1
		C87.3,288.2,87.2,284.9,87,281.5z"/>
	<path d="M248.1,515.1c0.6,1.2,1.2,2.3,1.8,3.4c2.1,3.4,3.2,7.1,3.4,11.1c0.3,6.3-0.3,12.4-1.6,18.6c-1,4.8-3.4,8.9-6.9,12.4
		c-0.8,0.8-1.7,1.9-3.1,1.3c-1.4-0.5-1.8-1.7-1.9-3.1c-0.4-3.6-0.8-7.3-0.5-11c0.3-4.5,0-9.1,0.2-13.7c0.1-3.3,0.2-6.6,0.7-9.8
		c0.4-3,1.6-5.7,3.8-7.9C245.3,515.1,246.2,514.9,248.1,515.1z"/>
	<path d="M108.2,31.6c-1.8,1.4-3.5,1.7-5.2,1.9c-8.5,1-17,1.5-25.6,1.4c-4.2-0.1-8.4-0.3-12.6-0.9c-6.8-0.9-13.6-0.7-20.3,0.2
		c-4.7,0.7-9.3,1.4-14.1,2.1c-0.1,1.5-0.9,2.2-1.9,3.1c-3.3,2.8-5.8,6.1-5.9,10.8c-0.2,8.8-0.4,17.6-0.9,26.3
		c-0.5,8,0.3,15.8,1.7,23.6c0.2,1.2,0.1,2.4,0.1,3.6c0,0.8-0.3,1.4-1.3,1.4c-0.8,0-1-0.6-1.1-1.3c-0.1-0.8-0.2-1.6-0.5-2.3
		c-2.1-6.8-2.7-13.8-2.6-20.8c0.1-8.2,0.8-16.4,1.3-24.6c0.2-2.6,0.3-5.3,0.7-7.9c0.6-4.2,3.3-7.2,6.1-10c0.3-0.3,0.9-0.6,1-1
		c0.8-2.7,3.1-3,5.2-3.5c3.4-0.7,6.8-1.2,10.1-1.8c5.6-1.1,11.3-1.1,17-1.1c2.1,0,4.3,0.2,6.4,0.5c6.4,1,12.8,0.7,19.1,0.5
		c5.7-0.1,11.5-0.7,17.2-1c1.5-0.1,3,0,4.5,0.1C107.1,30.9,107.5,31.2,108.2,31.6z"/>
	<path d="M181.1,97.5c-4.4,0.4-8.9,0.8-13.3,1.2c-7.3,0.6-14.6,1.1-22,1.2c-3.6,0.1-7.2-0.2-10.7-0.2c-4.1,0-8.3,0.4-12.4,0.6
		c-6.5,0.3-12.9,1-19.4,0.7c-8-0.3-15.9,0.1-23.9,0.4c-2.6,0.1-5.2,0.9-7.8,1.3c-1.3,0.2-2.7,0.3-4.1,0.2c-0.5,0-0.9-0.6-1.4-1
		c0.3-0.5,0.7-1,1.1-1.4c0.2-0.2,0.6-0.2,0.9-0.3c3-0.7,6.1-1.3,9.1-2c0.4-0.1,0.8-0.3,1.2-0.3c4.4-0.1,8.8-0.3,13.2-0.4
		c0.5,0,1,0.1,1.4,0c5.4-0.9,10.8-0.1,16.3-0.4c7.2-0.3,14.3-0.9,21.5-1.2c3.3-0.1,6.5,0.1,9.8,0.1c3.9,0,7.8,0.2,11.7,0
		c8.2-0.5,16.4-1.2,24.6-1.8c1.8-0.1,3.7,0,5.5,0c3.3,0,6.5-0.1,9.8-0.2c0.9,0,2.2-0.4,2.5,0.8c0.3,1.3-1.1,1.4-1.9,1.7
		c-2.5,0.9-5.1,1.2-7.8,1.2c-1.3,0-2.6,0-3.8,0C181.1,97.8,181.1,97.7,181.1,97.5z"/>
	<path d="M56.8,210.7c-2.1,0.1-2.5-0.1-2.5-2.1c-0.1-3.1,0-6.2-0.1-9.3c-0.1-3.5-0.4-7-0.5-10.5c-0.2-4.8-0.3-9.6-0.4-14.3
		c-0.1-2.2-0.2-4.5-0.3-6.7c-0.4-7.5-0.8-15-1.2-22.5c-0.3-4.9-0.4-9.7,0.1-14.6c0.3-3.2,0.2-6.4,0.3-9.6c0.1-3,0-5.9,0.3-8.9
		c0.5-4.9,3.3-8.3,7.6-10.6c0.3-0.1,0.6-0.2,0.9-0.2c0.7-0.1,1.6-0.3,1.8,0.7c0.1,0.4-0.5,1.2-0.9,1.4c-4.5,2.1-5.7,6-5.8,10.4
		c-0.1,3.1,0.1,6.2,0,9.3c0,3-0.1,6.1-0.3,9.1c-0.5,5.4-0.1,10.7,0.3,16c0.9,11.5,1.2,23,1.1,34.5c0,4.3,0.7,8.6,0.7,12.9
		c0,4.9-0.4,9.7-0.6,14.6C57.1,210.4,56.9,210.6,56.8,210.7z"/>
	<path d="M160.6,62.5c-0.6,0.1-1.2,0.2-1.7,0.5c-1.2,0.5-2.5,1-3.7,1.7c-0.4,0.3-0.9,1.1-0.8,1.6c0.1,0.6,0.7,1.3,1.3,1.5
		c0.8,0.3,1.7,0.3,2.6,0.2c5.3-0.2,10.5-0.5,15.8-0.6c3.3,0,6.6,0.1,9.8,0.5c3.5,0.4,6.9,0.1,10.3-0.3c3-0.3,6-1,8.9-1.6
		c0.7-0.1,1.3-0.5,2.1-0.8c-0.9-1.4-2.1-1.4-3.2-1.4c-5.7-0.2-11.3-0.3-17-0.4c-7.1-0.1-14.2-0.1-21.3-1.4c-0.2,0-0.4,0-0.5-0.1
		c-0.5-0.4-1.4-0.8-1.5-1.3c-0.1-0.9,0.7-1.4,1.6-1.4c2.5,0.1,4.9,0.4,7.4,0.5c1.5,0.1,3,0.3,4.5,0.3c5.3,0.1,10.7,0,16,0.1
		c4.2,0.1,8.5,0.2,12.7,0.5c1.1,0.1,2.2,0.5,3.2,0.9c2.8,1.1,3.3,4.5,0.7,6.2c-1.6,1-3.4,1.8-5.3,2.2c-4.5,0.9-8.9,1.9-13.5,1.7
		c-3.4-0.1-6.9-0.1-10.3-0.4c-6.1-0.5-12.3-0.9-18.4-0.4c-1.6,0.1-3.2-0.1-4.8-0.4c-0.8-0.1-1.6-0.4-2.2-0.9c-2.9-2-2.9-4.7,0.1-6.7
		c1.6-1,3.2-1.8,5.1-1.7c0.6,0,1.3,0.3,1.9,0.5C160.7,61.9,160.6,62.2,160.6,62.5z"/>
	<path d="M225.4,676.9c-2.1-0.2-4.3-0.4-6.4-0.6c-4.8-0.5-8.1-3.3-9.9-7.6c-0.7-1.7-1.1-3.6-1.5-5.5c-0.5-2.5-0.1-4.9,1.4-7
		c1.4-1.9,2.6-4,4.2-5.8c3.3-3.8,7.7-5.5,12.7-5.9c1.3-0.1,2.5,0.1,3.6,0.9c0.6,0.4,1.4,0.7,2.2,0.7c2.9,0.2,5.2,1.2,7,3.6
		c0.8,1.1,1.8,2.1,2.6,3.1c2,2.4,3.3,5.1,3.7,8.2c0.9,5.6-2.7,11.6-8.3,14C233.1,676.4,229.4,677,225.4,676.9z M225.3,673.6
		c0-0.1,0-0.1,0-0.2c0.9,0,1.8,0,2.6,0c3.3-0.2,6.4-0.9,9.2-3c2.9-2.2,4.9-7.1,3.7-10.4c-1.9-5.3-4.8-9.9-10.7-11.5
		c-0.7-0.2-1.4-0.5-1.9-0.9c-0.7-0.7-1.4-0.7-2.2-0.6c-3,0.3-5.8,1.3-7.9,3.5c-1.7,1.8-3.2,3.7-4.8,5.6c-1.7,2.1-2.4,4.5-1.9,7.1
		c0.3,1.5,0.7,2.9,1.2,4.4c1.1,3.2,3.4,5,6.7,5.5C221.4,673.4,223.3,673.4,225.3,673.6z"/>
	<path d="M404.8,150.8c2.8,0.1,3.5,0.6,3.5,2.8c0,4.2-0.3,8.3-0.3,12.5c0,9,0.1,18.1,0.2,27.1c0,4.4-0.1,8.8-0.1,13.2
		c0,4.9,0,9.7,0,14.6c0,0.7,0.1,1.5-0.1,2.1c-0.2,0.7-0.8,1.7-1.3,1.7c-0.7,0.1-1.7-0.3-2.3-0.9c-0.5-0.5-0.6-1.4-0.6-2.2
		c-0.1-2.2-0.2-4.5-0.2-6.7c0-2.3,0.2-4.6,0.2-6.9c0-12.3,0-24.6,0.1-36.9c0-5.8,0.3-11.7,0.6-17.5
		C404.4,152.8,404.6,151.9,404.8,150.8z"/>
	<path d="M437.3,278.2c1.8,0.2,2.3,1.1,2.3,2.5c0.2,4.1,0.3,8.1,0.1,12.2c-0.4,6-0.3,12.1-0.1,18.2c0.2,8,0.7,16,0.8,23.9
		c0.1,5.2-0.1,10.4-0.4,15.6c0,1-0.6,2.2-1.2,3c-0.4,0.5-1.4,0.6-2.1,0.6c-0.3,0-0.7-1-0.7-1.6c0.1-5.7,0.3-11.3,0.3-17
		c0-4.2-0.3-8.3-0.4-12.5c-0.1-6.4-0.3-12.8-0.3-19.2c0.1-5.7,0.5-11.3,0.7-17c0.1-2.4,0.3-4.8,0.5-7.2
		C436.9,279.3,437.1,278.8,437.3,278.2z"/>
	<path d="M226.6,66.8c0.8-2.2,1.4-4.6,2.5-6.7c1.4-2.6,6.7-5.1,9.6-4.3c2.7,0.7,5.1,2.2,7.1,4.2c1.5,1.4,1.9,3.3,2,5.2
		c0.1,2.9-0.8,5.6-1.9,8.3c-0.2,0.3-0.4,0.8-0.8,0.9c-3.1,1.2-6,3.6-9.6,2.4c-4.2-1.4-7.2-4.1-8.3-8.5c-0.1-0.5-0.1-1-0.1-1.4
		C226.9,66.9,226.8,66.8,226.6,66.8z M230.6,67.6c0.3,0.6,0.6,1.4,1,2.2c0.8,1.4,2.4,1.7,3.7,2.3c2.8,1.3,3.4,1.2,5.3-1.3
		c0.3-0.4,0.7-0.7,1-1c2.2-2.3,1.8-4.7-0.7-6.6c-1-0.7-1.9-1.7-2.6-2.7c-1.2-1.7-1.7-1.9-3.5-0.9C231.8,61.3,231.4,64.4,230.6,67.6z
		"/>
	<path d="M134.7,459.8c-0.1,0.7-0.2,1.4-0.3,2c-1.3,4.7-1.4,9.4-1.2,14.2c0.4,7.6,0.8,15.2,1.3,22.7c0.2,3.2,0.9,6.5,1.3,9.7
		c0.1,0.9,0.3,1.9,0.3,2.8c0,1-0.3,1.9-1.5,2.1c-1,0.2-1.6-0.5-2.1-1.8c-1.6-4.8-2.1-9.8-2.4-14.8c-0.3-7.4-0.6-14.8-1-22.2
		c-0.2-4.1,0.4-8.1,1.5-12.1C131.5,460,132,459.7,134.7,459.8z"/>
	<path d="M346.7,370.1c-1.9,0-3.8,0-5.7,0c-3,0-4.5-1-5.3-3.8c-0.6-2.1-0.7-4.2-0.9-6.4c-0.1-1.3,0.5-1.7,1.7-1.7
		c4,0.1,7.9,0.2,11.9,0.3c1.2,0,2.4-0.1,3.6-0.2c2.7-0.1,3.7,0.5,4.1,3.2c0.3,1.9,0.4,3.8,0.4,5.7c0,1.8-0.8,2.7-2.6,2.7
		C351.5,370.1,349.1,370,346.7,370.1C346.7,370,346.7,370,346.7,370.1z"/>
	<path d="M91.2,501.6c0.4-2.9,0.7-5.9,1.2-8.9c0.2-1.5,0.9-2.7,2.6-3c0.4-0.1,0.7-0.3,1-0.5c1.5-1.1,2.3-1,3,0.8
		c0.8,2.1,1.6,4.3,2.1,6.6c0.8,3.7,1.5,7.6,0.6,11.4c-0.4,1.5-1.1,3-2.1,4.2c-1.3,1.7-2.9,1.6-4.7,0.4c-1.7-1.1-2.7-2.7-3-4.7
		C91.6,505.8,91.4,503.8,91.2,501.6z"/>
	<path d="M177.7,395.6c0-3.2-0.2-6.4,0.1-9.6c0.2-2.4,0.7-4.9,1.3-7.3c0.5-1.9,1.4-2.4,3.4-2.3c1.8,0.1,3.5,0.2,5.2,0.5
		c1.5,0.2,2.4,1.4,2.7,2.7c0.6,2.4,1.1,4.8,1.3,7.3c0.4,6.3-0.2,12.5-2.5,18.4c-0.8,2.1-2.1,4.1-3.2,6.2c-1.3,2.7-6.5,2.6-7.5-0.8
		c-0.5-1.7-0.8-3.4-0.9-5.2C177.6,402.1,177.7,398.9,177.7,395.6C177.7,395.6,177.7,395.6,177.7,395.6z"/>
	<path d="M226.6,653.8c0.6,0,1.3,0,1.9,0c2.6,0.1,3.1,0.7,3.8,3.1c0.9,3.3-0.1,6.1-2.2,8.6c-1.5,1.7-3,1.9-5.1,1
		c-0.6-0.2-1.3-0.3-2-0.2c-1.4,0.2-2.4-0.2-2.7-1.6c-0.5-2.6-0.9-5.3-1.1-8c-0.1-1.8,0.4-2.2,2.2-2.5c1.7-0.3,3.5-0.4,5.2-0.7
		C226.5,653.7,226.6,653.8,226.6,653.8z M223.2,659.7c0,0.3,0,0.6,0,0.9c0.1,1.9,0.6,2.4,2.3,2.8c1.5,0.4,2.1-0.8,2.4-1.7
		c0.4-1.2,0.5-2.6,0.6-3.9c0-0.4-0.4-0.9-0.7-1.1C225.5,655.6,223.2,657.1,223.2,659.7z"/>
</g>
</svg>
