<?xml version="1.0" encoding="utf-8"?>
<!-- Generator: Adobe Illustrator 24.0.3, SVG Export Plug-In . SVG Version: 6.00 Build 0)  -->
<svg version="1.1" xmlns="http://www.w3.org/2000/svg" xmlns:xlink="http://www.w3.org/1999/xlink" x="0px" y="0px"
	 viewBox="0 0 536.2 651.6" style="enable-background:new 0 0 536.2 651.6;" xml:space="preserve">
<style type="text/css">
	.st0{fill:#FFFFFF;}
</style>
<g id="transSwipe_xA0_Image_1_">
	<g>
		<path d="M303,34.4c0.5-0.2,1-0.4,1.4-0.7c3.4-2,6.9-2.6,10.6-1.1c2,0.8,3.9,0.8,5.8-0.1c4.8-2,10-2.7,15.1-3.4
			c1.7-0.2,3.1,0.5,3.9,1.8c0.7,1.1,0.3,2.5-0.6,3.6c-1,1.4-2.1,2.8-3.1,4.3c-0.5,0.8-1,1.6-1.5,2.5c0.8,0.4,1.3,0.8,1.9,1
			c4.7,1.4,9.3,2.6,14.3,1.6c3.4-0.7,7-0.7,10.5-1.1c4.2-0.4,8.4-1,12.6-1.3c4.2-0.3,8.1,0.3,11.3,3.5c1.2,1.2,2,2.6,1.9,4.5
			c0,3.1,0.6,3.7,3.8,3.9c0.7,0,1.4,0,2.2,0.1c0.6,0,1.1,0,1.7,0.1c1.6,0.3,3.2,0.8,3.9,2.4c0.7,1.6-0.3,2.9-1.2,4.1
			c-0.8,1.1-1.7,2.1-2.5,3.2c-0.2,0.3-0.2,0.7-0.3,1.2c2.2,2,4.9,2,7.5,2.2c4.8,0.4,9.3-1,13.8-2.7c6.7-2.5,13.4-5.1,20.2-7.6
			c4.4-1.6,8.8-2.9,13.2-4.3c2.8-0.9,5.6-0.8,8.2,0.5c1.2,0.6,2.4,1.6,3.3,2.6c1.2,1.4,1.1,3.1,0.3,4.7c-1,2-2.4,3.8-4.1,5.2
			c-3.9,3.3-7.7,6.8-10.6,11c-0.8,1.2-1.6,2.6-2.1,4c-0.5,1.6-0.1,2.2,1.6,2.5c1.1,0.2,2.2,0.3,3.3,0.4c1.5,0.1,3,0.2,4.5,0.3
			c2.9,0.3,4,1.5,3.5,4.3c-0.4,2.5-0.2,4.8,0.6,7c0.7,1.8,1.5,3.5,2.6,5.1c1.9,2.8,3.3,5.6,2.9,9.1c-0.3,2,0.3,2.7,2.4,3.3
			c2.1,0.6,4.4,1,6.5,1.4c3.8,0.7,5.1,3.6,3,6.9c-0.4,0.6-0.8,1.2-1.3,1.9c2.7,0.9,5.3,1.1,7.9,1.4c1.3,0.2,2.7,0.3,4,0.6
			c3.4,0.8,4.6,3.4,2.7,6.3c-2.2,3.4-5.1,6.2-8.6,8.1c-5.9,3.2-11.1,7.3-15.7,12c-3.2,3.2-7,5.8-10.6,8.5
			c-9.2,6.7-17.3,14.6-25.4,22.6c-9.1,9.1-17.9,18.5-26.7,27.8c-2.2,2.4-4.2,5-6.3,7.5c-3.7,4.5-7.4,9-11.3,13.4
			c-4.8,5.4-9.3,11-13.4,16.9c-4.7,6.7-9.5,13.2-14.1,20c-3.2,4.8-6,9.8-8.9,14.7c-6.3,10.6-12.7,21.3-19,31.9
			c-6.3,10.6-12.9,21.2-19,31.9c-3.5,6.2-6.4,12.9-9.6,19.3c-4.6,9.1-8.7,18.3-12.5,27.7c-2.3,5.9-5.3,11.5-7.9,17.2
			c-1,2.3-1.9,4.6-2.7,6.9c-2.2,6.5-4.3,13-6.3,19.6c-2.1,7.1-3,14.4-4,21.7c-0.4,2.9-0.3,5.9-0.4,8.8c0,1-0.1,1.9-0.3,2.9
			c-0.4,3.2-0.9,6.4-1.3,9.7c-0.1,0.5,0,1,0.1,1.4c0.5,1.2,0.2,2.3,0,3.5c-0.2,1.2-0.3,2.4,0,3.5c1,3.7,1,7.4,0,11.1
			c-0.5,1.7-0.6,3.5-1.3,5.1c-1.1,2.7-4,3.6-6.1,2.1c-1.5-1.1-2.7-2.5-3.2-4.4c-0.9-3.1-1.8-6.3-2.7-9.4c-0.2-0.8-0.6-1.7-1.2-2.2
			c-1.2-1-1.6-2.3-1.6-3.8c0-2.1-0.6-4-1.3-6.3c-1.2,1.4-1.5,2.9-1.9,4.3c-1.3,4-5.5,7.4-9.8,7.5c-1,0-1.5,0.5-1.9,1.2
			c-0.8,1.5-1.6,3.1-2.4,4.7c-0.3,0.6-0.6,1.3-0.8,2c-1.9,4.8-5,4.5-8,1.3c-0.7-0.8-1.2-1.9-1.8-2.8c-0.6-0.9-1.2-1.9-1.8-2.8
			c-0.6-0.9-1.4-1.3-2.4-1.3c-1.1-0.1-2.2-0.3-3.3-0.3c-2-0.1-3.3-1-4.1-2.8c-0.4-0.9-0.8-1.7-1.2-2.6c-0.3-0.7-0.5-1.5-0.8-2.3
			c-1.2-2.9-1.9-3-4.6-1.6c-4.5,2.4-5.9,6.6-6.8,11c-2,8.9-3.5,17.9-3.6,27c0,0.7-0.2,1.4-0.3,2.1c-0.6,2.7-2.6,3.5-5.1,2.2
			c-1.3-0.7-2.5-1.7-3.8-2.4c-6-3.4-10.5-8.4-14.8-13.7c-0.1-0.1-0.2-0.2-0.3-0.4c-1.8-4.2-4.4-8-5.4-12.5c-0.6-3-1.6-5.9-2.2-8.8
			c-0.7-3.2-1.1-6.4-1.7-9.6c-0.2-1.1-0.6-2.2-1-3.2c-0.4-1.2-1.2-2.1-2.5-2.3c-2.3-0.5-4.2-1.7-5.8-3.5c-1.3-1.4-3.2-2.3-4.9-3.3
			c-1.3-0.8-2.5-0.6-3.5,0.4c-2,2-3.9,4.2-6,6.2c-0.6,0.6-1.5,1.2-2.3,1.5c-1.5,0.5-2.7,0-3.4-1.4c-0.5-0.9-0.8-1.9-1.3-2.9
			c-0.4-0.8-0.7-1.6-1.2-2.3c-0.9-1.3-1.7-1.2-2.6,0c-0.4,0.6-0.7,1.3-1.2,1.8c-0.6,0.7-1.1,1.4-1.8,1.8c-2.1,1.3-3.3,0.9-4.3-1.4
			c-0.6-1.5-1.1-3-1.8-4.4c-0.5-1.1-1.3-2.1-1.9-3.2c-1.6,0.4-2,1.4-2.5,2.4c-3.5,7.6-6,15.4-6.2,23.9c-0.1,3.6-0.7,7.2-1,10.7
			c-0.2,3-0.3,6-0.4,9.1c-0.1,1.1,0,2.3-0.3,3.3c-0.5,2.4-2.7,3.4-4.8,2.1c-1.4-0.9-2.8-1.9-3.8-3.2c-2.8-3.6-5.7-7.3-8.2-11.2
			c-2.9-4.5-5.5-9.2-8.1-13.8c-1.8-3.2-2.5-6.7-3-10.3c-0.5-3.6-0.9-7.1-1.5-10.7c-0.3-2-0.7-2.4-2.7-2.7c-1.3-0.2-2.2-0.8-2.8-2
			c-0.6-1.2-1.1-2.5-1.7-3.7c-0.9-1.6-1.7-3.2-2.7-4.7c-0.8-1.2-1.8-1.5-3.1-0.8c-1.2,0.6-2.4,1.6-3.3,2.6c-1.3,1.3-2.3,2.9-3.5,4.3
			c-2.3,2.5-4.3,2.2-6-0.8c-2.4-4.2-3.8-8.6-4.6-13.3c-0.4-2.7-1.2-5.3-2.5-7.7c-0.3-0.5-0.5-1-0.5-1.6c-0.1-2.4-0.6-4.6-1.8-6.6
			c-0.3-0.4-0.4-1.1-0.2-1.6c0.9-2.9,0.3-5.9,0.2-8.8c-0.2-5.8,0.1-11.5,0.7-17.2c0.8-8.2,1.5-16.4,2.7-24.5
			c1.2-8.1,2.8-16.2,4.4-24.3c1.3-6.7,2.8-13.5,4.1-20.2c1.9-9.4,4.7-18.5,8.6-27.4c3.1-7.1,5.8-14.4,8.7-21.5
			c1.8-4.3,3.8-8.6,5.8-12.9c3.5-7.4,6.9-14.7,10.7-22c5.7-11,11.4-22,17.4-32.8c4-7.3,8.5-14.3,13.3-21.1
			c7.8-11.1,15.5-22.3,23.3-33.4c6.2-8.7,12.9-16.9,19.9-24.9c3.8-4.4,7.5-9,11.4-13.3c4.5-5,9.1-9.8,13.7-14.7
			c5.2-5.5,10.4-10.9,15.5-16.3c6.3-6.6,12.5-13.3,18.7-19.9c0.9-0.9,1.8-1.8,1.2-3.3c-0.2-0.5,0.3-1.5,0.8-2c0.6-0.6,1.4-1,2.1-1.5
			c0.6-0.4,1.2-0.8,1.7-1.3c1.6-2.1,3.1-4.2,4.6-6.3c0.3-0.4,0.6-1,0.7-1.5c0.3-2.8,1.9-5.1,3.1-7.5c0.7-1.3,1.7-2.6,2.7-3.6
			c1.9-1.8,3.1-4,4.2-6.3c1.1-2.5,2.7-4.9,5-6.6c2.2-1.6,4.7-2.3,7.4-2.4c1,0,2.2,0.5,3,1.2c1,0.8,1.9,1.9,2.6,3.1
			c0.9,1.3,2.1,2,3.6,1.9c3.9-0.3,7.4-1.3,9.6-4.9c1-1.5,2.3-2.9,3.5-4.3c1.4-1.6,3.3-2.2,5.3-2.3c4.1-0.2,8.1-0.4,12.2-0.4
			c3.7,0,7.2,0.9,10.5,2.9c2.4,1.5,3.5,3.2,2.9,5.9c-0.1,0.3-0.1,0.6-0.1,0.9C302.8,34.1,302.9,34.2,303,34.4z M335.1,33.5
			c-1,0.1-1.4,0.1-1.8,0.1c-4.4,0.5-8.7,1.5-12.8,3c-2.6,1-5.1,1-7.7-0.1c-2-0.8-4.1-0.7-6.1,0.1c-1.2,0.6-2.4,1.3-3.5,2
			c-1,0.6-2.1,1.3-3.2,1.6c-0.9,0.2-2.1,0-2.9-0.5c-0.9-0.6-0.6-1.7-0.2-2.6c0.5-1.3,1-2.7,1.5-4c0.5-1.3,0-2.1-1.2-2.8
			c-2.4-1.3-4.9-2.4-7.7-2.2c-4.1,0.3-8.3,0.6-12.4,1c-0.9,0.1-1.9,0.6-2.5,1.2c-1.2,1.2-2.3,2.6-3.4,4c-1.4,1.9-2.9,3.6-5.2,4.5
			c-2.7,1.1-5.5,1.7-8.4,1.5c-2.6-0.1-4.8-1.1-6.3-3.3c-0.2-0.3-0.4-0.5-0.6-0.8c-1.5-1.9-2.8-2.3-5-1.2c-1,0.5-1.9,1.2-2.5,2.1
			c-1.2,1.6-2.2,3.3-3.1,5.1c-1.2,2.3-2.4,4.4-4.2,6.4c-2.1,2.3-4,4.8-3.9,8.2c0,0.7-0.3,1.6-0.8,2.2c-1.8,2.7-3.8,5.3-5.7,7.8
			c-0.5,0.6-1.1,1.1-1.7,1.7c-1.4,1.3-2.9,2.5-4.2,3.9c-2.4,2.6-4.6,5.3-7,7.9c-5.2,5.6-10.5,11.2-15.8,16.7c-2.8,3-5.5,6-8.4,8.9
			c-4.5,4.7-9.2,9.3-13.6,14.2c-5.1,5.6-9.9,11.3-14.8,17c-3.5,4.1-7.2,8.2-10.5,12.5c-5.5,7.1-10.9,14.4-16.2,21.7
			c-5.5,7.7-10.8,15.5-16.2,23.2c-2.6,3.8-5.4,7.6-7.8,11.5c-4.1,6.9-8,13.8-11.8,20.8c-3.6,6.5-7,13.1-10.4,19.7
			c-3.4,6.7-6.7,13.4-10,20.2c-2.1,4.3-4.1,8.7-6,13.1c-3.1,7.3-5.9,14.7-9,22c-3.4,8.2-6.8,16.4-8.7,25.1c-1.1,5-2.2,10-3.3,15
			c-3.1,15.3-6.4,30.7-8,46.3c-0.6,6.1-1.1,12.3-1.4,18.4c-0.2,4.9-0.2,9.9-0.2,14.8c0,2.9,0.2,5.9,1,8.8c1.7,5.8,2.9,11.8,4.5,17.6
			c0.6,2.2,1.5,4.4,2.4,6.5c0.3,0.8,1,1.5,1.7,2.6c1-1.1,1.7-1.9,2.5-2.7c1-1.2,2-2.5,3.1-3.6c3.3-3.5,7.2-3.2,9.8,0.8
			c0.4,0.5,0.7,1.1,0.9,1.7c0.8,1.6,1.7,3.3,2.4,5c0.5,1.2,1.3,2,2.7,2c1.4,0,2.2,0.9,2.7,2c0.6,1.5,1.2,3,1.4,4.6
			c0.4,2.4,0.7,4.9,0.9,7.4c0.5,4.4,1.4,8.6,3.5,12.6c3.7,7.2,8,14,12.8,20.5c0.9,1.2,1.9,2.4,3,3.4c0.9,0.9,1.9,2,3.6,1.7
			c0.1-0.6,0.2-1.1,0.2-1.7c0.3-3.6,0.4-7.2,0.7-10.7c0.3-3.7,1.1-7.3,1.1-11c0.2-8.5,2.2-16.4,6.1-23.9c0.6-1.2,1.4-2.4,2.3-3.3
			c1.7-1.8,3.5-1.7,5.1,0.2c0.5,0.7,1,1.5,1.3,2.3c0.6,1.4,1.1,2.8,1.7,4.2c0.2,0.5,0.6,1,1.1,1.7c0.6-0.6,1-0.9,1.3-1.3
			c0.4-0.6,0.8-1.2,1.2-1.8c2.5-3.3,5.3-3.1,7.3,0.6c0.6,1,0.9,2.2,1.5,3.3c0.3,0.7,0.8,1.2,1.4,2c0.8-0.8,1.4-1.4,1.9-1.9
			c1.6-1.7,3.1-3.4,4.8-5c2.6-2.5,5.2-2.8,8.2-0.7c1.5,1,2.8,2.3,4.2,3.5c1.2,1,2.3,2.2,4,2.4c2.1,0.2,3.3,1.6,4.1,3.3
			c0.6,1.2,1.1,2.5,1.4,3.8c0.9,4.2,1.6,8.5,2.4,12.7c1,5.5,2.8,10.7,5.5,15.5c4.3,7.7,10.6,13.3,18,17.8c0.5,0.3,1.1,0.4,1.7,0.6
			c1.2-1.2,1.2-2.6,1.3-3.9c0.8-9.9,2.3-19.7,4.5-29.3c0.6-2.7,1.6-5.3,3.8-7.1c1.2-0.9,2.5-1.7,3.8-2.4c3.3-2,5.5-1.3,7.1,2.2
			c0.7,1.4,1.2,2.9,1.8,4.4c0.6,1.6,1.5,2.5,3.4,2.2c4-0.5,6.7,1.4,8.3,5.1c0.3,0.7,0.6,1.3,1,1.9c0.7,1,1.4,1.9,2.1,2.7
			c1.6-0.2,2-1.4,2.4-2.4c1.5-2.9,2.9-5.8,4.4-8.8c0.5-1.1,1.3-1.6,2.5-1c1.8,0.9,3.2,0.1,4.5-1.1c3-2.8,4.5-6.6,6.6-9.9
			c0.4-0.7,1.1-1.6,1.7-1.7c1.1-0.2,1.8,0.8,2.3,1.8c0.2,0.4,0.3,0.9,0.4,1.4c0.5,2.4,0.9,4.9,1.4,7.3c0.1,0.6,0.3,1.3,0.7,1.7
			c1.5,1.5,2,3.4,2.4,5.3c0.6,2.4,1.3,4.8,2.1,7.1c0.3,0.9,0.7,1.8,1.2,2.6c0.6,0.9,1.5,0.9,2.1,0.1c0.3-0.4,0.5-0.8,0.6-1.3
			c0.4-2.8,0.8-5.7,1.1-8.5c0.1-0.8-0.1-1.8-0.4-2.6c-0.8-1.8-0.8-3.7-0.7-5.6c0-1.4-0.1-2.9-0.1-4.3c0-0.9,0-1.8,0.1-2.6
			c0.5-3.3,1-6.6,1.4-9.9c0.2-1.1,0.2-2.2,0.2-3.3c0.1-1.7,0.1-3.3,0.2-5c0.1-1.2,0.2-2.4,0.5-3.6c1-5.7,1.7-11.5,3.2-17.2
			c1.7-6.7,3.9-13.3,6.2-19.9c2.7-8,6.1-15.8,9.8-23.4c1.5-3,2.7-6.1,4.1-9.2c2.4-5.3,4.7-10.7,7.1-16c1.9-4.2,3.9-8.4,6-12.5
			c2.3-4.6,4.5-9.4,7-13.9c3.6-6.2,7.5-12.3,11.2-18.4c6.3-10.6,12.5-21.4,18.8-32c5.6-9.4,11.2-18.8,16.9-28.1
			c2-3.3,4.4-6.5,6.7-9.7c5.2-7.2,10.3-14.5,15.7-21.4c5.7-7.2,11.8-14,17.7-21.1c7.5-9,15.6-17.3,23.6-25.8
			c3.7-3.9,7.5-7.6,11.3-11.4c2.5-2.5,4.8-5.1,7.5-7.4c6.9-5.8,13.9-11.5,20.9-17.1c0.6-0.5,1.4-0.9,2.1-0.9
			c1.2-0.1,1.9-0.6,2.6-1.4c4.9-5.1,10.4-9.4,16.5-13c2.4-1.4,4.4-3.4,6.5-5.2c0.7-0.6,1.1-1.5,1.9-2.5c-1.3-0.4-2.1-0.8-3-0.9
			c-4-0.6-8.1-1.2-12.1-1.8c-0.9-0.1-2.1-0.1-2.4-1.2c-0.4-1.2,0.3-2.2,1.1-3c0.5-0.5,1.1-1,1.5-1.6c0.5-0.7,0.9-1.4,1.6-2.4
			c-1.1-0.3-2-0.4-2.8-0.6c-2.4-0.6-4.9-0.9-7.2-1.8c-3-1.1-3.6-2.3-3.3-5.6c0.3-2.7-0.4-4.9-2.1-7.1c-2.9-3.8-4.8-8.1-4.2-13.1
			c0.2-2-0.1-2.3-2.2-2.5c-0.6,0-1.1,0-1.7-0.1c-2.1-0.3-4.3-0.4-6.4-0.8c-2.3-0.4-3.2-1.6-3-3.9c0.2-1.7,0.5-3.6,1.3-5
			c3-5.1,6.9-9.5,11.5-13.4c1.5-1.3,2.9-2.7,4.1-4.3c1-1.3,0.7-2.3-0.7-3.2c-0.4-0.2-0.9-0.4-1.3-0.6c-2.1-0.8-4.1-0.2-6.1,0.4
			c-10.2,3.1-20.3,6.8-30.1,11.1c-5.4,2.4-11.1,3.5-17,3.5c-3.4,0-6.7-0.7-9.7-2.4c-1.4-0.8-2-1.9-1.9-3.5c0-2.1,1.2-3.6,2.3-5.1
			c0.5-0.6,0.9-1.2,1.6-2.2c-1.5,0-2.4,0.1-3.2,0c-1.7-0.2-3.3-0.4-4.9-0.8c-2.1-0.6-3-2.2-3.2-4.3c-0.1-0.7,0-1.4,0-2.2
			c0-1.4-0.6-2.4-1.7-3.2c-2.3-1.7-4.8-2-7.5-1.7c-6.1,0.7-12.2,1.5-18.3,2.1c-4.3,0.4-8.5,1.6-12.8,0.7c-3.3-0.7-6.5-1.6-9.6-2.7
			c-2.7-1-3.3-3.1-2-5.6c0.6-1.1,1.4-2.1,2.1-3.2C333.4,35.7,334.1,34.8,335.1,33.5z"/>
		<path d="M256.8,514.1c3-1.2,4.1-0.5,4.6,2.4c0.9,4.8,1.9,9.5,3.1,14.2c1.5,5.7,2,11.5,2.2,17.3c0,1.2-0.3,2.2-1.6,2.7
			c-1.4,0.6-2.6,0.5-3.7-0.6c-2.4-2.3-4.3-4.9-5.5-8c-0.9-2.5-2.1-4.8-3-7.3c-0.8-2.2-1.4-4.6-2-6.9c-0.4-1.5-0.7-2.9-1-4.5
			c-0.5,0-0.8,0-1.1,0.1c-2.4,0.5-3.9-0.2-5.1-2.4c-1.8-3.6-2.6-7.5-3.3-11.5c-0.1-0.4-0.1-1.1,0.2-1.4c1-1.1,0.5-2.2,0.3-3.4
			c-0.3-1.8-0.5-3.6-0.6-5.4c-0.1-1.4,0.9-2.4,1.9-3.2c0.8-0.6,1.7-0.5,2.4,0.2c2.4,2,4.9,3.9,5.3,7.4c0.3,2.9,2,4.9,4,6.8
			C255,511.7,255.8,512.9,256.8,514.1z M247.1,519.7c0.8-0.4,1.1-0.5,1.3-0.7c2-1.2,2.9-1,4,1c0.5,1,1,2,1.2,3.1
			c0.8,6.5,3.6,12.4,6,18.4c0.6,1.6,1.4,3.3,3.2,4.7c0-9.5-3-18.1-5.2-26.6c-1.2-0.7-2.5-1.4-3.1-2.4c-1-1.9-2.4-3.3-3.9-4.8
			c-2.1-2.2-4.1-4.5-4.2-7.8c0-0.7-0.3-1.4-0.7-2c-0.2-0.3-0.8-0.4-1.8-0.9c0.5,1.9,0.8,3.3,1.3,4.6c0.5,1.4,0.6,2.9,0,4.2
			C243.7,514.1,246,516.6,247.1,519.7z"/>
		<path d="M111.3,548.1c0.3,2.4,0.8,4.5,1.7,6.5c0.9,1.9,1.8,3.8,2.6,5.7c0.4,0.9,0.9,2-0.1,2.9c-0.9,0.8-2,0.8-3.3,0
			c-3.7-2.2-6.5-5.2-8.2-9.1c-2.2-5.1-3.9-10.5-4.2-16.1c-0.1-1-0.1-2.1-0.4-3.1c-1-3.1-0.3-6,0.5-8.9c0.6-2.2,2.2-3.2,4.1-4
			c0.9-0.4,1.6,0.1,2.1,0.7c1,1.7,2.7,2.3,4.3,3.2c2.6,1.5,5,3.3,5.5,6.8c0.3,2.2,1.4,4.4,2.5,6.4c2.8,5.7,6.1,11.2,8.2,17.2
			c0.3,0.9,0.5,1.8,0.7,2.8c0.2,1.7-0.4,2.4-2.1,2.5c-3.4,0.3-5.8-1.1-7.2-4.3c-0.6-1.4-1.1-2.8-1.6-4.3
			C115.3,550.3,114.6,549.6,111.3,548.1z M118,547.6c0.1-0.1,0.2-0.1,0.2-0.2c-0.2-0.4-0.4-0.8-0.6-1.2c-2.4-4.2-4.5-8.6-5.8-13.3
			c-0.3-0.9-1.3-1.8-2.1-2.5c-1.7-1.3-3.5-2.4-5.3-3.7c-0.9-0.6-1.6-0.5-1.9,0.4c-0.5,1.6-1.3,3.2-0.8,5.1c0.4,1.5,0.6,3.1,0.8,4.7
			c0.6,5,1.7,9.9,3.6,14.6c0.9,2,2,3.9,3.8,5.2c-0.5-2-1.2-3.9-1.9-5.9c-0.7-1.8-0.8-3.7-0.4-5.7c0.5-2.1,1.5-2.8,3.4-2
			c1.7,0.7,3.3,1.8,5,2.8C116.8,546.4,117.3,547,118,547.6z M121.8,556.3c0.2-0.1,0.4-0.2,0.6-0.3c-0.7-1.5-1.4-3-2-4.5
			C120,553.5,120.4,555.2,121.8,556.3z"/>
		<path d="M189.3,538.6c0.4,0.2,0.9,0.4,1.3,0.6c0.4,0.3,0.6,0.7,0.9,1c3.1-1.3,3.8-0.6,6.1,1.6c1.6,1.6,2.4,3.4,2.9,5.6
			c1.3,5.9,2.8,11.8,4.2,17.7c1,4.3,2.1,8.5,2,13c0,1.4,0.2,2.7,0.2,4.1c0.1,2-1.2,2.9-3.1,2.1c-0.8-0.3-1.6-0.9-2.1-1.5
			c-1.6-2.1-3.5-4.1-4.5-6.4c-2.2-5.1-4.2-10.4-5.9-15.6c-0.9-2.6-1-5.5-1.5-8.2c-0.6-3.4-1.1-6.8-1.6-10.1
			C187.8,541.1,187.6,539.7,189.3,538.6z M201.8,577.2c0.2-0.1,0.4-0.1,0.6-0.2c-0.1-1.5-0.1-3.1-0.4-4.6c-0.6-3-1.5-5.8-2.2-8.8
			c-1.3-5.4-2.4-10.9-3.7-16.3c-0.3-1.1-1.1-2.1-1.8-3c-0.2-0.3-0.9-0.4-1.3-0.3c-0.3,0.1-0.6,0.7-0.7,1.1c-0.1,0.4,0,0.8,0.1,1.2
			c0.4,2.6,0.8,5.2,1.2,7.8c0.3,2,0.5,4.2,1.2,6.1c1.6,4.8,3.5,9.4,5.3,14.1C200.5,575.3,201.2,576.2,201.8,577.2z"/>
		<path d="M468.8,99.9c-0.9,0-1.7,0.1-2.5,0.1c-1.7-0.1-2.6-1.2-2.3-2.8c0.1-0.7,0.4-1.4,0.5-2.1c0.2-0.9,0.4-1.8-0.3-2.7
			c-0.7-1-0.5-2.1,0.2-3.1c1.8-2.3,3.7-4.6,5.4-7c1.9-2.7,4.7-4.3,7.3-6.2c3.9-2.8,8.5-4.1,12.8-5.9c1.2-0.5,2.5-0.5,3.7-0.8
			c1.1-0.2,2,0.2,2.6,1.2c0.6,1,0.6,2.1-0.1,2.9c-1.3,1.5-2.5,3.1-4,4.5c-3.2,2.9-6.4,5.7-10.3,7.8c-1.1,0.6-2,1.5-3,2.3
			c-0.9,0.7-0.9,1.6-0.9,2.6c0.1,6.5-2.6,9.2-9,9.1C468.8,99.9,468.7,99.9,468.8,99.9z M468.4,96.9c3.9,0.4,6.4-2,5.8-5.7
			c-0.4-2.7,0.6-4.7,2.6-6.2c2-1.5,4-2.9,6-4.3c2.1-1.5,4.3-2.8,6.2-5.4c-2.5,1-4.5,1.8-6.4,2.6c-6,2.6-10.1,7.3-14,12.3
			c-0.3,0.4-0.5,1.1-0.3,1.5C469.3,93.3,469,95,468.4,96.9z"/>
		<path d="M491.8,27.1c1.3,0.4,2.5,0.6,3.4,1c1.9,0.9,2.4,2.6,1.3,4.4c-0.6,1-1.5,1.9-2.4,2.6c-5.5,4.4-11.2,8.7-17.4,12.2
			c-1.3,0.7-2.7,1.6-3.6,2.7c-1.3,1.6-3.1,2.4-4.9,3.2c-1.9,0.9-3.6,0.2-4.7-1.7c-1.5-2.5-1.3-4.6,0.4-7.2
			c4.3-6.8,11-10.2,17.8-13.5c1.8-0.9,3.6-1.8,5.4-2.5C488.7,27.7,490.3,27.4,491.8,27.1z M492.1,31.8c-0.1-0.2-0.2-0.4-0.3-0.6
			c-1.7,0.1-3.2,0.6-4.7,1.4c-2.7,1.5-5.5,2.9-8.3,4.3c-4.5,2.4-8.7,5.1-11.6,9.4c-1.3,2-1.3,2.2,0.2,4.4c1.5-2.4,3.5-4.3,5.8-5.9
			c4.5-3,9-6,13.5-9.1C488.6,34.5,490.4,33.2,492.1,31.8z"/>
		<path d="M520,100.8c1.7-0.1,2.9,0.5,3.4,1.7c0.6,1.4,0.3,2.8-0.9,3.7c-2,1.4-4,2.8-6.2,3.9c-4.1,2-8.2,3.8-12.4,5.6
			c-2.6,1.1-5,2.6-7.1,4.3c-0.7,0.6-1.4,1.1-2.1,1.5c-0.9,0.6-2,0.7-2.9,0.1c-0.3-0.2-0.6-0.6-1-0.6c-0.9-0.2-2.2,0.2-2.3-1.1
			c-0.2-1.8-1.1-3.5,0.2-5.3c4-5.3,9-9,15.6-10.7c4.7-1.2,9.4-2.4,14.3-2.9C518.9,100.9,519.5,100.8,520,100.8z M516.8,105.5
			c-0.1-0.2-0.1-0.4-0.2-0.6c-4.8,0.3-9.3,2-13.8,3.6c-4.1,1.4-7.5,3.8-10.2,7.2c-0.7,0.9-1.3,1.8-0.5,3.1c0.6-0.4,1.1-0.6,1.6-1
			c3.9-3.6,8.6-5.7,13.5-7.6C510.5,109,513.6,107.1,516.8,105.5z"/>
		<path d="M141.6,495.3c0.5,5,1,10,1.4,15c0.2,2.9,0.3,5.7,0.4,8.6c0,0.1,0,0.2,0,0.2c-0.2,1.6-0.9,2.7-1.8,2.8
			c-1.4,0.2-2.1-0.8-2.6-1.7c-2.9-5.2-5.7-10.4-6.7-16.5c-1.1-6.5-0.7-12.9-0.3-19.3c0.1-1.9,1.7-2.1,2.9-2.8c1-0.6,1.8,0,2.5,0.7
			c3.4,2.9,4.4,6.8,4.5,11.1c0,0.6-0.1,1.3-0.2,1.9C141.8,495.3,141.7,495.3,141.6,495.3z M135.8,486.5c-0.2,0.7-0.3,1-0.4,1.4
			c-0.6,4-0.7,8.1-0.1,12.2c0.6,3.9,1.3,7.7,3,11.3c0.2,0.5,0.6,0.9,1,1.3c0.2-0.1,0.3-0.1,0.5-0.2c-0.1-1-0.2-2-0.3-3
			c-0.7-5.2-1.6-10.4-1.4-15.7C138.1,491.2,137.3,488.9,135.8,486.5z"/>
		<path d="M381.2,39.9c-1.3-0.5-2.7-0.9-4-1.6c-1.1-0.6-1.1-2.4,0-3.6c2.7-2.7,5.3-5.6,8.3-7.9c3-2.2,6-4.5,9.7-5.6
			c1.4-0.4,2.6-1.3,3.9-1.9c1.4-0.7,2.9-0.9,4.4-0.1c1.4,0.8,1.7,1.6,0.9,2.9c-0.7,1.1-1.6,2.2-2.7,3c-2.7,2.2-5.4,4.2-8.1,6.3
			c-2,1.6-3.9,3.2-5.9,4.8c-1.4,1.1-2.8,2.1-4.2,3.1C382.8,39.6,382.1,39.7,381.2,39.9z M396.5,24.2c-0.1-0.1-0.2-0.3-0.4-0.4
			c-3.5,1.1-6.2,3.2-8,6.5C391,28.3,393.8,26.2,396.5,24.2z M384.1,33.3c0.1,0.1,0.2,0.2,0.3,0.3c0.3-0.3,0.6-0.6,0.8-0.9
			c0,0-0.1-0.1-0.1-0.1C384.8,32.8,384.5,33.1,384.1,33.3z"/>
		<path d="M204.3,595.1c1-0.6,1.6-1.1,2.3-1.5c2-1.3,4.4-0.5,5.2,1.8c1.9,4.9,3.7,9.8,5.6,14.7c0.4,1,0.7,2.1,0.9,3.2
			c0.2,1.1-0.3,1.8-1.4,2.1c-2.1,0.7-4.9-0.4-6.3-2.8c-2.7-4.5-5.2-9.1-6-14.5C204.5,597.2,204.4,596.1,204.3,595.1z M209.5,601
			c-0.1-0.6-0.2-1.3-0.4-1.9c-0.2,0.1-0.3,0.1-0.5,0.2C208.9,599.8,209.2,600.4,209.5,601c0.1,2.5,1.3,4.5,2.5,6.5
			c0.2-0.1,0.4-0.2,0.5-0.2C211.5,605.2,210.5,603.1,209.5,601z"/>
		<path d="M45,478.4c0.1-2.9,0.3-5.7,0.4-8.6c0.1-1.8,0.6-3.2,2.7-3.1c0.3,0,0.6-0.2,0.9-0.4c1.9-1,3.8,0.1,3.5,2.3
			c-0.5,4.2,0,8.3,0.2,12.4c0.1,2.1,0.4,4.3,0.6,6.4c0.1,1.2,0.4,2.6-1.1,3.4c-1,0.5-1.9,0-3.1-1.6C46.7,486,45.1,482.5,45,478.4z
			 M48.6,475.9C48.6,475.9,48.6,475.9,48.6,475.9c-0.1,0.8-0.1,1.5-0.1,2.3c0.1,0,0.2,0,0.3,0C48.8,477.4,48.7,476.7,48.6,475.9z"/>
		<path d="M277.2,573c0.2,1.8-1.1,3-3,2.9c-0.8-0.1-1.8-0.3-2.5-0.7c-1.8-1.1-3.2-2.6-4-4.6c-1-2.8-1.8-5.6-2.7-8.4
			c-0.4-1.3-0.7-2.5,1-3.2c0.3-0.1,0.3-0.8,0.5-1.2c0.5-1.2,2.1-1.7,2.9-0.6C273.3,561.8,276.7,566.8,277.2,573z M272.7,571
			c-0.2-2.6-0.7-5.1-2.9-7.5C270.4,567.1,271.3,569.4,272.7,571z"/>
		<path d="M126.1,595.1c0,2-0.2,2.1-2,2.5c-2.4,0.5-5-1.2-5.9-3.5c-1.3-3.2-2.2-6.5-3.1-9.8c-0.2-0.9,0-2.3,0.6-2.9
			c0.8-0.8,2.1-1.3,3.3-1.7c0.4-0.1,1.1,0.3,1.5,0.6c0.5,0.4,0.9,0.9,1.2,1.5C124,586,125.8,590.4,126.1,595.1z M122.3,593.6
			c-0.2-3.9-1.9-7.2-3.7-10.5C119,586.9,119.8,590.6,122.3,593.6z"/>
		<path d="M534,93.8c2.8,0.1,4.1,1.4,4.2,3.5c0.1,1.8-1.4,3.9-3.4,4.7c-2.3,1-4.3,0.6-5.6-1c-1.8-2.1-1.5-3.9,0.8-5.3
			C531.5,94.9,533.1,94.3,534,93.8z"/>
		<path d="M343.6,25.4c-0.5-1.7,1-2.3,1.9-3c0.8-0.6,2-1,3-1.1c1.3-0.1,2.1,1.6,1.3,2.6c-1,1.2-2.2,2.3-3.4,3.3
			c-1,0.8-2.2,1.5-3.6,2.4c-0.2-1.5-0.3-2.9-0.5-4.6C342.9,25.2,343.2,25.3,343.6,25.4z"/>
	</g>
</g>
<g id="transSwipeFill">
	<path class="st0" d="M335.1,33.5c-1,1.3-1.7,2.2-2.3,3.1c-0.7,1-1.5,2.1-2.1,3.2c-1.3,2.6-0.7,4.6,2,5.6c3.1,1.2,6.4,2,9.6,2.7
		c4.3,1,8.6-0.2,12.8-0.7c6.1-0.6,12.2-1.5,18.3-2.1c2.7-0.3,5.2,0.1,7.5,1.7c1.1,0.8,1.8,1.8,1.7,3.2c0,0.7-0.1,1.4,0,2.2
		c0.2,2.1,1,3.7,3.2,4.3c1.6,0.4,3.3,0.6,4.9,0.8c0.9,0.1,1.7,0,3.2,0c-0.8,1-1.2,1.6-1.6,2.2c-1.2,1.5-2.3,3-2.3,5.1
		c0,1.6,0.5,2.7,1.9,3.5c3,1.7,6.3,2.3,9.7,2.4c5.9,0.1,11.6-1.1,17-3.5c9.8-4.3,19.9-8,30.1-11.1c2-0.6,4-1.2,6.1-0.4
		c0.4,0.2,0.9,0.3,1.3,0.6c1.4,0.9,1.8,1.9,0.7,3.2c-1.2,1.6-2.6,3-4.1,4.3c-4.6,3.8-8.5,8.3-11.5,13.4c-0.8,1.4-1.1,3.3-1.3,5
		c-0.3,2.3,0.7,3.4,3,3.9c2.1,0.4,4.3,0.6,6.4,0.8c0.6,0.1,1.1,0.1,1.7,0.1c2.1,0.2,2.4,0.5,2.2,2.5c-0.6,5,1.3,9.3,4.2,13.1
		c1.7,2.2,2.4,4.4,2.1,7.1c-0.3,3.2,0.3,4.4,3.3,5.6c2.3,0.9,4.8,1.2,7.2,1.8c0.8,0.2,1.6,0.4,2.8,0.6c-0.6,1-1,1.8-1.6,2.4
		c-0.4,0.6-1,1-1.5,1.6c-0.8,0.9-1.5,1.8-1.1,3c0.3,1.1,1.5,1.1,2.4,1.2c4,0.6,8.1,1.2,12.1,1.8c0.9,0.1,1.8,0.5,3,0.9
		c-0.8,1-1.2,1.9-1.9,2.5c-2.1,1.8-4.2,3.8-6.5,5.2c-6.1,3.6-11.7,7.8-16.5,13c-0.8,0.8-1.5,1.3-2.6,1.4c-0.7,0-1.5,0.5-2.1,0.9
		c-7,5.7-14,11.3-20.9,17.1c-2.7,2.3-5,4.9-7.5,7.4c-3.8,3.8-7.7,7.5-11.3,11.4c-8,8.5-16.1,16.8-23.6,25.8
		c-5.9,7.1-12,13.9-17.7,21.1c-5.5,7-10.5,14.2-15.7,21.4c-2.3,3.2-4.6,6.3-6.7,9.7c-5.7,9.3-11.3,18.7-16.9,28.1
		c-6.3,10.6-12.5,21.4-18.8,32c-3.7,6.2-7.6,12.2-11.2,18.4c-2.6,4.5-4.8,9.2-7,13.9c-2,4.1-4.1,8.3-6,12.5
		c-2.4,5.3-4.7,10.6-7.1,16c-1.4,3.1-2.6,6.2-4.1,9.2c-3.7,7.6-7.1,15.4-9.8,23.4c-2.2,6.6-4.4,13.2-6.2,19.9
		c-1.4,5.6-2.2,11.4-3.2,17.2c-0.2,1.2-0.4,2.4-0.5,3.6c-0.1,1.7-0.1,3.3-0.2,5c0,1.1-0.1,2.2-0.2,3.3c-0.5,3.3-1,6.6-1.4,9.9
		c-0.1,0.9-0.1,1.7-0.1,2.6c0,1.4,0.1,2.9,0.1,4.3c0,1.9-0.1,3.8,0.7,5.6c0.4,0.8,0.5,1.7,0.4,2.6c-0.3,2.9-0.7,5.7-1.1,8.5
		c-0.1,0.5-0.3,0.9-0.6,1.3c-0.6,0.8-1.6,0.8-2.1-0.1c-0.5-0.8-0.9-1.7-1.2-2.6c-0.8-2.4-1.5-4.7-2.1-7.1c-0.5-2-0.9-3.9-2.4-5.3
		c-0.4-0.4-0.6-1.1-0.7-1.7c-0.5-2.4-0.9-4.9-1.4-7.3c-0.1-0.5-0.2-1-0.4-1.4c-0.5-1-1.1-2-2.3-1.8c-0.7,0.1-1.3,1-1.7,1.7
		c-2.1,3.3-3.6,7.1-6.6,9.9c-1.3,1.2-2.6,2.1-4.5,1.1c-1.2-0.6-2,0-2.5,1c-1.5,2.9-2.9,5.8-4.4,8.8c-0.5,1-0.8,2.1-2.4,2.4
		c-0.6-0.8-1.4-1.7-2.1-2.7c-0.4-0.6-0.8-1.2-1-1.9c-1.5-3.7-4.2-5.5-8.3-5.1c-1.9,0.2-2.8-0.6-3.4-2.2c-0.5-1.5-1.1-3-1.8-4.4
		c-1.7-3.5-3.9-4.2-7.1-2.2c-1.3,0.8-2.7,1.5-3.8,2.4c-2.2,1.8-3.2,4.4-3.8,7.1c-2.3,9.7-3.7,19.4-4.5,29.3
		c-0.1,1.3-0.1,2.7-1.3,3.9c-0.5-0.2-1.2-0.3-1.7-0.6c-7.4-4.5-13.8-10.1-18-17.8c-2.7-4.9-4.5-10-5.5-15.5
		c-0.8-4.2-1.5-8.5-2.4-12.7c-0.3-1.3-0.8-2.6-1.4-3.8c-0.8-1.7-2-3.1-4.1-3.3c-1.7-0.2-2.8-1.4-4-2.4c-1.4-1.2-2.7-2.5-4.2-3.5
		c-3-2-5.6-1.8-8.2,0.7c-1.7,1.6-3.2,3.3-4.8,5c-0.5,0.6-1.1,1.1-1.9,1.9c-0.6-0.8-1.1-1.4-1.4-2c-0.5-1.1-0.9-2.2-1.5-3.3
		c-2-3.6-4.8-3.8-7.3-0.6c-0.4,0.6-0.8,1.2-1.2,1.8c-0.3,0.4-0.8,0.7-1.3,1.3c-0.4-0.7-0.8-1.1-1.1-1.7c-0.6-1.4-1.1-2.8-1.7-4.2
		c-0.4-0.8-0.8-1.6-1.3-2.3c-1.6-2-3.3-2.1-5.1-0.2c-0.9,1-1.7,2.1-2.3,3.3c-3.8,7.5-5.8,15.5-6.1,23.9c-0.1,3.7-0.8,7.3-1.1,11
		c-0.3,3.6-0.5,7.2-0.7,10.7c0,0.5-0.1,1.1-0.2,1.7c-1.7,0.3-2.6-0.8-3.6-1.7c-1.1-1-2.1-2.2-3-3.4c-4.8-6.5-9-13.3-12.8-20.5
		c-2.1-4-3-8.2-3.5-12.6c-0.3-2.5-0.5-4.9-0.9-7.4c-0.3-1.6-0.9-3.1-1.4-4.6c-0.5-1.2-1.3-2-2.7-2c-1.4,0-2.1-0.8-2.7-2
		c-0.7-1.7-1.6-3.3-2.4-5c-0.3-0.6-0.6-1.1-0.9-1.7c-2.6-3.9-6.5-4.3-9.8-0.8c-1.1,1.2-2.1,2.4-3.1,3.6c-0.7,0.8-1.5,1.6-2.5,2.7
		c-0.7-1-1.4-1.7-1.7-2.6c-0.9-2.1-1.8-4.3-2.4-6.5c-1.6-5.9-2.8-11.8-4.5-17.6c-0.8-2.9-0.9-5.8-1-8.8c-0.1-4.9-0.1-9.9,0.2-14.8
		c0.3-6.1,0.8-12.3,1.4-18.4c1.6-15.6,4.9-30.9,8-46.3c1-5,2.1-10,3.3-15c1.9-8.7,5.3-16.9,8.7-25.1c3.1-7.3,5.9-14.7,9-22
		c1.9-4.4,3.9-8.8,6-13.1c3.3-6.8,6.6-13.5,10-20.2c3.4-6.6,6.8-13.2,10.4-19.7c3.8-7,7.7-14,11.8-20.8c2.4-4,5.1-7.7,7.8-11.5
		c5.4-7.8,10.7-15.6,16.2-23.2c5.3-7.3,10.7-14.6,16.2-21.7c3.3-4.3,7-8.3,10.5-12.5c4.9-5.7,9.8-11.4,14.8-17
		c4.4-4.8,9.1-9.4,13.6-14.2c2.8-2.9,5.6-6,8.4-8.9c5.3-5.6,10.6-11.1,15.8-16.7c2.4-2.6,4.6-5.3,7-7.9c1.3-1.4,2.8-2.6,4.2-3.9
		c0.6-0.5,1.2-1,1.7-1.7c1.9-2.6,3.9-5.2,5.7-7.8c0.4-0.6,0.8-1.5,0.8-2.2c0-3.4,1.9-5.9,3.9-8.2c1.7-1.9,3-4.1,4.2-6.4
		c0.9-1.8,1.9-3.5,3.1-5.1c0.6-0.9,1.6-1.6,2.5-2.1c2.2-1.1,3.4-0.8,5,1.2c0.2,0.2,0.4,0.5,0.6,0.8c1.5,2.2,3.7,3.2,6.3,3.3
		c2.9,0.1,5.7-0.5,8.4-1.5c2.2-0.9,3.8-2.6,5.2-4.5c1-1.4,2.1-2.8,3.4-4c0.6-0.6,1.6-1.1,2.5-1.2c4.1-0.4,8.3-0.7,12.4-1
		c2.8-0.2,5.3,0.9,7.7,2.2c1.1,0.6,1.6,1.5,1.2,2.8c-0.5,1.4-0.9,2.7-1.5,4c-0.4,0.9-0.7,2,0.2,2.6c0.8,0.5,2,0.7,2.9,0.5
		c1.1-0.2,2.2-1,3.2-1.6c1.2-0.6,2.3-1.4,3.5-2c2-0.9,4-1,6.1-0.1c2.6,1.1,5.1,1.1,7.7,0.1c4.1-1.6,8.4-2.6,12.8-3
		C333.6,33.6,334,33.5,335.1,33.5z"/>
	<path class="st0" d="M247.1,519.7c-1.1-3.1-3.4-5.6-1.9-9.1c0.6-1.3,0.5-2.8,0-4.2c-0.5-1.3-0.8-2.7-1.3-4.6c1,0.5,1.6,0.5,1.8,0.9
		c0.4,0.6,0.7,1.3,0.7,2c0.1,3.3,2,5.6,4.2,7.8c1.5,1.5,2.9,2.9,3.9,4.8c0.6,1.1,1.9,1.7,3.1,2.4c2.3,8.5,5.2,17.1,5.2,26.6
		c-1.8-1.4-2.6-3.1-3.2-4.7c-2.4-6-5.2-11.9-6-18.4c-0.1-1.1-0.6-2.1-1.2-3.1c-1.1-2-2-2.2-4-1C248.2,519.2,247.9,519.3,247.1,519.7
		z"/>
	<path class="st0" d="M118,547.6c-0.6-0.5-1.2-1.2-1.9-1.6c-1.6-1-3.2-2.1-5-2.8c-2-0.8-2.9-0.1-3.4,2c-0.5,1.9-0.3,3.8,0.4,5.7
		c0.7,1.9,1.4,3.9,1.9,5.9c-1.9-1.3-3-3.2-3.8-5.2c-2-4.7-3-9.6-3.6-14.6c-0.2-1.6-0.4-3.2-0.8-4.7c-0.4-1.8,0.3-3.4,0.8-5.1
		c0.3-0.9,1.1-1,1.9-0.4c1.8,1.2,3.6,2.3,5.3,3.7c0.8,0.7,1.8,1.5,2.1,2.5c1.3,4.7,3.4,9.1,5.8,13.3c0.2,0.4,0.4,0.8,0.6,1.2
		C118.1,547.4,118.1,547.5,118,547.6z"/>
	<path class="st0" d="M121.8,556.3c-1.5-1.2-1.8-2.8-1.5-4.7c0.7,1.5,1.4,3,2,4.5C122.2,556.2,122,556.2,121.8,556.3z"/>
	<path class="st0" d="M201.8,577.2c-0.6-1-1.3-1.9-1.7-2.9c-1.8-4.7-3.7-9.4-5.3-14.1c-0.7-1.9-0.8-4.1-1.2-6.1
		c-0.4-2.6-0.8-5.2-1.2-7.8c-0.1-0.4-0.2-0.8-0.1-1.2c0.1-0.4,0.4-0.9,0.7-1.1c0.3-0.1,1.1,0,1.3,0.3c0.7,0.9,1.5,1.9,1.8,3
		c1.3,5.4,2.4,10.9,3.7,16.3c0.7,2.9,1.6,5.8,2.2,8.8c0.3,1.5,0.3,3.1,0.4,4.6C202.2,577.1,202,577.2,201.8,577.2z"/>
	<path class="st0" d="M468.4,96.9c0.6-1.9,0.9-3.6,0-5.3c-0.2-0.4,0-1.1,0.3-1.5c3.9-4.9,8.1-9.7,14-12.3c1.9-0.9,3.9-1.6,6.4-2.6
		c-1.9,2.5-4.1,3.9-6.2,5.4c-2,1.4-4.1,2.8-6,4.3c-2,1.6-3,3.5-2.6,6.2C474.8,94.8,472.3,97.3,468.4,96.9z"/>
	<path class="st0" d="M492.1,31.8c-1.8,1.3-3.5,2.7-5.3,3.9c-4.5,3.1-9,6.1-13.5,9.1c-2.3,1.6-4.3,3.5-5.8,5.9
		c-1.6-2.2-1.6-2.4-0.2-4.4c2.9-4.3,7.1-7,11.6-9.4c2.8-1.4,5.5-2.8,8.3-4.3c1.5-0.8,3-1.3,4.7-1.4C491.9,31.4,492,31.6,492.1,31.8z
		"/>
	<path class="st0" d="M516.8,105.5c-3.2,1.6-6.3,3.4-9.6,4.7c-4.9,1.9-9.6,4-13.5,7.6c-0.5,0.4-1,0.7-1.6,1
		c-0.8-1.3-0.3-2.2,0.5-3.1c2.7-3.4,6.1-5.8,10.2-7.2c4.5-1.5,9-3.3,13.8-3.6C516.7,105.2,516.8,105.3,516.8,105.5z"/>
	<path class="st0" d="M135.8,486.5c1.5,2.4,2.3,4.8,2.2,7.2c-0.2,5.3,0.7,10.5,1.4,15.7c0.1,1,0.2,2,0.3,3c-0.2,0.1-0.3,0.1-0.5,0.2
		c-0.3-0.4-0.7-0.8-1-1.3c-1.7-3.6-2.4-7.4-3-11.3c-0.6-4-0.4-8.1,0.1-12.2C135.5,487.5,135.6,487.2,135.8,486.5z"/>
	<path class="st0" d="M396.5,24.2c-2.8,2-5.5,4.1-8.3,6.1c1.8-3.3,4.5-5.4,8-6.5C396.3,23.9,396.4,24.1,396.5,24.2z"/>
	<path class="st0" d="M384.1,33.3c0.4-0.2,0.7-0.5,1.1-0.7c0,0,0.1,0.1,0.1,0.1c-0.3,0.3-0.6,0.6-0.8,0.9
		C384.3,33.5,384.2,33.4,384.1,33.3z"/>
	<path class="st0" d="M209.5,601c1,2.1,2,4.2,3.1,6.3c-0.2,0.1-0.4,0.2-0.5,0.2C210.8,605.5,209.6,603.4,209.5,601L209.5,601z"/>
	<path class="st0" d="M209.5,600.9c-0.3-0.6-0.6-1.1-0.9-1.7c0.2-0.1,0.3-0.1,0.5-0.2C209.2,599.7,209.4,600.3,209.5,600.9
		C209.5,601,209.5,600.9,209.5,600.9z"/>
	<path class="st0" d="M48.6,475.9c0.1,0.7,0.1,1.5,0.2,2.2c-0.1,0-0.2,0-0.3,0C48.6,477.4,48.6,476.7,48.6,475.9
		C48.6,475.9,48.6,475.9,48.6,475.9z"/>
	<path class="st0" d="M272.7,571c-1.4-1.6-2.3-3.9-2.9-7.5C272,565.9,272.5,568.4,272.7,571z"/>
	<path class="st0" d="M122.3,593.6c-2.6-3-3.4-6.7-3.7-10.5C120.4,586.4,122.2,589.7,122.3,593.6z"/>
</g>
<g id="letteroutline">
	<path d="M259.4,399.3c1.6-0.9,2.9-1.7,3.7-3.2c0.6-1.1,1.3-2.2,2.1-3.2c4-4.7,6.4-10.5,9.9-15.5c2.4-3.4,5.5-5.8,9.2-7.5
		c3.4-1.5,8.2,0.4,9.9,4.1c1.5,3.2,2.1,6.7,1.3,10.3c-1.6,7.6-5.9,13.7-11.2,19.2c-2.1,2.2-4,4.5-6.1,6.8c-1.2,1.3-1.4,2.7-0.8,4.2
		c0.6,1.6,1.3,3.1,2,4.6c0.6,1.1,1.2,2.2,2,3.3c3.5,4.9,4.8,10.5,6.1,16.2c1,4.1,1.8,8.2,1.6,12.5c-0.1,3.3-3,8.6-5.7,10.4
		c-3.8,2.4-7.9,1.8-10.9-1.8c-0.7-0.9-1.4-1.8-1.9-2.8c-3.5-6.6-6.4-13.6-9.1-20.6c-1.1-3-2.4-5.9-3.7-8.8c-0.8-1.7-1.9-3.3-3.6-4.4
		c-1.5,0.7-1.9,2.1-2.2,3.5c-0.3,1.8-0.6,3.6-0.9,5.4c-0.6,3.5-1.4,7.1-1.8,10.6c-0.5,4.1-1.9,8-3.6,11.6c-1.6,3.5-4.3,6.5-8.5,7.1
		c-3.5,0.5-5.5-0.5-7.2-3.1c-2.2-3.6-2.7-7.6-3-11.7c-0.4-5.9,0.7-11.6,1.4-17.4c0.4-3.3,0.7-6.5,1-9.8c0.2-2.1,0.4-4.3,0.6-6.4
		c0.4-3.5,0.9-7,1.1-10.5c0.5-7.1,1-14.2,1.3-21.3c0.2-4-0.1-8,0-12c0.2-6.3,5.6-10.8,11.8-9.7c1.1,0.2,2.2,0.4,3.2,0.8
		c2.6,1,4.6,2.5,5.4,5.6c0.8,3.1,2.1,6,3.1,9c0.8,2.4,1.2,5,1.1,7.6c-0.1,3.1-0.3,6.2-0.3,9.3C257,394.3,257.7,396.8,259.4,399.3z
		 M231.7,442.1c0.1,0,0.1,0,0.2,0c0,1.2,0,2.4,0,3.6c0.1,3.1,0.6,6.1,1.9,8.8c1.4,2.9,3.4,3.2,5.6,0.9c1.9-1.9,3-4.3,3.7-6.9
		c1.6-5.9,2.6-12,3.5-18.1c0.3-2.4,0.8-4.7,1.4-7.1c0.8-3.3,3.3-5,6.2-6.1c1.2-0.4,2.5-0.3,3.3,0.7c2.2,2.7,4.7,5.3,6,8.6
		c1,2.5,1.7,5.2,2.8,7.6c2.9,6.7,5.1,13.8,8.9,20.1c0.7,1.1,1.6,2.2,2.7,3c1.2,1,2.2,0.9,3.4-0.2c1.7-1.5,2.8-3.4,2.9-5.6
		c0.1-2.3-0.2-4.6-0.4-6.9c-0.2-1.4-0.8-2.8-1-4.2c-0.9-5.9-2.9-11.5-6.4-16.3c-1.8-2.5-2.9-5.3-4.1-8.1c-1.1-2.3-0.8-4.3,0.6-6.3
		c0.3-0.5,0.6-1,0.9-1.4c2.4-2.7,4.6-5.5,7.1-8.1c3.7-3.7,6.4-8.1,8.6-12.9c1.4-3.1,1.5-6.4,1-9.6c-0.5-3.9-4.1-5.4-7.2-3.1
		c-1.5,1.1-2.9,2.5-4,4.1c-1.7,2.5-3.1,5.2-4.7,7.8c-2.7,4.3-5.4,8.7-8.3,12.9c-1.6,2.3-4.1,3.9-6.7,4.9c-2.5,1-4,0-4.3-2.7
		c-0.1-0.8-0.4-1.5-0.7-2.2c-0.5-1.4-1.3-2.8-1.5-4.2c-0.3-3.5-0.5-7-0.3-10.5c0.1-2.7,0-5.3-0.7-7.8c-0.9-2.9-1.9-5.7-2.8-8.6
		c-0.9-3-3-4.6-6-5.3c-3.2-0.8-5.5,0.3-6,3.6c-0.5,3.1-0.4,6.3-0.4,9.5c0,1.7,0.2,3.3,0.2,5c0.1,2.6,0.1,5.3,0,7.9
		c0,0.9-0.1,1.7-0.2,2.6c-0.3,1.6-0.8,3.2-1,4.9c-0.9,10.3-1.7,20.7-2.6,31C233,432.5,232.2,437.3,231.7,442.1z"/>
	<path d="M436.7,300.6c0.4-1.8,1.1-3.6,1.3-5.5c0.4-3.5,0.3-7,0.8-10.5c0.3-2.6,1-5.2,1.8-7.7c1.6-4.9,5-8.2,9.4-10.8
		c2.1-1.2,4.2-0.9,5.9,0.8c4,4,5.8,8.9,6.2,14.4c0.6,9.9-1,19.4-3.9,28.8c-1.2,3.9-1.9,7.9-2.8,11.9c-1.8,8.1-4.4,15.9-7.8,23.4
		c-1.8,3.9-4.9,6.2-9.3,6.7c-1.8,0.2-3.3-0.5-4.7-1.5c-2-1.5-3.5-3.4-4.6-5.8c-2.5-5.3-3.7-10.9-4.9-16.5c-0.9-4.2-1.8-8.4-2.7-12.6
		c-0.3-1.3-0.9-2.5-2.2-3.3c-1.5,0.6-2.2,1.8-2.9,3.1c-2.6,4.5-4.2,9.5-5.8,14.4c-0.9,2.8-1.7,5.7-2.8,8.4c-1.6,4.1-4,7.6-7,10.8
		c-0.4,0.5-1,0.8-1.6,1.1c-3,1.9-5.6,1.5-7.8-1.3c-1.4-1.6-2.3-3.5-2-5.7c0.3-2.6,0.6-5.2,1.1-7.8c2.3-11.3,5.1-22.4,8.4-33.4
		c2.8-9.2,5.2-18.6,7.7-28c0.5-1.9,0.7-3.9,1.1-5.9c0.4-1.9,1.2-3.4,3.5-3.7c1.1-0.1,2.1-1.1,3.1-1.8c3.7-2.6,6.8-2.2,9.7,1.2
		c2.8,3.3,4.4,7,5.3,11.3c1.1,5.2,1,10.5,2.1,15.7c0.7,3.7,2.8,6.7,4.8,9.7C436.2,300.7,436.4,300.7,436.7,300.6z M410.9,273.1
		c-0.1,0.3-0.3,0.6-0.3,0.9c-2.7,10.5-5.1,21.1-8,31.6c-2.1,7.6-4.1,15.3-5.7,23c-0.9,4.2-1.7,8.5-2.4,12.7
		c-0.2,1.2-0.2,2.6,0.3,3.7c0.8,2.1,1.8,2.2,3.3,0.6c2.3-2.5,4.1-5.3,5.2-8.5c1.2-3.5,2.4-7.1,3.5-10.7c1.7-5.3,3.5-10.4,6.3-15.3
		c2-3.5,5.6-4.4,8.9-2c0.8,0.6,1.5,1.4,2.2,2.2c1.8,2.3,2.4,5,3,7.7c1.4,6.4,2.8,12.8,4.3,19.1c0.7,3,2.1,5.7,4.2,8
		c2,2,4.5,1.9,6.2-0.3c0.7-0.9,1.3-1.8,1.8-2.8c3.2-7,5.5-14.3,7.2-21.8c1.1-4.7,1.9-9.4,2.9-14.1c1.2-5.4,2.9-10.7,3.1-16.2
		c0.2-4.5,0.2-9-0.2-13.4c-0.3-3-1.5-5.8-4.2-7.9c-0.7,0.5-1.4,0.8-2.1,1.3c-4.7,3.5-6.8,8.4-6.7,14c0,7.1-1.2,13.8-3.1,20.5
		c-0.5,1.7-1.4,2.6-2.9,2.8c-1.5,0.1-2.3-0.9-3-1.9c-0.8-1.1-1.5-2.3-2.3-3.3c-3.3-4.1-5.6-8.7-6.1-14.1c-0.4-4-1.2-8.1-1.5-12.1
		c-0.4-4-2.3-7.2-4.6-10.3c-1.3-1.7-2.4-1.8-4.1-0.7c-1.6,1-2.4,2.4-2.4,4.4c0,0.9-0.2,1.8-0.4,2.8
		C412.4,272.9,411.7,273,410.9,273.1z"/>
	<path d="M461.2,396.3c0.1,1.2,0.1,2.1,0.3,2.9c0.3,1.2,1,2.2,1.2,3.4c0.7,4.3,3.4,7.5,5.9,10.8c1.8,2.4,3.3,5.1,5.2,7.4
		c2.8,3.4,4.9,7.3,7.2,11c3.3,5.3,3.7,11.1,2.5,17.1c-0.4,2-0.6,4-1.1,5.9c-1.8,6.9-4.5,13.1-10.5,17.7c-6.7,5.1-14.2,7.3-22.4,6.7
		c-5.1-0.4-10.4-0.8-15.3-2.7c-3.3-1.3-6-3.2-8.3-5.9c-2-2.3-3.9-4.6-5.8-7c-1.8-2.3-3-5-3.4-7.8c-0.4-3.2,1-6,3.3-8.2
		c0.7-0.6,1.9-1.1,2.8-1.1c2.6,0.1,5.1,0.6,6.8,3c2.7,3.8,6.2,6.9,10.2,9.3c3.9,2.4,8.1,3.7,12.8,2.5c2.8-0.7,5.2-1.9,6.9-4.3
		c1.9-2.7,3.2-5.7,3-8.9c-0.6-9.1-2.4-17.9-7-25.9c-2.2-3.8-4.8-7.3-7.4-10.8c-3.4-4.6-6.3-9.5-6.7-15.4c-0.5-7.6,2.7-13.8,8.1-18.9
		c1.8-1.7,4.3-1.8,6.5-2c6.7-0.7,12.6,1.2,17.7,5.6c2.2,1.9,4.4,3.7,6.5,5.6c2.3,2.1,3.8,4.7,5.2,7.4c1.1,2,0.8,4.2,0,6.3
		c-1.2,3.1-2.5,6-5.7,7.6c-2.3,1.1-4.4,1-6.6-0.1c-3-1.5-5-3.9-6.5-6.8c-0.8-1.7-2.1-3-3.8-3.9C462.5,396.5,462.1,396.5,461.2,396.3
		z M467.2,446.2c0.2,4.2-0.3,7.2-1.7,10c-1.6,3.4-3.8,6.4-7.4,7.9c-2.4,1-5.1,1.4-7.7,1.8c-2.8,0.5-5.4-0.6-7.9-1.4
		c-5.4-1.8-10-4.8-13.7-9.2c-0.9-1.1-1.9-2.2-3-3.1c-1.9-1.6-4.2-0.8-4.7,1.7c-0.1,0.8-0.1,1.7,0.1,2.4c0.6,1.5,1.2,3.2,2.2,4.5
		c2,2.6,4.3,5,6.4,7.4c1.7,1.9,3.7,3.3,6.1,4.1c4.8,1.4,9.6,2.4,14.6,2.6c5.6,0.2,10.8-1.6,15.5-4.4c3.7-2.3,7-5.3,8.7-9.6
		c1.6-4,2.7-8.2,3.5-12.4c0.7-4,0.9-8-1-11.7c-1.1-2.1-2.2-4.3-3.4-6.3c-1.9-3-3.9-5.8-5.9-8.7c-2.2-3.3-4.5-6.6-6.6-9.9
		c-0.6-1-1.2-2.1-1.5-3.2c-1-3.4-1.9-6.7-2.8-10.1c-1-4,2.4-7.1,6.5-6.1c2.7,0.7,4.6,2.2,6,4.4c0.6,1,1.2,1.9,1.8,2.9
		c1,1.5,2.2,2.7,3.9,3.4c1.1,0.5,2,0.4,3-0.1c2.1-1.2,3.3-4.8,2.2-6.9c-0.7-1.4-1.5-2.8-2.4-4.1c-1.9-3.1-3.8-6-6.9-8.1
		c-3.8-2.5-7.7-4.6-12.3-4.8c-4.4-0.2-8,1.1-10.2,5.2c-0.8,1.4-1.6,2.8-2.2,4.2c-1.8,3.8-1.8,7.8-0.1,11.6c0.8,2,1.9,3.9,3.1,5.6
		c1.7,2.5,3.5,4.9,5.4,7.3C462.9,422.9,466.1,434.7,467.2,446.2z"/>
	<path d="M195.4,236.8c4.9,0.3,9.9,0.6,14.8,0.8c4.5,0.2,8.9,0.2,13.4,0.5c9.2,0.8,18.4,1.7,27.7,2.7c3.7,0.4,7.5,0.8,11.1,1.6
		c5,1,9.9,2.5,14.5,4.8c3.5,1.7,5.9,4.3,6,8.7c0.1,4.2-0.5,8.3-1.9,12.2c-0.9,2.6-2.4,4.7-4.9,6c-1.2,0.6-2.7,1.2-4.1,1.2
		c-6.2,0-12.5,0.2-18.7-0.7c-1.4-0.2-2.9-0.2-4.3-0.2c-2.2-0.1-3.9,1-4.9,2.8c-1.2,2.2-2.2,4.4-3,6.8c-1.8,5.7-3.4,11.5-5,17.2
		c-0.8,2.6-1.3,5.3-2.3,7.8c-2.5,6.3-4.8,12.7-7.8,18.8c-2.3,4.8-6.4,8-11.9,8.7c-2.1,0.3-4.5-0.1-6.6-0.7c-3.8-1.1-4.5-4.6-5.2-7.9
		c-0.6-3.2-0.4-6.4,0.4-9.5c1.2-4.2,2.3-8.5,3.6-12.7c2-6.5,4.8-12.7,7.9-18.7c2.5-4.8,4-9.9,5.1-15.2c0.3-1.6,0.3-3.2-0.3-4.7
		c-0.9-2.1-2.3-3.4-4.6-3.7c-1.3-0.2-2.6-0.3-3.8-0.2c-3.6,0.4-7.1,0.9-10.7,1.3c-1.9,0.2-3.8,0.3-5.7,0.5c-2.9,0.3-5.7,0.7-8.6,1
		c-3.1,0.3-6.1,0.4-8.9-1.1c-2.3-1.1-3.5-2.9-3.9-5.4c-0.5-3.6,0.6-7,2.1-10.2c1-2.2,1.9-4.6,3.3-6.6c2.1-2.9,4.3-6,8.7-5.6
		c2.7,0.2,5.4,0,8.1,0C195.4,237.1,195.4,236.9,195.4,236.8z M265.7,271c0,0,0-0.1,0-0.1c1.8,0,3.5,0.1,5.3,0
		c3.2-0.2,5.1-1.8,6.2-4.7c1.1-2.8,1-5.8,1.2-8.7c0.2-2.8-1.1-4.7-3.4-6.1c-0.9-0.5-1.8-1-2.8-1.4c-7-2.8-14.3-4.4-21.9-5.1
		c-12.9-1.1-25.8-2.6-38.7-2.9c-3.4-0.1-6.8-0.7-10.3-0.7c-4.9,0-9.7,0.1-14.6,0.4c-1.7,0.1-3.2,0.8-4.1,2.5c-1,1.7-2.1,3.4-3.2,5
		c-1.7,2.6-2.7,5.4-2.9,8.5c-0.1,1.8,0.6,3.1,2.3,3.8c1.8,0.8,3.6,1.1,5.6,0.8c7.3-1.1,14.7-2.1,22.1-3c2.9-0.4,5.9-0.4,8.8-0.5
		c2.2,0,4.1,0.9,5.7,2.6c2.3,2.4,3.2,5.3,2.9,8.6c-0.6,6.2-2.1,12.1-5.2,17.6c-0.8,1.4-1.6,2.8-2.1,4.3c-2,5.2-4.2,10.4-5.9,15.7
		c-1.6,4.6-2.9,9.3-3.9,14.1c-0.5,2.1-0.3,4.5,0.1,6.6c0.7,4,5,6.1,8.7,4.3c3.1-1.5,5.6-3.6,7-6.9c1.5-3.5,3.1-7,4.5-10.6
		c1.2-3.1,2.3-6.3,3.4-9.5c0.8-2.3,1.4-4.6,2-6.9c1.3-4.6,2.7-9.2,3.9-13.8c1.1-4.3,2.5-8.2,5.6-11.7c2.6-2.9,5.6-3.5,9-3.3
		C255.9,270,260.8,270.6,265.7,271z"/>
	<path d="M296.2,302.6c-0.8,0.7-1.7,1.2-2.2,1.9c-3.5,4.9-6.2,10.2-8.2,15.9c-1.3,3.6-2.6,7.2-4.3,10.7c-2.3,4.8-5.8,8.6-10.2,11.5
		c-2.1,1.4-4.4,1.6-6.7,1c-2.4-0.6-4-2.1-4.4-4.7c-0.9-4.8-0.1-9.4,1.3-13.9c0.6-1.9,1.2-3.8,2.1-5.6c2-4.4,4.2-8.8,6.3-13.2
		c1.2-2.6,2.4-5.2,3.5-7.9c0.8-1.8,1.4-3.8,2.5-5.4c3.2-5.2,5.2-10.7,7.1-16.4c1.4-4.2,3.3-8.1,5.1-12.2c0.5-1.1,1-2.2,1.5-3.2
		c0.3-0.6,0.5-1.2,0.9-1.6c2.1-2.1,3.5-4.6,4.7-7.4c0.9-1.9,2.6-3.4,4.1-4.8c2.7-2.6,6.1-2.5,9.4-2.2c3.9,0.4,7.8,0.9,11.5,1.9
		c5.7,1.6,11.4,3.4,15.7,7.8c1,1,1.9,2.2,2.7,3.3c2.4,3.1,4.4,6.4,5.1,10.4c0.3,1.9,0.5,3.8-0.4,5.6c-0.5,1.1-1,2.2-1.4,3.3
		c-2,6.1-6.6,9.6-11.9,12.4c-1.4,0.7-2.9,1.3-4.4,1.9c-3.6,1.5-5.2,3.8-5.2,7.7c0,1.8,0,3.6,0.5,5.2c1.2,3.9,0.9,7.9,1.6,11.8
		c1.2,6.7,0.4,13.4-0.3,20c-0.4,3.9-1.8,7.6-3.8,11c-1.2,2-3,3.3-5.3,3.9c-1.9,0.5-3.7,0.2-5.2-1.1c-2-1.7-3.4-3.9-4.6-6.3
		c-2.7-5.4-2.5-11.1-3-16.8c-0.4-5.4-0.6-10.8-0.9-16.3c-0.1-2.4-0.8-4.7-2-6.8C297.1,303.6,296.7,303.2,296.2,302.6z M308.2,248.5
		c-6.4-0.1-8.3,1.3-10,5.9c-0.3,0.7-0.7,1.4-1.2,2.1c-1.9,2.7-2.7,6-5.1,8.3c-2.2,4.9-4.4,9.7-5.8,14.9c-0.2,0.8-0.5,1.7-0.9,2.5
		c-3.6,7.9-7.2,15.9-10.8,23.8c-1.9,4.1-4,8.2-5.8,12.3c-1.6,3.7-3.2,7.5-3.7,11.6c-0.3,2.3-0.4,4.6-0.2,6.9c0.1,2,1.4,2.8,3.3,2.3
		c1-0.3,1.9-0.8,2.7-1.4c3.4-2.7,6-6,7.6-10c1-2.4,2-4.9,2.8-7.4c2-6.2,4.8-12,8.4-17.4c0.8-1.3,1.8-2.5,2.8-3.6
		c1.2-1.2,2.6-2.2,4.4-2.2c1.4,0,2.5,0.4,3.2,1.7c1.8,3.2,3.5,6.5,4,10.2c0.2,1.9,0.5,3.8,0.6,5.7c0.4,6.1,0.8,12.3,1.1,18.4
		c0.2,3.9,1.6,7.5,3.3,10.9c0.4,0.8,1,1.5,1.6,2c1.8,1.6,3.4,1.4,4.4-0.8c1-2.2,2.2-4.6,2.5-7c0.9-7.2,2.1-14.4,0.1-21.7
		c-0.2-0.7-0.1-1.4-0.2-2.1c-0.2-1.8-0.5-3.6-0.8-5.4c-0.4-3.5-1.7-6.8-1.2-10.4c0.6-4.5,2.2-8.3,6.8-10.1c1.3-0.5,2.7-1,4-1.7
		c2.1-1.1,4.3-2.2,6.2-3.7c3.8-2.8,5.6-7,6.4-11.4c0.4-2.1,0-4.6-0.8-6.5c-1.7-3.9-4.5-7.1-7.9-9.7c-2.5-1.9-5.4-2.8-8.2-3.9
		C316.8,249.7,311.8,248.9,308.2,248.5z"/>
	<path d="M389.1,308.3c0,1.3,0.1,2.6,0,3.8c-0.3,2.7-0.9,5.3-1.1,8c-0.4,4-0.5,8-0.8,11.9c-0.2,3.1-0.4,6.2-0.8,9.3
		c-0.2,1.5-0.9,3-1.5,4.5c-0.5,1.1-1.1,2.1-1.8,3.1c-0.8,1-1.6,2-2.5,2.8c-3,2.7-7.4,0.9-8.8-1.9c-1.8-3.6-2.6-7.6-3-11.5
		c-0.7-5.9-1.1-11.8-1.8-17.6c-0.2-2-0.8-4.1-1.3-6.1c-0.4-1.5-1-3.2-2.9-3.5c-2-0.3-3.3,1-4.2,2.6c-1.5,2.8-2.8,5.7-4.3,8.6
		c-4,7.9-7.5,16.1-13,23.2c-1.1,1.5-2.5,2.6-4.1,3.6c-2.1,1.3-4.2,1.1-6.2,0.3c-1.7-0.7-2.8-2.2-2.8-4.2c-0.1-4.9-0.1-9.7,2-14.3
		c2.8-6.4,5.5-12.9,8.3-19.4c4.8-11.1,9.6-22.1,13.4-33.6c1.6-4.8,3.2-9.7,5.7-14.2c0.8-1.5,1.7-2.6,3.7-2.4
		c0.8,0.1,1.7-0.4,2.5-0.6c3.1-1.1,6.2-1.7,9.4-0.6c1.8,0.6,3.5,1.5,5,2.7c5.1,4.3,7.4,10.2,9,16.5c1.4,5.7,1.7,11.5,1.9,17.3
		c0.2,3.8,0.4,7.6,0.5,11.5C389.4,308.3,389.3,308.3,389.1,308.3z M360.7,265.8c-0.1-0.1-0.3-0.2-0.4-0.2c-0.3,0.6-0.6,1.1-0.9,1.7
		c-1.1,2.9-2.1,5.9-3.1,8.8c-2.5,7.2-4.8,14.4-7.5,21.5c-2.8,7.4-6,14.6-9.1,21.9c-2,4.9-4.2,9.8-5.9,14.9c-0.9,2.7-1,5.8-1.2,8.7
		c-0.1,1.7,0.8,2.4,2.4,1.9c1-0.3,2.1-1,2.7-1.9c2.2-3.2,4.5-6.4,6.3-9.9c3.6-7,7-14.2,10.5-21.3c2.3-4.6,5.3-6.5,9.9-5.5
		c1.9,0.4,3.2,1.4,3.9,3.2c1.3,3.4,2.4,6.8,2.8,10.4c0.8,6.7,1.5,13.5,2.5,20.2c0.3,2.2,1.1,4.4,2,6.4c0.9,2,2.6,2,3.9,0.2
		c1.3-1.9,2.4-4,2.6-6.4c0.4-4,0.7-7.9,1.1-11.9c0.3-3.3,0.5-6.7,0.8-10c0.2-2.4,0.6-4.8,0.8-7.1c0.5-8.8,0.2-17.6-1-26.3
		c-0.8-6-2.1-11.9-6.3-16.8c-3.9-4.6-8-5.6-13.2-3.5C363.1,265.2,361.9,265.5,360.7,265.8z"/>
	<path d="M439,140.4c8,0.1,16,0.2,23.9,0.4c2.5,0.1,4.9,0.3,7.4,0.6c4,0.5,7.9,1,11.8,1.8c5.4,1,10.7,2.4,15.3,5.4
		c2.6,1.7,4.9,3.8,7.1,5.9c1.7,1.6,3,3.5,3.7,5.8c0.8,2.4,0.7,3-1.2,4.5c-1.9,1.5-4,2.4-6.4,3c-5.7,1.4-10.9,0.4-16.2-1.5
		c-2.5-0.9-4.9-0.5-6.8,1.4c-2.1,2.1-3.5,4.5-4.4,7.3c-1.4,4.3-2.8,8.6-4.3,12.9c-0.2,0.7-0.5,1.3-0.9,2c-2.3,3.9-4.4,7.8-6.9,11.5
		c-2.8,4.3-6.1,8.2-10.2,11.3c-2.6,1.9-5.5,2.7-8.6,2.5c-3.2-0.2-5.1-2-4.2-5.7c1.2-5.1,3.6-9.7,6-14.3c4.4-8.4,8.1-17,11.5-25.8
		c0.8-2,1-4.3,1.1-6.5c0.1-2.2-0.7-2.9-2.9-2.8c-2,0.1-3.9,0.5-5.8,1c-3.9,1.1-7.8,2.5-11.7,3.5c-3,0.8-6.1,0.9-9.2,0
		c-5.4-1.5-7.8-7.4-5.4-12c0.9-1.8,2.4-3.4,2.3-5.7c0-0.3,0.2-0.6,0.4-0.8c2.5-3,5.3-5.5,9.6-5.6c1.7,0,3.3,0,5,0
		C439,140.4,439,140.4,439,140.4z M435.4,145c-2,0-4.2-0.1-5.5,1.8c-1.6,2.2-3,4.5-4.3,6.9c-1.2,2.3-0.1,6,3.4,6.7
		c2.4,0.5,4.8,0.5,7.1-0.2c4.3-1.3,8.7-2.7,13-4.1c2.6-0.8,5.1-1.1,7.8-0.5c2.3,0.6,3.5,1.9,4.1,4.2c0.5,2.3,0.3,4.5-0.3,6.6
		c-1.5,4.7-3,9.4-5,13.9c-3,6.8-6.4,13.4-9.6,20.1c-1.3,2.7-2.5,5.5-3.4,8.4c-0.7,2.2,0.3,3,2.5,2.5c2.4-0.5,4.5-1.7,6.1-3.6
		c2.2-2.6,4.4-5.3,6.3-8.2c2.2-3.5,4.1-7.2,6-10.9c0.9-1.6,1.8-3.3,2.2-5c1.1-4.9,3-9.6,5-14.2c1.1-2.4,2.7-4.6,4.9-6.1
		c3.4-2.3,6.9-3.4,11-1.4c4.1,2,8.6,2.2,13.1,1.2c4.1-0.9,4.6-2.6,2-6c-0.3-0.4-0.7-0.8-1.2-1.2c-1.4-1.2-2.8-2.3-4.3-3.4
		c-0.8-0.6-1.5-1.2-2.4-1.5c-3.7-1.6-7.5-3.2-11.6-3.8c-3.5-0.5-6.9-1.1-10.4-1.6c-2.7-0.4-5.4-0.9-8.1-0.8
		c-9.3,0.4-18.5-1.1-27.8,0.1C435.9,145,435.6,145,435.4,145z"/>
	<path d="M259.5,152.6c-5.7,0.3-11.3,0.7-17,0.9c-5.2,0.2-7.7-3.5-8.3-7.3c-0.1-0.6-0.2-1.3,0-1.9c0.7-2.2,1.3-4.5,2.2-6.6
		c0.4-0.9,1.4-1.8,2.4-2.2c3.5-1.6,7.1-2.4,11.2-1.7c5.2,0.9,10.5,1,15.7,1.6c8.3,0.9,16.5,1.9,24.7,2.9c3.6,0.4,7.3,0.8,10.9,1.3
		c3.4,0.5,6.8,1,10.1,2c4.5,1.3,5.9,3.5,5.7,8.1c-0.1,3.1-0.6,6.2-3,8.6c-1.1,1-2.3,1.8-3.8,1.9c-4.4,0.4-8.7,0.7-13.1,1
		c-3.1,0.2-5.6,1-6.8,4.3c-0.7,2-1.7,4-2.5,5.9c-1.7,4.2-3.5,8.4-5.2,12.6c-1.2,2.8-2.4,5.6-3.4,8.4c-2.2,6.5-5.9,12.2-10.2,17.5
		c-2.3,3-5.6,4.8-9.5,4.8c-3.6,0-6.5-2-6.6-6c-0.1-4.5,0-9,1.6-13.3c2.5-6.9,5.4-13.7,7.9-20.5c1.6-4.3,3.1-8.7,4.3-13.2
		c0.7-2.5,0.7-5.2-0.9-7.6c-0.8-1.2-1.6-1.9-3.1-1.7c-1.1,0.1-2.2,0-3.4,0C259.5,152.5,259.5,152.5,259.5,152.6z M298,157.5
		c0,0.1,0,0.1,0,0.2c3.3-0.4,6.7-0.7,10-1.3c2.5-0.4,4.2-1.9,4.6-4.6c0.1-0.7,0.3-1.4,0.4-2.1c0.3-2.3-0.9-4.3-3.2-5
		c-1.7-0.5-3.4-1.1-5.1-1.3c-8-1.1-16-2.1-24-3c-6.9-0.7-13.9-1.1-20.8-1.7c-2.5-0.2-4.9-0.5-7.4-0.7c-1.6-0.2-3.2-0.4-4.8-0.4
		c-2.9-0.1-5.5,0.6-7,3.4c-0.3,0.6-0.7,1.3-1.1,1.8c-1.2,1.5-1.2,3.1-0.3,4.7c0.8,1.7,2.5,2.1,4.1,2c4.2-0.2,8.4-0.7,12.7-1
		c2.9-0.2,5.7-0.4,8.6-0.6c1.6-0.1,2.9,0.6,3.8,1.7c1.6,1.8,2.9,3.8,3.3,6.3c0.5,2.6,0.5,5.2-0.4,7.8c-1.2,3.7-2.3,7.5-3.7,11.1
		c-2.6,6.7-5.4,13.3-8.1,20c-1.5,3.8-2.5,7.8-2.6,11.9c-0.1,4,2.6,5.4,6.1,3.4c0.5-0.3,0.9-0.7,1.3-1c2.8-2.2,4.5-5.1,6.4-8
		c2.3-3.6,4.3-7.3,5.3-11.5c0.4-1.5,1-2.9,1.6-4.3c2.7-6.7,5.5-13.3,7.5-20.2c1.3-4.6,6.4-8.5,11.2-7.9
		C296.9,157.5,297.5,157.5,298,157.5z"/>
	<path d="M493,282.9c-0.8,1.5-0.4,2.9,0.2,4c1.8,3,2.9,6.2,4.3,9.3c0.7,1.7,1.8,3.2,2.6,4.8c2.4,4.7,5.1,9.2,7,14.1
		c1.6,4.2,3,8.6,2.7,13.3c-0.3,4.5-1.7,8.8-3.8,12.8c-1,1.7-2,3.5-3.1,5.1c-1.8,2.4-4.5,3.5-7.2,4.6c-3.9,1.6-7.8,1.7-11.9,0.9
		c-5.1-0.9-9.8-2.9-14.4-5.1c-3.8-1.8-6-5-6.8-9c-0.6-3.2,0.7-6,2.5-8.5c0.9-1.2,2.4-1.3,3.7-0.8c1.1,0.4,2.2,1,3.1,1.8
		c4.2,3.1,8.7,4.6,13.9,3.4c0.7-0.2,1.4-0.4,2.1-0.6c1.6-0.5,2.1-1.6,2.1-3.3c0-5.5-1.5-10.7-3.4-15.8c-1.7-4.6-3.6-9-5.5-13.5
		c-1.4-3.2-3.2-6.3-4.6-9.5c-2.6-5.9-2-11.7,1.5-17.1c1.1-1.7,2.7-3.2,4.3-4.4c2.8-2,6.1-1.9,9.2-0.6c3,1.3,6,2.5,8.4,4.8
		c1.4,1.4,3.3,2.2,4.8,3.6c1.3,1.2,2.5,2.5,3.2,4.1c1.6,3.8-0.4,7.1-4.7,7.4c-2.1,0.2-3.9-0.4-5.5-1.8c-1.2-1.1-2.4-2.2-3.6-3.2
		C493.8,283.5,493.4,283.3,493,282.9z M468,332.9c-1.3,2.1-1.2,4.6,0.2,6.6c1.2,1.8,3,2.9,4.8,3.8c4.8,2.5,9.8,3.7,15.2,4
		c5.9,0.2,10.7-1.4,13.5-7.1c2.1-4.3,3.9-8.7,3.5-13.5c-0.4-4.6-1.5-9.1-3.7-13.3c-2.1-3.9-4.3-7.8-6.4-11.8c-0.8-1.5-1.3-3.1-2-4.6
		c-1.2-2.6-2.2-5.3-3.6-7.8c-1.2-2.2-1.5-4.5-1.2-6.9c0.3-2.1,1.9-2.8,3.6-3.4c1.6-0.6,3.1-0.7,4.4,0.7c0.8,0.8,1.4,1.7,2.2,2.5
		c0.9,1,1.9,2,3.4,2c0.5,0,1.2-0.1,1.5-0.5c0.2-0.4,0.2-1.2-0.1-1.5c-1-1.1-2-2.2-3.2-3.2c-1.2-1-2.6-1.7-3.6-2.7c-2-2-4.5-3-7-4.1
		c-1.9-0.9-3.7-0.5-5.4,0.8c-4.3,3.4-6.2,11.3-3.7,16.2c1.5,3.1,3.2,6.2,4.7,9.4c3.4,7.3,6.8,14.6,8.5,22.6c0.7,3.2,1.3,6.4,1.2,9.7
		c0,1.4-0.1,2.9-1.3,3.7c-1.5,1.1-3,2.3-4.7,2.8c-6.5,1.8-12.8,1.4-18.4-3C469.6,333.8,468.8,333.4,468,332.9z"/>
	<path d="M352.5,445c0.4-5.3,0.8-10.7,1.4-16c0.7-6.4,1.7-12.8,2.5-19.2c0.4-3.6,0.6-7.3,1.1-11c0.7-5.1,1.7-10.2,2.5-15.4
		c0.3-1.6,0.7-3.1,0.7-4.7c0.2-4.2,3.1-6.2,6.9-7c5.5-1.3,10.8-0.1,16.1,0.9c3.4,0.7,6.9,1.3,10.2,2.4c4.1,1.4,8.2,2.6,11.9,5
		c7.3,4.9,12.7,11.3,16.8,19c1.4,2.6,1.6,5.2,2,8c0.4,3.3,0.2,6.3-0.7,9.4c-0.6,2.1-1.2,4.3-1.8,6.4c-0.6,2.1-1.1,4.1-1.7,6.2
		c-0.2,0.7-0.3,1.4-0.7,2c-3,5.3-6.6,10.1-11.1,14.3c-4.2,3.9-9.2,6.3-14.2,8.7c-7.6,3.6-15.7,5.2-24.1,5.6
		c-5.5,0.3-10.4-1.6-14.5-5.2c-0.6-0.5-1.2-1.1-1.8-1.6c-0.9-0.9-1.4-1.9-1.3-3.2c0.1-1.5,0-3,0-4.6C352.6,445,352.5,445,352.5,445z
		 M357.6,441.9C357.6,441.9,357.6,441.9,357.6,441.9c0.1,1.4,0.2,2.7,0.1,4.1c-0.2,2.4,0.8,4.1,2.7,5.6c3.8,3,8.3,3.6,12.9,3.2
		c7.6-0.7,14.8-3.1,21.8-6.3c6.2-2.9,11.2-7.1,15.3-12.4c1.4-1.8,2.7-3.8,3.5-6c1.8-4.7,3.3-9.5,4.8-14.3c1.4-4.5,1.5-9.2-0.1-13.7
		c-1.5-4.2-4-8-6.9-11.5c-4.1-4.9-9.4-8.3-15.4-10.6c-2.2-0.8-4.4-1.6-6.6-2.1c-3.8-0.9-7.7-1.6-11.5-2.3c-3.4-0.7-6.8-0.8-10.2,0.1
		c-2.1,0.6-2.7,1.4-2.9,3.5c-0.3,2.7-0.4,5.5-1.1,8c-0.7,2.4-1.2,4.8-1.5,7.2c-0.3,3.3-0.5,6.7-0.9,10c-0.8,6.7-1.7,13.5-2.5,20.2
		C358.4,430.4,358.1,436.1,357.6,441.9z"/>
	<path d="M339.4,193.9c3,0.5,6,0.9,8.9,1.6c2.1,0.5,2.3,1.2,2.2,3.3c-0.2,2.6-0.7,5-2.6,7c-1.1,1.2-1.9,2.8-3,4
		c-2.1,2.2-4.7,3.6-7.6,4.4c-3.8,1-7.6,1.8-11.5,2.4c-2.7,0.4-5.4,1.1-8.3,0.8c-5.8-0.7-9.9-3.8-12.8-8.6c-1.2-2-1.3-4.2-0.4-6.4
		c3.2-8,6.2-16.1,9.5-24.1c1.4-3.4,3.5-6.6,5.3-10c1.4-2.6,2.6-5.3,4-7.9c1.5-2.9,2.8-6,4.6-8.6c1.3-1.8,3.2-3.3,5.1-4.6
		c0.7-0.5,2-0.5,3-0.3c7.2,1.7,14.4,3.4,21.6,5.3c2.9,0.8,5.8,1.8,8.3,3.6c0.8,0.6,1.5,1.2,2.1,1.9c0.9,0.9,1.2,2.1,0.8,3.3
		c-0.5,1.2-0.9,2.7-1.9,3.5c-2.1,1.7-4.6,3.2-6.9,4.6c-0.6,0.3-1.4,0.3-2.1,0.3c-2.9-0.3-5.8-0.8-8.8-1.2c-0.6-0.1-1.3-0.3-1.9-0.3
		c-2.9-0.1-4,1.1-3.8,4c0.2,3.1,0.9,3.9,3.9,4.9c0.7,0.2,1.4,0.5,2,0.9c2.6,1.7,3,3.5,1.6,6.3c-1.4,2.9-3.5,4.3-6.7,3.9
		c-2.6-0.3-5.2-0.8-7.8-1.2c-0.7-0.1-1.4-0.2-2.1-0.2c-2,0.2-3.5,1.6-3.6,3.2c0,2.1,1.2,3.7,3.2,4.1c1.9,0.4,3.8,0.6,5.7,0.8
		C339.4,194.2,339.4,194.1,339.4,193.9z M338.6,198c-2.4,0.2-4.9-0.1-7.4-0.9c-2.5-0.7-3.8-2.1-4.2-4.5c-0.1-0.4-0.2-0.8-0.3-1.2
		c-1.1-3.6,0.3-6.1,3.4-8.1c2.2-1.4,4.5-1.6,7.1-0.9c2.3,0.6,4.7,0.9,7.1,1.2c1.3,0.1,2.3-0.9,2.4-1.9c0.1-1.4-1-1.4-1.9-1.6
		c-3.6-0.8-5.2-3.2-5.7-6.6c-0.2-1.3-0.3-2.5-0.4-3.8c-0.1-1.8,0.5-3,2.1-3.9c3.5-2,7-2.4,10.8-1.1c3.9,1.3,7.6,0.8,10.8-1.9
		c2.3-1.8,2.1-3.7-0.4-5c-1.5-0.8-3.2-1.4-4.9-1.9c-3.4-1-6.7-2-10.2-2.8c-3.4-0.8-6.9-1.4-10.3-2c-1.1-0.2-2.2,0.1-3.1,0.8
		c-2.5,1.7-4.3,4.1-5.6,6.7c-2.9,5.6-5.6,11.3-8.4,17c-0.9,1.9-1.9,3.9-2.7,5.8c-2.5,6.2-4.9,12.5-7.5,18.7
		c-2.1,5.2-1.5,6.5,2.2,10.4c0.4,0.5,0.9,0.9,1.5,1.3c2,1.6,4.3,2.4,6.9,2.1c4.1-0.6,8.2-1.3,12.3-1.9c3.4-0.5,6.4-2.1,9-4.3
		c2.2-1.8,3.9-4,4.6-6.8c0.4-1.5,0.1-2.1-1.5-2.3C342.4,198.2,340.6,198.2,338.6,198z"/>
	<path d="M385.2,217c-4.5,0.3-9.3-1.5-13.6-5c-4.2-3.5-6.8-7.9-8.6-13c-2.4-6.7-1.5-13,0.8-19.4c1.8-5.2,4.4-10,7.7-14.3
		c2.3-3,5.2-5.3,7.9-8c0.3-0.3,0.6-0.5,0.9-0.8c4.6-4.8,10.4-4.9,16.4-4.2c3,0.4,5.7,1.3,8.4,2.5c3.4,1.6,6.4,3.7,7.8,7.3
		c0.6,1.6,0.7,3.4,0.8,5.1c0.1,1.8,0.1,3.7-0.1,5.5c-0.4,4.2-4,8.3-8,9.2c-2.6,0.6-4.7-0.1-6.5-2.1c-0.9-1-1.8-2.1-2.7-3.1
		c-1.4-1.7-3.3-2.5-5.3-3.2c-1.6-0.6-3-0.2-4.1,1.1c-1.8,2-3.1,4.3-3,7.1c0.1,3-0.5,6.1,0.9,9c1,2.1,2.1,4.1,3.5,5.9
		c1.2,1.6,3.3,1.6,5.1,1.4c1.6-0.2,3.1-0.6,4.7-1.1c4.1-1.2,7.4,0.9,8,5.1c0.8,5.2-1.2,8.9-5.7,11.5
		C396.2,216.2,391.3,216.9,385.2,217z M380,183.9c-0.4-2.6,0.2-5,1.1-7.5c0.8-2.3,2.5-3.6,3.9-5.3c1.4-1.6,2.9-2.4,5-2.2
		c0.6,0.1,1.1,0,1.7,0c1.5-0.1,2.8,0.3,4,1.3c2.1,1.9,4.3,3.8,6.4,5.8c1.3,1.2,2.9,1.5,4.3,0.6c1.4-0.9,2.7-2.1,2.9-3.9
		c0.2-1.7,0.2-3.5,0.2-5.2c0-2.8-1.4-5-3.6-6.7c-3.7-3-8-4.4-12.6-4.6c-2.8-0.1-5.9-0.1-8.3,1.7c-2.6,1.9-5,4-7.2,6.2
		c-5.4,5.5-8.9,12.2-11,19.6c-1.3,4.5-1.6,8.9,0.1,13.4c0.4,1,0.8,2.1,1.2,3.1c3,6.2,7.4,10.7,14.5,12.1c4.2,0.8,8.3,0.1,12.3-1.1
		c1.8-0.5,3.5-1.5,5.1-2.6c1.7-1.2,2.4-3,2.2-5c-0.2-1.8-1.4-2.6-3.1-2.2c-1.6,0.4-3.1,0.8-4.7,1c-4,0.4-7.4-0.6-9.8-4.2
		C381.6,193.9,379.4,189.3,380,183.9z"/>
	<path d="M92.2,119.1c6.2-0.4,12.3,0,18.2,1.9c3.9,1.3,7.7,3.1,10.7,6.2c1.7,1.8,3.2,3.7,3.5,6.4c0.2,2,0.8,3.9,1,5.9
		c0.2,3.1-0.5,6-2.6,8.5c-1.1,1.3-2,2.9-3.1,4.3c-3.3,4.5-8,6.8-13,8.5c-2.2,0.8-4.6,1.1-7,1.5c-3.1,0.5-3.4,0.6-4.1,3.7
		c-1.4,6.5-2.7,13.1-4.4,19.6c-1,3.8-2.4,7.5-4,11c-1.6,3.6-4.3,6.1-8.6,6.4c-3.3,0.2-5.1-1.2-5.9-4.4c-0.8-3.5-0.8-7-0.5-10.5
		c0.3-3.3,0.5-6.5,0.9-9.8c0.5-4.1,1.2-8.2,1.7-12.3c1.2-9.5,3.9-18.6,5.7-27.9c0.4-2.1,0.7-4.3,0.7-6.4c0-2.5,0.6-4.9,1.5-7.2
		c0.4-1,0.6-2,0.9-3c0.5-1.8,0.7-2.1,2.5-2.3C88.2,119,90.2,119.1,92.2,119.1z M76.6,189.8c0.1,0,0.3,0,0.4,0c0,1.6-0.1,3.2,0,4.8
		c0.1,1,0.3,2.1,0.6,3c0.6,1.7,1.9,2,3.1,0.7c1.1-1.1,2.1-2.4,2.7-3.8c1.1-2.6,2.1-5.4,2.8-8.1c1.9-7.2,3.7-14.5,4.6-22
		c0.4-3.4,2.2-5.3,5.7-5.8c1.6-0.3,3.2-0.4,4.8-0.6c2.7-0.3,5.3-1.2,7.7-2.5c3.7-2.1,6.3-5.3,9-8.5c2.3-2.7,3.1-5.9,2.6-9.4
		c-0.5-3.7-1.8-7-5.1-9.1c-4.8-3.2-9.9-5.5-15.8-5.4c-0.7,0-1.4-0.2-2.1-0.2c-2.6-0.1-5.3-0.1-7.9-0.1c-1.3,0-2.1,0.7-2.5,1.9
		c-0.2,0.8-0.4,1.6-0.5,2.3c-0.2,4.3-1.5,8.5-2.3,12.7c-1.2,6.2-2.5,12.4-3.6,18.6c-0.9,5-1.8,10-2.5,15.1
		C77.7,178.8,77.2,184.3,76.6,189.8z"/>
	<path d="M137.6,175.7c-1.3,1.8-2.7,3.1-3.3,4.7c-1.3,3.2-2.4,6.4-3.2,9.8c-0.8,3.3-2.1,6.3-4.3,9c-1.4,1.6-3.1,2.8-5.2,3.2
		c-3.2,0.7-5.5-0.9-6.1-4.1c-0.5-3.2,0-6.4,0.9-9.5c1.7-5.4,3.6-10.7,5.5-16.1c2.9-8.4,5.9-16.9,8.8-25.3c0.3-0.9,0.7-1.8,1-2.7
		c0.2-0.4,0.4-1,0.3-1.4c-0.7-1.6,0.3-2.5,1.2-3.6c0.7-0.9,1.3-1.8,1.8-2.7c0.6-1.2,1.5-1.8,2.8-1.9c2.9-0.1,5.7-0.4,8.6-0.4
		c5.8,0,11,1.6,15.5,5.3c0.2,0.2,0.4,0.3,0.6,0.4c4.4,2.7,5.8,6.9,6,11.8c0.2,4.5-0.7,8.8-2.8,12.7c-0.6,1.2-1.7,2.2-2.8,3.2
		c-1.3,1.2-2.8,2.1-4.2,3.2c-0.9,0.7-1.2,1.5-0.7,2.5c1.4,3,1.6,6.1,1.8,9.3c0.2,3.4,0.5,6.8,0.7,10.2c0.2,3.1-0.9,5.8-2.7,8.3
		c-3.4,4.8-8.1,3.7-11.2,1c-1.8-1.6-2.9-3.8-3.7-6.1c-1.1-3-1.5-6.2-1.5-9.4c0-3.1-0.7-6-2-8.8C139,177.5,138.5,176.9,137.6,175.7z
		 M164.2,154.7c0.2-4.4-0.4-7.3-2.4-9.5c-2.2-2.5-5-4.2-8.2-5.3c-4.2-1.4-8.4-1.7-12.8-1.2c-0.7,0.1-1.6,0.4-2.1,1
		c-1.6,1.8-3.3,3.4-3.9,5.9c-1.2,4.2-2.5,8.4-3.8,12.6c-1.2,3.6-2.5,7-3.8,10.6c-2.3,6.7-4.7,13.4-7,20.1c-0.8,2.4-1.2,5-0.9,7.5
		c0.2,1.9,1.7,2.5,3.3,1.6c0.4-0.2,0.7-0.6,1.1-0.9c2.4-2.1,3.1-4.9,3.8-7.8c0.5-2,0.9-4.1,1.5-6c1.2-4,3.4-7.6,6.5-10.5
		c1.9-1.8,3.1-1.7,5,0c1.5,1.3,2.5,3,3,4.8c0.8,3.3,1.5,6.7,1.8,10.1c0.3,3.5,1.3,6.7,2.8,9.8c0.6,1.2,1.6,2.2,2.6,3
		c1.6,1.1,2.9,0.7,4.1-0.9c1.4-1.8,1.8-3.9,1.7-6.1c-0.2-3.7-0.5-7.3-0.8-11c-0.2-2.5-0.9-4.8-2.1-7c-1.1-2-1-3.9,0.7-5.4
		c1.7-1.6,3.6-3.1,5.6-4.5c1.1-0.8,1.8-1.7,2.3-2.9C163.7,159.6,164.1,156.5,164.2,154.7z"/>
	<path d="M308.2,441.5c0.3-5,0.5-10,0.9-15.1c0.6-7,1.2-14,2-21c0.7-6.2,1.6-12.3,2.3-18.5c0.1-1.1,0-2.2-0.3-3.2
		c-0.2-1-0.5-1.9,0.4-2.6c0.2-0.2,0.5-0.5,0.5-0.8c0.1-3,2.7-4.4,4.3-6.3c2-2.4,5-3,8-3.3c0.7-0.1,1.6,0.4,2.2,0.8
		c2.5,1.9,5,3.7,7.2,5.9c1.7,1.7,2.1,4.3,2.3,6.7c0.3,4.3,0.6,8.6,0.8,12.9c0.1,1.6-0.2,3.2-0.3,4.8c-0.2,6.7-0.8,13.4-2.2,20
		c-1.4,6.8-2.5,13.6-4,20.4c-0.7,3.3-1.8,6.5-3.1,9.5c-1.5,3.5-4.2,5.9-7.6,7.6c-2.1,1-4.3,1.1-6.6,0.7c-2.1-0.4-3.6-1.5-4.4-3.6
		c-1.4-3.6-1.9-7.4-2.1-11.3c-0.1-1.2,0-2.4,0-3.6C308.3,441.5,308.3,441.5,308.2,441.5z M313,439.2c0,4.2-0.3,8.8,1.3,13.2
		c0.6,1.9,1.2,2.3,3.1,2.2c4.5-0.2,7-3.1,8.5-6.8c1.3-3.2,2-6.7,2.7-10.2c1.2-6.2,2.1-12.5,3.4-18.6c1.5-7.1,1.8-14.2,1.9-21.4
		c0-3.6-0.2-7.2-0.1-10.7c0-5.1-2.5-8.6-6.8-11c-1.8-1-4.3-0.7-5.3,0.7c-1.9,2.8-3.7,5.6-4,9.1c-0.4,4.4-0.9,8.7-1.4,13.1
		c-0.7,6.7-1.4,13.3-1.9,20C313.7,425.5,313.4,432.2,313,439.2z"/>
	<path d="M172.7,178.6c0.4-9.1,2.3-17.7,7.2-25.5c1.5-2.4,3-4.9,4.3-7.5c2-3.9,5.5-6,9.3-7.5c2.1-0.8,4.4-1.2,6.7-1.8
		c0.4-0.1,0.8-0.1,1.2-0.1c4.2,0.8,8.5,1.2,12,4.2c1.7,1.5,3.8,2.6,5.7,4c0.7,0.5,1.5,1,2,1.7c1.8,2.6,3.6,5.2,5.2,8
		c1.7,3.1,1.7,6.6,2.2,10c0.4,2.4,0.7,4.9,0.9,7.4c0.2,2.7-1,5-2.1,7.3c-1.2,2.4-2.5,4.6-3.7,7c-3.3,6.4-8.3,11.2-14.3,15.2
		c-1.9,1.3-4,1.9-6.3,2c-5.8,0.2-11.5-0.4-16.7-3.3c-3.2-1.7-6.1-3.9-8.5-6.5C174,189.1,172.6,184.1,172.7,178.6z M177.3,177.6
		c0,1,0,1.8,0,2.6c0.2,4.6,1.7,8.8,5.2,12c5.9,5.6,12.9,7.7,20.9,6.9c0.8-0.1,1.7-0.5,2.5-0.9c3.8-2.1,6.8-5,9.5-8.3
		c3.5-4.4,5.8-9.5,8.4-14.4c1.1-2,1.5-4.2,1.1-6.5c-0.6-3.6-1.2-7.2-1.8-10.8c-1.2-6.5-5-10.9-10.9-13.5c-0.5-0.2-1-0.5-1.4-0.9
		c-4.8-3.3-9.9-4.1-15.3-1.8c-3.6,1.5-6.4,3.9-8.1,7.5c-0.9,1.9-2,3.8-3.2,5.6C179.8,162.2,177.5,169.7,177.3,177.6z"/>
	<path d="M310.4,281.5c-1.8-0.6-3.7-0.9-5.4-1.8c-2.1-1-2.8-2.8-2.3-5c0.8-3.5,2.3-6.8,4.3-9.8c0.3-0.5,0.9-0.9,1.5-1
		c1.6-0.3,3.1-0.4,4.7-0.5c3.1,0,4.9,2.1,6.5,4.2c0.5,0.6,0.7,1.4,1.2,2.1c0.7,1,0.7,2.1,0.3,3.2c-0.4,1-0.6,2.1-1.1,3.1
		c-0.3,0.7-0.7,1.5-1.3,1.9C316.4,279.9,313.7,281.3,310.4,281.5z M310.5,266.8c-0.5,0.7-1,1.4-1.3,2.1c-0.5,1.2-1.1,2.3-1.4,3.5
		c-1,3.7-0.9,4.2,3.3,4.9c0.2,0,0.3,0,0.5,0c2.2-0.2,3.6-1.5,4.5-3.4c0.9-1.8,0.5-3.4-0.7-4.9C314.1,267.6,312.5,267.1,310.5,266.8z
		"/>
	<path d="M376.7,294.4c-0.3,2.2-0.5,4-0.8,5.8c-0.2,1.6-1.4,2.5-2.7,3.1c-1.6,0.8-3.4,1-5.1,0.7c-2.4-0.4-4.7-0.9-7.1-1.3
		c-3.3-0.7-4.9-2.8-4.4-6.2c0.6-4,1.6-7.8,3.6-11.3c1-1.7,2-3.4,3-5.2c0.8-1.3,1.8-1.9,3.4-1.7c1.2,0.1,2.5,0.1,3.8,0.2
		c2,0.1,3.3,1.5,3.8,3.2C375.4,285.9,376.1,290.3,376.7,294.4z M366.9,281.4c-0.1,0.2-0.2,0.5-0.4,0.8c-1.2,2.1-2.6,4.1-3.5,6.3
		c-0.9,2.3-1.4,4.9-1.8,7.4c-0.3,1.6,0.1,2.2,1.8,2.6c2,0.5,4.1,0.8,6.1,1c1.8,0.1,2.5-0.4,3-2.1c0.2-0.8,0.4-1.8,0.3-2.6
		c-0.4-2.8-1-5.7-1.4-8.5C370.5,283.8,369.2,282.4,366.9,281.4z"/>
	<path d="M369.9,426.7c0.2-1.5,0.7-4.2,1-7c0.5-4.6,0.7-9.2,1.3-13.8c0.5-3.9,0-7.8,0.9-11.6c0.4-1.9,1.3-2.9,3.2-3.4
		c5-1.2,9.7-0.5,14.4,1.7c3.6,1.6,6.9,3.7,10.3,5.5c3.1,1.7,4.5,4.5,5.3,7.6c0.6,2.2,0.8,4.5,1.1,6.8c0.1,1,0.1,2.1-0.2,3.1
		c-2.2,8.5-7.7,14-15.9,17.2c-4.7,1.8-9.5,1.9-14.4,1.8c-0.6,0-1.3-0.1-1.9-0.3C371,433.5,370,432.2,369.9,426.7z M381.1,430
		c5.3,0.4,9.8-1.8,14-4.6c1.6-1.1,3.3-2.4,4.4-4c2.1-3.1,2.9-6.5,2.6-10.4c-0.5-6.7-4.2-10.7-9.8-13.3c-3.1-1.4-6.5-2.3-9.7-3.3
		c-0.7-0.2-1.4-0.3-2.1-0.3c-1.6,0.1-2.9,1.1-3,2.2c-0.2,3.7-0.6,7.3-0.7,11c-0.1,5.4-0.5,10.7-1.4,16c-0.2,1.1-0.2,2.2-0.2,3.3
		c0.2,2.5,1,3.2,3.5,3.3C379.5,430.1,380.3,430,381.1,430z"/>
	<path d="M101.9,150.8c-4.1,0.1-6.3-2.3-5.9-5.9c0.2-1.6,0.3-3.3,0.4-4.9c0.1-0.9,0.6-1.6,1.5-2c3.2-1.3,6.3-0.9,9.2,0.8
		c1.9,1.1,2.8,4.8,1.7,7.1C107.4,149.1,104.7,150.4,101.9,150.8z M99.7,146.5c2.9,0.5,4.6-0.2,5.7-2.2c0.6-1.1,0.4-2.1-0.4-2.8
		c-0.9-0.8-2.9-1.3-3.6-0.7c-0.3,0.2-0.5,0.6-0.6,1C100.4,143.3,100,144.8,99.7,146.5z"/>
	<path d="M147.3,160.6c-3.3,0.1-6.3-1.9-4.9-5.3c0.5-1.2,1.1-2.3,1.6-3.4c1-2.5,4-2.5,5.8-0.7c1.3,1.3,2.3,2.9,3.2,4.5
		c0.8,1.5,0.2,3.2-1.3,3.8C150,160,148.3,160.3,147.3,160.6z M147.7,154.3c-0.2,0-0.4,0-0.7,0.1c-0.2,0.8-0.4,1.6-0.7,2.7
		c1.1-0.3,1.7-0.4,2.7-0.7C148.5,155.5,148.1,154.9,147.7,154.3z"/>
	<path d="M186.5,172.2c-0.2-5.7,4.7-12.5,10.2-14.7c0.7-0.3,1.6-0.3,2.3-0.2c1.2,0.1,2.4,0.2,3.5,0.6c0.9,0.3,1.8,0.9,2.7,1.4
		c0.8,0.4,1.4,1,2.2,1.4c3.3,1.4,5.8,6.4,4.8,10.3c-0.7,2.5-1.4,5-2.4,7.5c-2.2,5.2-8.4,8.8-14.9,5.7c-2.5-1.2-4.6-2.9-6.3-5
		C186.9,176.9,186.3,174.6,186.5,172.2z M190.8,172.2c0.2,1.2,0.4,2.1,0.6,3c0.7,2.9,3.5,5.3,6.6,5.8c2.9,0.4,5.5-0.9,7-3.9
		c1-1.9,1.7-4,2.2-6c1.3-5.2,0.4-6.7-4.5-9c-0.7-0.3-1.5-0.5-2.3-0.7c-2.3-0.7-4.1,0.3-5.5,2c-1.2,1.5-2.3,3.3-3.1,5.1
		C191.3,169.6,191.1,171,190.8,172.2z"/>
</g>
<g id="letterfill">
	<path class="st0" d="M231.7,442.1c0.6-4.8,1.3-9.7,1.7-14.5c0.9-10.3,1.7-20.7,2.6-31c0.1-1.6,0.7-3.3,1-4.9
		c0.2-0.9,0.2-1.7,0.2-2.6c0-2.6,0-5.3,0-7.9c0-1.7-0.3-3.3-0.2-5c0-3.2-0.1-6.4,0.4-9.5c0.5-3.3,2.8-4.5,6-3.6c2.9,0.7,5,2.3,6,5.3
		c0.9,2.9,2,5.7,2.8,8.6c0.7,2.5,0.9,5.1,0.7,7.8c-0.2,3.5,0,7,0.3,10.5c0.1,1.4,1,2.8,1.5,4.2c0.3,0.7,0.6,1.5,0.7,2.2
		c0.3,2.7,1.8,3.7,4.3,2.7c2.6-1,5.1-2.6,6.7-4.9c2.9-4.2,5.6-8.6,8.3-12.9c1.6-2.6,3-5.3,4.7-7.8c1.1-1.5,2.5-3,4-4.1
		c3.1-2.3,6.7-0.8,7.2,3.1c0.5,3.3,0.4,6.5-1,9.6c-2.2,4.8-4.9,9.1-8.6,12.9c-2.5,2.5-4.8,5.3-7.1,8.1c-0.4,0.4-0.6,0.9-0.9,1.4
		c-1.4,2-1.6,4-0.6,6.3c1.3,2.8,2.3,5.6,4.1,8.1c3.5,4.9,5.5,10.4,6.4,16.3c0.2,1.4,0.8,2.8,1,4.2c0.3,2.3,0.5,4.6,0.4,6.9
		c-0.1,2.2-1.2,4.1-2.9,5.6c-1.2,1.1-2.2,1.3-3.4,0.2c-1-0.8-2-1.9-2.7-3c-3.8-6.3-6-13.4-8.9-20.1c-1.1-2.5-1.8-5.1-2.8-7.6
		c-1.3-3.3-3.8-5.9-6-8.6c-0.8-1-2.1-1.2-3.3-0.7c-3,1.1-5.4,2.8-6.2,6.1c-0.6,2.3-1,4.7-1.4,7.1c-0.8,6.1-1.8,12.2-3.5,18.1
		c-0.7,2.6-1.8,5-3.7,6.9c-2.3,2.3-4.2,2-5.6-0.9c-1.4-2.8-1.8-5.8-1.9-8.8c0-1.2,0-2.4,0-3.6C231.8,442.1,231.7,442.1,231.7,442.1z
		"/>
	<path class="st0" d="M410.9,273.1c0.7-0.1,1.4-0.1,2.4-0.2c0.1-1,0.4-1.9,0.4-2.8c-0.1-2,0.8-3.3,2.4-4.4c1.7-1.1,2.8-1,4.1,0.7
		c2.3,3.1,4.3,6.3,4.6,10.3c0.4,4,1.2,8.1,1.5,12.1c0.5,5.4,2.8,9.9,6.1,14.1c0.8,1,1.5,2.2,2.3,3.3c0.7,1.1,1.5,2.1,3,1.9
		c1.5-0.1,2.4-1,2.9-2.8c2-6.7,3.1-13.5,3.1-20.5c0-5.5,2.1-10.5,6.7-14c0.6-0.5,1.3-0.8,2.1-1.3c2.7,2.1,4,4.9,4.2,7.9
		c0.4,4.4,0.4,8.9,0.2,13.4c-0.2,5.5-1.9,10.8-3.1,16.2c-1,4.7-1.9,9.4-2.9,14.1c-1.7,7.5-4,14.8-7.2,21.8c-0.5,1-1.1,2-1.8,2.8
		c-1.8,2.2-4.3,2.3-6.2,0.3c-2.2-2.2-3.5-5-4.2-8c-1.6-6.4-2.9-12.8-4.3-19.1c-0.6-2.8-1.3-5.5-3-7.7c-0.6-0.8-1.4-1.6-2.2-2.2
		c-3.3-2.4-6.9-1.5-8.9,2c-2.8,4.8-4.6,10-6.3,15.3c-1.1,3.6-2.3,7.2-3.5,10.7c-1.1,3.2-2.9,6.1-5.2,8.5c-1.5,1.6-2.5,1.5-3.3-0.6
		c-0.4-1.1-0.5-2.5-0.3-3.7c0.7-4.3,1.6-8.5,2.4-12.7c1.6-7.7,3.6-15.4,5.7-23c2.9-10.5,5.4-21,8-31.6
		C410.7,273.7,410.8,273.4,410.9,273.1z"/>
	<path class="st0" d="M467.2,446.2c-1.1-11.5-4.4-23.4-12.4-33.5c-1.9-2.4-3.7-4.8-5.4-7.3c-1.2-1.8-2.3-3.7-3.1-5.6
		c-1.7-3.8-1.7-7.8,0.1-11.6c0.7-1.4,1.5-2.8,2.2-4.2c2.2-4.1,5.8-5.4,10.2-5.2c4.7,0.2,8.5,2.3,12.3,4.8c3.1,2.1,5.1,5,6.9,8.1
		c0.8,1.4,1.7,2.7,2.4,4.1c1.1,2.2-0.2,5.8-2.2,6.9c-1,0.5-1.9,0.6-3,0.1c-1.7-0.7-2.9-1.9-3.9-3.4c-0.6-0.9-1.2-1.9-1.8-2.9
		c-1.4-2.3-3.3-3.8-6-4.4c-4.1-1-7.5,2.1-6.5,6.1c0.9,3.4,1.8,6.8,2.8,10.1c0.3,1.1,0.9,2.2,1.5,3.2c2.2,3.3,4.4,6.6,6.6,9.9
		c2,2.9,4,5.7,5.9,8.7c1.3,2,2.4,4.2,3.4,6.3c1.9,3.8,1.7,7.8,1,11.7c-0.7,4.3-1.9,8.4-3.5,12.4c-1.7,4.3-4.9,7.4-8.7,9.6
		c-4.7,2.8-9.9,4.7-15.5,4.4c-5-0.2-9.8-1.1-14.6-2.6c-2.4-0.7-4.4-2.1-6.1-4.1c-2.1-2.5-4.4-4.9-6.4-7.4c-1-1.3-1.6-2.9-2.2-4.5
		c-0.3-0.7-0.3-1.6-0.1-2.4c0.4-2.5,2.7-3.3,4.7-1.7c1.1,0.9,2.1,2,3,3.1c3.6,4.5,8.2,7.4,13.7,9.2c2.6,0.8,5.2,1.9,7.9,1.4
		c2.6-0.4,5.2-0.8,7.7-1.8c3.6-1.4,5.8-4.5,7.4-7.9C466.9,453.4,467.4,450.4,467.2,446.2z"/>
	<path class="st0" d="M265.7,271c-4.9-0.4-9.8-0.9-14.8-1.2c-3.4-0.2-6.4,0.4-9,3.3c-3.1,3.5-4.5,7.4-5.6,11.7
		c-1.2,4.6-2.6,9.2-3.9,13.8c-0.7,2.3-1.3,4.6-2,6.9c-1.1,3.2-2.1,6.4-3.4,9.5c-1.4,3.6-3.1,7-4.5,10.6c-1.4,3.3-3.9,5.4-7,6.9
		c-3.7,1.8-8-0.3-8.7-4.3c-0.4-2.2-0.6-4.5-0.1-6.6c1-4.7,2.4-9.5,3.9-14.1c1.8-5.3,3.9-10.5,5.9-15.7c0.6-1.5,1.4-2.9,2.1-4.3
		c3.1-5.5,4.5-11.4,5.2-17.6c0.3-3.2-0.6-6.1-2.9-8.6c-1.6-1.7-3.5-2.6-5.7-2.6c-2.9,0-5.9,0.1-8.8,0.5c-7.4,0.9-14.7,1.9-22.1,3
		c-2,0.3-3.8,0-5.6-0.8c-1.7-0.8-2.4-2-2.3-3.8c0.2-3.1,1.2-5.9,2.9-8.5c1.1-1.7,2.2-3.3,3.2-5c0.9-1.7,2.4-2.4,4.1-2.5
		c4.9-0.2,9.7-0.4,14.6-0.4c3.4,0,6.8,0.6,10.3,0.7c13,0.3,25.8,1.9,38.7,2.9c7.5,0.6,14.8,2.3,21.9,5.1c1,0.4,1.9,0.8,2.8,1.4
		c2.3,1.4,3.6,3.3,3.4,6.1c-0.2,2.9-0.2,5.9-1.2,8.7c-1.1,2.9-3.1,4.6-6.2,4.7c-1.7,0.1-3.5,0-5.3,0
		C265.7,270.9,265.7,270.9,265.7,271z"/>
	<path class="st0" d="M308.2,248.5c3.6,0.4,8.7,1.1,13.5,3c2.8,1.1,5.7,2,8.2,3.9c3.4,2.7,6.2,5.9,7.9,9.7c0.9,1.9,1.2,4.5,0.8,6.5
		c-0.8,4.4-2.6,8.6-6.4,11.4c-1.9,1.4-4.1,2.5-6.2,3.7c-1.3,0.7-2.6,1.2-4,1.7c-4.6,1.8-6.2,5.6-6.8,10.1c-0.5,3.6,0.8,6.9,1.2,10.4
		c0.2,1.8,0.5,3.6,0.8,5.4c0.1,0.7,0,1.5,0.2,2.1c1.9,7.2,0.7,14.5-0.1,21.7c-0.3,2.4-1.4,4.7-2.5,7c-1,2.2-2.6,2.4-4.4,0.8
		c-0.6-0.6-1.2-1.3-1.6-2c-1.8-3.4-3.1-7-3.3-10.9c-0.3-6.1-0.7-12.3-1.1-18.4c-0.1-1.9-0.3-3.8-0.6-5.7c-0.5-3.7-2.1-7-4-10.2
		c-0.7-1.3-1.8-1.7-3.2-1.7c-1.8,0-3.2,1-4.4,2.2c-1,1.1-2,2.3-2.8,3.6c-3.6,5.4-6.4,11.2-8.4,17.4c-0.8,2.5-1.8,4.9-2.8,7.4
		c-1.6,4-4.2,7.3-7.6,10c-0.8,0.6-1.8,1.2-2.7,1.4c-1.9,0.5-3.2-0.3-3.3-2.3c-0.1-2.3-0.1-4.6,0.2-6.9c0.5-4.1,2.1-7.9,3.7-11.6
		c1.8-4.2,3.9-8.2,5.8-12.3c3.6-7.9,7.2-15.8,10.8-23.8c0.4-0.8,0.6-1.6,0.9-2.5c1.4-5.2,3.6-10.1,5.8-14.9c2.4-2.3,3.2-5.6,5.1-8.3
		c0.5-0.6,0.9-1.3,1.2-2.1C299.9,249.8,301.8,248.5,308.2,248.5z M310.4,281.5c3.3-0.2,6-1.6,8.4-3.4c0.6-0.5,1-1.2,1.3-1.9
		c0.5-1,0.7-2.1,1.1-3.1c0.4-1.1,0.4-2.2-0.3-3.2c-0.4-0.7-0.7-1.4-1.2-2.1c-1.7-2.2-3.4-4.3-6.5-4.2c-1.6,0-3.2,0.2-4.7,0.5
		c-0.5,0.1-1.2,0.6-1.5,1c-2,3-3.5,6.2-4.3,9.8c-0.5,2.2,0.2,4,2.3,5C306.7,280.6,308.6,281,310.4,281.5z"/>
	<path class="st0" d="M360.7,265.8c1.2-0.3,2.4-0.6,3.5-1c5.2-2.1,9.3-1,13.2,3.5c4.2,4.9,5.5,10.8,6.3,16.8
		c1.2,8.7,1.5,17.5,1,26.3c-0.1,2.4-0.6,4.8-0.8,7.1c-0.3,3.3-0.5,6.7-0.8,10c-0.3,4-0.6,8-1.1,11.9c-0.3,2.3-1.3,4.4-2.6,6.4
		c-1.2,1.8-2.9,1.8-3.9-0.2c-0.9-2-1.7-4.2-2-6.4c-1-6.7-1.7-13.5-2.5-20.2c-0.4-3.6-1.5-7-2.8-10.4c-0.7-1.8-2-2.8-3.9-3.2
		c-4.6-1-7.7,0.9-9.9,5.5c-3.5,7.1-6.8,14.3-10.5,21.3c-1.8,3.5-4.1,6.6-6.3,9.9c-0.6,0.8-1.7,1.5-2.7,1.9c-1.6,0.5-2.6-0.1-2.4-1.9
		c0.2-2.9,0.3-6,1.2-8.7c1.7-5.1,3.9-10,5.9-14.9c3-7.3,6.2-14.5,9.1-21.9c2.7-7.1,5-14.3,7.5-21.5c1-2.9,2.1-5.9,3.1-8.8
		c0.2-0.6,0.6-1.1,0.9-1.7C360.5,265.7,360.6,265.8,360.7,265.8z M376.7,294.4c-0.6-4.1-1.2-8.5-2.6-12.8c-0.5-1.7-1.8-3-3.8-3.2
		c-1.3-0.1-2.5,0-3.8-0.2c-1.5-0.2-2.6,0.4-3.4,1.7c-1,1.7-2,3.4-3,5.2c-2,3.5-3,7.4-3.6,11.3c-0.5,3.4,1.1,5.5,4.4,6.2
		c2.3,0.5,4.7,0.9,7.1,1.3c1.8,0.3,3.5,0.1,5.1-0.7c1.3-0.6,2.5-1.5,2.7-3.1C376.2,298.4,376.4,296.6,376.7,294.4z"/>
	<path class="st0" d="M435.4,145c0.2,0,0.5,0,0.7,0c9.2-1.3,18.5,0.2,27.8-0.1c2.7-0.1,5.4,0.4,8.1,0.8c3.5,0.5,6.9,1.1,10.4,1.6
		c4.1,0.6,7.8,2.2,11.6,3.8c0.9,0.4,1.6,1,2.4,1.5c1.5,1.1,2.9,2.3,4.3,3.4c0.4,0.4,0.8,0.8,1.2,1.2c2.6,3.3,2.1,5-2,6
		c-4.5,1.1-9,0.9-13.1-1.2c-4.1-2-7.6-0.9-11,1.4c-2.2,1.5-3.8,3.7-4.9,6.1c-2.1,4.6-3.9,9.3-5,14.2c-0.4,1.7-1.3,3.4-2.2,5
		c-1.9,3.7-3.8,7.4-6,10.9c-1.8,2.9-4,5.6-6.3,8.2c-1.6,1.8-3.7,3.1-6.1,3.6c-2.2,0.5-3.2-0.4-2.5-2.5c0.9-2.9,2.1-5.7,3.4-8.4
		c3.2-6.7,6.6-13.3,9.6-20.1c2-4.5,3.5-9.2,5-13.9c0.7-2.1,0.9-4.4,0.3-6.6c-0.5-2.3-1.8-3.6-4.1-4.2c-2.7-0.6-5.2-0.4-7.8,0.5
		c-4.3,1.4-8.7,2.7-13,4.1c-2.3,0.7-4.7,0.7-7.1,0.2c-3.5-0.8-4.5-4.4-3.4-6.7c1.2-2.4,2.7-4.7,4.3-6.9
		C431.2,144.9,433.4,145,435.4,145z"/>
	<path class="st0" d="M298,157.5c-0.6,0-1.1,0-1.7-0.1c-4.9-0.7-9.9,3.2-11.2,7.9c-1.9,6.9-4.7,13.6-7.5,20.2
		c-0.6,1.4-1.2,2.8-1.6,4.3c-1,4.2-3,7.9-5.3,11.5c-1.9,2.9-3.7,5.8-6.4,8c-0.4,0.3-0.8,0.7-1.3,1c-3.5,2-6.1,0.6-6.1-3.4
		c0.1-4.1,1.1-8.1,2.6-11.9c2.7-6.7,5.5-13.3,8.1-20c1.4-3.6,2.5-7.4,3.7-11.1c0.8-2.6,0.8-5.2,0.4-7.8c-0.4-2.4-1.7-4.5-3.3-6.3
		c-1-1.1-2.3-1.8-3.8-1.7c-2.9,0.2-5.7,0.3-8.6,0.6c-4.2,0.3-8.4,0.8-12.7,1c-1.6,0.1-3.2-0.4-4.1-2c-0.8-1.6-0.9-3.2,0.3-4.7
		c0.4-0.5,0.8-1.2,1.1-1.8c1.5-2.8,4.1-3.5,7-3.4c1.6,0,3.2,0.3,4.8,0.4c2.5,0.2,4.9,0.5,7.4,0.7c6.9,0.6,13.9,0.9,20.8,1.7
		c8,0.8,16,1.9,24,3c1.7,0.2,3.4,0.8,5.1,1.3c2.2,0.7,3.4,2.6,3.2,5c-0.1,0.7-0.3,1.4-0.4,2.1c-0.4,2.6-2.1,4.1-4.6,4.6
		c-3.3,0.6-6.6,0.9-10,1.3C298,157.6,298,157.5,298,157.5z"/>
	<path class="st0" d="M468,332.9c0.8,0.5,1.7,0.8,2.4,1.4c5.6,4.5,11.8,4.9,18.4,3c1.7-0.5,3.2-1.7,4.7-2.8c1.2-0.9,1.2-2.4,1.3-3.7
		c0.1-3.3-0.5-6.5-1.2-9.7c-1.7-8-5-15.3-8.5-22.6c-1.5-3.2-3.2-6.3-4.7-9.4c-2.4-4.9-0.5-12.8,3.7-16.2c1.7-1.3,3.5-1.7,5.4-0.8
		c2.5,1.1,5,2.2,7,4.1c1.1,1,2.5,1.7,3.6,2.7c1.1,1,2.2,2.1,3.2,3.2c0.3,0.3,0.3,1.2,0.1,1.5c-0.2,0.3-1,0.5-1.5,0.5
		c-1.5,0-2.5-1-3.4-2c-0.8-0.8-1.5-1.7-2.2-2.5c-1.3-1.4-2.8-1.3-4.4-0.7c-1.7,0.6-3.3,1.3-3.6,3.4c-0.3,2.4,0,4.7,1.2,6.9
		c1.4,2.5,2.4,5.2,3.6,7.8c0.7,1.5,1.2,3.1,2,4.6c2.1,4,4.3,7.8,6.4,11.8c2.2,4.1,3.4,8.7,3.7,13.3c0.4,4.8-1.4,9.2-3.5,13.5
		c-2.8,5.7-7.6,7.3-13.5,7.1c-5.3-0.2-10.4-1.5-15.2-4c-1.9-1-3.6-2.1-4.8-3.8C466.8,337.5,466.7,335.1,468,332.9z"/>
	<path class="st0" d="M357.6,441.9c0.5-5.7,0.8-11.5,1.4-17.2c0.7-6.7,1.7-13.5,2.5-20.2c0.4-3.3,0.6-6.7,0.9-10
		c0.2-2.5,0.7-4.8,1.5-7.2c0.8-2.6,0.8-5.3,1.1-8c0.2-2.2,0.8-3,2.9-3.5c3.4-0.9,6.8-0.8,10.2-0.1c3.8,0.8,7.7,1.4,11.5,2.3
		c2.2,0.5,4.5,1.3,6.6,2.1c6,2.3,11.3,5.7,15.4,10.6c2.9,3.4,5.4,7.2,6.9,11.5c1.6,4.5,1.5,9.1,0.1,13.7c-1.5,4.8-3,9.6-4.8,14.3
		c-0.8,2.1-2.1,4.2-3.5,6c-4.1,5.3-9.1,9.5-15.3,12.4c-7,3.2-14.1,5.6-21.8,6.3c-4.6,0.4-9.1-0.1-12.9-3.2c-1.8-1.4-2.9-3.2-2.7-5.6
		C357.8,444.6,357.7,443.2,357.6,441.9C357.6,441.9,357.6,441.9,357.6,441.9z M369.9,426.7c0.1,5.5,1.1,6.8,5.2,7.7
		c0.6,0.1,1.3,0.2,1.9,0.3c4.9,0.1,9.7,0,14.4-1.8c8.2-3.2,13.6-8.7,15.9-17.2c0.3-1,0.3-2.1,0.2-3.1c-0.3-2.3-0.6-4.6-1.1-6.8
		c-0.8-3.2-2.1-5.9-5.3-7.6c-3.4-1.9-6.7-3.9-10.3-5.5c-4.7-2.2-9.4-2.9-14.4-1.7c-1.9,0.4-2.7,1.5-3.2,3.4
		c-0.9,3.8-0.4,7.8-0.9,11.6c-0.6,4.6-0.8,9.2-1.3,13.8C370.6,422.5,370.1,425.2,369.9,426.7z"/>
	<path class="st0" d="M338.6,198c2,0.1,3.8,0.1,5.6,0.4c1.6,0.2,1.9,0.7,1.5,2.3c-0.7,2.8-2.5,5-4.6,6.8c-2.6,2.2-5.5,3.8-9,4.3
		c-4.1,0.6-8.2,1.3-12.3,1.9c-2.6,0.4-4.9-0.5-6.9-2.1c-0.5-0.4-1-0.8-1.5-1.3c-3.7-3.9-4.4-5.2-2.2-10.4c2.5-6.2,4.9-12.5,7.5-18.7
		c0.8-2,1.8-3.9,2.7-5.8c2.8-5.7,5.5-11.4,8.4-17c1.4-2.6,3.2-4.9,5.6-6.7c1-0.7,2-1,3.1-0.8c3.4,0.6,6.9,1.2,10.3,2
		c3.4,0.8,6.8,1.8,10.2,2.8c1.7,0.5,3.4,1.1,4.9,1.9c2.5,1.3,2.7,3.2,0.4,5c-3.2,2.6-6.9,3.1-10.8,1.9c-3.8-1.3-7.4-0.8-10.8,1.1
		c-1.6,0.9-2.3,2.2-2.1,3.9c0.1,1.3,0.1,2.6,0.4,3.8c0.6,3.3,2.2,5.8,5.7,6.6c0.9,0.2,2,0.3,1.9,1.6c-0.1,1-1.1,2.1-2.4,1.9
		c-2.4-0.2-4.8-0.6-7.1-1.2c-2.6-0.7-4.9-0.5-7.1,0.9c-3.1,2-4.5,4.5-3.4,8.1c0.1,0.4,0.3,0.8,0.3,1.2c0.4,2.4,1.6,3.8,4.2,4.5
		C333.7,197.9,336.2,198.2,338.6,198z"/>
	<path class="st0" d="M380,183.9c-0.7,5.4,1.6,9.9,4.5,14.3c2.4,3.5,5.8,4.5,9.8,4.2c1.6-0.1,3.1-0.6,4.7-1c1.7-0.4,2.9,0.4,3.1,2.2
		c0.2,2.1-0.6,3.9-2.2,5c-1.5,1.1-3.3,2.1-5.1,2.6c-4,1.2-8.1,1.9-12.3,1.1c-7-1.4-11.5-5.9-14.5-12.1c-0.5-1-0.8-2.1-1.2-3.1
		c-1.7-4.5-1.4-8.9-0.1-13.4c2.2-7.4,5.6-14.1,11-19.6c2.2-2.3,4.7-4.4,7.2-6.2c2.4-1.8,5.5-1.8,8.3-1.7c4.6,0.2,8.9,1.6,12.6,4.6
		c2.2,1.8,3.5,3.9,3.6,6.7c0,1.7,0,3.5-0.2,5.2c-0.2,1.8-1.4,3-2.9,3.9c-1.4,0.9-3.1,0.6-4.3-0.6c-2.1-2-4.2-3.9-6.4-5.8
		c-1.1-1-2.5-1.4-4-1.3c-0.6,0-1.1,0.1-1.7,0c-2.1-0.2-3.6,0.6-5,2.2c-1.4,1.7-3.1,3-3.9,5.3C380.2,178.9,379.7,181.3,380,183.9z"/>
	<path class="st0" d="M76.6,189.8c0.6-5.5,1-11,1.8-16.4c0.7-5.1,1.6-10.1,2.5-15.1c1.1-6.2,2.4-12.4,3.6-18.6
		c0.8-4.2,2.1-8.3,2.3-12.7c0-0.8,0.2-1.6,0.5-2.3c0.4-1.2,1.2-1.9,2.5-1.9c2.6,0,5.3,0.1,7.9,0.1c0.7,0,1.4,0.2,2.1,0.2
		c5.9-0.1,11,2.2,15.8,5.4c3.2,2.1,4.5,5.5,5.1,9.1c0.5,3.5-0.3,6.7-2.6,9.4c-2.7,3.1-5.3,6.4-9,8.5c-2.4,1.3-4.9,2.2-7.7,2.5
		c-1.6,0.2-3.2,0.3-4.8,0.6c-3.4,0.6-5.2,2.4-5.7,5.8c-0.9,7.5-2.7,14.8-4.6,22c-0.7,2.8-1.7,5.5-2.8,8.1c-0.6,1.4-1.6,2.7-2.7,3.8
		c-1.2,1.3-2.5,1-3.1-0.7c-0.3-1-0.5-2-0.6-3c-0.1-1.6,0-3.2,0-4.8C76.9,189.8,76.8,189.8,76.6,189.8z M101.9,150.8
		c2.9-0.4,5.5-1.7,7-4.9c1.1-2.4,0.2-6-1.7-7.1c-2.9-1.7-6-2.1-9.2-0.8c-0.9,0.4-1.4,1-1.5,2c-0.2,1.6-0.3,3.3-0.4,4.9
		C95.6,148.5,97.8,150.9,101.9,150.8z"/>
	<path class="st0" d="M164.2,154.7c-0.1,1.8-0.5,4.9-1.9,7.9c-0.5,1.2-1.2,2.1-2.3,2.9c-2,1.4-3.9,2.8-5.6,4.5
		c-1.6,1.5-1.7,3.5-0.7,5.4c1.2,2.2,1.9,4.5,2.1,7c0.3,3.7,0.6,7.3,0.8,11c0.1,2.2-0.3,4.3-1.7,6.1c-1.2,1.6-2.5,2-4.1,0.9
		c-1.1-0.8-2.1-1.8-2.6-3c-1.5-3.1-2.5-6.3-2.8-9.8c-0.3-3.4-1-6.8-1.8-10.1c-0.4-1.8-1.5-3.5-3-4.8c-1.9-1.7-3.1-1.7-5,0
		c-3.1,2.9-5.3,6.4-6.5,10.5c-0.6,2-1,4-1.5,6c-0.7,2.9-1.5,5.7-3.8,7.8c-0.4,0.3-0.7,0.7-1.1,0.9c-1.6,1-3.1,0.3-3.3-1.6
		c-0.3-2.6,0.1-5.1,0.9-7.5c2.3-6.7,4.6-13.4,7-20.1c1.2-3.5,2.6-7,3.8-10.6c1.4-4.2,2.7-8.4,3.8-12.6c0.7-2.5,2.4-4.1,3.9-5.9
		c0.5-0.5,1.4-0.9,2.1-1c4.3-0.5,8.6-0.2,12.8,1.2c3.2,1.1,5.9,2.8,8.2,5.3C163.8,147.5,164.4,150.3,164.2,154.7z M147.3,160.6
		c0.9-0.2,2.7-0.6,4.3-1.2c1.5-0.5,2.2-2.3,1.3-3.8c-0.9-1.6-1.9-3.2-3.2-4.5c-1.8-1.8-4.8-1.8-5.8,0.7c-0.5,1.2-1.1,2.3-1.6,3.4
		C141,158.7,144,160.7,147.3,160.6z"/>
	<path class="st0" d="M313,439.2c0.4-7,0.7-13.7,1.2-20.4c0.5-6.7,1.3-13.4,1.9-20c0.4-4.4,1-8.7,1.4-13.1c0.3-3.5,2.1-6.3,4-9.1
		c1-1.4,3.5-1.7,5.3-0.7c4.3,2.4,6.8,5.9,6.8,11c0,3.6,0.2,7.2,0.1,10.7c0,7.2-0.4,14.4-1.9,21.4c-1.3,6.2-2.1,12.4-3.4,18.6
		c-0.7,3.4-1.4,6.9-2.7,10.2c-1.5,3.6-4,6.6-8.5,6.8c-1.9,0.1-2.5-0.3-3.1-2.2C312.7,448,313,443.4,313,439.2z"/>
	<path class="st0" d="M177.3,177.6c0.2-7.9,2.6-15.4,6.8-22.4c1.1-1.8,2.2-3.7,3.2-5.6c1.7-3.6,4.5-5.9,8.1-7.5
		c5.5-2.4,10.5-1.6,15.3,1.8c0.5,0.3,0.9,0.6,1.4,0.9c6,2.6,9.8,7,10.9,13.5c0.6,3.6,1.3,7.2,1.8,10.8c0.3,2.3,0,4.5-1.1,6.5
		c-2.6,4.9-4.9,10.1-8.4,14.4c-2.7,3.3-5.8,6.2-9.5,8.3c-0.8,0.4-1.6,0.8-2.5,0.9c-8,0.8-15-1.4-20.9-6.9c-3.4-3.2-4.9-7.4-5.2-12
		C177.2,179.4,177.3,178.6,177.3,177.6z M186.5,172.2c-0.1,2.4,0.5,4.8,2.1,6.8c1.7,2.1,3.8,3.9,6.3,5c6.5,3.1,12.7-0.5,14.9-5.7
		c1-2.4,1.7-4.9,2.4-7.5c1-3.8-1.5-8.9-4.8-10.3c-0.8-0.3-1.5-1-2.2-1.4c-0.9-0.5-1.7-1.1-2.7-1.4c-1.1-0.3-2.4-0.5-3.5-0.6
		c-0.8-0.1-1.6-0.1-2.3,0.2C191.2,159.7,186.2,166.5,186.5,172.2z"/>
	<path class="st0" d="M310.5,266.8c2.1,0.3,3.7,0.8,4.9,2.2c1.3,1.5,1.6,3.1,0.7,4.9c-0.9,1.9-2.3,3.2-4.5,3.4c-0.2,0-0.3,0-0.5,0
		c-4.2-0.7-4.3-1.2-3.3-4.9c0.3-1.2,0.9-2.4,1.4-3.5C309.5,268.2,310,267.6,310.5,266.8z"/>
	<path class="st0" d="M366.9,281.4c2.4,1.1,3.7,2.5,4,4.8c0.4,2.8,1,5.7,1.4,8.5c0.1,0.8,0,1.8-0.3,2.6c-0.5,1.7-1.2,2.3-3,2.1
		c-2.1-0.2-4.1-0.5-6.1-1c-1.6-0.4-2.1-0.9-1.8-2.6c0.4-2.5,0.9-5,1.8-7.4c0.9-2.2,2.3-4.2,3.5-6.3
		C366.6,281.9,366.7,281.6,366.9,281.4z"/>
	<path class="st0" d="M381.1,430c-0.8,0-1.6,0-2.4,0c-2.5-0.1-3.3-0.8-3.5-3.3c-0.1-1.1,0-2.2,0.2-3.3c1-5.3,1.4-10.6,1.4-16
		c0.1-3.7,0.4-7.3,0.7-11c0.1-1.2,1.4-2.2,3-2.2c0.7,0,1.4,0.1,2.1,0.3c3.3,1,6.6,1.9,9.7,3.3c5.6,2.6,9.3,6.5,9.8,13.3
		c0.3,3.9-0.5,7.3-2.6,10.4c-1.1,1.6-2.7,2.9-4.4,4C390.9,428.2,386.4,430.4,381.1,430z"/>
	<path class="st0" d="M99.7,146.5c0.4-1.7,0.7-3.2,1.1-4.8c0.1-0.4,0.3-0.8,0.6-1c0.7-0.5,2.6-0.1,3.6,0.7c0.9,0.7,1,1.7,0.4,2.8
		C104.3,146.3,102.6,147.1,99.7,146.5z"/>
	<path class="st0" d="M147.7,154.3c0.4,0.6,0.8,1.3,1.3,2.2c-0.9,0.2-1.6,0.4-2.7,0.7c0.3-1.2,0.5-2,0.7-2.7
		C147.3,154.3,147.5,154.3,147.7,154.3z"/>
	<path class="st0" d="M190.8,172.2c0.3-1.1,0.4-2.5,1-3.7c0.9-1.8,1.9-3.5,3.1-5.1c1.3-1.7,3.2-2.6,5.5-2c0.8,0.2,1.6,0.4,2.3,0.7
		c4.9,2.2,5.7,3.8,4.5,9c-0.5,2.1-1.2,4.1-2.2,6c-1.5,3-4.1,4.3-7,3.9c-3.2-0.4-5.9-2.8-6.6-5.8
		C191.2,174.3,191.1,173.3,190.8,172.2z"/>
</g>
</svg>
